<?xml version="1.0" encoding="utf-8" standalone="no"?>
<!DOCTYPE svg PUBLIC "-//W3C//DTD SVG 1.1//EN"
  "http://www.w3.org/Graphics/SVG/1.1/DTD/svg11.dtd">
<!-- Created with matplotlib (http://matplotlib.org/) -->
<svg height="345pt" version="1.1" viewBox="0 0 460 345" width="460pt" xmlns="http://www.w3.org/2000/svg" xmlns:xlink="http://www.w3.org/1999/xlink">
 <defs>
  <style type="text/css">
*{stroke-linecap:butt;stroke-linejoin:round;}
  </style>
 </defs>
 <g id="figure_1">
  <g id="patch_1">
   <path d="M 0 345.6 
L 460.8 345.6 
L 460.8 0 
L 0 0 
z
" style="fill:#ffffff;"/>
  </g>
  <g id="axes_1">
   <g id="patch_2">
    <path d="M 57.6 307.584 
L 414.72 307.584 
L 414.72 41.472 
L 57.6 41.472 
z
" style="fill:#ffffff;"/>
   </g>
   <g id="PolyCollection_1">
    <path clip-path="url(#p067910f5d9)" d="M 73.832727 53.576077 
L 73.832727 117.330824 
L 76.237576 117.322747 
L 78.642424 131.33478 
L 81.047273 149.9071 
L 83.452121 149.945863 
L 85.85697 147.788507 
L 88.261818 149.652045 
L 90.666667 153.821358 
L 93.071515 160.385388 
L 95.476364 162.487564 
L 97.881212 169.826119 
L 100.286061 173.118711 
L 102.690909 176.800079 
L 105.095758 178.812747 
L 107.500606 179.332394 
L 109.905455 180.303871 
L 112.310303 181.40475 
L 114.715152 182.019073 
L 117.12 182.791682 
L 119.524848 182.905803 
L 121.929697 183.158215 
L 124.334545 184.792086 
L 126.739394 184.911306 
L 129.144242 184.130163 
L 131.549091 183.132578 
L 133.953939 182.815547 
L 136.358788 182.230227 
L 138.763636 182.032069 
L 141.168485 183.013535 
L 143.573333 184.4946 
L 145.978182 185.367027 
L 148.38303 186.348054 
L 150.787879 186.088184 
L 153.192727 186.012274 
L 155.597576 185.485485 
L 158.002424 185.072265 
L 160.407273 184.428364 
L 162.812121 183.53142 
L 165.21697 181.656311 
L 167.621818 180.384556 
L 170.026667 181.284756 
L 172.431515 179.090515 
L 174.836364 179.307847 
L 177.241212 179.302794 
L 179.646061 179.144596 
L 182.050909 179.491151 
L 184.455758 180.361005 
L 186.860606 180.785113 
L 189.265455 181.015371 
L 191.670303 182.059137 
L 194.075152 184.015884 
L 196.48 184.666167 
L 198.884848 184.532896 
L 201.289697 185.119259 
L 203.694545 184.366048 
L 206.099394 184.08327 
L 208.504242 184.487675 
L 210.909091 184.733501 
L 213.313939 184.611711 
L 215.718788 184.856388 
L 218.123636 185.562895 
L 220.528485 185.864636 
L 222.933333 185.996247 
L 225.338182 185.994071 
L 227.74303 186.651531 
L 230.147879 186.426824 
L 232.552727 186.858016 
L 234.957576 186.507953 
L 237.362424 186.617558 
L 239.767273 186.68835 
L 242.172121 186.83743 
L 244.57697 186.82162 
L 246.981818 186.642581 
L 249.386667 186.617137 
L 251.791515 186.822305 
L 254.196364 186.897698 
L 256.601212 186.934448 
L 259.006061 186.667328 
L 261.410909 186.786347 
L 263.815758 187.076394 
L 266.220606 187.046805 
L 268.625455 186.863999 
L 271.030303 186.841049 
L 273.435152 186.869668 
L 275.84 186.911873 
L 278.244848 187.022075 
L 280.649697 187.126251 
L 283.054545 187.10377 
L 285.459394 187.133544 
L 287.864242 187.151186 
L 290.269091 187.119726 
L 292.673939 187.178262 
L 295.078788 187.174118 
L 297.483636 187.148794 
L 299.888485 187.181162 
L 302.293333 187.354295 
L 304.698182 187.412512 
L 307.10303 187.467946 
L 309.507879 188.008704 
L 311.912727 188.574117 
L 314.317576 190.577294 
L 316.722424 190.793405 
L 319.127273 190.554897 
L 321.532121 193.708745 
L 323.93697 201.648701 
L 326.341818 210.723214 
L 328.746667 229.70136 
L 331.151515 235.065926 
L 333.556364 244.022834 
L 335.961212 245.336707 
L 338.366061 251.458281 
L 340.770909 256.169879 
L 343.175758 260.895144 
L 345.580606 261.070269 
L 347.985455 262.355057 
L 350.390303 262.179504 
L 352.795152 260.949027 
L 355.2 258.767255 
L 357.604848 257.478248 
L 360.009697 256.288724 
L 362.414545 256.255138 
L 364.819394 253.340986 
L 367.224242 251.675837 
L 369.629091 251.557861 
L 372.033939 251.810463 
L 374.438788 253.808703 
L 376.843636 254.456832 
L 379.248485 254.169162 
L 381.653333 257.199838 
L 384.058182 266.661505 
L 386.46303 276.472771 
L 388.867879 281.450217 
L 391.272727 286.866597 
L 393.677576 288.98497 
L 396.082424 295.261308 
L 398.487273 295.269385 
L 398.487273 288.468166 
L 398.487273 288.468166 
L 396.082424 288.460089 
L 393.677576 280.39334 
L 391.272727 271.629339 
L 388.867879 260.439255 
L 386.46303 251.32339 
L 384.058182 242.332931 
L 381.653333 235.575444 
L 379.248485 233.260968 
L 376.843636 231.321836 
L 374.438788 229.277082 
L 372.033939 221.613688 
L 369.629091 220.08154 
L 367.224242 217.529611 
L 364.819394 213.362539 
L 362.414545 211.990624 
L 360.009697 207.735647 
L 357.604848 200.077046 
L 355.2 197.695628 
L 352.795152 189.274522 
L 350.390303 189.180102 
L 347.985455 188.965934 
L 345.580606 188.139038 
L 343.175758 188.020508 
L 340.770909 187.411347 
L 338.366061 187.349317 
L 335.961212 187.276732 
L 333.556364 187.270299 
L 331.151515 187.253687 
L 328.746667 187.253579 
L 326.341818 187.211798 
L 323.93697 187.216901 
L 321.532121 187.137414 
L 319.127273 186.990283 
L 316.722424 186.92709 
L 314.317576 186.927183 
L 311.912727 186.830872 
L 309.507879 186.668306 
L 307.10303 186.575497 
L 304.698182 186.527935 
L 302.293333 186.479037 
L 299.888485 186.302435 
L 297.483636 186.086339 
L 295.078788 185.99081 
L 292.673939 185.963917 
L 290.269091 185.728483 
L 287.864242 185.505109 
L 285.459394 185.408932 
L 283.054545 185.329218 
L 280.649697 185.392529 
L 278.244848 185.280921 
L 275.84 184.913193 
L 273.435152 184.803626 
L 271.030303 184.575039 
L 268.625455 184.512576 
L 266.220606 183.728915 
L 263.815758 183.485012 
L 261.410909 183.107347 
L 259.006061 182.750967 
L 256.601212 182.42523 
L 254.196364 182.442696 
L 251.791515 182.315347 
L 249.386667 182.036307 
L 246.981818 181.778603 
L 244.57697 181.67023 
L 242.172121 181.664606 
L 239.767273 181.5439 
L 237.362424 181.303022 
L 234.957576 181.292886 
L 232.552727 181.060835 
L 230.147879 181.087768 
L 227.74303 180.715985 
L 225.338182 180.501264 
L 222.933333 180.227577 
L 220.528485 180.227606 
L 218.123636 179.910781 
L 215.718788 179.514336 
L 213.313939 179.239684 
L 210.909091 178.842636 
L 208.504242 178.585118 
L 206.099394 178.429617 
L 203.694545 178.270783 
L 201.289697 178.397732 
L 198.884848 179.344651 
L 196.48 179.614953 
L 194.075152 178.912081 
L 191.670303 177.828444 
L 189.265455 177.041363 
L 186.860606 176.706247 
L 184.455758 176.109778 
L 182.050909 175.014885 
L 179.646061 174.37629 
L 177.241212 174.393474 
L 174.836364 173.449637 
L 172.431515 173.118711 
L 170.026667 173.118711 
L 167.621818 171.97198 
L 165.21697 172.488626 
L 162.812121 173.235592 
L 160.407273 175.5521 
L 158.002424 177.026982 
L 155.597576 178.348404 
L 153.192727 179.422336 
L 150.787879 179.582553 
L 148.38303 180.097925 
L 145.978182 177.814229 
L 143.573333 176.077941 
L 141.168485 173.449048 
L 138.763636 173.118711 
L 136.358788 173.118711 
L 133.953939 173.22315 
L 131.549091 173.785202 
L 129.144242 175.793107 
L 126.739394 177.361989 
L 124.334545 177.208839 
L 121.929697 173.939634 
L 119.524848 173.403088 
L 117.12 173.118711 
L 114.715152 173.118711 
L 112.310303 172.964828 
L 109.905455 169.617235 
L 107.500606 166.426811 
L 105.095758 164.679197 
L 102.690909 157.506063 
L 100.286061 146.239224 
L 97.881212 133.988542 
L 95.476364 119.3401 
L 93.071515 115.554735 
L 90.666667 105.557351 
L 88.261818 101.136866 
L 85.85697 98.888121 
L 83.452121 101.899873 
L 81.047273 100.831175 
L 78.642424 73.067918 
L 76.237576 53.568 
L 73.832727 53.576077 
z
" style="fill:#008000;fill-opacity:0.4;"/>
   </g>
   <g id="matplotlib.axis_1">
    <g id="xtick_1">
     <g id="line2d_1">
      <defs>
       <path d="M 0 0 
L 0 3.5 
" id="m2b87df46c1" style="stroke:#000000;stroke-width:0.8;"/>
      </defs>
      <g>
       <use style="stroke:#000000;stroke-width:0.8;" x="73.832727" xlink:href="#m2b87df46c1" y="307.584"/>
      </g>
     </g>
     <g id="text_1">
      <!-- 0 -->
      <defs>
       <path d="M 31.78125 66.40625 
Q 24.171875 66.40625 20.328125 58.90625 
Q 16.5 51.421875 16.5 36.375 
Q 16.5 21.390625 20.328125 13.890625 
Q 24.171875 6.390625 31.78125 6.390625 
Q 39.453125 6.390625 43.28125 13.890625 
Q 47.125 21.390625 47.125 36.375 
Q 47.125 51.421875 43.28125 58.90625 
Q 39.453125 66.40625 31.78125 66.40625 
z
M 31.78125 74.21875 
Q 44.046875 74.21875 50.515625 64.515625 
Q 56.984375 54.828125 56.984375 36.375 
Q 56.984375 17.96875 50.515625 8.265625 
Q 44.046875 -1.421875 31.78125 -1.421875 
Q 19.53125 -1.421875 13.0625 8.265625 
Q 6.59375 17.96875 6.59375 36.375 
Q 6.59375 54.828125 13.0625 64.515625 
Q 19.53125 74.21875 31.78125 74.21875 
z
" id="DejaVuSans-30"/>
      </defs>
      <g transform="translate(70.651477 322.182437)scale(0.1 -0.1)">
       <use xlink:href="#DejaVuSans-30"/>
      </g>
     </g>
    </g>
    <g id="xtick_2">
     <g id="line2d_2">
      <g>
       <use style="stroke:#000000;stroke-width:0.8;" x="121.576043" xlink:href="#m2b87df46c1" y="307.584"/>
      </g>
     </g>
     <g id="text_2">
      <!-- 20000 -->
      <defs>
       <path d="M 19.1875 8.296875 
L 53.609375 8.296875 
L 53.609375 0 
L 7.328125 0 
L 7.328125 8.296875 
Q 12.9375 14.109375 22.625 23.890625 
Q 32.328125 33.6875 34.8125 36.53125 
Q 39.546875 41.84375 41.421875 45.53125 
Q 43.3125 49.21875 43.3125 52.78125 
Q 43.3125 58.59375 39.234375 62.25 
Q 35.15625 65.921875 28.609375 65.921875 
Q 23.96875 65.921875 18.8125 64.3125 
Q 13.671875 62.703125 7.8125 59.421875 
L 7.8125 69.390625 
Q 13.765625 71.78125 18.9375 73 
Q 24.125 74.21875 28.421875 74.21875 
Q 39.75 74.21875 46.484375 68.546875 
Q 53.21875 62.890625 53.21875 53.421875 
Q 53.21875 48.921875 51.53125 44.890625 
Q 49.859375 40.875 45.40625 35.40625 
Q 44.1875 33.984375 37.640625 27.21875 
Q 31.109375 20.453125 19.1875 8.296875 
z
" id="DejaVuSans-32"/>
      </defs>
      <g transform="translate(105.669793 322.182437)scale(0.1 -0.1)">
       <use xlink:href="#DejaVuSans-32"/>
       <use x="63.623047" xlink:href="#DejaVuSans-30"/>
       <use x="127.246094" xlink:href="#DejaVuSans-30"/>
       <use x="190.869141" xlink:href="#DejaVuSans-30"/>
       <use x="254.492188" xlink:href="#DejaVuSans-30"/>
      </g>
     </g>
    </g>
    <g id="xtick_3">
     <g id="line2d_3">
      <g>
       <use style="stroke:#000000;stroke-width:0.8;" x="169.319358" xlink:href="#m2b87df46c1" y="307.584"/>
      </g>
     </g>
     <g id="text_3">
      <!-- 40000 -->
      <defs>
       <path d="M 37.796875 64.3125 
L 12.890625 25.390625 
L 37.796875 25.390625 
z
M 35.203125 72.90625 
L 47.609375 72.90625 
L 47.609375 25.390625 
L 58.015625 25.390625 
L 58.015625 17.1875 
L 47.609375 17.1875 
L 47.609375 0 
L 37.796875 0 
L 37.796875 17.1875 
L 4.890625 17.1875 
L 4.890625 26.703125 
z
" id="DejaVuSans-34"/>
      </defs>
      <g transform="translate(153.413108 322.182437)scale(0.1 -0.1)">
       <use xlink:href="#DejaVuSans-34"/>
       <use x="63.623047" xlink:href="#DejaVuSans-30"/>
       <use x="127.246094" xlink:href="#DejaVuSans-30"/>
       <use x="190.869141" xlink:href="#DejaVuSans-30"/>
       <use x="254.492188" xlink:href="#DejaVuSans-30"/>
      </g>
     </g>
    </g>
    <g id="xtick_4">
     <g id="line2d_4">
      <g>
       <use style="stroke:#000000;stroke-width:0.8;" x="217.062674" xlink:href="#m2b87df46c1" y="307.584"/>
      </g>
     </g>
     <g id="text_4">
      <!-- 60000 -->
      <defs>
       <path d="M 33.015625 40.375 
Q 26.375 40.375 22.484375 35.828125 
Q 18.609375 31.296875 18.609375 23.390625 
Q 18.609375 15.53125 22.484375 10.953125 
Q 26.375 6.390625 33.015625 6.390625 
Q 39.65625 6.390625 43.53125 10.953125 
Q 47.40625 15.53125 47.40625 23.390625 
Q 47.40625 31.296875 43.53125 35.828125 
Q 39.65625 40.375 33.015625 40.375 
z
M 52.59375 71.296875 
L 52.59375 62.3125 
Q 48.875 64.0625 45.09375 64.984375 
Q 41.3125 65.921875 37.59375 65.921875 
Q 27.828125 65.921875 22.671875 59.328125 
Q 17.53125 52.734375 16.796875 39.40625 
Q 19.671875 43.65625 24.015625 45.921875 
Q 28.375 48.1875 33.59375 48.1875 
Q 44.578125 48.1875 50.953125 41.515625 
Q 57.328125 34.859375 57.328125 23.390625 
Q 57.328125 12.15625 50.6875 5.359375 
Q 44.046875 -1.421875 33.015625 -1.421875 
Q 20.359375 -1.421875 13.671875 8.265625 
Q 6.984375 17.96875 6.984375 36.375 
Q 6.984375 53.65625 15.1875 63.9375 
Q 23.390625 74.21875 37.203125 74.21875 
Q 40.921875 74.21875 44.703125 73.484375 
Q 48.484375 72.75 52.59375 71.296875 
z
" id="DejaVuSans-36"/>
      </defs>
      <g transform="translate(201.156424 322.182437)scale(0.1 -0.1)">
       <use xlink:href="#DejaVuSans-36"/>
       <use x="63.623047" xlink:href="#DejaVuSans-30"/>
       <use x="127.246094" xlink:href="#DejaVuSans-30"/>
       <use x="190.869141" xlink:href="#DejaVuSans-30"/>
       <use x="254.492188" xlink:href="#DejaVuSans-30"/>
      </g>
     </g>
    </g>
    <g id="xtick_5">
     <g id="line2d_5">
      <g>
       <use style="stroke:#000000;stroke-width:0.8;" x="264.805989" xlink:href="#m2b87df46c1" y="307.584"/>
      </g>
     </g>
     <g id="text_5">
      <!-- 80000 -->
      <defs>
       <path d="M 31.78125 34.625 
Q 24.75 34.625 20.71875 30.859375 
Q 16.703125 27.09375 16.703125 20.515625 
Q 16.703125 13.921875 20.71875 10.15625 
Q 24.75 6.390625 31.78125 6.390625 
Q 38.8125 6.390625 42.859375 10.171875 
Q 46.921875 13.96875 46.921875 20.515625 
Q 46.921875 27.09375 42.890625 30.859375 
Q 38.875 34.625 31.78125 34.625 
z
M 21.921875 38.8125 
Q 15.578125 40.375 12.03125 44.71875 
Q 8.5 49.078125 8.5 55.328125 
Q 8.5 64.0625 14.71875 69.140625 
Q 20.953125 74.21875 31.78125 74.21875 
Q 42.671875 74.21875 48.875 69.140625 
Q 55.078125 64.0625 55.078125 55.328125 
Q 55.078125 49.078125 51.53125 44.71875 
Q 48 40.375 41.703125 38.8125 
Q 48.828125 37.15625 52.796875 32.3125 
Q 56.78125 27.484375 56.78125 20.515625 
Q 56.78125 9.90625 50.3125 4.234375 
Q 43.84375 -1.421875 31.78125 -1.421875 
Q 19.734375 -1.421875 13.25 4.234375 
Q 6.78125 9.90625 6.78125 20.515625 
Q 6.78125 27.484375 10.78125 32.3125 
Q 14.796875 37.15625 21.921875 38.8125 
z
M 18.3125 54.390625 
Q 18.3125 48.734375 21.84375 45.5625 
Q 25.390625 42.390625 31.78125 42.390625 
Q 38.140625 42.390625 41.71875 45.5625 
Q 45.3125 48.734375 45.3125 54.390625 
Q 45.3125 60.0625 41.71875 63.234375 
Q 38.140625 66.40625 31.78125 66.40625 
Q 25.390625 66.40625 21.84375 63.234375 
Q 18.3125 60.0625 18.3125 54.390625 
z
" id="DejaVuSans-38"/>
      </defs>
      <g transform="translate(248.899739 322.182437)scale(0.1 -0.1)">
       <use xlink:href="#DejaVuSans-38"/>
       <use x="63.623047" xlink:href="#DejaVuSans-30"/>
       <use x="127.246094" xlink:href="#DejaVuSans-30"/>
       <use x="190.869141" xlink:href="#DejaVuSans-30"/>
       <use x="254.492188" xlink:href="#DejaVuSans-30"/>
      </g>
     </g>
    </g>
    <g id="xtick_6">
     <g id="line2d_6">
      <g>
       <use style="stroke:#000000;stroke-width:0.8;" x="312.549305" xlink:href="#m2b87df46c1" y="307.584"/>
      </g>
     </g>
     <g id="text_6">
      <!-- 100000 -->
      <defs>
       <path d="M 12.40625 8.296875 
L 28.515625 8.296875 
L 28.515625 63.921875 
L 10.984375 60.40625 
L 10.984375 69.390625 
L 28.421875 72.90625 
L 38.28125 72.90625 
L 38.28125 8.296875 
L 54.390625 8.296875 
L 54.390625 0 
L 12.40625 0 
z
" id="DejaVuSans-31"/>
      </defs>
      <g transform="translate(293.461805 322.182437)scale(0.1 -0.1)">
       <use xlink:href="#DejaVuSans-31"/>
       <use x="63.623047" xlink:href="#DejaVuSans-30"/>
       <use x="127.246094" xlink:href="#DejaVuSans-30"/>
       <use x="190.869141" xlink:href="#DejaVuSans-30"/>
       <use x="254.492188" xlink:href="#DejaVuSans-30"/>
       <use x="318.115234" xlink:href="#DejaVuSans-30"/>
      </g>
     </g>
    </g>
    <g id="xtick_7">
     <g id="line2d_7">
      <g>
       <use style="stroke:#000000;stroke-width:0.8;" x="360.29262" xlink:href="#m2b87df46c1" y="307.584"/>
      </g>
     </g>
     <g id="text_7">
      <!-- 120000 -->
      <g transform="translate(341.20512 322.182437)scale(0.1 -0.1)">
       <use xlink:href="#DejaVuSans-31"/>
       <use x="63.623047" xlink:href="#DejaVuSans-32"/>
       <use x="127.246094" xlink:href="#DejaVuSans-30"/>
       <use x="190.869141" xlink:href="#DejaVuSans-30"/>
       <use x="254.492188" xlink:href="#DejaVuSans-30"/>
       <use x="318.115234" xlink:href="#DejaVuSans-30"/>
      </g>
     </g>
    </g>
    <g id="xtick_8">
     <g id="line2d_8">
      <g>
       <use style="stroke:#000000;stroke-width:0.8;" x="408.035936" xlink:href="#m2b87df46c1" y="307.584"/>
      </g>
     </g>
     <g id="text_8">
      <!-- 140000 -->
      <g transform="translate(388.948436 322.182437)scale(0.1 -0.1)">
       <use xlink:href="#DejaVuSans-31"/>
       <use x="63.623047" xlink:href="#DejaVuSans-34"/>
       <use x="127.246094" xlink:href="#DejaVuSans-30"/>
       <use x="190.869141" xlink:href="#DejaVuSans-30"/>
       <use x="254.492188" xlink:href="#DejaVuSans-30"/>
       <use x="318.115234" xlink:href="#DejaVuSans-30"/>
      </g>
     </g>
    </g>
    <g id="text_9">
     <!--  Distance (km)   -->
     <defs>
      <path id="DejaVuSans-20"/>
      <path d="M 19.671875 64.796875 
L 19.671875 8.109375 
L 31.59375 8.109375 
Q 46.6875 8.109375 53.6875 14.9375 
Q 60.6875 21.78125 60.6875 36.53125 
Q 60.6875 51.171875 53.6875 57.984375 
Q 46.6875 64.796875 31.59375 64.796875 
z
M 9.8125 72.90625 
L 30.078125 72.90625 
Q 51.265625 72.90625 61.171875 64.09375 
Q 71.09375 55.28125 71.09375 36.53125 
Q 71.09375 17.671875 61.125 8.828125 
Q 51.171875 0 30.078125 0 
L 9.8125 0 
z
" id="DejaVuSans-44"/>
      <path d="M 9.421875 54.6875 
L 18.40625 54.6875 
L 18.40625 0 
L 9.421875 0 
z
M 9.421875 75.984375 
L 18.40625 75.984375 
L 18.40625 64.59375 
L 9.421875 64.59375 
z
" id="DejaVuSans-69"/>
      <path d="M 44.28125 53.078125 
L 44.28125 44.578125 
Q 40.484375 46.53125 36.375 47.5 
Q 32.28125 48.484375 27.875 48.484375 
Q 21.1875 48.484375 17.84375 46.4375 
Q 14.5 44.390625 14.5 40.28125 
Q 14.5 37.15625 16.890625 35.375 
Q 19.28125 33.59375 26.515625 31.984375 
L 29.59375 31.296875 
Q 39.15625 29.25 43.1875 25.515625 
Q 47.21875 21.78125 47.21875 15.09375 
Q 47.21875 7.46875 41.1875 3.015625 
Q 35.15625 -1.421875 24.609375 -1.421875 
Q 20.21875 -1.421875 15.453125 -0.5625 
Q 10.6875 0.296875 5.421875 2 
L 5.421875 11.28125 
Q 10.40625 8.6875 15.234375 7.390625 
Q 20.0625 6.109375 24.8125 6.109375 
Q 31.15625 6.109375 34.5625 8.28125 
Q 37.984375 10.453125 37.984375 14.40625 
Q 37.984375 18.0625 35.515625 20.015625 
Q 33.0625 21.96875 24.703125 23.78125 
L 21.578125 24.515625 
Q 13.234375 26.265625 9.515625 29.90625 
Q 5.8125 33.546875 5.8125 39.890625 
Q 5.8125 47.609375 11.28125 51.796875 
Q 16.75 56 26.8125 56 
Q 31.78125 56 36.171875 55.265625 
Q 40.578125 54.546875 44.28125 53.078125 
z
" id="DejaVuSans-73"/>
      <path d="M 18.3125 70.21875 
L 18.3125 54.6875 
L 36.8125 54.6875 
L 36.8125 47.703125 
L 18.3125 47.703125 
L 18.3125 18.015625 
Q 18.3125 11.328125 20.140625 9.421875 
Q 21.96875 7.515625 27.59375 7.515625 
L 36.8125 7.515625 
L 36.8125 0 
L 27.59375 0 
Q 17.1875 0 13.234375 3.875 
Q 9.28125 7.765625 9.28125 18.015625 
L 9.28125 47.703125 
L 2.6875 47.703125 
L 2.6875 54.6875 
L 9.28125 54.6875 
L 9.28125 70.21875 
z
" id="DejaVuSans-74"/>
      <path d="M 34.28125 27.484375 
Q 23.390625 27.484375 19.1875 25 
Q 14.984375 22.515625 14.984375 16.5 
Q 14.984375 11.71875 18.140625 8.90625 
Q 21.296875 6.109375 26.703125 6.109375 
Q 34.1875 6.109375 38.703125 11.40625 
Q 43.21875 16.703125 43.21875 25.484375 
L 43.21875 27.484375 
z
M 52.203125 31.203125 
L 52.203125 0 
L 43.21875 0 
L 43.21875 8.296875 
Q 40.140625 3.328125 35.546875 0.953125 
Q 30.953125 -1.421875 24.3125 -1.421875 
Q 15.921875 -1.421875 10.953125 3.296875 
Q 6 8.015625 6 15.921875 
Q 6 25.140625 12.171875 29.828125 
Q 18.359375 34.515625 30.609375 34.515625 
L 43.21875 34.515625 
L 43.21875 35.40625 
Q 43.21875 41.609375 39.140625 45 
Q 35.0625 48.390625 27.6875 48.390625 
Q 23 48.390625 18.546875 47.265625 
Q 14.109375 46.140625 10.015625 43.890625 
L 10.015625 52.203125 
Q 14.9375 54.109375 19.578125 55.046875 
Q 24.21875 56 28.609375 56 
Q 40.484375 56 46.34375 49.84375 
Q 52.203125 43.703125 52.203125 31.203125 
z
" id="DejaVuSans-61"/>
      <path d="M 54.890625 33.015625 
L 54.890625 0 
L 45.90625 0 
L 45.90625 32.71875 
Q 45.90625 40.484375 42.875 44.328125 
Q 39.84375 48.1875 33.796875 48.1875 
Q 26.515625 48.1875 22.3125 43.546875 
Q 18.109375 38.921875 18.109375 30.90625 
L 18.109375 0 
L 9.078125 0 
L 9.078125 54.6875 
L 18.109375 54.6875 
L 18.109375 46.1875 
Q 21.34375 51.125 25.703125 53.5625 
Q 30.078125 56 35.796875 56 
Q 45.21875 56 50.046875 50.171875 
Q 54.890625 44.34375 54.890625 33.015625 
z
" id="DejaVuSans-6e"/>
      <path d="M 48.78125 52.59375 
L 48.78125 44.1875 
Q 44.96875 46.296875 41.140625 47.34375 
Q 37.3125 48.390625 33.40625 48.390625 
Q 24.65625 48.390625 19.8125 42.84375 
Q 14.984375 37.3125 14.984375 27.296875 
Q 14.984375 17.28125 19.8125 11.734375 
Q 24.65625 6.203125 33.40625 6.203125 
Q 37.3125 6.203125 41.140625 7.25 
Q 44.96875 8.296875 48.78125 10.40625 
L 48.78125 2.09375 
Q 45.015625 0.34375 40.984375 -0.53125 
Q 36.96875 -1.421875 32.421875 -1.421875 
Q 20.0625 -1.421875 12.78125 6.34375 
Q 5.515625 14.109375 5.515625 27.296875 
Q 5.515625 40.671875 12.859375 48.328125 
Q 20.21875 56 33.015625 56 
Q 37.15625 56 41.109375 55.140625 
Q 45.0625 54.296875 48.78125 52.59375 
z
" id="DejaVuSans-63"/>
      <path d="M 56.203125 29.59375 
L 56.203125 25.203125 
L 14.890625 25.203125 
Q 15.484375 15.921875 20.484375 11.0625 
Q 25.484375 6.203125 34.421875 6.203125 
Q 39.59375 6.203125 44.453125 7.46875 
Q 49.3125 8.734375 54.109375 11.28125 
L 54.109375 2.78125 
Q 49.265625 0.734375 44.1875 -0.34375 
Q 39.109375 -1.421875 33.890625 -1.421875 
Q 20.796875 -1.421875 13.15625 6.1875 
Q 5.515625 13.8125 5.515625 26.8125 
Q 5.515625 40.234375 12.765625 48.109375 
Q 20.015625 56 32.328125 56 
Q 43.359375 56 49.78125 48.890625 
Q 56.203125 41.796875 56.203125 29.59375 
z
M 47.21875 32.234375 
Q 47.125 39.59375 43.09375 43.984375 
Q 39.0625 48.390625 32.421875 48.390625 
Q 24.90625 48.390625 20.390625 44.140625 
Q 15.875 39.890625 15.1875 32.171875 
z
" id="DejaVuSans-65"/>
      <path d="M 31 75.875 
Q 24.46875 64.65625 21.28125 53.65625 
Q 18.109375 42.671875 18.109375 31.390625 
Q 18.109375 20.125 21.3125 9.0625 
Q 24.515625 -2 31 -13.1875 
L 23.1875 -13.1875 
Q 15.875 -1.703125 12.234375 9.375 
Q 8.59375 20.453125 8.59375 31.390625 
Q 8.59375 42.28125 12.203125 53.3125 
Q 15.828125 64.359375 23.1875 75.875 
z
" id="DejaVuSans-28"/>
      <path d="M 9.078125 75.984375 
L 18.109375 75.984375 
L 18.109375 31.109375 
L 44.921875 54.6875 
L 56.390625 54.6875 
L 27.390625 29.109375 
L 57.625 0 
L 45.90625 0 
L 18.109375 26.703125 
L 18.109375 0 
L 9.078125 0 
z
" id="DejaVuSans-6b"/>
      <path d="M 52 44.1875 
Q 55.375 50.25 60.0625 53.125 
Q 64.75 56 71.09375 56 
Q 79.640625 56 84.28125 50.015625 
Q 88.921875 44.046875 88.921875 33.015625 
L 88.921875 0 
L 79.890625 0 
L 79.890625 32.71875 
Q 79.890625 40.578125 77.09375 44.375 
Q 74.3125 48.1875 68.609375 48.1875 
Q 61.625 48.1875 57.5625 43.546875 
Q 53.515625 38.921875 53.515625 30.90625 
L 53.515625 0 
L 44.484375 0 
L 44.484375 32.71875 
Q 44.484375 40.625 41.703125 44.40625 
Q 38.921875 48.1875 33.109375 48.1875 
Q 26.21875 48.1875 22.15625 43.53125 
Q 18.109375 38.875 18.109375 30.90625 
L 18.109375 0 
L 9.078125 0 
L 9.078125 54.6875 
L 18.109375 54.6875 
L 18.109375 46.1875 
Q 21.1875 51.21875 25.484375 53.609375 
Q 29.78125 56 35.6875 56 
Q 41.65625 56 45.828125 52.96875 
Q 50 49.953125 52 44.1875 
z
" id="DejaVuSans-6d"/>
      <path d="M 8.015625 75.875 
L 15.828125 75.875 
Q 23.140625 64.359375 26.78125 53.3125 
Q 30.421875 42.28125 30.421875 31.390625 
Q 30.421875 20.453125 26.78125 9.375 
Q 23.140625 -1.703125 15.828125 -13.1875 
L 8.015625 -13.1875 
Q 14.5 -2 17.703125 9.0625 
Q 20.90625 20.125 20.90625 31.390625 
Q 20.90625 42.671875 17.703125 53.65625 
Q 14.5 64.65625 8.015625 75.875 
z
" id="DejaVuSans-29"/>
     </defs>
     <g transform="translate(196.274062 335.860562)scale(0.1 -0.1)">
      <use xlink:href="#DejaVuSans-20"/>
      <use x="31.787109" xlink:href="#DejaVuSans-44"/>
      <use x="108.789062" xlink:href="#DejaVuSans-69"/>
      <use x="136.572266" xlink:href="#DejaVuSans-73"/>
      <use x="188.671875" xlink:href="#DejaVuSans-74"/>
      <use x="227.880859" xlink:href="#DejaVuSans-61"/>
      <use x="289.160156" xlink:href="#DejaVuSans-6e"/>
      <use x="352.539062" xlink:href="#DejaVuSans-63"/>
      <use x="407.519531" xlink:href="#DejaVuSans-65"/>
      <use x="469.042969" xlink:href="#DejaVuSans-20"/>
      <use x="500.830078" xlink:href="#DejaVuSans-28"/>
      <use x="539.84375" xlink:href="#DejaVuSans-6b"/>
      <use x="597.753906" xlink:href="#DejaVuSans-6d"/>
      <use x="695.166016" xlink:href="#DejaVuSans-29"/>
      <use x="734.179688" xlink:href="#DejaVuSans-20"/>
      <use x="765.966797" xlink:href="#DejaVuSans-20"/>
     </g>
    </g>
   </g>
   <g id="matplotlib.axis_2">
    <g id="ytick_1">
     <g id="line2d_9">
      <defs>
       <path d="M 0 0 
L -3.5 0 
" id="m7b38e73acb" style="stroke:#000000;stroke-width:0.8;"/>
      </defs>
      <g>
       <use style="stroke:#000000;stroke-width:0.8;" x="57.6" xlink:href="#m7b38e73acb" y="294.269709"/>
      </g>
     </g>
     <g id="text_10">
      <!-- −1500 -->
      <defs>
       <path d="M 10.59375 35.5 
L 73.1875 35.5 
L 73.1875 27.203125 
L 10.59375 27.203125 
z
" id="DejaVuSans-2212"/>
       <path d="M 10.796875 72.90625 
L 49.515625 72.90625 
L 49.515625 64.59375 
L 19.828125 64.59375 
L 19.828125 46.734375 
Q 21.96875 47.46875 24.109375 47.828125 
Q 26.265625 48.1875 28.421875 48.1875 
Q 40.625 48.1875 47.75 41.5 
Q 54.890625 34.8125 54.890625 23.390625 
Q 54.890625 11.625 47.5625 5.09375 
Q 40.234375 -1.421875 26.90625 -1.421875 
Q 22.3125 -1.421875 17.546875 -0.640625 
Q 12.796875 0.140625 7.71875 1.703125 
L 7.71875 11.625 
Q 12.109375 9.234375 16.796875 8.0625 
Q 21.484375 6.890625 26.703125 6.890625 
Q 35.15625 6.890625 40.078125 11.328125 
Q 45.015625 15.765625 45.015625 23.390625 
Q 45.015625 31 40.078125 35.4375 
Q 35.15625 39.890625 26.703125 39.890625 
Q 22.75 39.890625 18.8125 39.015625 
Q 14.890625 38.140625 10.796875 36.28125 
z
" id="DejaVuSans-35"/>
      </defs>
      <g transform="translate(16.770313 298.068928)scale(0.1 -0.1)">
       <use xlink:href="#DejaVuSans-2212"/>
       <use x="83.789062" xlink:href="#DejaVuSans-31"/>
       <use x="147.412109" xlink:href="#DejaVuSans-35"/>
       <use x="211.035156" xlink:href="#DejaVuSans-30"/>
       <use x="274.658203" xlink:href="#DejaVuSans-30"/>
      </g>
     </g>
    </g>
    <g id="ytick_2">
     <g id="line2d_10">
      <g>
       <use style="stroke:#000000;stroke-width:0.8;" x="57.6" xlink:href="#m7b38e73acb" y="253.886043"/>
      </g>
     </g>
     <g id="text_11">
      <!-- −1000 -->
      <g transform="translate(16.770313 257.685262)scale(0.1 -0.1)">
       <use xlink:href="#DejaVuSans-2212"/>
       <use x="83.789062" xlink:href="#DejaVuSans-31"/>
       <use x="147.412109" xlink:href="#DejaVuSans-30"/>
       <use x="211.035156" xlink:href="#DejaVuSans-30"/>
       <use x="274.658203" xlink:href="#DejaVuSans-30"/>
      </g>
     </g>
    </g>
    <g id="ytick_3">
     <g id="line2d_11">
      <g>
       <use style="stroke:#000000;stroke-width:0.8;" x="57.6" xlink:href="#m7b38e73acb" y="213.502377"/>
      </g>
     </g>
     <g id="text_12">
      <!-- −500 -->
      <g transform="translate(23.132812 217.301596)scale(0.1 -0.1)">
       <use xlink:href="#DejaVuSans-2212"/>
       <use x="83.789062" xlink:href="#DejaVuSans-35"/>
       <use x="147.412109" xlink:href="#DejaVuSans-30"/>
       <use x="211.035156" xlink:href="#DejaVuSans-30"/>
      </g>
     </g>
    </g>
    <g id="ytick_4">
     <g id="line2d_12">
      <g>
       <use style="stroke:#000000;stroke-width:0.8;" x="57.6" xlink:href="#m7b38e73acb" y="173.118711"/>
      </g>
     </g>
     <g id="text_13">
      <!-- 0 -->
      <g transform="translate(44.2375 176.91793)scale(0.1 -0.1)">
       <use xlink:href="#DejaVuSans-30"/>
      </g>
     </g>
    </g>
    <g id="ytick_5">
     <g id="line2d_13">
      <g>
       <use style="stroke:#000000;stroke-width:0.8;" x="57.6" xlink:href="#m7b38e73acb" y="132.735045"/>
      </g>
     </g>
     <g id="text_14">
      <!-- 500 -->
      <g transform="translate(31.5125 136.534264)scale(0.1 -0.1)">
       <use xlink:href="#DejaVuSans-35"/>
       <use x="63.623047" xlink:href="#DejaVuSans-30"/>
       <use x="127.246094" xlink:href="#DejaVuSans-30"/>
      </g>
     </g>
    </g>
    <g id="ytick_6">
     <g id="line2d_14">
      <g>
       <use style="stroke:#000000;stroke-width:0.8;" x="57.6" xlink:href="#m7b38e73acb" y="92.351379"/>
      </g>
     </g>
     <g id="text_15">
      <!-- 1000 -->
      <g transform="translate(25.15 96.150598)scale(0.1 -0.1)">
       <use xlink:href="#DejaVuSans-31"/>
       <use x="63.623047" xlink:href="#DejaVuSans-30"/>
       <use x="127.246094" xlink:href="#DejaVuSans-30"/>
       <use x="190.869141" xlink:href="#DejaVuSans-30"/>
      </g>
     </g>
    </g>
    <g id="ytick_7">
     <g id="line2d_15">
      <g>
       <use style="stroke:#000000;stroke-width:0.8;" x="57.6" xlink:href="#m7b38e73acb" y="51.967714"/>
      </g>
     </g>
     <g id="text_16">
      <!-- 1500 -->
      <g transform="translate(25.15 55.766932)scale(0.1 -0.1)">
       <use xlink:href="#DejaVuSans-31"/>
       <use x="63.623047" xlink:href="#DejaVuSans-35"/>
       <use x="127.246094" xlink:href="#DejaVuSans-30"/>
       <use x="190.869141" xlink:href="#DejaVuSans-30"/>
      </g>
     </g>
    </g>
    <g id="text_17">
     <!--  Height in meters -->
     <defs>
      <path d="M 9.8125 72.90625 
L 19.671875 72.90625 
L 19.671875 43.015625 
L 55.515625 43.015625 
L 55.515625 72.90625 
L 65.375 72.90625 
L 65.375 0 
L 55.515625 0 
L 55.515625 34.71875 
L 19.671875 34.71875 
L 19.671875 0 
L 9.8125 0 
z
" id="DejaVuSans-48"/>
      <path d="M 45.40625 27.984375 
Q 45.40625 37.75 41.375 43.109375 
Q 37.359375 48.484375 30.078125 48.484375 
Q 22.859375 48.484375 18.828125 43.109375 
Q 14.796875 37.75 14.796875 27.984375 
Q 14.796875 18.265625 18.828125 12.890625 
Q 22.859375 7.515625 30.078125 7.515625 
Q 37.359375 7.515625 41.375 12.890625 
Q 45.40625 18.265625 45.40625 27.984375 
z
M 54.390625 6.78125 
Q 54.390625 -7.171875 48.1875 -13.984375 
Q 42 -20.796875 29.203125 -20.796875 
Q 24.46875 -20.796875 20.265625 -20.09375 
Q 16.0625 -19.390625 12.109375 -17.921875 
L 12.109375 -9.1875 
Q 16.0625 -11.328125 19.921875 -12.34375 
Q 23.78125 -13.375 27.78125 -13.375 
Q 36.625 -13.375 41.015625 -8.765625 
Q 45.40625 -4.15625 45.40625 5.171875 
L 45.40625 9.625 
Q 42.625 4.78125 38.28125 2.390625 
Q 33.9375 0 27.875 0 
Q 17.828125 0 11.671875 7.65625 
Q 5.515625 15.328125 5.515625 27.984375 
Q 5.515625 40.671875 11.671875 48.328125 
Q 17.828125 56 27.875 56 
Q 33.9375 56 38.28125 53.609375 
Q 42.625 51.21875 45.40625 46.390625 
L 45.40625 54.6875 
L 54.390625 54.6875 
z
" id="DejaVuSans-67"/>
      <path d="M 54.890625 33.015625 
L 54.890625 0 
L 45.90625 0 
L 45.90625 32.71875 
Q 45.90625 40.484375 42.875 44.328125 
Q 39.84375 48.1875 33.796875 48.1875 
Q 26.515625 48.1875 22.3125 43.546875 
Q 18.109375 38.921875 18.109375 30.90625 
L 18.109375 0 
L 9.078125 0 
L 9.078125 75.984375 
L 18.109375 75.984375 
L 18.109375 46.1875 
Q 21.34375 51.125 25.703125 53.5625 
Q 30.078125 56 35.796875 56 
Q 45.21875 56 50.046875 50.171875 
Q 54.890625 44.34375 54.890625 33.015625 
z
" id="DejaVuSans-68"/>
      <path d="M 41.109375 46.296875 
Q 39.59375 47.171875 37.8125 47.578125 
Q 36.03125 48 33.890625 48 
Q 26.265625 48 22.1875 43.046875 
Q 18.109375 38.09375 18.109375 28.8125 
L 18.109375 0 
L 9.078125 0 
L 9.078125 54.6875 
L 18.109375 54.6875 
L 18.109375 46.1875 
Q 20.953125 51.171875 25.484375 53.578125 
Q 30.03125 56 36.53125 56 
Q 37.453125 56 38.578125 55.875 
Q 39.703125 55.765625 41.0625 55.515625 
z
" id="DejaVuSans-72"/>
     </defs>
     <g transform="translate(10.690625 218.025656)rotate(-90)scale(0.1 -0.1)">
      <use xlink:href="#DejaVuSans-20"/>
      <use x="31.787109" xlink:href="#DejaVuSans-48"/>
      <use x="106.982422" xlink:href="#DejaVuSans-65"/>
      <use x="168.505859" xlink:href="#DejaVuSans-69"/>
      <use x="196.289062" xlink:href="#DejaVuSans-67"/>
      <use x="259.765625" xlink:href="#DejaVuSans-68"/>
      <use x="323.144531" xlink:href="#DejaVuSans-74"/>
      <use x="362.353516" xlink:href="#DejaVuSans-20"/>
      <use x="394.140625" xlink:href="#DejaVuSans-69"/>
      <use x="421.923828" xlink:href="#DejaVuSans-6e"/>
      <use x="485.302734" xlink:href="#DejaVuSans-20"/>
      <use x="517.089844" xlink:href="#DejaVuSans-6d"/>
      <use x="614.501953" xlink:href="#DejaVuSans-65"/>
      <use x="676.025391" xlink:href="#DejaVuSans-74"/>
      <use x="715.234375" xlink:href="#DejaVuSans-65"/>
      <use x="776.757812" xlink:href="#DejaVuSans-72"/>
      <use x="817.871094" xlink:href="#DejaVuSans-73"/>
     </g>
    </g>
   </g>
   <g id="line2d_16">
    <path clip-path="url(#p067910f5d9)" d="M 73.832727 125.986136 
L 76.237576 125.92315 
L 78.642424 139.0628 
L 81.047273 155.566402 
L 83.452121 155.599899 
L 85.85697 153.407039 
L 88.261818 155.067099 
L 90.666667 158.381921 
L 93.071515 164.621465 
L 95.476364 166.633665 
L 97.881212 172.807048 
L 102.690909 179.428613 
L 105.095758 180.361286 
L 107.500606 180.931832 
L 112.310303 183.044335 
L 114.715152 183.422935 
L 117.12 184.08054 
L 119.524848 183.872671 
L 121.929697 184.541508 
L 124.334545 185.697792 
L 126.739394 185.932661 
L 129.144242 185.705744 
L 131.549091 184.357748 
L 136.358788 183.681938 
L 138.763636 183.138495 
L 141.168485 184.396488 
L 148.38303 186.830525 
L 150.787879 186.460099 
L 153.192727 186.506086 
L 155.597576 186.313564 
L 160.407273 185.291466 
L 162.812121 184.462173 
L 165.21697 182.995033 
L 167.621818 182.358454 
L 170.026667 182.856834 
L 172.431515 180.679272 
L 174.836364 180.514132 
L 177.241212 180.046342 
L 179.646061 180.079534 
L 182.050909 179.921872 
L 186.860606 180.573183 
L 189.265455 180.763392 
L 191.670303 181.914031 
L 194.075152 183.762238 
L 196.48 183.588731 
L 198.884848 183.239937 
L 201.289697 181.727123 
L 203.694545 181.949092 
L 206.099394 181.199559 
L 208.504242 181.316688 
L 210.909091 180.88545 
L 213.313939 181.498154 
L 215.718788 181.567308 
L 218.123636 181.947131 
L 220.528485 181.992382 
L 222.933333 182.920162 
L 225.338182 183.518698 
L 227.74303 184.818366 
L 234.957576 185.751147 
L 237.362424 185.439722 
L 244.57697 186.735714 
L 246.981818 186.819792 
L 249.386667 186.648362 
L 251.791515 186.966697 
L 254.196364 186.953817 
L 256.601212 187.167546 
L 259.006061 187.222883 
L 261.410909 186.890838 
L 263.815758 187.378986 
L 266.220606 187.353427 
L 268.625455 186.719253 
L 271.030303 186.98416 
L 275.84 186.516659 
L 278.244848 186.731088 
L 280.649697 187.254929 
L 283.054545 187.08161 
L 287.864242 186.461894 
L 290.269091 186.58223 
L 292.673939 186.585213 
L 295.078788 186.912006 
L 297.483636 186.242066 
L 299.888485 186.399296 
L 302.293333 186.823199 
L 304.698182 186.918459 
L 307.10303 187.156422 
L 316.722424 187.160699 
L 319.127273 187.053961 
L 321.532121 187.07056 
L 323.93697 187.589905 
L 326.341818 187.339499 
L 328.746667 187.526696 
L 331.151515 187.157118 
L 333.556364 187.025001 
L 335.961212 187.121783 
L 338.366061 187.366818 
L 340.770909 187.433744 
L 343.175758 191.560785 
L 345.580606 192.90528 
L 347.985455 200.355614 
L 350.390303 202.844779 
L 352.795152 210.230129 
L 355.2 231.489592 
L 360.009697 253.981688 
L 362.414545 254.822175 
L 364.819394 253.242824 
L 367.224242 251.337035 
L 369.629091 251.755176 
L 372.033939 251.968232 
L 374.438788 253.722718 
L 376.843636 254.667011 
L 379.248485 254.255994 
L 381.653333 257.126175 
L 384.058182 266.587102 
L 386.46303 276.851119 
L 391.272727 286.686 
L 393.677576 288.933447 
L 396.082424 295.253337 
L 398.487273 295.488 
L 398.487273 295.488 
" style="fill:none;stroke:#1f77b4;stroke-linecap:square;stroke-width:1.5;"/>
   </g>
   <g id="line2d_17">
    <path clip-path="url(#p067910f5d9)" d="M 73.832727 89.141769 
L 76.237576 89.134029 
L 78.642424 105.823739 
L 81.047273 128.340715 
L 83.452121 128.672 
L 85.85697 126.09945 
L 88.261818 128.26938 
L 90.666667 133.09892 
L 93.071515 141.64204 
L 95.476364 144.582191 
L 97.881212 155.588357 
L 100.286061 163.455776 
L 102.690909 170.22412 
L 105.095758 173.755535 
L 107.500606 174.6492 
L 112.310303 177.962947 
L 117.12 179.633068 
L 119.524848 179.754131 
L 121.929697 180.044144 
L 124.334545 181.928917 
L 126.739394 182.048235 
L 129.144242 181.17404 
L 131.549091 180.030206 
L 133.953939 179.686578 
L 136.358788 179.030561 
L 138.763636 178.633769 
L 141.168485 179.910994 
L 143.573333 181.702015 
L 145.978182 182.850309 
L 148.38303 184.195322 
L 150.787879 183.878186 
L 153.192727 183.782641 
L 158.002424 182.20645 
L 160.407273 181.271705 
L 162.812121 179.903462 
L 165.21697 177.529258 
L 167.621818 176.493759 
L 170.026667 177.918281 
L 172.431515 176.613634 
L 177.241212 177.333898 
L 179.646061 177.287885 
L 182.050909 177.747571 
L 184.455758 178.604478 
L 186.860606 178.985623 
L 189.265455 179.244303 
L 191.670303 180.053214 
L 194.075152 181.519143 
L 196.48 182.206965 
L 198.884848 182.089232 
L 208.504242 180.958996 
L 210.909091 181.085211 
L 215.718788 181.793683 
L 218.123636 182.415269 
L 220.528485 182.759975 
L 222.933333 182.726107 
L 225.338182 183.105676 
L 227.74303 183.716236 
L 232.552727 184.10677 
L 244.57697 184.312499 
L 249.386667 184.302303 
L 254.196364 184.362124 
L 256.601212 184.362248 
L 259.006061 184.529925 
L 263.815758 185.113078 
L 266.220606 185.12985 
L 268.625455 185.415193 
L 273.435152 185.567551 
L 275.84 185.630062 
L 280.649697 186.035373 
L 307.10303 186.542515 
L 311.912727 186.804276 
L 314.317576 187.233232 
L 319.127273 187.28599 
L 321.532121 187.872892 
L 326.341818 190.074402 
L 328.746667 192.840737 
L 331.151515 193.818205 
L 333.556364 197.287087 
L 335.961212 198.099198 
L 338.366061 202.088471 
L 340.770909 207.288183 
L 343.175758 218.207788 
L 345.580606 220.126909 
L 347.985455 231.088859 
L 350.390303 234.069904 
L 352.795152 238.367815 
L 355.2 243.861784 
L 357.604848 246.172903 
L 360.009697 249.178953 
L 362.414545 249.912044 
L 364.819394 248.089855 
L 367.224242 247.17787 
L 369.629091 247.191909 
L 372.033939 247.495099 
L 374.438788 249.721746 
L 376.843636 250.384768 
L 379.248485 250.173138 
L 381.653333 253.086155 
L 386.46303 271.544109 
L 388.867879 276.444223 
L 391.272727 281.753741 
L 393.677576 283.877033 
L 396.082424 289.907377 
L 398.487273 289.915117 
L 398.487273 289.915117 
" style="fill:none;stroke:#ff7f0e;stroke-linecap:square;stroke-width:1.5;"/>
   </g>
   <g id="line2d_18">
    <path clip-path="url(#p067910f5d9)" d="M 73.832727 117.330824 
L 76.237576 117.322747 
L 78.642424 131.33478 
L 81.047273 149.9071 
L 83.452121 149.945863 
L 85.85697 147.788507 
L 88.261818 149.652045 
L 90.666667 153.821358 
L 93.071515 160.385388 
L 95.476364 162.487564 
L 97.881212 169.826119 
L 100.286061 173.118711 
L 102.690909 176.800079 
L 105.095758 178.812747 
L 107.500606 179.332394 
L 109.905455 180.303871 
L 112.310303 181.40475 
L 114.715152 182.019073 
L 117.12 182.791682 
L 119.524848 182.905803 
L 121.929697 183.158215 
L 124.334545 184.792086 
L 126.739394 184.911306 
L 129.144242 184.130163 
L 131.549091 183.132578 
L 133.953939 182.815547 
L 136.358788 182.230227 
L 138.763636 182.032069 
L 141.168485 183.013535 
L 143.573333 184.4946 
L 148.38303 186.348054 
L 150.787879 186.088184 
L 153.192727 186.012274 
L 160.407273 184.428364 
L 162.812121 183.53142 
L 165.21697 181.656311 
L 167.621818 180.384556 
L 170.026667 181.284756 
L 172.431515 179.090515 
L 174.836364 179.307847 
L 177.241212 179.302794 
L 179.646061 179.144596 
L 182.050909 179.491151 
L 184.455758 180.361005 
L 186.860606 180.785113 
L 189.265455 181.015371 
L 191.670303 182.059137 
L 194.075152 184.015884 
L 196.48 184.666167 
L 198.884848 184.532896 
L 201.289697 185.119259 
L 203.694545 184.366048 
L 206.099394 184.08327 
L 208.504242 184.487675 
L 210.909091 184.733501 
L 213.313939 184.611711 
L 215.718788 184.856388 
L 218.123636 185.562895 
L 220.528485 185.864636 
L 222.933333 185.996247 
L 225.338182 185.994071 
L 227.74303 186.651531 
L 230.147879 186.426824 
L 232.552727 186.858016 
L 234.957576 186.507953 
L 242.172121 186.83743 
L 244.57697 186.82162 
L 246.981818 186.642581 
L 249.386667 186.617137 
L 251.791515 186.822305 
L 256.601212 186.934448 
L 259.006061 186.667328 
L 261.410909 186.786347 
L 263.815758 187.076394 
L 266.220606 187.046805 
L 268.625455 186.863999 
L 273.435152 186.869668 
L 278.244848 187.022075 
L 280.649697 187.126251 
L 290.269091 187.119726 
L 295.078788 187.174118 
L 299.888485 187.181162 
L 302.293333 187.354295 
L 307.10303 187.467946 
L 311.912727 188.574117 
L 314.317576 190.577294 
L 316.722424 190.793405 
L 319.127273 190.554897 
L 321.532121 193.708745 
L 323.93697 201.648701 
L 326.341818 210.723214 
L 328.746667 229.70136 
L 331.151515 235.065926 
L 333.556364 244.022834 
L 335.961212 245.336707 
L 338.366061 251.458281 
L 343.175758 260.895144 
L 345.580606 261.070269 
L 347.985455 262.355057 
L 350.390303 262.179504 
L 352.795152 260.949027 
L 355.2 258.767255 
L 360.009697 256.288724 
L 362.414545 256.255138 
L 364.819394 253.340986 
L 367.224242 251.675837 
L 369.629091 251.557861 
L 372.033939 251.810463 
L 374.438788 253.808703 
L 376.843636 254.456832 
L 379.248485 254.169162 
L 381.653333 257.199838 
L 386.46303 276.472771 
L 388.867879 281.450217 
L 391.272727 286.866597 
L 393.677576 288.98497 
L 396.082424 295.261308 
L 398.487273 295.269385 
L 398.487273 295.269385 
" style="fill:none;stroke:#2ca02c;stroke-linecap:square;stroke-width:1.5;"/>
   </g>
   <g id="line2d_19">
    <path clip-path="url(#p067910f5d9)" d="M 73.832727 53.576077 
L 76.237576 53.568 
L 78.642424 73.067918 
L 81.047273 100.831175 
L 83.452121 101.899873 
L 85.85697 98.888121 
L 88.261818 101.136866 
L 90.666667 105.557351 
L 93.071515 115.554735 
L 95.476364 119.3401 
L 97.881212 133.988542 
L 100.286061 146.239224 
L 102.690909 157.506063 
L 105.095758 164.679197 
L 107.500606 166.426811 
L 112.310303 172.964828 
L 114.715152 173.118711 
L 117.12 173.118711 
L 119.524848 173.403088 
L 121.929697 173.939634 
L 124.334545 177.208839 
L 126.739394 177.361989 
L 129.144242 175.793107 
L 131.549091 173.785202 
L 133.953939 173.22315 
L 138.763636 173.118711 
L 141.168485 173.449048 
L 143.573333 176.077941 
L 145.978182 177.814229 
L 148.38303 180.097925 
L 150.787879 179.582553 
L 153.192727 179.422336 
L 155.597576 178.348404 
L 158.002424 177.026982 
L 160.407273 175.5521 
L 162.812121 173.235592 
L 165.21697 172.488626 
L 167.621818 171.97198 
L 170.026667 173.118711 
L 172.431515 173.118711 
L 174.836364 173.449637 
L 177.241212 174.393474 
L 179.646061 174.37629 
L 182.050909 175.014885 
L 184.455758 176.109778 
L 186.860606 176.706247 
L 189.265455 177.041363 
L 191.670303 177.828444 
L 194.075152 178.912081 
L 196.48 179.614953 
L 198.884848 179.344651 
L 201.289697 178.397732 
L 203.694545 178.270783 
L 210.909091 178.842636 
L 213.313939 179.239684 
L 215.718788 179.514336 
L 220.528485 180.227606 
L 222.933333 180.227577 
L 230.147879 181.087768 
L 232.552727 181.060835 
L 234.957576 181.292886 
L 237.362424 181.303022 
L 239.767273 181.5439 
L 242.172121 181.664606 
L 246.981818 181.778603 
L 254.196364 182.442696 
L 256.601212 182.42523 
L 266.220606 183.728915 
L 268.625455 184.512576 
L 271.030303 184.575039 
L 273.435152 184.803626 
L 275.84 184.913193 
L 278.244848 185.280921 
L 280.649697 185.392529 
L 283.054545 185.329218 
L 287.864242 185.505109 
L 292.673939 185.963917 
L 297.483636 186.086339 
L 302.293333 186.479037 
L 309.507879 186.668306 
L 314.317576 186.927183 
L 319.127273 186.990283 
L 323.93697 187.216901 
L 335.961212 187.276732 
L 340.770909 187.411347 
L 343.175758 188.020508 
L 345.580606 188.139038 
L 347.985455 188.965934 
L 350.390303 189.180102 
L 352.795152 189.274522 
L 355.2 197.695628 
L 357.604848 200.077046 
L 360.009697 207.735647 
L 362.414545 211.990624 
L 364.819394 213.362539 
L 367.224242 217.529611 
L 369.629091 220.08154 
L 372.033939 221.613688 
L 374.438788 229.277082 
L 379.248485 233.260968 
L 381.653333 235.575444 
L 384.058182 242.332931 
L 388.867879 260.439255 
L 391.272727 271.629339 
L 393.677576 280.39334 
L 396.082424 288.460089 
L 398.487273 288.468166 
L 398.487273 288.468166 
" style="fill:none;stroke:#d62728;stroke-linecap:square;stroke-width:1.5;"/>
   </g>
   <g id="patch_3">
    <path d="M 57.6 307.584 
L 57.6 41.472 
" style="fill:none;stroke:#000000;stroke-linecap:square;stroke-linejoin:miter;stroke-width:0.8;"/>
   </g>
   <g id="patch_4">
    <path d="M 414.72 307.584 
L 414.72 41.472 
" style="fill:none;stroke:#000000;stroke-linecap:square;stroke-linejoin:miter;stroke-width:0.8;"/>
   </g>
   <g id="patch_5">
    <path d="M 57.6 307.584 
L 414.72 307.584 
" style="fill:none;stroke:#000000;stroke-linecap:square;stroke-linejoin:miter;stroke-width:0.8;"/>
   </g>
   <g id="patch_6">
    <path d="M 57.6 41.472 
L 414.72 41.472 
" style="fill:none;stroke:#000000;stroke-linecap:square;stroke-linejoin:miter;stroke-width:0.8;"/>
   </g>
   <g id="text_18">
    <!-- Uncertainty in topography prediction (cross section)   -->
    <defs>
     <path d="M 8.6875 72.90625 
L 18.609375 72.90625 
L 18.609375 28.609375 
Q 18.609375 16.890625 22.84375 11.734375 
Q 27.09375 6.59375 36.625 6.59375 
Q 46.09375 6.59375 50.34375 11.734375 
Q 54.59375 16.890625 54.59375 28.609375 
L 54.59375 72.90625 
L 64.5 72.90625 
L 64.5 27.390625 
Q 64.5 13.140625 57.4375 5.859375 
Q 50.390625 -1.421875 36.625 -1.421875 
Q 22.796875 -1.421875 15.734375 5.859375 
Q 8.6875 13.140625 8.6875 27.390625 
z
" id="DejaVuSans-55"/>
     <path d="M 32.171875 -5.078125 
Q 28.375 -14.84375 24.75 -17.8125 
Q 21.140625 -20.796875 15.09375 -20.796875 
L 7.90625 -20.796875 
L 7.90625 -13.28125 
L 13.1875 -13.28125 
Q 16.890625 -13.28125 18.9375 -11.515625 
Q 21 -9.765625 23.484375 -3.21875 
L 25.09375 0.875 
L 2.984375 54.6875 
L 12.5 54.6875 
L 29.59375 11.921875 
L 46.6875 54.6875 
L 56.203125 54.6875 
z
" id="DejaVuSans-79"/>
     <path d="M 30.609375 48.390625 
Q 23.390625 48.390625 19.1875 42.75 
Q 14.984375 37.109375 14.984375 27.296875 
Q 14.984375 17.484375 19.15625 11.84375 
Q 23.34375 6.203125 30.609375 6.203125 
Q 37.796875 6.203125 41.984375 11.859375 
Q 46.1875 17.53125 46.1875 27.296875 
Q 46.1875 37.015625 41.984375 42.703125 
Q 37.796875 48.390625 30.609375 48.390625 
z
M 30.609375 56 
Q 42.328125 56 49.015625 48.375 
Q 55.71875 40.765625 55.71875 27.296875 
Q 55.71875 13.875 49.015625 6.21875 
Q 42.328125 -1.421875 30.609375 -1.421875 
Q 18.84375 -1.421875 12.171875 6.21875 
Q 5.515625 13.875 5.515625 27.296875 
Q 5.515625 40.765625 12.171875 48.375 
Q 18.84375 56 30.609375 56 
z
" id="DejaVuSans-6f"/>
     <path d="M 18.109375 8.203125 
L 18.109375 -20.796875 
L 9.078125 -20.796875 
L 9.078125 54.6875 
L 18.109375 54.6875 
L 18.109375 46.390625 
Q 20.953125 51.265625 25.265625 53.625 
Q 29.59375 56 35.59375 56 
Q 45.5625 56 51.78125 48.09375 
Q 58.015625 40.1875 58.015625 27.296875 
Q 58.015625 14.40625 51.78125 6.484375 
Q 45.5625 -1.421875 35.59375 -1.421875 
Q 29.59375 -1.421875 25.265625 0.953125 
Q 20.953125 3.328125 18.109375 8.203125 
z
M 48.6875 27.296875 
Q 48.6875 37.203125 44.609375 42.84375 
Q 40.53125 48.484375 33.40625 48.484375 
Q 26.265625 48.484375 22.1875 42.84375 
Q 18.109375 37.203125 18.109375 27.296875 
Q 18.109375 17.390625 22.1875 11.75 
Q 26.265625 6.109375 33.40625 6.109375 
Q 40.53125 6.109375 44.609375 11.75 
Q 48.6875 17.390625 48.6875 27.296875 
z
" id="DejaVuSans-70"/>
     <path d="M 45.40625 46.390625 
L 45.40625 75.984375 
L 54.390625 75.984375 
L 54.390625 0 
L 45.40625 0 
L 45.40625 8.203125 
Q 42.578125 3.328125 38.25 0.953125 
Q 33.9375 -1.421875 27.875 -1.421875 
Q 17.96875 -1.421875 11.734375 6.484375 
Q 5.515625 14.40625 5.515625 27.296875 
Q 5.515625 40.1875 11.734375 48.09375 
Q 17.96875 56 27.875 56 
Q 33.9375 56 38.25 53.625 
Q 42.578125 51.265625 45.40625 46.390625 
z
M 14.796875 27.296875 
Q 14.796875 17.390625 18.875 11.75 
Q 22.953125 6.109375 30.078125 6.109375 
Q 37.203125 6.109375 41.296875 11.75 
Q 45.40625 17.390625 45.40625 27.296875 
Q 45.40625 37.203125 41.296875 42.84375 
Q 37.203125 48.484375 30.078125 48.484375 
Q 22.953125 48.484375 18.875 42.84375 
Q 14.796875 37.203125 14.796875 27.296875 
z
" id="DejaVuSans-64"/>
    </defs>
    <g transform="translate(75.459375 35.472)scale(0.12 -0.12)">
     <use xlink:href="#DejaVuSans-55"/>
     <use x="73.193359" xlink:href="#DejaVuSans-6e"/>
     <use x="136.572266" xlink:href="#DejaVuSans-63"/>
     <use x="191.552734" xlink:href="#DejaVuSans-65"/>
     <use x="253.076172" xlink:href="#DejaVuSans-72"/>
     <use x="294.189453" xlink:href="#DejaVuSans-74"/>
     <use x="333.398438" xlink:href="#DejaVuSans-61"/>
     <use x="394.677734" xlink:href="#DejaVuSans-69"/>
     <use x="422.460938" xlink:href="#DejaVuSans-6e"/>
     <use x="485.839844" xlink:href="#DejaVuSans-74"/>
     <use x="525.048828" xlink:href="#DejaVuSans-79"/>
     <use x="584.228516" xlink:href="#DejaVuSans-20"/>
     <use x="616.015625" xlink:href="#DejaVuSans-69"/>
     <use x="643.798828" xlink:href="#DejaVuSans-6e"/>
     <use x="707.177734" xlink:href="#DejaVuSans-20"/>
     <use x="738.964844" xlink:href="#DejaVuSans-74"/>
     <use x="778.173828" xlink:href="#DejaVuSans-6f"/>
     <use x="839.355469" xlink:href="#DejaVuSans-70"/>
     <use x="902.832031" xlink:href="#DejaVuSans-6f"/>
     <use x="964.013672" xlink:href="#DejaVuSans-67"/>
     <use x="1027.490234" xlink:href="#DejaVuSans-72"/>
     <use x="1068.603516" xlink:href="#DejaVuSans-61"/>
     <use x="1129.882812" xlink:href="#DejaVuSans-70"/>
     <use x="1193.359375" xlink:href="#DejaVuSans-68"/>
     <use x="1256.738281" xlink:href="#DejaVuSans-79"/>
     <use x="1315.917969" xlink:href="#DejaVuSans-20"/>
     <use x="1347.705078" xlink:href="#DejaVuSans-70"/>
     <use x="1411.181641" xlink:href="#DejaVuSans-72"/>
     <use x="1452.263672" xlink:href="#DejaVuSans-65"/>
     <use x="1513.787109" xlink:href="#DejaVuSans-64"/>
     <use x="1577.263672" xlink:href="#DejaVuSans-69"/>
     <use x="1605.046875" xlink:href="#DejaVuSans-63"/>
     <use x="1660.027344" xlink:href="#DejaVuSans-74"/>
     <use x="1699.236328" xlink:href="#DejaVuSans-69"/>
     <use x="1727.019531" xlink:href="#DejaVuSans-6f"/>
     <use x="1788.201172" xlink:href="#DejaVuSans-6e"/>
     <use x="1851.580078" xlink:href="#DejaVuSans-20"/>
     <use x="1883.367188" xlink:href="#DejaVuSans-28"/>
     <use x="1922.380859" xlink:href="#DejaVuSans-63"/>
     <use x="1977.361328" xlink:href="#DejaVuSans-72"/>
     <use x="2018.443359" xlink:href="#DejaVuSans-6f"/>
     <use x="2079.625" xlink:href="#DejaVuSans-73"/>
     <use x="2131.724609" xlink:href="#DejaVuSans-73"/>
     <use x="2183.824219" xlink:href="#DejaVuSans-20"/>
     <use x="2215.611328" xlink:href="#DejaVuSans-73"/>
     <use x="2267.710938" xlink:href="#DejaVuSans-65"/>
     <use x="2329.234375" xlink:href="#DejaVuSans-63"/>
     <use x="2384.214844" xlink:href="#DejaVuSans-74"/>
     <use x="2423.423828" xlink:href="#DejaVuSans-69"/>
     <use x="2451.207031" xlink:href="#DejaVuSans-6f"/>
     <use x="2512.388672" xlink:href="#DejaVuSans-6e"/>
     <use x="2575.767578" xlink:href="#DejaVuSans-29"/>
     <use x="2614.78125" xlink:href="#DejaVuSans-20"/>
     <use x="2646.568359" xlink:href="#DejaVuSans-20"/>
    </g>
   </g>
   <g id="legend_1">
    <g id="patch_7">
     <path d="M 277.843437 108.1845 
L 407.72 108.1845 
Q 409.72 108.1845 409.72 106.1845 
L 409.72 48.472 
Q 409.72 46.472 407.72 46.472 
L 277.843437 46.472 
Q 275.843437 46.472 275.843437 48.472 
L 275.843437 106.1845 
Q 275.843437 108.1845 277.843437 108.1845 
z
" style="fill:#ffffff;opacity:0.8;stroke:#cccccc;stroke-linejoin:miter;"/>
    </g>
    <g id="line2d_20">
     <path d="M 279.843437 54.570438 
L 299.843437 54.570438 
" style="fill:none;stroke:#1f77b4;stroke-linecap:square;stroke-width:1.5;"/>
    </g>
    <g id="line2d_21"/>
    <g id="text_19">
     <!-- ground truth -->
     <defs>
      <path d="M 8.5 21.578125 
L 8.5 54.6875 
L 17.484375 54.6875 
L 17.484375 21.921875 
Q 17.484375 14.15625 20.5 10.265625 
Q 23.53125 6.390625 29.59375 6.390625 
Q 36.859375 6.390625 41.078125 11.03125 
Q 45.3125 15.671875 45.3125 23.6875 
L 45.3125 54.6875 
L 54.296875 54.6875 
L 54.296875 0 
L 45.3125 0 
L 45.3125 8.40625 
Q 42.046875 3.421875 37.71875 1 
Q 33.40625 -1.421875 27.6875 -1.421875 
Q 18.265625 -1.421875 13.375 4.4375 
Q 8.5 10.296875 8.5 21.578125 
z
M 31.109375 56 
z
" id="DejaVuSans-75"/>
     </defs>
     <g transform="translate(307.843437 58.070438)scale(0.1 -0.1)">
      <use xlink:href="#DejaVuSans-67"/>
      <use x="63.476562" xlink:href="#DejaVuSans-72"/>
      <use x="104.558594" xlink:href="#DejaVuSans-6f"/>
      <use x="165.740234" xlink:href="#DejaVuSans-75"/>
      <use x="229.119141" xlink:href="#DejaVuSans-6e"/>
      <use x="292.498047" xlink:href="#DejaVuSans-64"/>
      <use x="355.974609" xlink:href="#DejaVuSans-20"/>
      <use x="387.761719" xlink:href="#DejaVuSans-74"/>
      <use x="426.970703" xlink:href="#DejaVuSans-72"/>
      <use x="468.083984" xlink:href="#DejaVuSans-75"/>
      <use x="531.462891" xlink:href="#DejaVuSans-74"/>
      <use x="570.671875" xlink:href="#DejaVuSans-68"/>
     </g>
    </g>
    <g id="line2d_22">
     <path d="M 279.843437 69.248563 
L 299.843437 69.248563 
" style="fill:none;stroke:#ff7f0e;stroke-linecap:square;stroke-width:1.5;"/>
    </g>
    <g id="line2d_23"/>
    <g id="text_20">
     <!-- pred. (mean) -->
     <defs>
      <path d="M 10.6875 12.40625 
L 21 12.40625 
L 21 0 
L 10.6875 0 
z
" id="DejaVuSans-2e"/>
     </defs>
     <g transform="translate(307.843437 72.748563)scale(0.1 -0.1)">
      <use xlink:href="#DejaVuSans-70"/>
      <use x="63.476562" xlink:href="#DejaVuSans-72"/>
      <use x="104.558594" xlink:href="#DejaVuSans-65"/>
      <use x="166.082031" xlink:href="#DejaVuSans-64"/>
      <use x="229.558594" xlink:href="#DejaVuSans-2e"/>
      <use x="261.345703" xlink:href="#DejaVuSans-20"/>
      <use x="293.132812" xlink:href="#DejaVuSans-28"/>
      <use x="332.146484" xlink:href="#DejaVuSans-6d"/>
      <use x="429.558594" xlink:href="#DejaVuSans-65"/>
      <use x="491.082031" xlink:href="#DejaVuSans-61"/>
      <use x="552.361328" xlink:href="#DejaVuSans-6e"/>
      <use x="615.740234" xlink:href="#DejaVuSans-29"/>
     </g>
    </g>
    <g id="line2d_24">
     <path d="M 279.843437 83.926688 
L 299.843437 83.926688 
" style="fill:none;stroke:#2ca02c;stroke-linecap:square;stroke-width:1.5;"/>
    </g>
    <g id="line2d_25"/>
    <g id="text_21">
     <!-- pred.(5th percen.) -->
     <g transform="translate(307.843437 87.426688)scale(0.1 -0.1)">
      <use xlink:href="#DejaVuSans-70"/>
      <use x="63.476562" xlink:href="#DejaVuSans-72"/>
      <use x="104.558594" xlink:href="#DejaVuSans-65"/>
      <use x="166.082031" xlink:href="#DejaVuSans-64"/>
      <use x="229.558594" xlink:href="#DejaVuSans-2e"/>
      <use x="261.345703" xlink:href="#DejaVuSans-28"/>
      <use x="300.359375" xlink:href="#DejaVuSans-35"/>
      <use x="363.982422" xlink:href="#DejaVuSans-74"/>
      <use x="403.191406" xlink:href="#DejaVuSans-68"/>
      <use x="466.570312" xlink:href="#DejaVuSans-20"/>
      <use x="498.357422" xlink:href="#DejaVuSans-70"/>
      <use x="561.833984" xlink:href="#DejaVuSans-65"/>
      <use x="623.357422" xlink:href="#DejaVuSans-72"/>
      <use x="664.439453" xlink:href="#DejaVuSans-63"/>
      <use x="719.419922" xlink:href="#DejaVuSans-65"/>
      <use x="780.943359" xlink:href="#DejaVuSans-6e"/>
      <use x="844.322266" xlink:href="#DejaVuSans-2e"/>
      <use x="876.109375" xlink:href="#DejaVuSans-29"/>
     </g>
    </g>
    <g id="line2d_26">
     <path d="M 279.843437 98.604813 
L 299.843437 98.604813 
" style="fill:none;stroke:#d62728;stroke-linecap:square;stroke-width:1.5;"/>
    </g>
    <g id="line2d_27"/>
    <g id="text_22">
     <!-- pred.(95th percen.) -->
     <defs>
      <path d="M 10.984375 1.515625 
L 10.984375 10.5 
Q 14.703125 8.734375 18.5 7.8125 
Q 22.3125 6.890625 25.984375 6.890625 
Q 35.75 6.890625 40.890625 13.453125 
Q 46.046875 20.015625 46.78125 33.40625 
Q 43.953125 29.203125 39.59375 26.953125 
Q 35.25 24.703125 29.984375 24.703125 
Q 19.046875 24.703125 12.671875 31.3125 
Q 6.296875 37.9375 6.296875 49.421875 
Q 6.296875 60.640625 12.9375 67.421875 
Q 19.578125 74.21875 30.609375 74.21875 
Q 43.265625 74.21875 49.921875 64.515625 
Q 56.59375 54.828125 56.59375 36.375 
Q 56.59375 19.140625 48.40625 8.859375 
Q 40.234375 -1.421875 26.421875 -1.421875 
Q 22.703125 -1.421875 18.890625 -0.6875 
Q 15.09375 0.046875 10.984375 1.515625 
z
M 30.609375 32.421875 
Q 37.25 32.421875 41.125 36.953125 
Q 45.015625 41.5 45.015625 49.421875 
Q 45.015625 57.28125 41.125 61.84375 
Q 37.25 66.40625 30.609375 66.40625 
Q 23.96875 66.40625 20.09375 61.84375 
Q 16.21875 57.28125 16.21875 49.421875 
Q 16.21875 41.5 20.09375 36.953125 
Q 23.96875 32.421875 30.609375 32.421875 
z
" id="DejaVuSans-39"/>
     </defs>
     <g transform="translate(307.843437 102.104813)scale(0.1 -0.1)">
      <use xlink:href="#DejaVuSans-70"/>
      <use x="63.476562" xlink:href="#DejaVuSans-72"/>
      <use x="104.558594" xlink:href="#DejaVuSans-65"/>
      <use x="166.082031" xlink:href="#DejaVuSans-64"/>
      <use x="229.558594" xlink:href="#DejaVuSans-2e"/>
      <use x="261.345703" xlink:href="#DejaVuSans-28"/>
      <use x="300.359375" xlink:href="#DejaVuSans-39"/>
      <use x="363.982422" xlink:href="#DejaVuSans-35"/>
      <use x="427.605469" xlink:href="#DejaVuSans-74"/>
      <use x="466.814453" xlink:href="#DejaVuSans-68"/>
      <use x="530.193359" xlink:href="#DejaVuSans-20"/>
      <use x="561.980469" xlink:href="#DejaVuSans-70"/>
      <use x="625.457031" xlink:href="#DejaVuSans-65"/>
      <use x="686.980469" xlink:href="#DejaVuSans-72"/>
      <use x="728.0625" xlink:href="#DejaVuSans-63"/>
      <use x="783.042969" xlink:href="#DejaVuSans-65"/>
      <use x="844.566406" xlink:href="#DejaVuSans-6e"/>
      <use x="907.945312" xlink:href="#DejaVuSans-2e"/>
      <use x="939.732422" xlink:href="#DejaVuSans-29"/>
     </g>
    </g>
   </g>
  </g>
 </g>
 <defs>
  <clipPath id="p067910f5d9">
   <rect height="266.112" width="357.12" x="57.6" y="41.472"/>
  </clipPath>
 </defs>
</svg>
