<?xml version="1.0" encoding="utf-8" standalone="no"?>
<!DOCTYPE svg PUBLIC "-//W3C//DTD SVG 1.1//EN"
  "http://www.w3.org/Graphics/SVG/1.1/DTD/svg11.dtd">
<!-- Created with matplotlib (http://matplotlib.org/) -->
<svg height="345pt" version="1.1" viewBox="0 0 460 345" width="460pt" xmlns="http://www.w3.org/2000/svg" xmlns:xlink="http://www.w3.org/1999/xlink">
 <defs>
  <style type="text/css">
*{stroke-linecap:butt;stroke-linejoin:round;}
  </style>
 </defs>
 <g id="figure_1">
  <g id="patch_1">
   <path d="M 0 345.6 
L 460.8 345.6 
L 460.8 0 
L 0 0 
z
" style="fill:#ffffff;"/>
  </g>
  <g id="axes_1">
   <g id="patch_2">
    <path d="M 57.6 307.584 
L 414.72 307.584 
L 414.72 41.472 
L 57.6 41.472 
z
" style="fill:#ffffff;"/>
   </g>
   <g id="PolyCollection_1">
    <path clip-path="url(#p3ffe3a1dcc)" d="M 73.832727 285.38599 
L 73.832727 295.100747 
L 76.515823 295.084762 
L 79.198918 290.549686 
L 81.882014 282.130163 
L 84.565109 276.467921 
L 87.248204 271.090341 
L 89.9313 263.043232 
L 92.614395 255.318824 
L 95.297491 246.804789 
L 97.980586 241.180642 
L 100.663681 211.094921 
L 103.346777 199.292119 
L 106.029872 161.474781 
L 108.712968 153.63539 
L 111.396063 131.338899 
L 114.079159 112.502128 
L 116.762254 104.162762 
L 119.445349 98.168955 
L 122.128445 90.182584 
L 124.81154 85.262935 
L 127.494636 80.786553 
L 130.177731 79.77317 
L 132.860826 79.513433 
L 135.543922 79.113139 
L 138.227017 78.844271 
L 140.910113 78.829237 
L 143.593208 78.711798 
L 146.276304 78.695455 
L 148.959399 78.716277 
L 151.642494 78.545034 
L 154.32559 78.65789 
L 157.008685 78.567718 
L 159.691781 78.641743 
L 162.374876 78.744586 
L 165.057971 78.60872 
L 167.741067 78.508599 
L 170.424162 78.446086 
L 173.107258 78.716859 
L 175.790353 78.715501 
L 178.473449 78.357422 
L 181.156544 78.429209 
L 183.839639 78.593517 
L 186.522735 78.196007 
L 189.20583 78.313469 
L 191.888926 78.265295 
L 194.572021 77.964831 
L 197.255116 77.970347 
L 199.938212 78.154355 
L 202.621307 77.997224 
L 205.304403 77.522669 
L 207.987498 77.978383 
L 210.670594 78.069892 
L 213.353689 77.978651 
L 216.036784 78.01324 
L 218.71988 77.988657 
L 221.402975 78.091623 
L 224.086071 78.114568 
L 226.769166 78.277682 
L 229.452261 77.902791 
L 232.135357 77.49319 
L 234.818452 77.376272 
L 237.501548 77.601391 
L 240.184643 77.079567 
L 242.867739 77.524307 
L 245.550834 76.70666 
L 248.233929 76.200123 
L 250.917025 76.822496 
L 253.60012 76.445708 
L 256.283216 77.37299 
L 258.966311 76.321288 
L 261.649406 75.646056 
L 264.332502 76.250077 
L 267.015597 76.556124 
L 269.698693 76.942984 
L 272.381788 77.113943 
L 275.064884 76.420882 
L 277.747979 76.673602 
L 280.431074 75.9225 
L 283.11417 74.313504 
L 285.797265 74.42015 
L 288.480361 73.046304 
L 291.163456 71.998254 
L 293.846551 70.516987 
L 296.529647 71.79543 
L 299.212742 72.064772 
L 301.895838 70.035117 
L 304.578933 69.582845 
L 307.262029 69.027184 
L 309.945124 70.289416 
L 312.628219 68.435853 
L 315.311315 67.672036 
L 317.99441 66.781204 
L 320.677506 65.98197 
L 323.360601 65.585617 
L 326.043696 65.247225 
L 328.726792 65.185047 
L 331.409887 64.933686 
L 334.092983 66.017599 
L 336.776078 67.085812 
L 339.459174 68.822073 
L 342.142269 70.097148 
L 344.825364 70.342818 
L 347.50846 70.821244 
L 350.191555 71.549126 
L 352.874651 73.431454 
L 355.557746 75.463603 
L 358.240841 74.829662 
L 360.923937 75.775203 
L 363.607032 76.060058 
L 366.290128 75.888816 
L 368.973223 75.456846 
L 371.656319 74.387249 
L 374.339414 75.11232 
L 377.022509 75.789759 
L 379.705605 74.652932 
L 382.3887 74.705431 
L 385.071796 75.695767 
L 387.754891 77.374208 
L 390.437986 77.580083 
L 393.121082 73.766 
L 395.804177 77.41244 
L 398.487273 77.428425 
L 398.487273 57.417804 
L 398.487273 57.417804 
L 395.804177 57.401819 
L 393.121082 57.078447 
L 390.437986 60.683865 
L 387.754891 61.058507 
L 385.071796 60.072116 
L 382.3887 59.657039 
L 379.705605 59.868223 
L 377.022509 59.282066 
L 374.339414 59.674597 
L 371.656319 59.468371 
L 368.973223 59.870156 
L 366.290128 59.958474 
L 363.607032 59.815421 
L 360.923937 61.462882 
L 358.240841 63.244965 
L 355.557746 63.851952 
L 352.874651 61.638255 
L 350.191555 60.631284 
L 347.50846 60.326017 
L 344.825364 59.750928 
L 342.142269 59.456271 
L 339.459174 57.95587 
L 336.776078 55.905605 
L 334.092983 54.639488 
L 331.409887 53.568 
L 328.726792 54.32392 
L 326.043696 54.778081 
L 323.360601 55.610392 
L 320.677506 56.495995 
L 317.99441 58.03793 
L 315.311315 59.733508 
L 312.628219 60.89402 
L 309.945124 63.801749 
L 307.262029 62.178724 
L 304.578933 62.580159 
L 301.895838 63.351631 
L 299.212742 65.858382 
L 296.529647 65.73339 
L 293.846551 64.672082 
L 291.163456 65.630156 
L 288.480361 65.930301 
L 285.797265 66.181832 
L 283.11417 66.103435 
L 280.431074 66.842007 
L 277.747979 67.004999 
L 275.064884 67.113655 
L 272.381788 67.302162 
L 269.698693 66.874469 
L 267.015597 66.36972 
L 264.332502 66.328639 
L 261.649406 66.460906 
L 258.966311 66.624707 
L 256.283216 65.976956 
L 253.60012 66.326708 
L 250.917025 66.946234 
L 248.233929 67.154103 
L 245.550834 67.324017 
L 242.867739 67.274001 
L 240.184643 67.405162 
L 237.501548 67.082923 
L 234.818452 67.56838 
L 232.135357 67.673766 
L 229.452261 67.46964 
L 226.769166 67.653493 
L 224.086071 67.397589 
L 221.402975 67.443859 
L 218.71988 68.238535 
L 216.036784 68.626904 
L 213.353689 69.103992 
L 210.670594 69.125802 
L 207.987498 69.609861 
L 205.304403 69.752494 
L 202.621307 70.033952 
L 199.938212 70.804193 
L 197.255116 70.806052 
L 194.572021 71.553417 
L 191.888926 71.974113 
L 189.20583 72.115883 
L 186.522735 72.276158 
L 183.839639 72.345622 
L 181.156544 72.743209 
L 178.473449 73.17432 
L 175.790353 73.768263 
L 173.107258 73.836356 
L 170.424162 74.9216 
L 167.741067 74.992143 
L 165.057971 75.366554 
L 162.374876 75.480163 
L 159.691781 75.830847 
L 157.008685 75.989234 
L 154.32559 75.738669 
L 151.642494 76.062245 
L 148.959399 76.138591 
L 146.276304 76.254 
L 143.593208 76.42671 
L 140.910113 76.634822 
L 138.227017 77.048255 
L 135.543922 77.28572 
L 132.860826 77.588834 
L 130.177731 77.620289 
L 127.494636 77.793098 
L 124.81154 78.255074 
L 122.128445 78.379653 
L 119.445349 78.548955 
L 116.762254 78.56833 
L 114.079159 78.734149 
L 111.396063 78.859967 
L 108.712968 78.860589 
L 106.029872 78.860628 
L 103.346777 79.069014 
L 100.663681 79.145901 
L 97.980586 85.539413 
L 95.297491 87.897963 
L 92.614395 120.926118 
L 89.9313 180.828707 
L 87.248204 227.404328 
L 84.565109 245.031673 
L 81.882014 263.470877 
L 79.198918 280.865239 
L 76.515823 285.370005 
L 73.832727 285.38599 
z
" style="fill:#008000;fill-opacity:0.4;"/>
   </g>
   <g id="matplotlib.axis_1">
    <g id="xtick_1">
     <g id="line2d_1">
      <defs>
       <path d="M 0 0 
L 0 3.5 
" id="m12f80e3ce2" style="stroke:#000000;stroke-width:0.8;"/>
      </defs>
      <g>
       <use style="stroke:#000000;stroke-width:0.8;" x="73.832727" xlink:href="#m12f80e3ce2" y="307.584"/>
      </g>
     </g>
     <g id="text_1">
      <!-- 0 -->
      <defs>
       <path d="M 31.78125 66.40625 
Q 24.171875 66.40625 20.328125 58.90625 
Q 16.5 51.421875 16.5 36.375 
Q 16.5 21.390625 20.328125 13.890625 
Q 24.171875 6.390625 31.78125 6.390625 
Q 39.453125 6.390625 43.28125 13.890625 
Q 47.125 21.390625 47.125 36.375 
Q 47.125 51.421875 43.28125 58.90625 
Q 39.453125 66.40625 31.78125 66.40625 
z
M 31.78125 74.21875 
Q 44.046875 74.21875 50.515625 64.515625 
Q 56.984375 54.828125 56.984375 36.375 
Q 56.984375 17.96875 50.515625 8.265625 
Q 44.046875 -1.421875 31.78125 -1.421875 
Q 19.53125 -1.421875 13.0625 8.265625 
Q 6.59375 17.96875 6.59375 36.375 
Q 6.59375 54.828125 13.0625 64.515625 
Q 19.53125 74.21875 31.78125 74.21875 
z
" id="DejaVuSans-30"/>
      </defs>
      <g transform="translate(70.651477 322.182437)scale(0.1 -0.1)">
       <use xlink:href="#DejaVuSans-30"/>
      </g>
     </g>
    </g>
    <g id="xtick_2">
     <g id="line2d_2">
      <g>
       <use style="stroke:#000000;stroke-width:0.8;" x="127.054784" xlink:href="#m12f80e3ce2" y="307.584"/>
      </g>
     </g>
     <g id="text_2">
      <!-- 20000 -->
      <defs>
       <path d="M 19.1875 8.296875 
L 53.609375 8.296875 
L 53.609375 0 
L 7.328125 0 
L 7.328125 8.296875 
Q 12.9375 14.109375 22.625 23.890625 
Q 32.328125 33.6875 34.8125 36.53125 
Q 39.546875 41.84375 41.421875 45.53125 
Q 43.3125 49.21875 43.3125 52.78125 
Q 43.3125 58.59375 39.234375 62.25 
Q 35.15625 65.921875 28.609375 65.921875 
Q 23.96875 65.921875 18.8125 64.3125 
Q 13.671875 62.703125 7.8125 59.421875 
L 7.8125 69.390625 
Q 13.765625 71.78125 18.9375 73 
Q 24.125 74.21875 28.421875 74.21875 
Q 39.75 74.21875 46.484375 68.546875 
Q 53.21875 62.890625 53.21875 53.421875 
Q 53.21875 48.921875 51.53125 44.890625 
Q 49.859375 40.875 45.40625 35.40625 
Q 44.1875 33.984375 37.640625 27.21875 
Q 31.109375 20.453125 19.1875 8.296875 
z
" id="DejaVuSans-32"/>
      </defs>
      <g transform="translate(111.148534 322.182437)scale(0.1 -0.1)">
       <use xlink:href="#DejaVuSans-32"/>
       <use x="63.623047" xlink:href="#DejaVuSans-30"/>
       <use x="127.246094" xlink:href="#DejaVuSans-30"/>
       <use x="190.869141" xlink:href="#DejaVuSans-30"/>
       <use x="254.492188" xlink:href="#DejaVuSans-30"/>
      </g>
     </g>
    </g>
    <g id="xtick_3">
     <g id="line2d_3">
      <g>
       <use style="stroke:#000000;stroke-width:0.8;" x="180.276841" xlink:href="#m12f80e3ce2" y="307.584"/>
      </g>
     </g>
     <g id="text_3">
      <!-- 40000 -->
      <defs>
       <path d="M 37.796875 64.3125 
L 12.890625 25.390625 
L 37.796875 25.390625 
z
M 35.203125 72.90625 
L 47.609375 72.90625 
L 47.609375 25.390625 
L 58.015625 25.390625 
L 58.015625 17.1875 
L 47.609375 17.1875 
L 47.609375 0 
L 37.796875 0 
L 37.796875 17.1875 
L 4.890625 17.1875 
L 4.890625 26.703125 
z
" id="DejaVuSans-34"/>
      </defs>
      <g transform="translate(164.370591 322.182437)scale(0.1 -0.1)">
       <use xlink:href="#DejaVuSans-34"/>
       <use x="63.623047" xlink:href="#DejaVuSans-30"/>
       <use x="127.246094" xlink:href="#DejaVuSans-30"/>
       <use x="190.869141" xlink:href="#DejaVuSans-30"/>
       <use x="254.492188" xlink:href="#DejaVuSans-30"/>
      </g>
     </g>
    </g>
    <g id="xtick_4">
     <g id="line2d_4">
      <g>
       <use style="stroke:#000000;stroke-width:0.8;" x="233.498897" xlink:href="#m12f80e3ce2" y="307.584"/>
      </g>
     </g>
     <g id="text_4">
      <!-- 60000 -->
      <defs>
       <path d="M 33.015625 40.375 
Q 26.375 40.375 22.484375 35.828125 
Q 18.609375 31.296875 18.609375 23.390625 
Q 18.609375 15.53125 22.484375 10.953125 
Q 26.375 6.390625 33.015625 6.390625 
Q 39.65625 6.390625 43.53125 10.953125 
Q 47.40625 15.53125 47.40625 23.390625 
Q 47.40625 31.296875 43.53125 35.828125 
Q 39.65625 40.375 33.015625 40.375 
z
M 52.59375 71.296875 
L 52.59375 62.3125 
Q 48.875 64.0625 45.09375 64.984375 
Q 41.3125 65.921875 37.59375 65.921875 
Q 27.828125 65.921875 22.671875 59.328125 
Q 17.53125 52.734375 16.796875 39.40625 
Q 19.671875 43.65625 24.015625 45.921875 
Q 28.375 48.1875 33.59375 48.1875 
Q 44.578125 48.1875 50.953125 41.515625 
Q 57.328125 34.859375 57.328125 23.390625 
Q 57.328125 12.15625 50.6875 5.359375 
Q 44.046875 -1.421875 33.015625 -1.421875 
Q 20.359375 -1.421875 13.671875 8.265625 
Q 6.984375 17.96875 6.984375 36.375 
Q 6.984375 53.65625 15.1875 63.9375 
Q 23.390625 74.21875 37.203125 74.21875 
Q 40.921875 74.21875 44.703125 73.484375 
Q 48.484375 72.75 52.59375 71.296875 
z
" id="DejaVuSans-36"/>
      </defs>
      <g transform="translate(217.592647 322.182437)scale(0.1 -0.1)">
       <use xlink:href="#DejaVuSans-36"/>
       <use x="63.623047" xlink:href="#DejaVuSans-30"/>
       <use x="127.246094" xlink:href="#DejaVuSans-30"/>
       <use x="190.869141" xlink:href="#DejaVuSans-30"/>
       <use x="254.492188" xlink:href="#DejaVuSans-30"/>
      </g>
     </g>
    </g>
    <g id="xtick_5">
     <g id="line2d_5">
      <g>
       <use style="stroke:#000000;stroke-width:0.8;" x="286.720954" xlink:href="#m12f80e3ce2" y="307.584"/>
      </g>
     </g>
     <g id="text_5">
      <!-- 80000 -->
      <defs>
       <path d="M 31.78125 34.625 
Q 24.75 34.625 20.71875 30.859375 
Q 16.703125 27.09375 16.703125 20.515625 
Q 16.703125 13.921875 20.71875 10.15625 
Q 24.75 6.390625 31.78125 6.390625 
Q 38.8125 6.390625 42.859375 10.171875 
Q 46.921875 13.96875 46.921875 20.515625 
Q 46.921875 27.09375 42.890625 30.859375 
Q 38.875 34.625 31.78125 34.625 
z
M 21.921875 38.8125 
Q 15.578125 40.375 12.03125 44.71875 
Q 8.5 49.078125 8.5 55.328125 
Q 8.5 64.0625 14.71875 69.140625 
Q 20.953125 74.21875 31.78125 74.21875 
Q 42.671875 74.21875 48.875 69.140625 
Q 55.078125 64.0625 55.078125 55.328125 
Q 55.078125 49.078125 51.53125 44.71875 
Q 48 40.375 41.703125 38.8125 
Q 48.828125 37.15625 52.796875 32.3125 
Q 56.78125 27.484375 56.78125 20.515625 
Q 56.78125 9.90625 50.3125 4.234375 
Q 43.84375 -1.421875 31.78125 -1.421875 
Q 19.734375 -1.421875 13.25 4.234375 
Q 6.78125 9.90625 6.78125 20.515625 
Q 6.78125 27.484375 10.78125 32.3125 
Q 14.796875 37.15625 21.921875 38.8125 
z
M 18.3125 54.390625 
Q 18.3125 48.734375 21.84375 45.5625 
Q 25.390625 42.390625 31.78125 42.390625 
Q 38.140625 42.390625 41.71875 45.5625 
Q 45.3125 48.734375 45.3125 54.390625 
Q 45.3125 60.0625 41.71875 63.234375 
Q 38.140625 66.40625 31.78125 66.40625 
Q 25.390625 66.40625 21.84375 63.234375 
Q 18.3125 60.0625 18.3125 54.390625 
z
" id="DejaVuSans-38"/>
      </defs>
      <g transform="translate(270.814704 322.182437)scale(0.1 -0.1)">
       <use xlink:href="#DejaVuSans-38"/>
       <use x="63.623047" xlink:href="#DejaVuSans-30"/>
       <use x="127.246094" xlink:href="#DejaVuSans-30"/>
       <use x="190.869141" xlink:href="#DejaVuSans-30"/>
       <use x="254.492188" xlink:href="#DejaVuSans-30"/>
      </g>
     </g>
    </g>
    <g id="xtick_6">
     <g id="line2d_6">
      <g>
       <use style="stroke:#000000;stroke-width:0.8;" x="339.94301" xlink:href="#m12f80e3ce2" y="307.584"/>
      </g>
     </g>
     <g id="text_6">
      <!-- 100000 -->
      <defs>
       <path d="M 12.40625 8.296875 
L 28.515625 8.296875 
L 28.515625 63.921875 
L 10.984375 60.40625 
L 10.984375 69.390625 
L 28.421875 72.90625 
L 38.28125 72.90625 
L 38.28125 8.296875 
L 54.390625 8.296875 
L 54.390625 0 
L 12.40625 0 
z
" id="DejaVuSans-31"/>
      </defs>
      <g transform="translate(320.85551 322.182437)scale(0.1 -0.1)">
       <use xlink:href="#DejaVuSans-31"/>
       <use x="63.623047" xlink:href="#DejaVuSans-30"/>
       <use x="127.246094" xlink:href="#DejaVuSans-30"/>
       <use x="190.869141" xlink:href="#DejaVuSans-30"/>
       <use x="254.492188" xlink:href="#DejaVuSans-30"/>
       <use x="318.115234" xlink:href="#DejaVuSans-30"/>
      </g>
     </g>
    </g>
    <g id="xtick_7">
     <g id="line2d_7">
      <g>
       <use style="stroke:#000000;stroke-width:0.8;" x="393.165067" xlink:href="#m12f80e3ce2" y="307.584"/>
      </g>
     </g>
     <g id="text_7">
      <!-- 120000 -->
      <g transform="translate(374.077567 322.182437)scale(0.1 -0.1)">
       <use xlink:href="#DejaVuSans-31"/>
       <use x="63.623047" xlink:href="#DejaVuSans-32"/>
       <use x="127.246094" xlink:href="#DejaVuSans-30"/>
       <use x="190.869141" xlink:href="#DejaVuSans-30"/>
       <use x="254.492188" xlink:href="#DejaVuSans-30"/>
       <use x="318.115234" xlink:href="#DejaVuSans-30"/>
      </g>
     </g>
    </g>
    <g id="text_8">
     <!--  Distance (km)  -->
     <defs>
      <path id="DejaVuSans-20"/>
      <path d="M 19.671875 64.796875 
L 19.671875 8.109375 
L 31.59375 8.109375 
Q 46.6875 8.109375 53.6875 14.9375 
Q 60.6875 21.78125 60.6875 36.53125 
Q 60.6875 51.171875 53.6875 57.984375 
Q 46.6875 64.796875 31.59375 64.796875 
z
M 9.8125 72.90625 
L 30.078125 72.90625 
Q 51.265625 72.90625 61.171875 64.09375 
Q 71.09375 55.28125 71.09375 36.53125 
Q 71.09375 17.671875 61.125 8.828125 
Q 51.171875 0 30.078125 0 
L 9.8125 0 
z
" id="DejaVuSans-44"/>
      <path d="M 9.421875 54.6875 
L 18.40625 54.6875 
L 18.40625 0 
L 9.421875 0 
z
M 9.421875 75.984375 
L 18.40625 75.984375 
L 18.40625 64.59375 
L 9.421875 64.59375 
z
" id="DejaVuSans-69"/>
      <path d="M 44.28125 53.078125 
L 44.28125 44.578125 
Q 40.484375 46.53125 36.375 47.5 
Q 32.28125 48.484375 27.875 48.484375 
Q 21.1875 48.484375 17.84375 46.4375 
Q 14.5 44.390625 14.5 40.28125 
Q 14.5 37.15625 16.890625 35.375 
Q 19.28125 33.59375 26.515625 31.984375 
L 29.59375 31.296875 
Q 39.15625 29.25 43.1875 25.515625 
Q 47.21875 21.78125 47.21875 15.09375 
Q 47.21875 7.46875 41.1875 3.015625 
Q 35.15625 -1.421875 24.609375 -1.421875 
Q 20.21875 -1.421875 15.453125 -0.5625 
Q 10.6875 0.296875 5.421875 2 
L 5.421875 11.28125 
Q 10.40625 8.6875 15.234375 7.390625 
Q 20.0625 6.109375 24.8125 6.109375 
Q 31.15625 6.109375 34.5625 8.28125 
Q 37.984375 10.453125 37.984375 14.40625 
Q 37.984375 18.0625 35.515625 20.015625 
Q 33.0625 21.96875 24.703125 23.78125 
L 21.578125 24.515625 
Q 13.234375 26.265625 9.515625 29.90625 
Q 5.8125 33.546875 5.8125 39.890625 
Q 5.8125 47.609375 11.28125 51.796875 
Q 16.75 56 26.8125 56 
Q 31.78125 56 36.171875 55.265625 
Q 40.578125 54.546875 44.28125 53.078125 
z
" id="DejaVuSans-73"/>
      <path d="M 18.3125 70.21875 
L 18.3125 54.6875 
L 36.8125 54.6875 
L 36.8125 47.703125 
L 18.3125 47.703125 
L 18.3125 18.015625 
Q 18.3125 11.328125 20.140625 9.421875 
Q 21.96875 7.515625 27.59375 7.515625 
L 36.8125 7.515625 
L 36.8125 0 
L 27.59375 0 
Q 17.1875 0 13.234375 3.875 
Q 9.28125 7.765625 9.28125 18.015625 
L 9.28125 47.703125 
L 2.6875 47.703125 
L 2.6875 54.6875 
L 9.28125 54.6875 
L 9.28125 70.21875 
z
" id="DejaVuSans-74"/>
      <path d="M 34.28125 27.484375 
Q 23.390625 27.484375 19.1875 25 
Q 14.984375 22.515625 14.984375 16.5 
Q 14.984375 11.71875 18.140625 8.90625 
Q 21.296875 6.109375 26.703125 6.109375 
Q 34.1875 6.109375 38.703125 11.40625 
Q 43.21875 16.703125 43.21875 25.484375 
L 43.21875 27.484375 
z
M 52.203125 31.203125 
L 52.203125 0 
L 43.21875 0 
L 43.21875 8.296875 
Q 40.140625 3.328125 35.546875 0.953125 
Q 30.953125 -1.421875 24.3125 -1.421875 
Q 15.921875 -1.421875 10.953125 3.296875 
Q 6 8.015625 6 15.921875 
Q 6 25.140625 12.171875 29.828125 
Q 18.359375 34.515625 30.609375 34.515625 
L 43.21875 34.515625 
L 43.21875 35.40625 
Q 43.21875 41.609375 39.140625 45 
Q 35.0625 48.390625 27.6875 48.390625 
Q 23 48.390625 18.546875 47.265625 
Q 14.109375 46.140625 10.015625 43.890625 
L 10.015625 52.203125 
Q 14.9375 54.109375 19.578125 55.046875 
Q 24.21875 56 28.609375 56 
Q 40.484375 56 46.34375 49.84375 
Q 52.203125 43.703125 52.203125 31.203125 
z
" id="DejaVuSans-61"/>
      <path d="M 54.890625 33.015625 
L 54.890625 0 
L 45.90625 0 
L 45.90625 32.71875 
Q 45.90625 40.484375 42.875 44.328125 
Q 39.84375 48.1875 33.796875 48.1875 
Q 26.515625 48.1875 22.3125 43.546875 
Q 18.109375 38.921875 18.109375 30.90625 
L 18.109375 0 
L 9.078125 0 
L 9.078125 54.6875 
L 18.109375 54.6875 
L 18.109375 46.1875 
Q 21.34375 51.125 25.703125 53.5625 
Q 30.078125 56 35.796875 56 
Q 45.21875 56 50.046875 50.171875 
Q 54.890625 44.34375 54.890625 33.015625 
z
" id="DejaVuSans-6e"/>
      <path d="M 48.78125 52.59375 
L 48.78125 44.1875 
Q 44.96875 46.296875 41.140625 47.34375 
Q 37.3125 48.390625 33.40625 48.390625 
Q 24.65625 48.390625 19.8125 42.84375 
Q 14.984375 37.3125 14.984375 27.296875 
Q 14.984375 17.28125 19.8125 11.734375 
Q 24.65625 6.203125 33.40625 6.203125 
Q 37.3125 6.203125 41.140625 7.25 
Q 44.96875 8.296875 48.78125 10.40625 
L 48.78125 2.09375 
Q 45.015625 0.34375 40.984375 -0.53125 
Q 36.96875 -1.421875 32.421875 -1.421875 
Q 20.0625 -1.421875 12.78125 6.34375 
Q 5.515625 14.109375 5.515625 27.296875 
Q 5.515625 40.671875 12.859375 48.328125 
Q 20.21875 56 33.015625 56 
Q 37.15625 56 41.109375 55.140625 
Q 45.0625 54.296875 48.78125 52.59375 
z
" id="DejaVuSans-63"/>
      <path d="M 56.203125 29.59375 
L 56.203125 25.203125 
L 14.890625 25.203125 
Q 15.484375 15.921875 20.484375 11.0625 
Q 25.484375 6.203125 34.421875 6.203125 
Q 39.59375 6.203125 44.453125 7.46875 
Q 49.3125 8.734375 54.109375 11.28125 
L 54.109375 2.78125 
Q 49.265625 0.734375 44.1875 -0.34375 
Q 39.109375 -1.421875 33.890625 -1.421875 
Q 20.796875 -1.421875 13.15625 6.1875 
Q 5.515625 13.8125 5.515625 26.8125 
Q 5.515625 40.234375 12.765625 48.109375 
Q 20.015625 56 32.328125 56 
Q 43.359375 56 49.78125 48.890625 
Q 56.203125 41.796875 56.203125 29.59375 
z
M 47.21875 32.234375 
Q 47.125 39.59375 43.09375 43.984375 
Q 39.0625 48.390625 32.421875 48.390625 
Q 24.90625 48.390625 20.390625 44.140625 
Q 15.875 39.890625 15.1875 32.171875 
z
" id="DejaVuSans-65"/>
      <path d="M 31 75.875 
Q 24.46875 64.65625 21.28125 53.65625 
Q 18.109375 42.671875 18.109375 31.390625 
Q 18.109375 20.125 21.3125 9.0625 
Q 24.515625 -2 31 -13.1875 
L 23.1875 -13.1875 
Q 15.875 -1.703125 12.234375 9.375 
Q 8.59375 20.453125 8.59375 31.390625 
Q 8.59375 42.28125 12.203125 53.3125 
Q 15.828125 64.359375 23.1875 75.875 
z
" id="DejaVuSans-28"/>
      <path d="M 9.078125 75.984375 
L 18.109375 75.984375 
L 18.109375 31.109375 
L 44.921875 54.6875 
L 56.390625 54.6875 
L 27.390625 29.109375 
L 57.625 0 
L 45.90625 0 
L 18.109375 26.703125 
L 18.109375 0 
L 9.078125 0 
z
" id="DejaVuSans-6b"/>
      <path d="M 52 44.1875 
Q 55.375 50.25 60.0625 53.125 
Q 64.75 56 71.09375 56 
Q 79.640625 56 84.28125 50.015625 
Q 88.921875 44.046875 88.921875 33.015625 
L 88.921875 0 
L 79.890625 0 
L 79.890625 32.71875 
Q 79.890625 40.578125 77.09375 44.375 
Q 74.3125 48.1875 68.609375 48.1875 
Q 61.625 48.1875 57.5625 43.546875 
Q 53.515625 38.921875 53.515625 30.90625 
L 53.515625 0 
L 44.484375 0 
L 44.484375 32.71875 
Q 44.484375 40.625 41.703125 44.40625 
Q 38.921875 48.1875 33.109375 48.1875 
Q 26.21875 48.1875 22.15625 43.53125 
Q 18.109375 38.875 18.109375 30.90625 
L 18.109375 0 
L 9.078125 0 
L 9.078125 54.6875 
L 18.109375 54.6875 
L 18.109375 46.1875 
Q 21.1875 51.21875 25.484375 53.609375 
Q 29.78125 56 35.6875 56 
Q 41.65625 56 45.828125 52.96875 
Q 50 49.953125 52 44.1875 
z
" id="DejaVuSans-6d"/>
      <path d="M 8.015625 75.875 
L 15.828125 75.875 
Q 23.140625 64.359375 26.78125 53.3125 
Q 30.421875 42.28125 30.421875 31.390625 
Q 30.421875 20.453125 26.78125 9.375 
Q 23.140625 -1.703125 15.828125 -13.1875 
L 8.015625 -13.1875 
Q 14.5 -2 17.703125 9.0625 
Q 20.90625 20.125 20.90625 31.390625 
Q 20.90625 42.671875 17.703125 53.65625 
Q 14.5 64.65625 8.015625 75.875 
z
" id="DejaVuSans-29"/>
     </defs>
     <g transform="translate(197.863125 335.860562)scale(0.1 -0.1)">
      <use xlink:href="#DejaVuSans-20"/>
      <use x="31.787109" xlink:href="#DejaVuSans-44"/>
      <use x="108.789062" xlink:href="#DejaVuSans-69"/>
      <use x="136.572266" xlink:href="#DejaVuSans-73"/>
      <use x="188.671875" xlink:href="#DejaVuSans-74"/>
      <use x="227.880859" xlink:href="#DejaVuSans-61"/>
      <use x="289.160156" xlink:href="#DejaVuSans-6e"/>
      <use x="352.539062" xlink:href="#DejaVuSans-63"/>
      <use x="407.519531" xlink:href="#DejaVuSans-65"/>
      <use x="469.042969" xlink:href="#DejaVuSans-20"/>
      <use x="500.830078" xlink:href="#DejaVuSans-28"/>
      <use x="539.84375" xlink:href="#DejaVuSans-6b"/>
      <use x="597.753906" xlink:href="#DejaVuSans-6d"/>
      <use x="695.166016" xlink:href="#DejaVuSans-29"/>
      <use x="734.179688" xlink:href="#DejaVuSans-20"/>
     </g>
    </g>
   </g>
   <g id="matplotlib.axis_2">
    <g id="ytick_1">
     <g id="line2d_8">
      <defs>
       <path d="M 0 0 
L -3.5 0 
" id="m146ae1c240" style="stroke:#000000;stroke-width:0.8;"/>
      </defs>
      <g>
       <use style="stroke:#000000;stroke-width:0.8;" x="57.6" xlink:href="#m146ae1c240" y="306.650649"/>
      </g>
     </g>
     <g id="text_9">
      <!-- −1600 -->
      <defs>
       <path d="M 10.59375 35.5 
L 73.1875 35.5 
L 73.1875 27.203125 
L 10.59375 27.203125 
z
" id="DejaVuSans-2212"/>
      </defs>
      <g transform="translate(16.770313 310.449868)scale(0.1 -0.1)">
       <use xlink:href="#DejaVuSans-2212"/>
       <use x="83.789062" xlink:href="#DejaVuSans-31"/>
       <use x="147.412109" xlink:href="#DejaVuSans-36"/>
       <use x="211.035156" xlink:href="#DejaVuSans-30"/>
       <use x="274.658203" xlink:href="#DejaVuSans-30"/>
      </g>
     </g>
    </g>
    <g id="ytick_2">
     <g id="line2d_9">
      <g>
       <use style="stroke:#000000;stroke-width:0.8;" x="57.6" xlink:href="#m146ae1c240" y="274.679897"/>
      </g>
     </g>
     <g id="text_10">
      <!-- −1400 -->
      <g transform="translate(16.770313 278.479115)scale(0.1 -0.1)">
       <use xlink:href="#DejaVuSans-2212"/>
       <use x="83.789062" xlink:href="#DejaVuSans-31"/>
       <use x="147.412109" xlink:href="#DejaVuSans-34"/>
       <use x="211.035156" xlink:href="#DejaVuSans-30"/>
       <use x="274.658203" xlink:href="#DejaVuSans-30"/>
      </g>
     </g>
    </g>
    <g id="ytick_3">
     <g id="line2d_10">
      <g>
       <use style="stroke:#000000;stroke-width:0.8;" x="57.6" xlink:href="#m146ae1c240" y="242.709145"/>
      </g>
     </g>
     <g id="text_11">
      <!-- −1200 -->
      <g transform="translate(16.770313 246.508363)scale(0.1 -0.1)">
       <use xlink:href="#DejaVuSans-2212"/>
       <use x="83.789062" xlink:href="#DejaVuSans-31"/>
       <use x="147.412109" xlink:href="#DejaVuSans-32"/>
       <use x="211.035156" xlink:href="#DejaVuSans-30"/>
       <use x="274.658203" xlink:href="#DejaVuSans-30"/>
      </g>
     </g>
    </g>
    <g id="ytick_4">
     <g id="line2d_11">
      <g>
       <use style="stroke:#000000;stroke-width:0.8;" x="57.6" xlink:href="#m146ae1c240" y="210.738392"/>
      </g>
     </g>
     <g id="text_12">
      <!-- −1000 -->
      <g transform="translate(16.770313 214.537611)scale(0.1 -0.1)">
       <use xlink:href="#DejaVuSans-2212"/>
       <use x="83.789062" xlink:href="#DejaVuSans-31"/>
       <use x="147.412109" xlink:href="#DejaVuSans-30"/>
       <use x="211.035156" xlink:href="#DejaVuSans-30"/>
       <use x="274.658203" xlink:href="#DejaVuSans-30"/>
      </g>
     </g>
    </g>
    <g id="ytick_5">
     <g id="line2d_12">
      <g>
       <use style="stroke:#000000;stroke-width:0.8;" x="57.6" xlink:href="#m146ae1c240" y="178.76764"/>
      </g>
     </g>
     <g id="text_13">
      <!-- −800 -->
      <g transform="translate(23.132812 182.566859)scale(0.1 -0.1)">
       <use xlink:href="#DejaVuSans-2212"/>
       <use x="83.789062" xlink:href="#DejaVuSans-38"/>
       <use x="147.412109" xlink:href="#DejaVuSans-30"/>
       <use x="211.035156" xlink:href="#DejaVuSans-30"/>
      </g>
     </g>
    </g>
    <g id="ytick_6">
     <g id="line2d_13">
      <g>
       <use style="stroke:#000000;stroke-width:0.8;" x="57.6" xlink:href="#m146ae1c240" y="146.796888"/>
      </g>
     </g>
     <g id="text_14">
      <!-- −600 -->
      <g transform="translate(23.132812 150.596107)scale(0.1 -0.1)">
       <use xlink:href="#DejaVuSans-2212"/>
       <use x="83.789062" xlink:href="#DejaVuSans-36"/>
       <use x="147.412109" xlink:href="#DejaVuSans-30"/>
       <use x="211.035156" xlink:href="#DejaVuSans-30"/>
      </g>
     </g>
    </g>
    <g id="ytick_7">
     <g id="line2d_14">
      <g>
       <use style="stroke:#000000;stroke-width:0.8;" x="57.6" xlink:href="#m146ae1c240" y="114.826136"/>
      </g>
     </g>
     <g id="text_15">
      <!-- −400 -->
      <g transform="translate(23.132812 118.625355)scale(0.1 -0.1)">
       <use xlink:href="#DejaVuSans-2212"/>
       <use x="83.789062" xlink:href="#DejaVuSans-34"/>
       <use x="147.412109" xlink:href="#DejaVuSans-30"/>
       <use x="211.035156" xlink:href="#DejaVuSans-30"/>
      </g>
     </g>
    </g>
    <g id="ytick_8">
     <g id="line2d_15">
      <g>
       <use style="stroke:#000000;stroke-width:0.8;" x="57.6" xlink:href="#m146ae1c240" y="82.855384"/>
      </g>
     </g>
     <g id="text_16">
      <!-- −200 -->
      <g transform="translate(23.132812 86.654603)scale(0.1 -0.1)">
       <use xlink:href="#DejaVuSans-2212"/>
       <use x="83.789062" xlink:href="#DejaVuSans-32"/>
       <use x="147.412109" xlink:href="#DejaVuSans-30"/>
       <use x="211.035156" xlink:href="#DejaVuSans-30"/>
      </g>
     </g>
    </g>
    <g id="ytick_9">
     <g id="line2d_16">
      <g>
       <use style="stroke:#000000;stroke-width:0.8;" x="57.6" xlink:href="#m146ae1c240" y="50.884632"/>
      </g>
     </g>
     <g id="text_17">
      <!-- 0 -->
      <g transform="translate(44.2375 54.68385)scale(0.1 -0.1)">
       <use xlink:href="#DejaVuSans-30"/>
      </g>
     </g>
    </g>
    <g id="text_18">
     <!--  Height in meters -->
     <defs>
      <path d="M 9.8125 72.90625 
L 19.671875 72.90625 
L 19.671875 43.015625 
L 55.515625 43.015625 
L 55.515625 72.90625 
L 65.375 72.90625 
L 65.375 0 
L 55.515625 0 
L 55.515625 34.71875 
L 19.671875 34.71875 
L 19.671875 0 
L 9.8125 0 
z
" id="DejaVuSans-48"/>
      <path d="M 45.40625 27.984375 
Q 45.40625 37.75 41.375 43.109375 
Q 37.359375 48.484375 30.078125 48.484375 
Q 22.859375 48.484375 18.828125 43.109375 
Q 14.796875 37.75 14.796875 27.984375 
Q 14.796875 18.265625 18.828125 12.890625 
Q 22.859375 7.515625 30.078125 7.515625 
Q 37.359375 7.515625 41.375 12.890625 
Q 45.40625 18.265625 45.40625 27.984375 
z
M 54.390625 6.78125 
Q 54.390625 -7.171875 48.1875 -13.984375 
Q 42 -20.796875 29.203125 -20.796875 
Q 24.46875 -20.796875 20.265625 -20.09375 
Q 16.0625 -19.390625 12.109375 -17.921875 
L 12.109375 -9.1875 
Q 16.0625 -11.328125 19.921875 -12.34375 
Q 23.78125 -13.375 27.78125 -13.375 
Q 36.625 -13.375 41.015625 -8.765625 
Q 45.40625 -4.15625 45.40625 5.171875 
L 45.40625 9.625 
Q 42.625 4.78125 38.28125 2.390625 
Q 33.9375 0 27.875 0 
Q 17.828125 0 11.671875 7.65625 
Q 5.515625 15.328125 5.515625 27.984375 
Q 5.515625 40.671875 11.671875 48.328125 
Q 17.828125 56 27.875 56 
Q 33.9375 56 38.28125 53.609375 
Q 42.625 51.21875 45.40625 46.390625 
L 45.40625 54.6875 
L 54.390625 54.6875 
z
" id="DejaVuSans-67"/>
      <path d="M 54.890625 33.015625 
L 54.890625 0 
L 45.90625 0 
L 45.90625 32.71875 
Q 45.90625 40.484375 42.875 44.328125 
Q 39.84375 48.1875 33.796875 48.1875 
Q 26.515625 48.1875 22.3125 43.546875 
Q 18.109375 38.921875 18.109375 30.90625 
L 18.109375 0 
L 9.078125 0 
L 9.078125 75.984375 
L 18.109375 75.984375 
L 18.109375 46.1875 
Q 21.34375 51.125 25.703125 53.5625 
Q 30.078125 56 35.796875 56 
Q 45.21875 56 50.046875 50.171875 
Q 54.890625 44.34375 54.890625 33.015625 
z
" id="DejaVuSans-68"/>
      <path d="M 41.109375 46.296875 
Q 39.59375 47.171875 37.8125 47.578125 
Q 36.03125 48 33.890625 48 
Q 26.265625 48 22.1875 43.046875 
Q 18.109375 38.09375 18.109375 28.8125 
L 18.109375 0 
L 9.078125 0 
L 9.078125 54.6875 
L 18.109375 54.6875 
L 18.109375 46.1875 
Q 20.953125 51.171875 25.484375 53.578125 
Q 30.03125 56 36.53125 56 
Q 37.453125 56 38.578125 55.875 
Q 39.703125 55.765625 41.0625 55.515625 
z
" id="DejaVuSans-72"/>
     </defs>
     <g transform="translate(10.690625 218.025656)rotate(-90)scale(0.1 -0.1)">
      <use xlink:href="#DejaVuSans-20"/>
      <use x="31.787109" xlink:href="#DejaVuSans-48"/>
      <use x="106.982422" xlink:href="#DejaVuSans-65"/>
      <use x="168.505859" xlink:href="#DejaVuSans-69"/>
      <use x="196.289062" xlink:href="#DejaVuSans-67"/>
      <use x="259.765625" xlink:href="#DejaVuSans-68"/>
      <use x="323.144531" xlink:href="#DejaVuSans-74"/>
      <use x="362.353516" xlink:href="#DejaVuSans-20"/>
      <use x="394.140625" xlink:href="#DejaVuSans-69"/>
      <use x="421.923828" xlink:href="#DejaVuSans-6e"/>
      <use x="485.302734" xlink:href="#DejaVuSans-20"/>
      <use x="517.089844" xlink:href="#DejaVuSans-6d"/>
      <use x="614.501953" xlink:href="#DejaVuSans-65"/>
      <use x="676.025391" xlink:href="#DejaVuSans-74"/>
      <use x="715.234375" xlink:href="#DejaVuSans-65"/>
      <use x="776.757812" xlink:href="#DejaVuSans-72"/>
      <use x="817.871094" xlink:href="#DejaVuSans-73"/>
     </g>
    </g>
   </g>
   <g id="line2d_17">
    <path clip-path="url(#p3ffe3a1dcc)" d="M 73.832727 294.741454 
L 76.515823 295.488 
L 79.198918 290.061881 
L 81.882014 281.531296 
L 84.565109 275.462074 
L 87.248204 269.823352 
L 89.9313 260.349495 
L 92.614395 250.938881 
L 95.297491 236.156397 
L 97.980586 224.637215 
L 100.663681 183.58095 
L 103.346777 172.21586 
L 106.029872 133.341965 
L 108.712968 125.660095 
L 111.396063 112.643961 
L 114.079159 99.433502 
L 116.762254 91.079898 
L 119.445349 85.434858 
L 122.128445 79.534166 
L 124.81154 78.795119 
L 127.494636 78.668342 
L 130.177731 78.559002 
L 132.860826 78.603619 
L 135.543922 78.910324 
L 138.227017 78.244719 
L 140.910113 78.241966 
L 143.593208 77.224298 
L 146.276304 76.722655 
L 148.959399 76.865919 
L 151.642494 76.654271 
L 154.32559 75.911747 
L 157.008685 77.279638 
L 159.691781 77.887193 
L 162.374876 78.478484 
L 165.057971 79.18127 
L 167.741067 79.219008 
L 170.424162 78.503117 
L 173.107258 77.29633 
L 175.790353 77.50646 
L 178.473449 77.523307 
L 181.156544 77.034028 
L 183.839639 75.810995 
L 186.522735 75.755754 
L 189.20583 75.031134 
L 191.888926 75.325397 
L 194.572021 74.852996 
L 197.255116 76.596874 
L 199.938212 75.977119 
L 202.621307 78.221781 
L 205.304403 78.178264 
L 207.987498 78.593275 
L 210.670594 77.818278 
L 213.353689 77.569651 
L 216.036784 77.591518 
L 218.71988 76.251841 
L 221.402975 74.387797 
L 224.086071 73.422676 
L 226.769166 74.542611 
L 229.452261 75.023987 
L 232.135357 75.35475 
L 234.818452 76.561164 
L 237.501548 75.270232 
L 240.184643 76.995295 
L 242.867739 76.528019 
L 245.550834 76.003498 
L 248.233929 75.913307 
L 250.917025 77.688941 
L 253.60012 77.007988 
L 256.283216 75.873961 
L 258.966311 75.510799 
L 261.649406 73.23091 
L 264.332502 72.492725 
L 267.015597 72.699197 
L 269.698693 74.128475 
L 272.381788 75.679678 
L 275.064884 77.796827 
L 277.747979 77.906281 
L 280.431074 77.458815 
L 283.11417 75.002237 
L 285.797265 74.967629 
L 288.480361 73.830781 
L 291.163456 73.163361 
L 293.846551 71.265401 
L 296.529647 70.239866 
L 299.212742 70.081665 
L 301.895838 68.839142 
L 304.578933 68.526716 
L 307.262029 70.271302 
L 309.945124 71.345122 
L 312.628219 70.006917 
L 315.311315 69.757528 
L 317.99441 68.075422 
L 320.677506 67.74256 
L 323.360601 67.019135 
L 326.043696 66.742037 
L 328.726792 67.27367 
L 331.409887 67.096605 
L 334.092983 66.962534 
L 336.776078 67.552179 
L 339.459174 69.166134 
L 342.142269 69.430665 
L 344.825364 70.223095 
L 347.50846 69.477581 
L 350.191555 70.492335 
L 352.874651 70.352278 
L 355.557746 73.341024 
L 358.240841 73.276457 
L 360.923937 72.571354 
L 363.607032 70.884578 
L 366.290128 70.744687 
L 368.973223 70.166627 
L 371.656319 69.7028 
L 374.339414 70.195231 
L 377.022509 71.063835 
L 379.705605 72.046231 
L 382.3887 73.506834 
L 385.071796 73.180417 
L 387.754891 73.534297 
L 390.437986 73.655381 
L 393.121082 74.006537 
L 395.804177 76.239689 
L 398.487273 76.277473 
" style="fill:none;stroke:#1f77b4;stroke-linecap:square;stroke-width:1.5;"/>
   </g>
   <g id="line2d_18">
    <path clip-path="url(#p3ffe3a1dcc)" d="M 73.832727 282.009554 
L 76.515823 281.994235 
L 79.198918 278.24902 
L 81.882014 270.28243 
L 84.565109 264.0885 
L 87.248204 257.34669 
L 89.9313 243.131429 
L 92.614395 225.615995 
L 95.297491 205.223853 
L 97.980586 191.066073 
L 100.663681 141.716882 
L 103.346777 132.349194 
L 106.029872 106.240433 
L 108.712968 103.023315 
L 111.396063 93.773973 
L 114.079159 86.053381 
L 116.762254 83.216684 
L 119.445349 81.808563 
L 122.128445 79.809937 
L 124.81154 78.800249 
L 127.494636 77.962653 
L 130.177731 77.755763 
L 132.860826 77.670245 
L 135.543922 77.413551 
L 138.227017 77.159532 
L 140.910113 77.01917 
L 143.593208 76.781288 
L 146.276304 76.715584 
L 148.959399 76.715076 
L 151.642494 76.660429 
L 154.32559 76.752971 
L 157.008685 76.737664 
L 159.691781 76.683425 
L 162.374876 76.58923 
L 165.057971 76.488729 
L 167.741067 76.360976 
L 170.424162 76.281986 
L 173.107258 75.986927 
L 175.790353 75.919176 
L 178.473449 75.567102 
L 181.156544 75.41363 
L 183.839639 75.372111 
L 186.522735 75.246159 
L 189.20583 75.066847 
L 191.888926 74.964107 
L 194.572021 74.714035 
L 197.255116 74.414973 
L 199.938212 74.363221 
L 202.621307 73.93311 
L 205.304403 73.541986 
L 207.987498 73.58058 
L 210.670594 73.662704 
L 213.353689 73.807078 
L 216.036784 73.78934 
L 218.71988 73.69753 
L 221.402975 72.640643 
L 224.086071 72.534521 
L 226.769166 72.960076 
L 229.452261 73.104379 
L 232.135357 72.943355 
L 234.818452 73.008695 
L 237.501548 72.695907 
L 240.184643 72.231898 
L 242.867739 72.039446 
L 245.550834 71.756512 
L 248.233929 71.59565 
L 250.917025 71.563383 
L 253.60012 71.016346 
L 256.283216 70.886001 
L 258.966311 70.849213 
L 261.649406 70.80191 
L 264.332502 71.167105 
L 267.015597 71.493077 
L 269.698693 72.104117 
L 272.381788 72.034642 
L 275.064884 71.648309 
L 277.747979 71.080791 
L 280.431074 70.552309 
L 283.11417 69.779923 
L 285.797265 69.694073 
L 288.480361 68.978512 
L 291.163456 68.436199 
L 293.846551 67.423727 
L 296.529647 68.334071 
L 299.212742 68.507459 
L 301.895838 66.836392 
L 304.578933 66.350368 
L 307.262029 66.064942 
L 309.945124 67.131106 
L 312.628219 65.22305 
L 315.311315 64.428716 
L 317.99441 63.356075 
L 320.677506 62.438382 
L 323.360601 61.928082 
L 326.043696 61.46258 
L 328.726792 61.205186 
L 331.409887 60.706587 
L 334.092983 61.518804 
L 336.776078 62.465523 
L 339.459174 64.000928 
L 342.142269 65.137289 
L 344.825364 65.364135 
L 347.50846 66.060446 
L 350.191555 66.874158 
L 352.874651 68.279026 
L 355.557746 70.251913 
L 358.240841 69.652345 
L 360.923937 68.746857 
L 363.607032 67.706661 
L 366.290128 68.109084 
L 368.973223 68.08338 
L 371.656319 67.533761 
L 374.339414 67.404626 
L 377.022509 67.415812 
L 379.705605 68.177571 
L 382.3887 68.47801 
L 385.071796 69.590229 
L 387.754891 70.95454 
L 390.437986 71.067205 
L 393.121082 65.666401 
L 395.804177 67.005013 
L 398.487273 67.020332 
" style="fill:none;stroke:#ff7f0e;stroke-linecap:square;stroke-width:1.5;"/>
   </g>
   <g id="line2d_19">
    <path clip-path="url(#p3ffe3a1dcc)" d="M 73.832727 295.100747 
L 76.515823 295.084762 
L 79.198918 290.549686 
L 81.882014 282.130163 
L 84.565109 276.467921 
L 87.248204 271.090341 
L 89.9313 263.043232 
L 92.614395 255.318824 
L 95.297491 246.804789 
L 97.980586 241.180642 
L 100.663681 211.094921 
L 103.346777 199.292119 
L 106.029872 161.474781 
L 108.712968 153.63539 
L 111.396063 131.338899 
L 114.079159 112.502128 
L 116.762254 104.162762 
L 119.445349 98.168955 
L 122.128445 90.182584 
L 124.81154 85.262935 
L 127.494636 80.786553 
L 130.177731 79.77317 
L 132.860826 79.513433 
L 135.543922 79.113139 
L 138.227017 78.844271 
L 140.910113 78.829237 
L 143.593208 78.711798 
L 146.276304 78.695455 
L 148.959399 78.716277 
L 151.642494 78.545034 
L 154.32559 78.65789 
L 157.008685 78.567718 
L 159.691781 78.641743 
L 162.374876 78.744586 
L 165.057971 78.60872 
L 167.741067 78.508599 
L 170.424162 78.446086 
L 173.107258 78.716859 
L 175.790353 78.715501 
L 178.473449 78.357422 
L 181.156544 78.429209 
L 183.839639 78.593517 
L 186.522735 78.196007 
L 189.20583 78.313469 
L 191.888926 78.265295 
L 194.572021 77.964831 
L 197.255116 77.970347 
L 199.938212 78.154355 
L 202.621307 77.997224 
L 205.304403 77.522669 
L 207.987498 77.978383 
L 210.670594 78.069892 
L 213.353689 77.978651 
L 216.036784 78.01324 
L 218.71988 77.988657 
L 221.402975 78.091623 
L 224.086071 78.114568 
L 226.769166 78.277682 
L 229.452261 77.902791 
L 232.135357 77.49319 
L 234.818452 77.376272 
L 237.501548 77.601391 
L 240.184643 77.079567 
L 242.867739 77.524307 
L 245.550834 76.70666 
L 248.233929 76.200123 
L 250.917025 76.822496 
L 253.60012 76.445708 
L 256.283216 77.37299 
L 258.966311 76.321288 
L 261.649406 75.646056 
L 264.332502 76.250077 
L 267.015597 76.556124 
L 269.698693 76.942984 
L 272.381788 77.113943 
L 275.064884 76.420882 
L 277.747979 76.673602 
L 280.431074 75.9225 
L 283.11417 74.313504 
L 285.797265 74.42015 
L 288.480361 73.046304 
L 291.163456 71.998254 
L 293.846551 70.516987 
L 296.529647 71.79543 
L 299.212742 72.064772 
L 301.895838 70.035117 
L 304.578933 69.582845 
L 307.262029 69.027184 
L 309.945124 70.289416 
L 312.628219 68.435853 
L 315.311315 67.672036 
L 317.99441 66.781204 
L 320.677506 65.98197 
L 323.360601 65.585617 
L 326.043696 65.247225 
L 328.726792 65.185047 
L 331.409887 64.933686 
L 334.092983 66.017599 
L 336.776078 67.085812 
L 339.459174 68.822073 
L 342.142269 70.097148 
L 344.825364 70.342818 
L 347.50846 70.821244 
L 350.191555 71.549126 
L 352.874651 73.431454 
L 355.557746 75.463603 
L 358.240841 74.829662 
L 360.923937 75.775203 
L 363.607032 76.060058 
L 366.290128 75.888816 
L 368.973223 75.456846 
L 371.656319 74.387249 
L 374.339414 75.11232 
L 377.022509 75.789759 
L 379.705605 74.652932 
L 382.3887 74.705431 
L 385.071796 75.695767 
L 387.754891 77.374208 
L 390.437986 77.580083 
L 393.121082 73.766 
L 395.804177 77.41244 
L 398.487273 77.428425 
" style="fill:none;stroke:#2ca02c;stroke-linecap:square;stroke-width:1.5;"/>
   </g>
   <g id="line2d_20">
    <path clip-path="url(#p3ffe3a1dcc)" d="M 73.832727 285.38599 
L 76.515823 285.370005 
L 79.198918 280.865239 
L 81.882014 263.470877 
L 84.565109 245.031673 
L 87.248204 227.404328 
L 89.9313 180.828707 
L 92.614395 120.926118 
L 95.297491 87.897963 
L 97.980586 85.539413 
L 100.663681 79.145901 
L 103.346777 79.069014 
L 106.029872 78.860628 
L 108.712968 78.860589 
L 111.396063 78.859967 
L 114.079159 78.734149 
L 116.762254 78.56833 
L 119.445349 78.548955 
L 122.128445 78.379653 
L 124.81154 78.255074 
L 127.494636 77.793098 
L 130.177731 77.620289 
L 132.860826 77.588834 
L 135.543922 77.28572 
L 138.227017 77.048255 
L 140.910113 76.634822 
L 143.593208 76.42671 
L 146.276304 76.254 
L 148.959399 76.138591 
L 151.642494 76.062245 
L 154.32559 75.738669 
L 157.008685 75.989234 
L 159.691781 75.830847 
L 162.374876 75.480163 
L 165.057971 75.366554 
L 167.741067 74.992143 
L 170.424162 74.9216 
L 173.107258 73.836356 
L 175.790353 73.768263 
L 178.473449 73.17432 
L 181.156544 72.743209 
L 183.839639 72.345622 
L 186.522735 72.276158 
L 189.20583 72.115883 
L 191.888926 71.974113 
L 194.572021 71.553417 
L 197.255116 70.806052 
L 199.938212 70.804193 
L 202.621307 70.033952 
L 205.304403 69.752494 
L 207.987498 69.609861 
L 210.670594 69.125802 
L 213.353689 69.103992 
L 216.036784 68.626904 
L 218.71988 68.238535 
L 221.402975 67.443859 
L 224.086071 67.397589 
L 226.769166 67.653493 
L 229.452261 67.46964 
L 232.135357 67.673766 
L 234.818452 67.56838 
L 237.501548 67.082923 
L 240.184643 67.405162 
L 242.867739 67.274001 
L 245.550834 67.324017 
L 248.233929 67.154103 
L 250.917025 66.946234 
L 253.60012 66.326708 
L 256.283216 65.976956 
L 258.966311 66.624707 
L 261.649406 66.460906 
L 264.332502 66.328639 
L 267.015597 66.36972 
L 269.698693 66.874469 
L 272.381788 67.302162 
L 275.064884 67.113655 
L 277.747979 67.004999 
L 280.431074 66.842007 
L 283.11417 66.103435 
L 285.797265 66.181832 
L 288.480361 65.930301 
L 291.163456 65.630156 
L 293.846551 64.672082 
L 296.529647 65.73339 
L 299.212742 65.858382 
L 301.895838 63.351631 
L 304.578933 62.580159 
L 307.262029 62.178724 
L 309.945124 63.801749 
L 312.628219 60.89402 
L 315.311315 59.733508 
L 317.99441 58.03793 
L 320.677506 56.495995 
L 323.360601 55.610392 
L 326.043696 54.778081 
L 328.726792 54.32392 
L 331.409887 53.568 
L 334.092983 54.639488 
L 336.776078 55.905605 
L 339.459174 57.95587 
L 342.142269 59.456271 
L 344.825364 59.750928 
L 347.50846 60.326017 
L 350.191555 60.631284 
L 352.874651 61.638255 
L 355.557746 63.851952 
L 358.240841 63.244965 
L 360.923937 61.462882 
L 363.607032 59.815421 
L 366.290128 59.958474 
L 368.973223 59.870156 
L 371.656319 59.468371 
L 374.339414 59.674597 
L 377.022509 59.282066 
L 379.705605 59.868223 
L 382.3887 59.657039 
L 385.071796 60.072116 
L 387.754891 61.058507 
L 390.437986 60.683865 
L 393.121082 57.078447 
L 395.804177 57.401819 
L 398.487273 57.417804 
" style="fill:none;stroke:#d62728;stroke-linecap:square;stroke-width:1.5;"/>
   </g>
   <g id="patch_3">
    <path d="M 57.6 307.584 
L 57.6 41.472 
" style="fill:none;stroke:#000000;stroke-linecap:square;stroke-linejoin:miter;stroke-width:0.8;"/>
   </g>
   <g id="patch_4">
    <path d="M 414.72 307.584 
L 414.72 41.472 
" style="fill:none;stroke:#000000;stroke-linecap:square;stroke-linejoin:miter;stroke-width:0.8;"/>
   </g>
   <g id="patch_5">
    <path d="M 57.6 307.584 
L 414.72 307.584 
" style="fill:none;stroke:#000000;stroke-linecap:square;stroke-linejoin:miter;stroke-width:0.8;"/>
   </g>
   <g id="patch_6">
    <path d="M 57.6 41.472 
L 414.72 41.472 
" style="fill:none;stroke:#000000;stroke-linecap:square;stroke-linejoin:miter;stroke-width:0.8;"/>
   </g>
   <g id="text_19">
    <!-- Uncertainty in topography prediction  (cross section)   -->
    <defs>
     <path d="M 8.6875 72.90625 
L 18.609375 72.90625 
L 18.609375 28.609375 
Q 18.609375 16.890625 22.84375 11.734375 
Q 27.09375 6.59375 36.625 6.59375 
Q 46.09375 6.59375 50.34375 11.734375 
Q 54.59375 16.890625 54.59375 28.609375 
L 54.59375 72.90625 
L 64.5 72.90625 
L 64.5 27.390625 
Q 64.5 13.140625 57.4375 5.859375 
Q 50.390625 -1.421875 36.625 -1.421875 
Q 22.796875 -1.421875 15.734375 5.859375 
Q 8.6875 13.140625 8.6875 27.390625 
z
" id="DejaVuSans-55"/>
     <path d="M 32.171875 -5.078125 
Q 28.375 -14.84375 24.75 -17.8125 
Q 21.140625 -20.796875 15.09375 -20.796875 
L 7.90625 -20.796875 
L 7.90625 -13.28125 
L 13.1875 -13.28125 
Q 16.890625 -13.28125 18.9375 -11.515625 
Q 21 -9.765625 23.484375 -3.21875 
L 25.09375 0.875 
L 2.984375 54.6875 
L 12.5 54.6875 
L 29.59375 11.921875 
L 46.6875 54.6875 
L 56.203125 54.6875 
z
" id="DejaVuSans-79"/>
     <path d="M 30.609375 48.390625 
Q 23.390625 48.390625 19.1875 42.75 
Q 14.984375 37.109375 14.984375 27.296875 
Q 14.984375 17.484375 19.15625 11.84375 
Q 23.34375 6.203125 30.609375 6.203125 
Q 37.796875 6.203125 41.984375 11.859375 
Q 46.1875 17.53125 46.1875 27.296875 
Q 46.1875 37.015625 41.984375 42.703125 
Q 37.796875 48.390625 30.609375 48.390625 
z
M 30.609375 56 
Q 42.328125 56 49.015625 48.375 
Q 55.71875 40.765625 55.71875 27.296875 
Q 55.71875 13.875 49.015625 6.21875 
Q 42.328125 -1.421875 30.609375 -1.421875 
Q 18.84375 -1.421875 12.171875 6.21875 
Q 5.515625 13.875 5.515625 27.296875 
Q 5.515625 40.765625 12.171875 48.375 
Q 18.84375 56 30.609375 56 
z
" id="DejaVuSans-6f"/>
     <path d="M 18.109375 8.203125 
L 18.109375 -20.796875 
L 9.078125 -20.796875 
L 9.078125 54.6875 
L 18.109375 54.6875 
L 18.109375 46.390625 
Q 20.953125 51.265625 25.265625 53.625 
Q 29.59375 56 35.59375 56 
Q 45.5625 56 51.78125 48.09375 
Q 58.015625 40.1875 58.015625 27.296875 
Q 58.015625 14.40625 51.78125 6.484375 
Q 45.5625 -1.421875 35.59375 -1.421875 
Q 29.59375 -1.421875 25.265625 0.953125 
Q 20.953125 3.328125 18.109375 8.203125 
z
M 48.6875 27.296875 
Q 48.6875 37.203125 44.609375 42.84375 
Q 40.53125 48.484375 33.40625 48.484375 
Q 26.265625 48.484375 22.1875 42.84375 
Q 18.109375 37.203125 18.109375 27.296875 
Q 18.109375 17.390625 22.1875 11.75 
Q 26.265625 6.109375 33.40625 6.109375 
Q 40.53125 6.109375 44.609375 11.75 
Q 48.6875 17.390625 48.6875 27.296875 
z
" id="DejaVuSans-70"/>
     <path d="M 45.40625 46.390625 
L 45.40625 75.984375 
L 54.390625 75.984375 
L 54.390625 0 
L 45.40625 0 
L 45.40625 8.203125 
Q 42.578125 3.328125 38.25 0.953125 
Q 33.9375 -1.421875 27.875 -1.421875 
Q 17.96875 -1.421875 11.734375 6.484375 
Q 5.515625 14.40625 5.515625 27.296875 
Q 5.515625 40.1875 11.734375 48.09375 
Q 17.96875 56 27.875 56 
Q 33.9375 56 38.25 53.625 
Q 42.578125 51.265625 45.40625 46.390625 
z
M 14.796875 27.296875 
Q 14.796875 17.390625 18.875 11.75 
Q 22.953125 6.109375 30.078125 6.109375 
Q 37.203125 6.109375 41.296875 11.75 
Q 45.40625 17.390625 45.40625 27.296875 
Q 45.40625 37.203125 41.296875 42.84375 
Q 37.203125 48.484375 30.078125 48.484375 
Q 22.953125 48.484375 18.875 42.84375 
Q 14.796875 37.203125 14.796875 27.296875 
z
" id="DejaVuSans-64"/>
    </defs>
    <g transform="translate(73.5525 35.472)scale(0.12 -0.12)">
     <use xlink:href="#DejaVuSans-55"/>
     <use x="73.193359" xlink:href="#DejaVuSans-6e"/>
     <use x="136.572266" xlink:href="#DejaVuSans-63"/>
     <use x="191.552734" xlink:href="#DejaVuSans-65"/>
     <use x="253.076172" xlink:href="#DejaVuSans-72"/>
     <use x="294.189453" xlink:href="#DejaVuSans-74"/>
     <use x="333.398438" xlink:href="#DejaVuSans-61"/>
     <use x="394.677734" xlink:href="#DejaVuSans-69"/>
     <use x="422.460938" xlink:href="#DejaVuSans-6e"/>
     <use x="485.839844" xlink:href="#DejaVuSans-74"/>
     <use x="525.048828" xlink:href="#DejaVuSans-79"/>
     <use x="584.228516" xlink:href="#DejaVuSans-20"/>
     <use x="616.015625" xlink:href="#DejaVuSans-69"/>
     <use x="643.798828" xlink:href="#DejaVuSans-6e"/>
     <use x="707.177734" xlink:href="#DejaVuSans-20"/>
     <use x="738.964844" xlink:href="#DejaVuSans-74"/>
     <use x="778.173828" xlink:href="#DejaVuSans-6f"/>
     <use x="839.355469" xlink:href="#DejaVuSans-70"/>
     <use x="902.832031" xlink:href="#DejaVuSans-6f"/>
     <use x="964.013672" xlink:href="#DejaVuSans-67"/>
     <use x="1027.490234" xlink:href="#DejaVuSans-72"/>
     <use x="1068.603516" xlink:href="#DejaVuSans-61"/>
     <use x="1129.882812" xlink:href="#DejaVuSans-70"/>
     <use x="1193.359375" xlink:href="#DejaVuSans-68"/>
     <use x="1256.738281" xlink:href="#DejaVuSans-79"/>
     <use x="1315.917969" xlink:href="#DejaVuSans-20"/>
     <use x="1347.705078" xlink:href="#DejaVuSans-70"/>
     <use x="1411.181641" xlink:href="#DejaVuSans-72"/>
     <use x="1452.263672" xlink:href="#DejaVuSans-65"/>
     <use x="1513.787109" xlink:href="#DejaVuSans-64"/>
     <use x="1577.263672" xlink:href="#DejaVuSans-69"/>
     <use x="1605.046875" xlink:href="#DejaVuSans-63"/>
     <use x="1660.027344" xlink:href="#DejaVuSans-74"/>
     <use x="1699.236328" xlink:href="#DejaVuSans-69"/>
     <use x="1727.019531" xlink:href="#DejaVuSans-6f"/>
     <use x="1788.201172" xlink:href="#DejaVuSans-6e"/>
     <use x="1851.580078" xlink:href="#DejaVuSans-20"/>
     <use x="1883.367188" xlink:href="#DejaVuSans-20"/>
     <use x="1915.154297" xlink:href="#DejaVuSans-28"/>
     <use x="1954.167969" xlink:href="#DejaVuSans-63"/>
     <use x="2009.148438" xlink:href="#DejaVuSans-72"/>
     <use x="2050.230469" xlink:href="#DejaVuSans-6f"/>
     <use x="2111.412109" xlink:href="#DejaVuSans-73"/>
     <use x="2163.511719" xlink:href="#DejaVuSans-73"/>
     <use x="2215.611328" xlink:href="#DejaVuSans-20"/>
     <use x="2247.398438" xlink:href="#DejaVuSans-73"/>
     <use x="2299.498047" xlink:href="#DejaVuSans-65"/>
     <use x="2361.021484" xlink:href="#DejaVuSans-63"/>
     <use x="2416.001953" xlink:href="#DejaVuSans-74"/>
     <use x="2455.210938" xlink:href="#DejaVuSans-69"/>
     <use x="2482.994141" xlink:href="#DejaVuSans-6f"/>
     <use x="2544.175781" xlink:href="#DejaVuSans-6e"/>
     <use x="2607.554688" xlink:href="#DejaVuSans-29"/>
     <use x="2646.568359" xlink:href="#DejaVuSans-20"/>
     <use x="2678.355469" xlink:href="#DejaVuSans-20"/>
    </g>
   </g>
   <g id="legend_1">
    <g id="patch_7">
     <path d="M 277.843437 108.1845 
L 407.72 108.1845 
Q 409.72 108.1845 409.72 106.1845 
L 409.72 48.472 
Q 409.72 46.472 407.72 46.472 
L 277.843437 46.472 
Q 275.843437 46.472 275.843437 48.472 
L 275.843437 106.1845 
Q 275.843437 108.1845 277.843437 108.1845 
z
" style="fill:#ffffff;opacity:0.8;stroke:#cccccc;stroke-linejoin:miter;"/>
    </g>
    <g id="line2d_21">
     <path d="M 279.843437 54.570438 
L 299.843437 54.570438 
" style="fill:none;stroke:#1f77b4;stroke-linecap:square;stroke-width:1.5;"/>
    </g>
    <g id="line2d_22"/>
    <g id="text_20">
     <!-- ground truth -->
     <defs>
      <path d="M 8.5 21.578125 
L 8.5 54.6875 
L 17.484375 54.6875 
L 17.484375 21.921875 
Q 17.484375 14.15625 20.5 10.265625 
Q 23.53125 6.390625 29.59375 6.390625 
Q 36.859375 6.390625 41.078125 11.03125 
Q 45.3125 15.671875 45.3125 23.6875 
L 45.3125 54.6875 
L 54.296875 54.6875 
L 54.296875 0 
L 45.3125 0 
L 45.3125 8.40625 
Q 42.046875 3.421875 37.71875 1 
Q 33.40625 -1.421875 27.6875 -1.421875 
Q 18.265625 -1.421875 13.375 4.4375 
Q 8.5 10.296875 8.5 21.578125 
z
M 31.109375 56 
z
" id="DejaVuSans-75"/>
     </defs>
     <g transform="translate(307.843437 58.070438)scale(0.1 -0.1)">
      <use xlink:href="#DejaVuSans-67"/>
      <use x="63.476562" xlink:href="#DejaVuSans-72"/>
      <use x="104.558594" xlink:href="#DejaVuSans-6f"/>
      <use x="165.740234" xlink:href="#DejaVuSans-75"/>
      <use x="229.119141" xlink:href="#DejaVuSans-6e"/>
      <use x="292.498047" xlink:href="#DejaVuSans-64"/>
      <use x="355.974609" xlink:href="#DejaVuSans-20"/>
      <use x="387.761719" xlink:href="#DejaVuSans-74"/>
      <use x="426.970703" xlink:href="#DejaVuSans-72"/>
      <use x="468.083984" xlink:href="#DejaVuSans-75"/>
      <use x="531.462891" xlink:href="#DejaVuSans-74"/>
      <use x="570.671875" xlink:href="#DejaVuSans-68"/>
     </g>
    </g>
    <g id="line2d_23">
     <path d="M 279.843437 69.248563 
L 299.843437 69.248563 
" style="fill:none;stroke:#ff7f0e;stroke-linecap:square;stroke-width:1.5;"/>
    </g>
    <g id="line2d_24"/>
    <g id="text_21">
     <!-- pred. (mean) -->
     <defs>
      <path d="M 10.6875 12.40625 
L 21 12.40625 
L 21 0 
L 10.6875 0 
z
" id="DejaVuSans-2e"/>
     </defs>
     <g transform="translate(307.843437 72.748563)scale(0.1 -0.1)">
      <use xlink:href="#DejaVuSans-70"/>
      <use x="63.476562" xlink:href="#DejaVuSans-72"/>
      <use x="104.558594" xlink:href="#DejaVuSans-65"/>
      <use x="166.082031" xlink:href="#DejaVuSans-64"/>
      <use x="229.558594" xlink:href="#DejaVuSans-2e"/>
      <use x="261.345703" xlink:href="#DejaVuSans-20"/>
      <use x="293.132812" xlink:href="#DejaVuSans-28"/>
      <use x="332.146484" xlink:href="#DejaVuSans-6d"/>
      <use x="429.558594" xlink:href="#DejaVuSans-65"/>
      <use x="491.082031" xlink:href="#DejaVuSans-61"/>
      <use x="552.361328" xlink:href="#DejaVuSans-6e"/>
      <use x="615.740234" xlink:href="#DejaVuSans-29"/>
     </g>
    </g>
    <g id="line2d_25">
     <path d="M 279.843437 83.926688 
L 299.843437 83.926688 
" style="fill:none;stroke:#2ca02c;stroke-linecap:square;stroke-width:1.5;"/>
    </g>
    <g id="line2d_26"/>
    <g id="text_22">
     <!-- pred.(5th percen.) -->
     <defs>
      <path d="M 10.796875 72.90625 
L 49.515625 72.90625 
L 49.515625 64.59375 
L 19.828125 64.59375 
L 19.828125 46.734375 
Q 21.96875 47.46875 24.109375 47.828125 
Q 26.265625 48.1875 28.421875 48.1875 
Q 40.625 48.1875 47.75 41.5 
Q 54.890625 34.8125 54.890625 23.390625 
Q 54.890625 11.625 47.5625 5.09375 
Q 40.234375 -1.421875 26.90625 -1.421875 
Q 22.3125 -1.421875 17.546875 -0.640625 
Q 12.796875 0.140625 7.71875 1.703125 
L 7.71875 11.625 
Q 12.109375 9.234375 16.796875 8.0625 
Q 21.484375 6.890625 26.703125 6.890625 
Q 35.15625 6.890625 40.078125 11.328125 
Q 45.015625 15.765625 45.015625 23.390625 
Q 45.015625 31 40.078125 35.4375 
Q 35.15625 39.890625 26.703125 39.890625 
Q 22.75 39.890625 18.8125 39.015625 
Q 14.890625 38.140625 10.796875 36.28125 
z
" id="DejaVuSans-35"/>
     </defs>
     <g transform="translate(307.843437 87.426688)scale(0.1 -0.1)">
      <use xlink:href="#DejaVuSans-70"/>
      <use x="63.476562" xlink:href="#DejaVuSans-72"/>
      <use x="104.558594" xlink:href="#DejaVuSans-65"/>
      <use x="166.082031" xlink:href="#DejaVuSans-64"/>
      <use x="229.558594" xlink:href="#DejaVuSans-2e"/>
      <use x="261.345703" xlink:href="#DejaVuSans-28"/>
      <use x="300.359375" xlink:href="#DejaVuSans-35"/>
      <use x="363.982422" xlink:href="#DejaVuSans-74"/>
      <use x="403.191406" xlink:href="#DejaVuSans-68"/>
      <use x="466.570312" xlink:href="#DejaVuSans-20"/>
      <use x="498.357422" xlink:href="#DejaVuSans-70"/>
      <use x="561.833984" xlink:href="#DejaVuSans-65"/>
      <use x="623.357422" xlink:href="#DejaVuSans-72"/>
      <use x="664.439453" xlink:href="#DejaVuSans-63"/>
      <use x="719.419922" xlink:href="#DejaVuSans-65"/>
      <use x="780.943359" xlink:href="#DejaVuSans-6e"/>
      <use x="844.322266" xlink:href="#DejaVuSans-2e"/>
      <use x="876.109375" xlink:href="#DejaVuSans-29"/>
     </g>
    </g>
    <g id="line2d_27">
     <path d="M 279.843437 98.604813 
L 299.843437 98.604813 
" style="fill:none;stroke:#d62728;stroke-linecap:square;stroke-width:1.5;"/>
    </g>
    <g id="line2d_28"/>
    <g id="text_23">
     <!-- pred.(95th percen.) -->
     <defs>
      <path d="M 10.984375 1.515625 
L 10.984375 10.5 
Q 14.703125 8.734375 18.5 7.8125 
Q 22.3125 6.890625 25.984375 6.890625 
Q 35.75 6.890625 40.890625 13.453125 
Q 46.046875 20.015625 46.78125 33.40625 
Q 43.953125 29.203125 39.59375 26.953125 
Q 35.25 24.703125 29.984375 24.703125 
Q 19.046875 24.703125 12.671875 31.3125 
Q 6.296875 37.9375 6.296875 49.421875 
Q 6.296875 60.640625 12.9375 67.421875 
Q 19.578125 74.21875 30.609375 74.21875 
Q 43.265625 74.21875 49.921875 64.515625 
Q 56.59375 54.828125 56.59375 36.375 
Q 56.59375 19.140625 48.40625 8.859375 
Q 40.234375 -1.421875 26.421875 -1.421875 
Q 22.703125 -1.421875 18.890625 -0.6875 
Q 15.09375 0.046875 10.984375 1.515625 
z
M 30.609375 32.421875 
Q 37.25 32.421875 41.125 36.953125 
Q 45.015625 41.5 45.015625 49.421875 
Q 45.015625 57.28125 41.125 61.84375 
Q 37.25 66.40625 30.609375 66.40625 
Q 23.96875 66.40625 20.09375 61.84375 
Q 16.21875 57.28125 16.21875 49.421875 
Q 16.21875 41.5 20.09375 36.953125 
Q 23.96875 32.421875 30.609375 32.421875 
z
" id="DejaVuSans-39"/>
     </defs>
     <g transform="translate(307.843437 102.104813)scale(0.1 -0.1)">
      <use xlink:href="#DejaVuSans-70"/>
      <use x="63.476562" xlink:href="#DejaVuSans-72"/>
      <use x="104.558594" xlink:href="#DejaVuSans-65"/>
      <use x="166.082031" xlink:href="#DejaVuSans-64"/>
      <use x="229.558594" xlink:href="#DejaVuSans-2e"/>
      <use x="261.345703" xlink:href="#DejaVuSans-28"/>
      <use x="300.359375" xlink:href="#DejaVuSans-39"/>
      <use x="363.982422" xlink:href="#DejaVuSans-35"/>
      <use x="427.605469" xlink:href="#DejaVuSans-74"/>
      <use x="466.814453" xlink:href="#DejaVuSans-68"/>
      <use x="530.193359" xlink:href="#DejaVuSans-20"/>
      <use x="561.980469" xlink:href="#DejaVuSans-70"/>
      <use x="625.457031" xlink:href="#DejaVuSans-65"/>
      <use x="686.980469" xlink:href="#DejaVuSans-72"/>
      <use x="728.0625" xlink:href="#DejaVuSans-63"/>
      <use x="783.042969" xlink:href="#DejaVuSans-65"/>
      <use x="844.566406" xlink:href="#DejaVuSans-6e"/>
      <use x="907.945312" xlink:href="#DejaVuSans-2e"/>
      <use x="939.732422" xlink:href="#DejaVuSans-29"/>
     </g>
    </g>
   </g>
  </g>
 </g>
 <defs>
  <clipPath id="p3ffe3a1dcc">
   <rect height="266.112" width="357.12" x="57.6" y="41.472"/>
  </clipPath>
 </defs>
</svg>
