<?xml version="1.0" encoding="utf-8" standalone="no"?>
<!DOCTYPE svg PUBLIC "-//W3C//DTD SVG 1.1//EN"
  "http://www.w3.org/Graphics/SVG/1.1/DTD/svg11.dtd">
<!-- Created with matplotlib (http://matplotlib.org/) -->
<svg height="345pt" version="1.1" viewBox="0 0 460 345" width="460pt" xmlns="http://www.w3.org/2000/svg" xmlns:xlink="http://www.w3.org/1999/xlink">
 <defs>
  <style type="text/css">
*{stroke-linecap:butt;stroke-linejoin:round;}
  </style>
 </defs>
 <g id="figure_1">
  <g id="patch_1">
   <path d="M 0 345.6 
L 460.8 345.6 
L 460.8 0 
L 0 0 
z
" style="fill:#ffffff;"/>
  </g>
  <g id="axes_1">
   <g id="patch_2">
    <path d="M 57.6 307.584 
L 414.72 307.584 
L 414.72 41.472 
L 57.6 41.472 
z
" style="fill:#ffffff;"/>
   </g>
   <g id="PolyCollection_1">
    <path clip-path="url(#pddf9050f30)" d="M 73.832727 58.419235 
L 73.832727 98.640485 
L 77.44 98.631433 
L 81.047273 94.071557 
L 84.654545 133.23259 
L 88.261818 136.836378 
L 91.869091 143.003138 
L 95.476364 147.581306 
L 99.083636 156.770679 
L 102.690909 161.263466 
L 106.298182 163.255236 
L 109.905455 164.525033 
L 113.512727 165.048121 
L 117.12 164.845149 
L 120.727273 165.702453 
L 124.334545 167.971946 
L 127.941818 167.67312 
L 131.549091 167.531823 
L 135.156364 166.845196 
L 138.763636 166.461031 
L 142.370909 166.79948 
L 145.978182 167.703224 
L 149.585455 168.566467 
L 153.192727 167.862442 
L 156.8 165.563298 
L 160.407273 164.813773 
L 164.014545 164.610802 
L 167.621818 164.618019 
L 171.229091 164.533141 
L 174.836364 165.156756 
L 178.443636 166.389652 
L 182.050909 167.015923 
L 185.658182 167.850123 
L 189.265455 168.256012 
L 192.872727 168.770411 
L 196.48 169.160055 
L 200.087273 169.99084 
L 203.694545 169.989868 
L 207.301818 169.770976 
L 210.909091 169.765154 
L 214.516364 170.232097 
L 218.123636 170.725574 
L 221.730909 171.112835 
L 225.338182 171.196062 
L 228.945455 171.424928 
L 232.552727 171.352614 
L 236.16 171.329322 
L 239.767273 171.348904 
L 243.374545 171.732953 
L 246.981818 172.184276 
L 250.589091 172.165311 
L 254.196364 172.676599 
L 257.803636 172.555213 
L 261.410909 173.125476 
L 265.018182 173.19196 
L 268.625455 173.317664 
L 272.232727 173.456318 
L 275.84 173.860733 
L 279.447273 174.062489 
L 283.054545 174.616675 
L 286.661818 175.044762 
L 290.269091 175.394219 
L 293.876364 175.962748 
L 297.483636 176.33189 
L 301.090909 176.706479 
L 304.698182 179.593256 
L 308.305455 183.736155 
L 311.912727 186.104191 
L 315.52 195.913318 
L 319.127273 202.028962 
L 322.734545 215.935676 
L 326.341818 218.544765 
L 329.949091 227.762129 
L 333.556364 248.973063 
L 337.163636 254.379748 
L 340.770909 261.682925 
L 344.378182 266.403402 
L 347.985455 264.971101 
L 351.592727 263.971666 
L 355.2 259.87477 
L 358.807273 256.239739 
L 362.414545 254.604641 
L 366.021818 252.298161 
L 369.629091 251.062506 
L 373.236364 254.589246 
L 376.843636 250.955041 
L 380.450909 262.112068 
L 384.058182 279.226791 
L 387.665455 280.495934 
L 391.272727 289.188451 
L 394.88 295.218725 
L 398.487273 295.227777 
L 398.487273 295.150404 
L 398.487273 295.150404 
L 394.88 295.141351 
L 391.272727 289.146633 
L 387.665455 280.486966 
L 384.058182 279.21668 
L 380.450909 262.100671 
L 376.843636 250.931679 
L 373.236364 254.561553 
L 369.629091 251.021201 
L 366.021818 252.259546 
L 362.414545 254.543303 
L 358.807273 256.154922 
L 355.2 259.609086 
L 351.592727 263.28865 
L 347.985455 263.72376 
L 344.378182 263.782902 
L 340.770909 248.714437 
L 337.163636 231.332373 
L 333.556364 211.862971 
L 329.949091 179.531483 
L 326.341818 178.195112 
L 322.734545 177.954158 
L 319.127273 176.308609 
L 315.52 176.096116 
L 311.912727 175.488815 
L 308.305455 175.383278 
L 304.698182 174.908895 
L 301.090909 174.565105 
L 297.483636 174.274148 
L 293.876364 173.9336 
L 290.269091 173.454798 
L 286.661818 173.340806 
L 283.054545 172.981202 
L 279.447273 172.459464 
L 275.84 172.105555 
L 272.232727 171.942958 
L 268.625455 171.690177 
L 265.018182 171.619298 
L 261.410909 171.097112 
L 257.803636 170.627048 
L 254.196364 170.268952 
L 250.589091 170.198822 
L 246.981818 169.823715 
L 243.374545 169.422942 
L 239.767273 169.098661 
L 236.16 169.031914 
L 232.552727 168.935484 
L 228.945455 168.661605 
L 225.338182 168.58773 
L 221.730909 168.27505 
L 218.123636 168.397594 
L 214.516364 168.05447 
L 210.909091 167.53544 
L 207.301818 167.347004 
L 203.694545 167.335758 
L 200.087273 167.776942 
L 196.48 167.341275 
L 192.872727 167.128105 
L 189.265455 166.386842 
L 185.658182 165.962171 
L 182.050909 164.858728 
L 178.443636 163.943822 
L 174.836364 161.670347 
L 171.229091 160.189705 
L 167.621818 159.874532 
L 164.014545 159.28872 
L 160.407273 158.718262 
L 156.8 160.003477 
L 153.192727 164.377579 
L 149.585455 165.446161 
L 145.978182 163.900493 
L 142.370909 162.078632 
L 138.763636 161.379268 
L 135.156364 162.233514 
L 131.549091 163.699668 
L 127.941818 163.841019 
L 124.334545 164.468466 
L 120.727273 159.209259 
L 117.12 157.705093 
L 113.512727 157.354719 
L 109.905455 156.004903 
L 106.298182 150.855596 
L 102.690909 144.929779 
L 99.083636 133.625063 
L 95.476364 116.399468 
L 91.869091 106.103502 
L 88.261818 99.140193 
L 84.654545 98.040744 
L 81.047273 53.568 
L 77.44 58.410183 
L 73.832727 58.419235 
z
" style="fill:#008000;fill-opacity:0.4;"/>
   </g>
   <g id="matplotlib.axis_1">
    <g id="xtick_1">
     <g id="line2d_1">
      <defs>
       <path d="M 0 0 
L 0 3.5 
" id="m780048f248" style="stroke:#000000;stroke-width:0.8;"/>
      </defs>
      <g>
       <use style="stroke:#000000;stroke-width:0.8;" x="73.832727" xlink:href="#m780048f248" y="307.584"/>
      </g>
     </g>
     <g id="text_1">
      <!-- 0 -->
      <defs>
       <path d="M 31.78125 66.40625 
Q 24.171875 66.40625 20.328125 58.90625 
Q 16.5 51.421875 16.5 36.375 
Q 16.5 21.390625 20.328125 13.890625 
Q 24.171875 6.390625 31.78125 6.390625 
Q 39.453125 6.390625 43.28125 13.890625 
Q 47.125 21.390625 47.125 36.375 
Q 47.125 51.421875 43.28125 58.90625 
Q 39.453125 66.40625 31.78125 66.40625 
z
M 31.78125 74.21875 
Q 44.046875 74.21875 50.515625 64.515625 
Q 56.984375 54.828125 56.984375 36.375 
Q 56.984375 17.96875 50.515625 8.265625 
Q 44.046875 -1.421875 31.78125 -1.421875 
Q 19.53125 -1.421875 13.0625 8.265625 
Q 6.59375 17.96875 6.59375 36.375 
Q 6.59375 54.828125 13.0625 64.515625 
Q 19.53125 74.21875 31.78125 74.21875 
z
" id="DejaVuSans-30"/>
      </defs>
      <g transform="translate(70.651477 322.182437)scale(0.1 -0.1)">
       <use xlink:href="#DejaVuSans-30"/>
      </g>
     </g>
    </g>
    <g id="xtick_2">
     <g id="line2d_2">
      <g>
       <use style="stroke:#000000;stroke-width:0.8;" x="121.401159" xlink:href="#m780048f248" y="307.584"/>
      </g>
     </g>
     <g id="text_2">
      <!-- 20 -->
      <defs>
       <path d="M 19.1875 8.296875 
L 53.609375 8.296875 
L 53.609375 0 
L 7.328125 0 
L 7.328125 8.296875 
Q 12.9375 14.109375 22.625 23.890625 
Q 32.328125 33.6875 34.8125 36.53125 
Q 39.546875 41.84375 41.421875 45.53125 
Q 43.3125 49.21875 43.3125 52.78125 
Q 43.3125 58.59375 39.234375 62.25 
Q 35.15625 65.921875 28.609375 65.921875 
Q 23.96875 65.921875 18.8125 64.3125 
Q 13.671875 62.703125 7.8125 59.421875 
L 7.8125 69.390625 
Q 13.765625 71.78125 18.9375 73 
Q 24.125 74.21875 28.421875 74.21875 
Q 39.75 74.21875 46.484375 68.546875 
Q 53.21875 62.890625 53.21875 53.421875 
Q 53.21875 48.921875 51.53125 44.890625 
Q 49.859375 40.875 45.40625 35.40625 
Q 44.1875 33.984375 37.640625 27.21875 
Q 31.109375 20.453125 19.1875 8.296875 
z
" id="DejaVuSans-32"/>
      </defs>
      <g transform="translate(115.038659 322.182437)scale(0.1 -0.1)">
       <use xlink:href="#DejaVuSans-32"/>
       <use x="63.623047" xlink:href="#DejaVuSans-30"/>
      </g>
     </g>
    </g>
    <g id="xtick_3">
     <g id="line2d_3">
      <g>
       <use style="stroke:#000000;stroke-width:0.8;" x="168.96959" xlink:href="#m780048f248" y="307.584"/>
      </g>
     </g>
     <g id="text_3">
      <!-- 40 -->
      <defs>
       <path d="M 37.796875 64.3125 
L 12.890625 25.390625 
L 37.796875 25.390625 
z
M 35.203125 72.90625 
L 47.609375 72.90625 
L 47.609375 25.390625 
L 58.015625 25.390625 
L 58.015625 17.1875 
L 47.609375 17.1875 
L 47.609375 0 
L 37.796875 0 
L 37.796875 17.1875 
L 4.890625 17.1875 
L 4.890625 26.703125 
z
" id="DejaVuSans-34"/>
      </defs>
      <g transform="translate(162.60709 322.182437)scale(0.1 -0.1)">
       <use xlink:href="#DejaVuSans-34"/>
       <use x="63.623047" xlink:href="#DejaVuSans-30"/>
      </g>
     </g>
    </g>
    <g id="xtick_4">
     <g id="line2d_4">
      <g>
       <use style="stroke:#000000;stroke-width:0.8;" x="216.538022" xlink:href="#m780048f248" y="307.584"/>
      </g>
     </g>
     <g id="text_4">
      <!-- 60 -->
      <defs>
       <path d="M 33.015625 40.375 
Q 26.375 40.375 22.484375 35.828125 
Q 18.609375 31.296875 18.609375 23.390625 
Q 18.609375 15.53125 22.484375 10.953125 
Q 26.375 6.390625 33.015625 6.390625 
Q 39.65625 6.390625 43.53125 10.953125 
Q 47.40625 15.53125 47.40625 23.390625 
Q 47.40625 31.296875 43.53125 35.828125 
Q 39.65625 40.375 33.015625 40.375 
z
M 52.59375 71.296875 
L 52.59375 62.3125 
Q 48.875 64.0625 45.09375 64.984375 
Q 41.3125 65.921875 37.59375 65.921875 
Q 27.828125 65.921875 22.671875 59.328125 
Q 17.53125 52.734375 16.796875 39.40625 
Q 19.671875 43.65625 24.015625 45.921875 
Q 28.375 48.1875 33.59375 48.1875 
Q 44.578125 48.1875 50.953125 41.515625 
Q 57.328125 34.859375 57.328125 23.390625 
Q 57.328125 12.15625 50.6875 5.359375 
Q 44.046875 -1.421875 33.015625 -1.421875 
Q 20.359375 -1.421875 13.671875 8.265625 
Q 6.984375 17.96875 6.984375 36.375 
Q 6.984375 53.65625 15.1875 63.9375 
Q 23.390625 74.21875 37.203125 74.21875 
Q 40.921875 74.21875 44.703125 73.484375 
Q 48.484375 72.75 52.59375 71.296875 
z
" id="DejaVuSans-36"/>
      </defs>
      <g transform="translate(210.175522 322.182437)scale(0.1 -0.1)">
       <use xlink:href="#DejaVuSans-36"/>
       <use x="63.623047" xlink:href="#DejaVuSans-30"/>
      </g>
     </g>
    </g>
    <g id="xtick_5">
     <g id="line2d_5">
      <g>
       <use style="stroke:#000000;stroke-width:0.8;" x="264.106454" xlink:href="#m780048f248" y="307.584"/>
      </g>
     </g>
     <g id="text_5">
      <!-- 80 -->
      <defs>
       <path d="M 31.78125 34.625 
Q 24.75 34.625 20.71875 30.859375 
Q 16.703125 27.09375 16.703125 20.515625 
Q 16.703125 13.921875 20.71875 10.15625 
Q 24.75 6.390625 31.78125 6.390625 
Q 38.8125 6.390625 42.859375 10.171875 
Q 46.921875 13.96875 46.921875 20.515625 
Q 46.921875 27.09375 42.890625 30.859375 
Q 38.875 34.625 31.78125 34.625 
z
M 21.921875 38.8125 
Q 15.578125 40.375 12.03125 44.71875 
Q 8.5 49.078125 8.5 55.328125 
Q 8.5 64.0625 14.71875 69.140625 
Q 20.953125 74.21875 31.78125 74.21875 
Q 42.671875 74.21875 48.875 69.140625 
Q 55.078125 64.0625 55.078125 55.328125 
Q 55.078125 49.078125 51.53125 44.71875 
Q 48 40.375 41.703125 38.8125 
Q 48.828125 37.15625 52.796875 32.3125 
Q 56.78125 27.484375 56.78125 20.515625 
Q 56.78125 9.90625 50.3125 4.234375 
Q 43.84375 -1.421875 31.78125 -1.421875 
Q 19.734375 -1.421875 13.25 4.234375 
Q 6.78125 9.90625 6.78125 20.515625 
Q 6.78125 27.484375 10.78125 32.3125 
Q 14.796875 37.15625 21.921875 38.8125 
z
M 18.3125 54.390625 
Q 18.3125 48.734375 21.84375 45.5625 
Q 25.390625 42.390625 31.78125 42.390625 
Q 38.140625 42.390625 41.71875 45.5625 
Q 45.3125 48.734375 45.3125 54.390625 
Q 45.3125 60.0625 41.71875 63.234375 
Q 38.140625 66.40625 31.78125 66.40625 
Q 25.390625 66.40625 21.84375 63.234375 
Q 18.3125 60.0625 18.3125 54.390625 
z
" id="DejaVuSans-38"/>
      </defs>
      <g transform="translate(257.743954 322.182437)scale(0.1 -0.1)">
       <use xlink:href="#DejaVuSans-38"/>
       <use x="63.623047" xlink:href="#DejaVuSans-30"/>
      </g>
     </g>
    </g>
    <g id="xtick_6">
     <g id="line2d_6">
      <g>
       <use style="stroke:#000000;stroke-width:0.8;" x="311.674885" xlink:href="#m780048f248" y="307.584"/>
      </g>
     </g>
     <g id="text_6">
      <!-- 100 -->
      <defs>
       <path d="M 12.40625 8.296875 
L 28.515625 8.296875 
L 28.515625 63.921875 
L 10.984375 60.40625 
L 10.984375 69.390625 
L 28.421875 72.90625 
L 38.28125 72.90625 
L 38.28125 8.296875 
L 54.390625 8.296875 
L 54.390625 0 
L 12.40625 0 
z
" id="DejaVuSans-31"/>
      </defs>
      <g transform="translate(302.131135 322.182437)scale(0.1 -0.1)">
       <use xlink:href="#DejaVuSans-31"/>
       <use x="63.623047" xlink:href="#DejaVuSans-30"/>
       <use x="127.246094" xlink:href="#DejaVuSans-30"/>
      </g>
     </g>
    </g>
    <g id="xtick_7">
     <g id="line2d_7">
      <g>
       <use style="stroke:#000000;stroke-width:0.8;" x="359.243317" xlink:href="#m780048f248" y="307.584"/>
      </g>
     </g>
     <g id="text_7">
      <!-- 120 -->
      <g transform="translate(349.699567 322.182437)scale(0.1 -0.1)">
       <use xlink:href="#DejaVuSans-31"/>
       <use x="63.623047" xlink:href="#DejaVuSans-32"/>
       <use x="127.246094" xlink:href="#DejaVuSans-30"/>
      </g>
     </g>
    </g>
    <g id="xtick_8">
     <g id="line2d_8">
      <g>
       <use style="stroke:#000000;stroke-width:0.8;" x="406.811748" xlink:href="#m780048f248" y="307.584"/>
      </g>
     </g>
     <g id="text_8">
      <!-- 140 -->
      <g transform="translate(397.267998 322.182437)scale(0.1 -0.1)">
       <use xlink:href="#DejaVuSans-31"/>
       <use x="63.623047" xlink:href="#DejaVuSans-34"/>
       <use x="127.246094" xlink:href="#DejaVuSans-30"/>
      </g>
     </g>
    </g>
    <g id="text_9">
     <!--  Distance (km)   -->
     <defs>
      <path id="DejaVuSans-20"/>
      <path d="M 19.671875 64.796875 
L 19.671875 8.109375 
L 31.59375 8.109375 
Q 46.6875 8.109375 53.6875 14.9375 
Q 60.6875 21.78125 60.6875 36.53125 
Q 60.6875 51.171875 53.6875 57.984375 
Q 46.6875 64.796875 31.59375 64.796875 
z
M 9.8125 72.90625 
L 30.078125 72.90625 
Q 51.265625 72.90625 61.171875 64.09375 
Q 71.09375 55.28125 71.09375 36.53125 
Q 71.09375 17.671875 61.125 8.828125 
Q 51.171875 0 30.078125 0 
L 9.8125 0 
z
" id="DejaVuSans-44"/>
      <path d="M 9.421875 54.6875 
L 18.40625 54.6875 
L 18.40625 0 
L 9.421875 0 
z
M 9.421875 75.984375 
L 18.40625 75.984375 
L 18.40625 64.59375 
L 9.421875 64.59375 
z
" id="DejaVuSans-69"/>
      <path d="M 44.28125 53.078125 
L 44.28125 44.578125 
Q 40.484375 46.53125 36.375 47.5 
Q 32.28125 48.484375 27.875 48.484375 
Q 21.1875 48.484375 17.84375 46.4375 
Q 14.5 44.390625 14.5 40.28125 
Q 14.5 37.15625 16.890625 35.375 
Q 19.28125 33.59375 26.515625 31.984375 
L 29.59375 31.296875 
Q 39.15625 29.25 43.1875 25.515625 
Q 47.21875 21.78125 47.21875 15.09375 
Q 47.21875 7.46875 41.1875 3.015625 
Q 35.15625 -1.421875 24.609375 -1.421875 
Q 20.21875 -1.421875 15.453125 -0.5625 
Q 10.6875 0.296875 5.421875 2 
L 5.421875 11.28125 
Q 10.40625 8.6875 15.234375 7.390625 
Q 20.0625 6.109375 24.8125 6.109375 
Q 31.15625 6.109375 34.5625 8.28125 
Q 37.984375 10.453125 37.984375 14.40625 
Q 37.984375 18.0625 35.515625 20.015625 
Q 33.0625 21.96875 24.703125 23.78125 
L 21.578125 24.515625 
Q 13.234375 26.265625 9.515625 29.90625 
Q 5.8125 33.546875 5.8125 39.890625 
Q 5.8125 47.609375 11.28125 51.796875 
Q 16.75 56 26.8125 56 
Q 31.78125 56 36.171875 55.265625 
Q 40.578125 54.546875 44.28125 53.078125 
z
" id="DejaVuSans-73"/>
      <path d="M 18.3125 70.21875 
L 18.3125 54.6875 
L 36.8125 54.6875 
L 36.8125 47.703125 
L 18.3125 47.703125 
L 18.3125 18.015625 
Q 18.3125 11.328125 20.140625 9.421875 
Q 21.96875 7.515625 27.59375 7.515625 
L 36.8125 7.515625 
L 36.8125 0 
L 27.59375 0 
Q 17.1875 0 13.234375 3.875 
Q 9.28125 7.765625 9.28125 18.015625 
L 9.28125 47.703125 
L 2.6875 47.703125 
L 2.6875 54.6875 
L 9.28125 54.6875 
L 9.28125 70.21875 
z
" id="DejaVuSans-74"/>
      <path d="M 34.28125 27.484375 
Q 23.390625 27.484375 19.1875 25 
Q 14.984375 22.515625 14.984375 16.5 
Q 14.984375 11.71875 18.140625 8.90625 
Q 21.296875 6.109375 26.703125 6.109375 
Q 34.1875 6.109375 38.703125 11.40625 
Q 43.21875 16.703125 43.21875 25.484375 
L 43.21875 27.484375 
z
M 52.203125 31.203125 
L 52.203125 0 
L 43.21875 0 
L 43.21875 8.296875 
Q 40.140625 3.328125 35.546875 0.953125 
Q 30.953125 -1.421875 24.3125 -1.421875 
Q 15.921875 -1.421875 10.953125 3.296875 
Q 6 8.015625 6 15.921875 
Q 6 25.140625 12.171875 29.828125 
Q 18.359375 34.515625 30.609375 34.515625 
L 43.21875 34.515625 
L 43.21875 35.40625 
Q 43.21875 41.609375 39.140625 45 
Q 35.0625 48.390625 27.6875 48.390625 
Q 23 48.390625 18.546875 47.265625 
Q 14.109375 46.140625 10.015625 43.890625 
L 10.015625 52.203125 
Q 14.9375 54.109375 19.578125 55.046875 
Q 24.21875 56 28.609375 56 
Q 40.484375 56 46.34375 49.84375 
Q 52.203125 43.703125 52.203125 31.203125 
z
" id="DejaVuSans-61"/>
      <path d="M 54.890625 33.015625 
L 54.890625 0 
L 45.90625 0 
L 45.90625 32.71875 
Q 45.90625 40.484375 42.875 44.328125 
Q 39.84375 48.1875 33.796875 48.1875 
Q 26.515625 48.1875 22.3125 43.546875 
Q 18.109375 38.921875 18.109375 30.90625 
L 18.109375 0 
L 9.078125 0 
L 9.078125 54.6875 
L 18.109375 54.6875 
L 18.109375 46.1875 
Q 21.34375 51.125 25.703125 53.5625 
Q 30.078125 56 35.796875 56 
Q 45.21875 56 50.046875 50.171875 
Q 54.890625 44.34375 54.890625 33.015625 
z
" id="DejaVuSans-6e"/>
      <path d="M 48.78125 52.59375 
L 48.78125 44.1875 
Q 44.96875 46.296875 41.140625 47.34375 
Q 37.3125 48.390625 33.40625 48.390625 
Q 24.65625 48.390625 19.8125 42.84375 
Q 14.984375 37.3125 14.984375 27.296875 
Q 14.984375 17.28125 19.8125 11.734375 
Q 24.65625 6.203125 33.40625 6.203125 
Q 37.3125 6.203125 41.140625 7.25 
Q 44.96875 8.296875 48.78125 10.40625 
L 48.78125 2.09375 
Q 45.015625 0.34375 40.984375 -0.53125 
Q 36.96875 -1.421875 32.421875 -1.421875 
Q 20.0625 -1.421875 12.78125 6.34375 
Q 5.515625 14.109375 5.515625 27.296875 
Q 5.515625 40.671875 12.859375 48.328125 
Q 20.21875 56 33.015625 56 
Q 37.15625 56 41.109375 55.140625 
Q 45.0625 54.296875 48.78125 52.59375 
z
" id="DejaVuSans-63"/>
      <path d="M 56.203125 29.59375 
L 56.203125 25.203125 
L 14.890625 25.203125 
Q 15.484375 15.921875 20.484375 11.0625 
Q 25.484375 6.203125 34.421875 6.203125 
Q 39.59375 6.203125 44.453125 7.46875 
Q 49.3125 8.734375 54.109375 11.28125 
L 54.109375 2.78125 
Q 49.265625 0.734375 44.1875 -0.34375 
Q 39.109375 -1.421875 33.890625 -1.421875 
Q 20.796875 -1.421875 13.15625 6.1875 
Q 5.515625 13.8125 5.515625 26.8125 
Q 5.515625 40.234375 12.765625 48.109375 
Q 20.015625 56 32.328125 56 
Q 43.359375 56 49.78125 48.890625 
Q 56.203125 41.796875 56.203125 29.59375 
z
M 47.21875 32.234375 
Q 47.125 39.59375 43.09375 43.984375 
Q 39.0625 48.390625 32.421875 48.390625 
Q 24.90625 48.390625 20.390625 44.140625 
Q 15.875 39.890625 15.1875 32.171875 
z
" id="DejaVuSans-65"/>
      <path d="M 31 75.875 
Q 24.46875 64.65625 21.28125 53.65625 
Q 18.109375 42.671875 18.109375 31.390625 
Q 18.109375 20.125 21.3125 9.0625 
Q 24.515625 -2 31 -13.1875 
L 23.1875 -13.1875 
Q 15.875 -1.703125 12.234375 9.375 
Q 8.59375 20.453125 8.59375 31.390625 
Q 8.59375 42.28125 12.203125 53.3125 
Q 15.828125 64.359375 23.1875 75.875 
z
" id="DejaVuSans-28"/>
      <path d="M 9.078125 75.984375 
L 18.109375 75.984375 
L 18.109375 31.109375 
L 44.921875 54.6875 
L 56.390625 54.6875 
L 27.390625 29.109375 
L 57.625 0 
L 45.90625 0 
L 18.109375 26.703125 
L 18.109375 0 
L 9.078125 0 
z
" id="DejaVuSans-6b"/>
      <path d="M 52 44.1875 
Q 55.375 50.25 60.0625 53.125 
Q 64.75 56 71.09375 56 
Q 79.640625 56 84.28125 50.015625 
Q 88.921875 44.046875 88.921875 33.015625 
L 88.921875 0 
L 79.890625 0 
L 79.890625 32.71875 
Q 79.890625 40.578125 77.09375 44.375 
Q 74.3125 48.1875 68.609375 48.1875 
Q 61.625 48.1875 57.5625 43.546875 
Q 53.515625 38.921875 53.515625 30.90625 
L 53.515625 0 
L 44.484375 0 
L 44.484375 32.71875 
Q 44.484375 40.625 41.703125 44.40625 
Q 38.921875 48.1875 33.109375 48.1875 
Q 26.21875 48.1875 22.15625 43.53125 
Q 18.109375 38.875 18.109375 30.90625 
L 18.109375 0 
L 9.078125 0 
L 9.078125 54.6875 
L 18.109375 54.6875 
L 18.109375 46.1875 
Q 21.1875 51.21875 25.484375 53.609375 
Q 29.78125 56 35.6875 56 
Q 41.65625 56 45.828125 52.96875 
Q 50 49.953125 52 44.1875 
z
" id="DejaVuSans-6d"/>
      <path d="M 8.015625 75.875 
L 15.828125 75.875 
Q 23.140625 64.359375 26.78125 53.3125 
Q 30.421875 42.28125 30.421875 31.390625 
Q 30.421875 20.453125 26.78125 9.375 
Q 23.140625 -1.703125 15.828125 -13.1875 
L 8.015625 -13.1875 
Q 14.5 -2 17.703125 9.0625 
Q 20.90625 20.125 20.90625 31.390625 
Q 20.90625 42.671875 17.703125 53.65625 
Q 14.5 64.65625 8.015625 75.875 
z
" id="DejaVuSans-29"/>
     </defs>
     <g transform="translate(196.274062 335.860562)scale(0.1 -0.1)">
      <use xlink:href="#DejaVuSans-20"/>
      <use x="31.787109" xlink:href="#DejaVuSans-44"/>
      <use x="108.789062" xlink:href="#DejaVuSans-69"/>
      <use x="136.572266" xlink:href="#DejaVuSans-73"/>
      <use x="188.671875" xlink:href="#DejaVuSans-74"/>
      <use x="227.880859" xlink:href="#DejaVuSans-61"/>
      <use x="289.160156" xlink:href="#DejaVuSans-6e"/>
      <use x="352.539062" xlink:href="#DejaVuSans-63"/>
      <use x="407.519531" xlink:href="#DejaVuSans-65"/>
      <use x="469.042969" xlink:href="#DejaVuSans-20"/>
      <use x="500.830078" xlink:href="#DejaVuSans-28"/>
      <use x="539.84375" xlink:href="#DejaVuSans-6b"/>
      <use x="597.753906" xlink:href="#DejaVuSans-6d"/>
      <use x="695.166016" xlink:href="#DejaVuSans-29"/>
      <use x="734.179688" xlink:href="#DejaVuSans-20"/>
      <use x="765.966797" xlink:href="#DejaVuSans-20"/>
     </g>
    </g>
   </g>
   <g id="matplotlib.axis_2">
    <g id="ytick_1">
     <g id="line2d_9">
      <defs>
       <path d="M 0 0 
L -3.5 0 
" id="m657165799d" style="stroke:#000000;stroke-width:0.8;"/>
      </defs>
      <g>
       <use style="stroke:#000000;stroke-width:0.8;" x="57.6" xlink:href="#m657165799d" y="298.652174"/>
      </g>
     </g>
     <g id="text_10">
      <!-- −1500 -->
      <defs>
       <path d="M 10.59375 35.5 
L 73.1875 35.5 
L 73.1875 27.203125 
L 10.59375 27.203125 
z
" id="DejaVuSans-2212"/>
       <path d="M 10.796875 72.90625 
L 49.515625 72.90625 
L 49.515625 64.59375 
L 19.828125 64.59375 
L 19.828125 46.734375 
Q 21.96875 47.46875 24.109375 47.828125 
Q 26.265625 48.1875 28.421875 48.1875 
Q 40.625 48.1875 47.75 41.5 
Q 54.890625 34.8125 54.890625 23.390625 
Q 54.890625 11.625 47.5625 5.09375 
Q 40.234375 -1.421875 26.90625 -1.421875 
Q 22.3125 -1.421875 17.546875 -0.640625 
Q 12.796875 0.140625 7.71875 1.703125 
L 7.71875 11.625 
Q 12.109375 9.234375 16.796875 8.0625 
Q 21.484375 6.890625 26.703125 6.890625 
Q 35.15625 6.890625 40.078125 11.328125 
Q 45.015625 15.765625 45.015625 23.390625 
Q 45.015625 31 40.078125 35.4375 
Q 35.15625 39.890625 26.703125 39.890625 
Q 22.75 39.890625 18.8125 39.015625 
Q 14.890625 38.140625 10.796875 36.28125 
z
" id="DejaVuSans-35"/>
      </defs>
      <g transform="translate(16.770313 302.451392)scale(0.1 -0.1)">
       <use xlink:href="#DejaVuSans-2212"/>
       <use x="83.789062" xlink:href="#DejaVuSans-31"/>
       <use x="147.412109" xlink:href="#DejaVuSans-35"/>
       <use x="211.035156" xlink:href="#DejaVuSans-30"/>
       <use x="274.658203" xlink:href="#DejaVuSans-30"/>
      </g>
     </g>
    </g>
    <g id="ytick_2">
     <g id="line2d_10">
      <g>
       <use style="stroke:#000000;stroke-width:0.8;" x="57.6" xlink:href="#m657165799d" y="253.391695"/>
      </g>
     </g>
     <g id="text_11">
      <!-- −1000 -->
      <g transform="translate(16.770313 257.190914)scale(0.1 -0.1)">
       <use xlink:href="#DejaVuSans-2212"/>
       <use x="83.789062" xlink:href="#DejaVuSans-31"/>
       <use x="147.412109" xlink:href="#DejaVuSans-30"/>
       <use x="211.035156" xlink:href="#DejaVuSans-30"/>
       <use x="274.658203" xlink:href="#DejaVuSans-30"/>
      </g>
     </g>
    </g>
    <g id="ytick_3">
     <g id="line2d_11">
      <g>
       <use style="stroke:#000000;stroke-width:0.8;" x="57.6" xlink:href="#m657165799d" y="208.131217"/>
      </g>
     </g>
     <g id="text_12">
      <!-- −500 -->
      <g transform="translate(23.132812 211.930436)scale(0.1 -0.1)">
       <use xlink:href="#DejaVuSans-2212"/>
       <use x="83.789062" xlink:href="#DejaVuSans-35"/>
       <use x="147.412109" xlink:href="#DejaVuSans-30"/>
       <use x="211.035156" xlink:href="#DejaVuSans-30"/>
      </g>
     </g>
    </g>
    <g id="ytick_4">
     <g id="line2d_12">
      <g>
       <use style="stroke:#000000;stroke-width:0.8;" x="57.6" xlink:href="#m657165799d" y="162.870739"/>
      </g>
     </g>
     <g id="text_13">
      <!-- 0 -->
      <g transform="translate(44.2375 166.669958)scale(0.1 -0.1)">
       <use xlink:href="#DejaVuSans-30"/>
      </g>
     </g>
    </g>
    <g id="ytick_5">
     <g id="line2d_13">
      <g>
       <use style="stroke:#000000;stroke-width:0.8;" x="57.6" xlink:href="#m657165799d" y="117.610261"/>
      </g>
     </g>
     <g id="text_14">
      <!-- 500 -->
      <g transform="translate(31.5125 121.40948)scale(0.1 -0.1)">
       <use xlink:href="#DejaVuSans-35"/>
       <use x="63.623047" xlink:href="#DejaVuSans-30"/>
       <use x="127.246094" xlink:href="#DejaVuSans-30"/>
      </g>
     </g>
    </g>
    <g id="ytick_6">
     <g id="line2d_14">
      <g>
       <use style="stroke:#000000;stroke-width:0.8;" x="57.6" xlink:href="#m657165799d" y="72.349783"/>
      </g>
     </g>
     <g id="text_15">
      <!-- 1000 -->
      <g transform="translate(25.15 76.149001)scale(0.1 -0.1)">
       <use xlink:href="#DejaVuSans-31"/>
       <use x="63.623047" xlink:href="#DejaVuSans-30"/>
       <use x="127.246094" xlink:href="#DejaVuSans-30"/>
       <use x="190.869141" xlink:href="#DejaVuSans-30"/>
      </g>
     </g>
    </g>
    <g id="text_16">
     <!--  Height in meters -->
     <defs>
      <path d="M 9.8125 72.90625 
L 19.671875 72.90625 
L 19.671875 43.015625 
L 55.515625 43.015625 
L 55.515625 72.90625 
L 65.375 72.90625 
L 65.375 0 
L 55.515625 0 
L 55.515625 34.71875 
L 19.671875 34.71875 
L 19.671875 0 
L 9.8125 0 
z
" id="DejaVuSans-48"/>
      <path d="M 45.40625 27.984375 
Q 45.40625 37.75 41.375 43.109375 
Q 37.359375 48.484375 30.078125 48.484375 
Q 22.859375 48.484375 18.828125 43.109375 
Q 14.796875 37.75 14.796875 27.984375 
Q 14.796875 18.265625 18.828125 12.890625 
Q 22.859375 7.515625 30.078125 7.515625 
Q 37.359375 7.515625 41.375 12.890625 
Q 45.40625 18.265625 45.40625 27.984375 
z
M 54.390625 6.78125 
Q 54.390625 -7.171875 48.1875 -13.984375 
Q 42 -20.796875 29.203125 -20.796875 
Q 24.46875 -20.796875 20.265625 -20.09375 
Q 16.0625 -19.390625 12.109375 -17.921875 
L 12.109375 -9.1875 
Q 16.0625 -11.328125 19.921875 -12.34375 
Q 23.78125 -13.375 27.78125 -13.375 
Q 36.625 -13.375 41.015625 -8.765625 
Q 45.40625 -4.15625 45.40625 5.171875 
L 45.40625 9.625 
Q 42.625 4.78125 38.28125 2.390625 
Q 33.9375 0 27.875 0 
Q 17.828125 0 11.671875 7.65625 
Q 5.515625 15.328125 5.515625 27.984375 
Q 5.515625 40.671875 11.671875 48.328125 
Q 17.828125 56 27.875 56 
Q 33.9375 56 38.28125 53.609375 
Q 42.625 51.21875 45.40625 46.390625 
L 45.40625 54.6875 
L 54.390625 54.6875 
z
" id="DejaVuSans-67"/>
      <path d="M 54.890625 33.015625 
L 54.890625 0 
L 45.90625 0 
L 45.90625 32.71875 
Q 45.90625 40.484375 42.875 44.328125 
Q 39.84375 48.1875 33.796875 48.1875 
Q 26.515625 48.1875 22.3125 43.546875 
Q 18.109375 38.921875 18.109375 30.90625 
L 18.109375 0 
L 9.078125 0 
L 9.078125 75.984375 
L 18.109375 75.984375 
L 18.109375 46.1875 
Q 21.34375 51.125 25.703125 53.5625 
Q 30.078125 56 35.796875 56 
Q 45.21875 56 50.046875 50.171875 
Q 54.890625 44.34375 54.890625 33.015625 
z
" id="DejaVuSans-68"/>
      <path d="M 41.109375 46.296875 
Q 39.59375 47.171875 37.8125 47.578125 
Q 36.03125 48 33.890625 48 
Q 26.265625 48 22.1875 43.046875 
Q 18.109375 38.09375 18.109375 28.8125 
L 18.109375 0 
L 9.078125 0 
L 9.078125 54.6875 
L 18.109375 54.6875 
L 18.109375 46.1875 
Q 20.953125 51.171875 25.484375 53.578125 
Q 30.03125 56 36.53125 56 
Q 37.453125 56 38.578125 55.875 
Q 39.703125 55.765625 41.0625 55.515625 
z
" id="DejaVuSans-72"/>
     </defs>
     <g transform="translate(10.690625 218.025656)rotate(-90)scale(0.1 -0.1)">
      <use xlink:href="#DejaVuSans-20"/>
      <use x="31.787109" xlink:href="#DejaVuSans-48"/>
      <use x="106.982422" xlink:href="#DejaVuSans-65"/>
      <use x="168.505859" xlink:href="#DejaVuSans-69"/>
      <use x="196.289062" xlink:href="#DejaVuSans-67"/>
      <use x="259.765625" xlink:href="#DejaVuSans-68"/>
      <use x="323.144531" xlink:href="#DejaVuSans-74"/>
      <use x="362.353516" xlink:href="#DejaVuSans-20"/>
      <use x="394.140625" xlink:href="#DejaVuSans-69"/>
      <use x="421.923828" xlink:href="#DejaVuSans-6e"/>
      <use x="485.302734" xlink:href="#DejaVuSans-20"/>
      <use x="517.089844" xlink:href="#DejaVuSans-6d"/>
      <use x="614.501953" xlink:href="#DejaVuSans-65"/>
      <use x="676.025391" xlink:href="#DejaVuSans-74"/>
      <use x="715.234375" xlink:href="#DejaVuSans-65"/>
      <use x="776.757812" xlink:href="#DejaVuSans-72"/>
      <use x="817.871094" xlink:href="#DejaVuSans-73"/>
     </g>
    </g>
   </g>
   <g id="line2d_15">
    <path clip-path="url(#pddf9050f30)" d="M 73.832727 58.812764 
L 77.44 58.960059 
L 81.047273 53.817338 
L 84.654545 98.655986 
L 88.261818 99.734479 
L 91.869091 106.680657 
L 95.476364 116.602681 
L 99.083636 134.605059 
L 102.690909 145.090355 
L 106.298182 151.286797 
L 109.905455 156.107988 
L 113.512727 157.442648 
L 117.12 157.935345 
L 120.727273 158.942316 
L 124.334545 164.481369 
L 127.941818 164.397958 
L 131.549091 163.432743 
L 135.156364 161.803447 
L 138.763636 161.470985 
L 142.370909 161.876645 
L 145.978182 164.029429 
L 149.585455 164.923677 
L 153.192727 164.388579 
L 156.8 159.889539 
L 160.407273 158.801785 
L 164.014545 158.861302 
L 167.621818 159.552711 
L 171.229091 160.652616 
L 174.836364 161.428882 
L 178.443636 163.747252 
L 182.050909 164.669857 
L 185.658182 166.010386 
L 189.265455 166.560916 
L 192.872727 167.864464 
L 196.48 166.840774 
L 200.087273 167.735581 
L 203.694545 168.501523 
L 207.301818 168.06898 
L 210.909091 167.331389 
L 214.516364 168.056715 
L 218.123636 168.376735 
L 221.730909 168.199803 
L 225.338182 168.609592 
L 228.945455 168.100281 
L 232.552727 168.906547 
L 236.16 170.732537 
L 239.767273 170.386159 
L 243.374545 171.108471 
L 246.981818 171.42622 
L 250.589091 171.024441 
L 254.196364 171.309899 
L 257.803636 170.879935 
L 261.410909 171.026474 
L 265.018182 171.308364 
L 268.625455 171.521856 
L 272.232727 172.576568 
L 275.84 172.881114 
L 279.447273 173.11169 
L 283.054545 173.78531 
L 286.661818 173.706092 
L 290.269091 175.190183 
L 293.876364 175.894159 
L 297.483636 174.785462 
L 301.090909 175.285554 
L 304.698182 175.690413 
L 308.305455 176.237663 
L 311.912727 176.71104 
L 315.52 176.887605 
L 319.127273 177.698513 
L 322.734545 185.653468 
L 326.341818 188.817491 
L 329.949091 204.606416 
L 333.556364 235.049197 
L 337.163636 249.8583 
L 340.770909 259.724806 
L 344.378182 265.759946 
L 347.985455 264.705673 
L 351.592727 263.65321 
L 355.2 259.486937 
L 358.807273 256.250563 
L 362.414545 254.692361 
L 366.021818 251.761389 
L 369.629091 251.292803 
L 373.236364 255.367297 
L 376.843636 251.157554 
L 380.450909 262.258377 
L 384.058182 279.033768 
L 387.665455 280.031276 
L 391.272727 289.275163 
L 394.88 295.297419 
L 398.487273 295.488 
" style="fill:none;stroke:#1f77b4;stroke-linecap:square;stroke-width:1.5;"/>
   </g>
   <g id="line2d_16">
    <path clip-path="url(#pddf9050f30)" d="M 73.832727 78.246633 
L 77.44 78.237581 
L 81.047273 73.468532 
L 84.654545 115.35217 
L 88.261818 118.261533 
L 91.869091 125.513667 
L 95.476364 132.922977 
L 99.083636 146.265034 
L 102.690909 153.939774 
L 106.298182 157.688935 
L 109.905455 160.672822 
L 113.512727 161.524886 
L 117.12 161.525964 
L 120.727273 162.689014 
L 124.334545 166.288124 
L 127.941818 165.856748 
L 131.549091 165.699049 
L 135.156364 164.659606 
L 138.763636 164.062175 
L 142.370909 164.567264 
L 145.978182 165.919347 
L 149.585455 167.093659 
L 153.192727 166.226283 
L 156.8 162.912141 
L 160.407273 161.909067 
L 164.014545 162.03907 
L 167.621818 162.313874 
L 171.229091 162.4208 
L 174.836364 163.457148 
L 178.443636 165.194604 
L 182.050909 165.988883 
L 185.658182 166.934588 
L 189.265455 167.341067 
L 192.872727 167.975634 
L 196.48 168.256719 
L 200.087273 168.885914 
L 203.694545 168.739819 
L 207.301818 168.619018 
L 210.909091 168.669198 
L 214.516364 169.106956 
L 218.123636 169.505066 
L 221.730909 169.487135 
L 225.338182 169.711635 
L 228.945455 169.947275 
L 232.552727 170.136313 
L 236.16 170.216065 
L 239.767273 170.233748 
L 243.374545 170.495428 
L 246.981818 170.814792 
L 250.589091 171.032397 
L 254.196364 171.147256 
L 257.803636 171.422934 
L 261.410909 172.014675 
L 265.018182 172.440276 
L 268.625455 172.570795 
L 272.232727 172.829495 
L 275.84 173.151073 
L 279.447273 173.412979 
L 283.054545 173.873353 
L 286.661818 174.245668 
L 290.269091 174.483276 
L 293.876364 175.014404 
L 297.483636 175.297776 
L 301.090909 175.644269 
L 304.698182 176.814431 
L 308.305455 178.141292 
L 311.912727 178.818307 
L 315.52 183.408556 
L 319.127273 185.015399 
L 322.734545 193.259787 
L 326.341818 195.986588 
L 329.949091 204.849797 
L 333.556364 232.405988 
L 337.163636 246.740501 
L 340.770909 258.571958 
L 344.378182 265.764467 
L 347.985455 264.411125 
L 351.592727 263.646466 
L 355.2 259.738743 
L 358.807273 256.212864 
L 362.414545 254.586064 
L 366.021818 252.284444 
L 369.629091 251.042177 
L 373.236364 254.572489 
L 376.843636 250.934992 
L 380.450909 262.095261 
L 384.058182 279.214 
L 387.665455 280.485463 
L 391.272727 289.180164 
L 394.88 295.205889 
L 398.487273 295.214941 
" style="fill:none;stroke:#ff7f0e;stroke-linecap:square;stroke-width:1.5;"/>
   </g>
   <g id="line2d_17">
    <path clip-path="url(#pddf9050f30)" d="M 73.832727 98.640485 
L 77.44 98.631433 
L 81.047273 94.071557 
L 84.654545 133.23259 
L 88.261818 136.836378 
L 91.869091 143.003138 
L 95.476364 147.581306 
L 99.083636 156.770679 
L 102.690909 161.263466 
L 106.298182 163.255236 
L 109.905455 164.525033 
L 113.512727 165.048121 
L 117.12 164.845149 
L 120.727273 165.702453 
L 124.334545 167.971946 
L 127.941818 167.67312 
L 131.549091 167.531823 
L 135.156364 166.845196 
L 138.763636 166.461031 
L 142.370909 166.79948 
L 145.978182 167.703224 
L 149.585455 168.566467 
L 153.192727 167.862442 
L 156.8 165.563298 
L 160.407273 164.813773 
L 164.014545 164.610802 
L 167.621818 164.618019 
L 171.229091 164.533141 
L 174.836364 165.156756 
L 178.443636 166.389652 
L 182.050909 167.015923 
L 185.658182 167.850123 
L 189.265455 168.256012 
L 192.872727 168.770411 
L 196.48 169.160055 
L 200.087273 169.99084 
L 203.694545 169.989868 
L 207.301818 169.770976 
L 210.909091 169.765154 
L 214.516364 170.232097 
L 218.123636 170.725574 
L 221.730909 171.112835 
L 225.338182 171.196062 
L 228.945455 171.424928 
L 232.552727 171.352614 
L 236.16 171.329322 
L 239.767273 171.348904 
L 243.374545 171.732953 
L 246.981818 172.184276 
L 250.589091 172.165311 
L 254.196364 172.676599 
L 257.803636 172.555213 
L 261.410909 173.125476 
L 265.018182 173.19196 
L 268.625455 173.317664 
L 272.232727 173.456318 
L 275.84 173.860733 
L 279.447273 174.062489 
L 283.054545 174.616675 
L 286.661818 175.044762 
L 290.269091 175.394219 
L 293.876364 175.962748 
L 297.483636 176.33189 
L 301.090909 176.706479 
L 304.698182 179.593256 
L 308.305455 183.736155 
L 311.912727 186.104191 
L 315.52 195.913318 
L 319.127273 202.028962 
L 322.734545 215.935676 
L 326.341818 218.544765 
L 329.949091 227.762129 
L 333.556364 248.973063 
L 337.163636 254.379748 
L 340.770909 261.682925 
L 344.378182 266.403402 
L 347.985455 264.971101 
L 351.592727 263.971666 
L 355.2 259.87477 
L 358.807273 256.239739 
L 362.414545 254.604641 
L 366.021818 252.298161 
L 369.629091 251.062506 
L 373.236364 254.589246 
L 376.843636 250.955041 
L 380.450909 262.112068 
L 384.058182 279.226791 
L 387.665455 280.495934 
L 391.272727 289.188451 
L 394.88 295.218725 
L 398.487273 295.227777 
" style="fill:none;stroke:#2ca02c;stroke-linecap:square;stroke-width:1.5;"/>
   </g>
   <g id="line2d_18">
    <path clip-path="url(#pddf9050f30)" d="M 73.832727 58.419235 
L 77.44 58.410183 
L 81.047273 53.568 
L 84.654545 98.040744 
L 88.261818 99.140193 
L 91.869091 106.103502 
L 95.476364 116.399468 
L 99.083636 133.625063 
L 102.690909 144.929779 
L 106.298182 150.855596 
L 109.905455 156.004903 
L 113.512727 157.354719 
L 117.12 157.705093 
L 120.727273 159.209259 
L 124.334545 164.468466 
L 127.941818 163.841019 
L 131.549091 163.699668 
L 135.156364 162.233514 
L 138.763636 161.379268 
L 142.370909 162.078632 
L 145.978182 163.900493 
L 149.585455 165.446161 
L 153.192727 164.377579 
L 156.8 160.003477 
L 160.407273 158.718262 
L 164.014545 159.28872 
L 167.621818 159.874532 
L 171.229091 160.189705 
L 174.836364 161.670347 
L 178.443636 163.943822 
L 182.050909 164.858728 
L 185.658182 165.962171 
L 189.265455 166.386842 
L 192.872727 167.128105 
L 196.48 167.341275 
L 200.087273 167.776942 
L 203.694545 167.335758 
L 207.301818 167.347004 
L 210.909091 167.53544 
L 214.516364 168.05447 
L 218.123636 168.397594 
L 221.730909 168.27505 
L 225.338182 168.58773 
L 228.945455 168.661605 
L 232.552727 168.935484 
L 236.16 169.031914 
L 239.767273 169.098661 
L 243.374545 169.422942 
L 246.981818 169.823715 
L 250.589091 170.198822 
L 254.196364 170.268952 
L 257.803636 170.627048 
L 261.410909 171.097112 
L 265.018182 171.619298 
L 268.625455 171.690177 
L 272.232727 171.942958 
L 275.84 172.105555 
L 279.447273 172.459464 
L 283.054545 172.981202 
L 286.661818 173.340806 
L 290.269091 173.454798 
L 293.876364 173.9336 
L 297.483636 174.274148 
L 301.090909 174.565105 
L 304.698182 174.908895 
L 308.305455 175.383278 
L 311.912727 175.488815 
L 315.52 176.096116 
L 319.127273 176.308609 
L 322.734545 177.954158 
L 326.341818 178.195112 
L 329.949091 179.531483 
L 333.556364 211.862971 
L 337.163636 231.332373 
L 340.770909 248.714437 
L 344.378182 263.782902 
L 347.985455 263.72376 
L 351.592727 263.28865 
L 355.2 259.609086 
L 358.807273 256.154922 
L 362.414545 254.543303 
L 366.021818 252.259546 
L 369.629091 251.021201 
L 373.236364 254.561553 
L 376.843636 250.931679 
L 380.450909 262.100671 
L 384.058182 279.21668 
L 387.665455 280.486966 
L 391.272727 289.146633 
L 394.88 295.141351 
L 398.487273 295.150404 
" style="fill:none;stroke:#d62728;stroke-linecap:square;stroke-width:1.5;"/>
   </g>
   <g id="patch_3">
    <path d="M 57.6 307.584 
L 57.6 41.472 
" style="fill:none;stroke:#000000;stroke-linecap:square;stroke-linejoin:miter;stroke-width:0.8;"/>
   </g>
   <g id="patch_4">
    <path d="M 414.72 307.584 
L 414.72 41.472 
" style="fill:none;stroke:#000000;stroke-linecap:square;stroke-linejoin:miter;stroke-width:0.8;"/>
   </g>
   <g id="patch_5">
    <path d="M 57.6 307.584 
L 414.72 307.584 
" style="fill:none;stroke:#000000;stroke-linecap:square;stroke-linejoin:miter;stroke-width:0.8;"/>
   </g>
   <g id="patch_6">
    <path d="M 57.6 41.472 
L 414.72 41.472 
" style="fill:none;stroke:#000000;stroke-linecap:square;stroke-linejoin:miter;stroke-width:0.8;"/>
   </g>
   <g id="text_17">
    <!-- Uncertainty in topography prediction (cross section)   -->
    <defs>
     <path d="M 8.6875 72.90625 
L 18.609375 72.90625 
L 18.609375 28.609375 
Q 18.609375 16.890625 22.84375 11.734375 
Q 27.09375 6.59375 36.625 6.59375 
Q 46.09375 6.59375 50.34375 11.734375 
Q 54.59375 16.890625 54.59375 28.609375 
L 54.59375 72.90625 
L 64.5 72.90625 
L 64.5 27.390625 
Q 64.5 13.140625 57.4375 5.859375 
Q 50.390625 -1.421875 36.625 -1.421875 
Q 22.796875 -1.421875 15.734375 5.859375 
Q 8.6875 13.140625 8.6875 27.390625 
z
" id="DejaVuSans-55"/>
     <path d="M 32.171875 -5.078125 
Q 28.375 -14.84375 24.75 -17.8125 
Q 21.140625 -20.796875 15.09375 -20.796875 
L 7.90625 -20.796875 
L 7.90625 -13.28125 
L 13.1875 -13.28125 
Q 16.890625 -13.28125 18.9375 -11.515625 
Q 21 -9.765625 23.484375 -3.21875 
L 25.09375 0.875 
L 2.984375 54.6875 
L 12.5 54.6875 
L 29.59375 11.921875 
L 46.6875 54.6875 
L 56.203125 54.6875 
z
" id="DejaVuSans-79"/>
     <path d="M 30.609375 48.390625 
Q 23.390625 48.390625 19.1875 42.75 
Q 14.984375 37.109375 14.984375 27.296875 
Q 14.984375 17.484375 19.15625 11.84375 
Q 23.34375 6.203125 30.609375 6.203125 
Q 37.796875 6.203125 41.984375 11.859375 
Q 46.1875 17.53125 46.1875 27.296875 
Q 46.1875 37.015625 41.984375 42.703125 
Q 37.796875 48.390625 30.609375 48.390625 
z
M 30.609375 56 
Q 42.328125 56 49.015625 48.375 
Q 55.71875 40.765625 55.71875 27.296875 
Q 55.71875 13.875 49.015625 6.21875 
Q 42.328125 -1.421875 30.609375 -1.421875 
Q 18.84375 -1.421875 12.171875 6.21875 
Q 5.515625 13.875 5.515625 27.296875 
Q 5.515625 40.765625 12.171875 48.375 
Q 18.84375 56 30.609375 56 
z
" id="DejaVuSans-6f"/>
     <path d="M 18.109375 8.203125 
L 18.109375 -20.796875 
L 9.078125 -20.796875 
L 9.078125 54.6875 
L 18.109375 54.6875 
L 18.109375 46.390625 
Q 20.953125 51.265625 25.265625 53.625 
Q 29.59375 56 35.59375 56 
Q 45.5625 56 51.78125 48.09375 
Q 58.015625 40.1875 58.015625 27.296875 
Q 58.015625 14.40625 51.78125 6.484375 
Q 45.5625 -1.421875 35.59375 -1.421875 
Q 29.59375 -1.421875 25.265625 0.953125 
Q 20.953125 3.328125 18.109375 8.203125 
z
M 48.6875 27.296875 
Q 48.6875 37.203125 44.609375 42.84375 
Q 40.53125 48.484375 33.40625 48.484375 
Q 26.265625 48.484375 22.1875 42.84375 
Q 18.109375 37.203125 18.109375 27.296875 
Q 18.109375 17.390625 22.1875 11.75 
Q 26.265625 6.109375 33.40625 6.109375 
Q 40.53125 6.109375 44.609375 11.75 
Q 48.6875 17.390625 48.6875 27.296875 
z
" id="DejaVuSans-70"/>
     <path d="M 45.40625 46.390625 
L 45.40625 75.984375 
L 54.390625 75.984375 
L 54.390625 0 
L 45.40625 0 
L 45.40625 8.203125 
Q 42.578125 3.328125 38.25 0.953125 
Q 33.9375 -1.421875 27.875 -1.421875 
Q 17.96875 -1.421875 11.734375 6.484375 
Q 5.515625 14.40625 5.515625 27.296875 
Q 5.515625 40.1875 11.734375 48.09375 
Q 17.96875 56 27.875 56 
Q 33.9375 56 38.25 53.625 
Q 42.578125 51.265625 45.40625 46.390625 
z
M 14.796875 27.296875 
Q 14.796875 17.390625 18.875 11.75 
Q 22.953125 6.109375 30.078125 6.109375 
Q 37.203125 6.109375 41.296875 11.75 
Q 45.40625 17.390625 45.40625 27.296875 
Q 45.40625 37.203125 41.296875 42.84375 
Q 37.203125 48.484375 30.078125 48.484375 
Q 22.953125 48.484375 18.875 42.84375 
Q 14.796875 37.203125 14.796875 27.296875 
z
" id="DejaVuSans-64"/>
    </defs>
    <g transform="translate(75.459375 35.472)scale(0.12 -0.12)">
     <use xlink:href="#DejaVuSans-55"/>
     <use x="73.193359" xlink:href="#DejaVuSans-6e"/>
     <use x="136.572266" xlink:href="#DejaVuSans-63"/>
     <use x="191.552734" xlink:href="#DejaVuSans-65"/>
     <use x="253.076172" xlink:href="#DejaVuSans-72"/>
     <use x="294.189453" xlink:href="#DejaVuSans-74"/>
     <use x="333.398438" xlink:href="#DejaVuSans-61"/>
     <use x="394.677734" xlink:href="#DejaVuSans-69"/>
     <use x="422.460938" xlink:href="#DejaVuSans-6e"/>
     <use x="485.839844" xlink:href="#DejaVuSans-74"/>
     <use x="525.048828" xlink:href="#DejaVuSans-79"/>
     <use x="584.228516" xlink:href="#DejaVuSans-20"/>
     <use x="616.015625" xlink:href="#DejaVuSans-69"/>
     <use x="643.798828" xlink:href="#DejaVuSans-6e"/>
     <use x="707.177734" xlink:href="#DejaVuSans-20"/>
     <use x="738.964844" xlink:href="#DejaVuSans-74"/>
     <use x="778.173828" xlink:href="#DejaVuSans-6f"/>
     <use x="839.355469" xlink:href="#DejaVuSans-70"/>
     <use x="902.832031" xlink:href="#DejaVuSans-6f"/>
     <use x="964.013672" xlink:href="#DejaVuSans-67"/>
     <use x="1027.490234" xlink:href="#DejaVuSans-72"/>
     <use x="1068.603516" xlink:href="#DejaVuSans-61"/>
     <use x="1129.882812" xlink:href="#DejaVuSans-70"/>
     <use x="1193.359375" xlink:href="#DejaVuSans-68"/>
     <use x="1256.738281" xlink:href="#DejaVuSans-79"/>
     <use x="1315.917969" xlink:href="#DejaVuSans-20"/>
     <use x="1347.705078" xlink:href="#DejaVuSans-70"/>
     <use x="1411.181641" xlink:href="#DejaVuSans-72"/>
     <use x="1452.263672" xlink:href="#DejaVuSans-65"/>
     <use x="1513.787109" xlink:href="#DejaVuSans-64"/>
     <use x="1577.263672" xlink:href="#DejaVuSans-69"/>
     <use x="1605.046875" xlink:href="#DejaVuSans-63"/>
     <use x="1660.027344" xlink:href="#DejaVuSans-74"/>
     <use x="1699.236328" xlink:href="#DejaVuSans-69"/>
     <use x="1727.019531" xlink:href="#DejaVuSans-6f"/>
     <use x="1788.201172" xlink:href="#DejaVuSans-6e"/>
     <use x="1851.580078" xlink:href="#DejaVuSans-20"/>
     <use x="1883.367188" xlink:href="#DejaVuSans-28"/>
     <use x="1922.380859" xlink:href="#DejaVuSans-63"/>
     <use x="1977.361328" xlink:href="#DejaVuSans-72"/>
     <use x="2018.443359" xlink:href="#DejaVuSans-6f"/>
     <use x="2079.625" xlink:href="#DejaVuSans-73"/>
     <use x="2131.724609" xlink:href="#DejaVuSans-73"/>
     <use x="2183.824219" xlink:href="#DejaVuSans-20"/>
     <use x="2215.611328" xlink:href="#DejaVuSans-73"/>
     <use x="2267.710938" xlink:href="#DejaVuSans-65"/>
     <use x="2329.234375" xlink:href="#DejaVuSans-63"/>
     <use x="2384.214844" xlink:href="#DejaVuSans-74"/>
     <use x="2423.423828" xlink:href="#DejaVuSans-69"/>
     <use x="2451.207031" xlink:href="#DejaVuSans-6f"/>
     <use x="2512.388672" xlink:href="#DejaVuSans-6e"/>
     <use x="2575.767578" xlink:href="#DejaVuSans-29"/>
     <use x="2614.78125" xlink:href="#DejaVuSans-20"/>
     <use x="2646.568359" xlink:href="#DejaVuSans-20"/>
    </g>
   </g>
   <g id="legend_1">
    <g id="patch_7">
     <path d="M 277.843437 108.1845 
L 407.72 108.1845 
Q 409.72 108.1845 409.72 106.1845 
L 409.72 48.472 
Q 409.72 46.472 407.72 46.472 
L 277.843437 46.472 
Q 275.843437 46.472 275.843437 48.472 
L 275.843437 106.1845 
Q 275.843437 108.1845 277.843437 108.1845 
z
" style="fill:#ffffff;opacity:0.8;stroke:#cccccc;stroke-linejoin:miter;"/>
    </g>
    <g id="line2d_19">
     <path d="M 279.843437 54.570438 
L 299.843437 54.570438 
" style="fill:none;stroke:#1f77b4;stroke-linecap:square;stroke-width:1.5;"/>
    </g>
    <g id="line2d_20"/>
    <g id="text_18">
     <!-- ground truth -->
     <defs>
      <path d="M 8.5 21.578125 
L 8.5 54.6875 
L 17.484375 54.6875 
L 17.484375 21.921875 
Q 17.484375 14.15625 20.5 10.265625 
Q 23.53125 6.390625 29.59375 6.390625 
Q 36.859375 6.390625 41.078125 11.03125 
Q 45.3125 15.671875 45.3125 23.6875 
L 45.3125 54.6875 
L 54.296875 54.6875 
L 54.296875 0 
L 45.3125 0 
L 45.3125 8.40625 
Q 42.046875 3.421875 37.71875 1 
Q 33.40625 -1.421875 27.6875 -1.421875 
Q 18.265625 -1.421875 13.375 4.4375 
Q 8.5 10.296875 8.5 21.578125 
z
M 31.109375 56 
z
" id="DejaVuSans-75"/>
     </defs>
     <g transform="translate(307.843437 58.070438)scale(0.1 -0.1)">
      <use xlink:href="#DejaVuSans-67"/>
      <use x="63.476562" xlink:href="#DejaVuSans-72"/>
      <use x="104.558594" xlink:href="#DejaVuSans-6f"/>
      <use x="165.740234" xlink:href="#DejaVuSans-75"/>
      <use x="229.119141" xlink:href="#DejaVuSans-6e"/>
      <use x="292.498047" xlink:href="#DejaVuSans-64"/>
      <use x="355.974609" xlink:href="#DejaVuSans-20"/>
      <use x="387.761719" xlink:href="#DejaVuSans-74"/>
      <use x="426.970703" xlink:href="#DejaVuSans-72"/>
      <use x="468.083984" xlink:href="#DejaVuSans-75"/>
      <use x="531.462891" xlink:href="#DejaVuSans-74"/>
      <use x="570.671875" xlink:href="#DejaVuSans-68"/>
     </g>
    </g>
    <g id="line2d_21">
     <path d="M 279.843437 69.248563 
L 299.843437 69.248563 
" style="fill:none;stroke:#ff7f0e;stroke-linecap:square;stroke-width:1.5;"/>
    </g>
    <g id="line2d_22"/>
    <g id="text_19">
     <!-- pred. (mean) -->
     <defs>
      <path d="M 10.6875 12.40625 
L 21 12.40625 
L 21 0 
L 10.6875 0 
z
" id="DejaVuSans-2e"/>
     </defs>
     <g transform="translate(307.843437 72.748563)scale(0.1 -0.1)">
      <use xlink:href="#DejaVuSans-70"/>
      <use x="63.476562" xlink:href="#DejaVuSans-72"/>
      <use x="104.558594" xlink:href="#DejaVuSans-65"/>
      <use x="166.082031" xlink:href="#DejaVuSans-64"/>
      <use x="229.558594" xlink:href="#DejaVuSans-2e"/>
      <use x="261.345703" xlink:href="#DejaVuSans-20"/>
      <use x="293.132812" xlink:href="#DejaVuSans-28"/>
      <use x="332.146484" xlink:href="#DejaVuSans-6d"/>
      <use x="429.558594" xlink:href="#DejaVuSans-65"/>
      <use x="491.082031" xlink:href="#DejaVuSans-61"/>
      <use x="552.361328" xlink:href="#DejaVuSans-6e"/>
      <use x="615.740234" xlink:href="#DejaVuSans-29"/>
     </g>
    </g>
    <g id="line2d_23">
     <path d="M 279.843437 83.926688 
L 299.843437 83.926688 
" style="fill:none;stroke:#2ca02c;stroke-linecap:square;stroke-width:1.5;"/>
    </g>
    <g id="line2d_24"/>
    <g id="text_20">
     <!-- pred.(5th percen.) -->
     <g transform="translate(307.843437 87.426688)scale(0.1 -0.1)">
      <use xlink:href="#DejaVuSans-70"/>
      <use x="63.476562" xlink:href="#DejaVuSans-72"/>
      <use x="104.558594" xlink:href="#DejaVuSans-65"/>
      <use x="166.082031" xlink:href="#DejaVuSans-64"/>
      <use x="229.558594" xlink:href="#DejaVuSans-2e"/>
      <use x="261.345703" xlink:href="#DejaVuSans-28"/>
      <use x="300.359375" xlink:href="#DejaVuSans-35"/>
      <use x="363.982422" xlink:href="#DejaVuSans-74"/>
      <use x="403.191406" xlink:href="#DejaVuSans-68"/>
      <use x="466.570312" xlink:href="#DejaVuSans-20"/>
      <use x="498.357422" xlink:href="#DejaVuSans-70"/>
      <use x="561.833984" xlink:href="#DejaVuSans-65"/>
      <use x="623.357422" xlink:href="#DejaVuSans-72"/>
      <use x="664.439453" xlink:href="#DejaVuSans-63"/>
      <use x="719.419922" xlink:href="#DejaVuSans-65"/>
      <use x="780.943359" xlink:href="#DejaVuSans-6e"/>
      <use x="844.322266" xlink:href="#DejaVuSans-2e"/>
      <use x="876.109375" xlink:href="#DejaVuSans-29"/>
     </g>
    </g>
    <g id="line2d_25">
     <path d="M 279.843437 98.604813 
L 299.843437 98.604813 
" style="fill:none;stroke:#d62728;stroke-linecap:square;stroke-width:1.5;"/>
    </g>
    <g id="line2d_26"/>
    <g id="text_21">
     <!-- pred.(95th percen.) -->
     <defs>
      <path d="M 10.984375 1.515625 
L 10.984375 10.5 
Q 14.703125 8.734375 18.5 7.8125 
Q 22.3125 6.890625 25.984375 6.890625 
Q 35.75 6.890625 40.890625 13.453125 
Q 46.046875 20.015625 46.78125 33.40625 
Q 43.953125 29.203125 39.59375 26.953125 
Q 35.25 24.703125 29.984375 24.703125 
Q 19.046875 24.703125 12.671875 31.3125 
Q 6.296875 37.9375 6.296875 49.421875 
Q 6.296875 60.640625 12.9375 67.421875 
Q 19.578125 74.21875 30.609375 74.21875 
Q 43.265625 74.21875 49.921875 64.515625 
Q 56.59375 54.828125 56.59375 36.375 
Q 56.59375 19.140625 48.40625 8.859375 
Q 40.234375 -1.421875 26.421875 -1.421875 
Q 22.703125 -1.421875 18.890625 -0.6875 
Q 15.09375 0.046875 10.984375 1.515625 
z
M 30.609375 32.421875 
Q 37.25 32.421875 41.125 36.953125 
Q 45.015625 41.5 45.015625 49.421875 
Q 45.015625 57.28125 41.125 61.84375 
Q 37.25 66.40625 30.609375 66.40625 
Q 23.96875 66.40625 20.09375 61.84375 
Q 16.21875 57.28125 16.21875 49.421875 
Q 16.21875 41.5 20.09375 36.953125 
Q 23.96875 32.421875 30.609375 32.421875 
z
" id="DejaVuSans-39"/>
     </defs>
     <g transform="translate(307.843437 102.104813)scale(0.1 -0.1)">
      <use xlink:href="#DejaVuSans-70"/>
      <use x="63.476562" xlink:href="#DejaVuSans-72"/>
      <use x="104.558594" xlink:href="#DejaVuSans-65"/>
      <use x="166.082031" xlink:href="#DejaVuSans-64"/>
      <use x="229.558594" xlink:href="#DejaVuSans-2e"/>
      <use x="261.345703" xlink:href="#DejaVuSans-28"/>
      <use x="300.359375" xlink:href="#DejaVuSans-39"/>
      <use x="363.982422" xlink:href="#DejaVuSans-35"/>
      <use x="427.605469" xlink:href="#DejaVuSans-74"/>
      <use x="466.814453" xlink:href="#DejaVuSans-68"/>
      <use x="530.193359" xlink:href="#DejaVuSans-20"/>
      <use x="561.980469" xlink:href="#DejaVuSans-70"/>
      <use x="625.457031" xlink:href="#DejaVuSans-65"/>
      <use x="686.980469" xlink:href="#DejaVuSans-72"/>
      <use x="728.0625" xlink:href="#DejaVuSans-63"/>
      <use x="783.042969" xlink:href="#DejaVuSans-65"/>
      <use x="844.566406" xlink:href="#DejaVuSans-6e"/>
      <use x="907.945312" xlink:href="#DejaVuSans-2e"/>
      <use x="939.732422" xlink:href="#DejaVuSans-29"/>
     </g>
    </g>
   </g>
  </g>
 </g>
 <defs>
  <clipPath id="pddf9050f30">
   <rect height="266.112" width="357.12" x="57.6" y="41.472"/>
  </clipPath>
 </defs>
</svg>
