<?xml version="1.0" encoding="utf-8" standalone="no"?>
<!DOCTYPE svg PUBLIC "-//W3C//DTD SVG 1.1//EN"
  "http://www.w3.org/Graphics/SVG/1.1/DTD/svg11.dtd">
<!-- Created with matplotlib (http://matplotlib.org/) -->
<svg height="345pt" version="1.1" viewBox="0 0 460 345" width="460pt" xmlns="http://www.w3.org/2000/svg" xmlns:xlink="http://www.w3.org/1999/xlink">
 <defs>
  <style type="text/css">
*{stroke-linecap:butt;stroke-linejoin:round;}
  </style>
 </defs>
 <g id="figure_1">
  <g id="patch_1">
   <path d="M 0 345.6 
L 460.8 345.6 
L 460.8 0 
L 0 0 
z
" style="fill:#ffffff;"/>
  </g>
  <g id="axes_1">
   <g id="patch_2">
    <path d="M 57.6 307.584 
L 414.72 307.584 
L 414.72 41.472 
L 57.6 41.472 
z
" style="fill:#ffffff;"/>
   </g>
   <g id="PolyCollection_1">
    <path clip-path="url(#p02d39c588c)" d="M 73.832727 289.686104 
L 73.832727 289.686104 
L 76.49383 289.663287 
L 79.154933 289.635588 
L 81.816036 289.611211 
L 84.477139 289.517262 
L 87.138241 289.371445 
L 89.799344 289.095128 
L 92.460447 288.667848 
L 95.12155 288.379379 
L 97.782653 287.631675 
L 100.443756 286.907421 
L 103.104858 285.385661 
L 105.765961 284.49316 
L 108.427064 282.194705 
L 111.088167 280.714997 
L 113.74927 278.468202 
L 116.410373 275.007674 
L 119.071475 271.488368 
L 121.732578 269.349601 
L 124.393681 268.449899 
L 127.054784 269.622457 
L 129.715887 263.962087 
L 132.37699 269.992747 
L 135.038092 272.57433 
L 137.699195 275.853811 
L 140.360298 278.502597 
L 143.021401 276.513867 
L 145.682504 271.218649 
L 148.343607 262.577418 
L 151.004709 252.616673 
L 153.665812 245.078113 
L 156.326915 233.95261 
L 158.988018 214.32546 
L 161.649121 198.533856 
L 164.310224 166.369088 
L 166.971326 146.76412 
L 169.632429 128.290199 
L 172.293532 105.008007 
L 174.954635 87.981172 
L 177.615738 73.365146 
L 180.276841 68.769864 
L 182.937943 71.881094 
L 185.599046 75.586476 
L 188.260149 79.365676 
L 190.921252 81.750814 
L 193.582355 83.287888 
L 196.243458 84.559872 
L 198.90456 85.247084 
L 201.565663 85.859201 
L 204.226766 86.581048 
L 206.887869 88.101481 
L 209.548972 90.166463 
L 212.210075 91.439934 
L 214.871177 92.789089 
L 217.53228 97.173201 
L 220.193383 100.195927 
L 222.854486 109.845076 
L 225.515589 121.336091 
L 228.176692 134.640036 
L 230.837794 144.275626 
L 233.498897 166.299018 
L 236.16 167.560341 
L 238.821103 149.694136 
L 241.482206 154.665747 
L 244.143308 149.873205 
L 246.804411 166.838713 
L 249.465514 184.738584 
L 252.126617 207.554709 
L 254.78772 213.974711 
L 257.448823 207.869258 
L 260.109925 219.141219 
L 262.771028 224.36834 
L 265.432131 199.603847 
L 268.093234 154.582649 
L 270.754337 139.49273 
L 273.41544 118.606016 
L 276.076542 108.149724 
L 278.737645 96.81066 
L 281.398748 93.826287 
L 284.059851 90.278093 
L 286.720954 86.947069 
L 289.382057 83.83245 
L 292.043159 79.579126 
L 294.704262 73.668845 
L 297.365365 69.518741 
L 300.026468 68.045387 
L 302.687571 76.173377 
L 305.348674 94.336728 
L 308.009776 117.925486 
L 310.670879 143.337774 
L 313.331982 157.084656 
L 315.993085 175.96942 
L 318.654188 191.625145 
L 321.315291 207.216408 
L 323.976393 221.217688 
L 326.637496 237.198921 
L 329.298599 248.666038 
L 331.959702 259.506824 
L 334.620805 267.374823 
L 337.281908 272.886102 
L 339.94301 278.126785 
L 342.604113 279.656208 
L 345.265216 283.342538 
L 347.926319 283.503636 
L 350.587422 285.242495 
L 353.248525 285.88629 
L 355.909627 286.214181 
L 358.57073 285.323625 
L 361.231833 285.832838 
L 363.892936 287.179614 
L 366.554039 287.604556 
L 369.215142 288.488922 
L 371.876244 288.743149 
L 374.537347 288.574644 
L 377.19845 288.366687 
L 379.859553 288.584755 
L 382.520656 288.67223 
L 385.181759 288.958994 
L 387.842861 289.274855 
L 390.503964 289.366536 
L 393.165067 289.438601 
L 395.82617 289.482741 
L 398.487273 289.215826 
L 398.487273 289.215826 
L 398.487273 289.215826 
L 395.82617 289.482246 
L 393.165067 289.372791 
L 390.503964 289.201017 
L 387.842861 289.037642 
L 385.181759 288.490802 
L 382.520656 287.924751 
L 379.859553 287.699949 
L 377.19845 287.18986 
L 374.537347 287.512654 
L 371.876244 287.777784 
L 369.215142 287.090599 
L 366.554039 285.327982 
L 363.892936 284.31064 
L 361.231833 281.566943 
L 358.57073 280.374591 
L 355.909627 281.46268 
L 353.248525 280.594621 
L 350.587422 279.152929 
L 347.926319 275.677145 
L 345.265216 274.263627 
L 342.604113 266.708614 
L 339.94301 262.877564 
L 337.281908 252.282131 
L 334.620805 242.144116 
L 331.959702 228.390119 
L 329.298599 212.477088 
L 326.637496 196.263935 
L 323.976393 174.376004 
L 321.315291 157.812054 
L 318.654188 137.724185 
L 315.993085 121.331311 
L 313.331982 101.037767 
L 310.670879 85.152095 
L 308.009776 67.559694 
L 305.348674 55.642221 
L 302.687571 53.568 
L 300.026468 55.307455 
L 297.365365 61.749482 
L 294.704262 66.454369 
L 292.043159 72.68398 
L 289.382057 76.674283 
L 286.720954 79.338995 
L 284.059851 81.003743 
L 281.398748 82.608 
L 278.737645 84.75397 
L 276.076542 85.777424 
L 273.41544 86.56105 
L 270.754337 89.142253 
L 268.093234 89.927663 
L 265.432131 102.129204 
L 262.771028 114.248702 
L 260.109925 115.519701 
L 257.448823 101.38877 
L 254.78772 107.018109 
L 252.126617 102.749095 
L 249.465514 93.232049 
L 246.804411 89.153078 
L 244.143308 88.009802 
L 241.482206 87.785485 
L 238.821103 86.8936 
L 236.16 87.413274 
L 233.498897 87.06037 
L 230.837794 86.491587 
L 228.176692 86.281564 
L 225.515589 86.17331 
L 222.854486 86.133325 
L 220.193383 86.096309 
L 217.53228 86.078244 
L 214.871177 86.049608 
L 212.210075 86.036057 
L 209.548972 85.996351 
L 206.887869 85.841878 
L 204.226766 85.499962 
L 201.565663 84.890753 
L 198.90456 83.715678 
L 196.243458 82.334877 
L 193.582355 79.972685 
L 190.921252 77.597417 
L 188.260149 74.14555 
L 185.599046 69.365889 
L 182.937943 65.321385 
L 180.276841 60.586706 
L 177.615738 55.082808 
L 174.954635 54.540415 
L 172.293532 61.528326 
L 169.632429 78.699031 
L 166.971326 98.778279 
L 164.310224 116.233384 
L 161.649121 149.209014 
L 158.988018 165.978133 
L 156.326915 189.048434 
L 153.665812 203.882869 
L 151.004709 215.276091 
L 148.343607 231.258571 
L 145.682504 246.94621 
L 143.021401 256.643739 
L 140.360298 261.727526 
L 137.699195 257.792393 
L 135.038092 255.545727 
L 132.37699 252.151162 
L 129.715887 245.042789 
L 127.054784 253.851315 
L 124.393681 253.077296 
L 121.732578 255.20672 
L 119.071475 258.771643 
L 116.410373 264.212767 
L 113.74927 269.405507 
L 111.088167 273.52745 
L 108.427064 276.078 
L 105.765961 279.942081 
L 103.104858 281.713216 
L 100.443756 284.365349 
L 97.782653 285.725356 
L 95.12155 287.125125 
L 92.460447 287.711041 
L 89.799344 288.542815 
L 87.138241 289.063774 
L 84.477139 289.355307 
L 81.816036 289.55278 
L 79.154933 289.607088 
L 76.49383 289.663287 
L 73.832727 289.686104 
z
" style="fill:#008000;fill-opacity:0.4;"/>
   </g>
   <g id="matplotlib.axis_1">
    <g id="xtick_1">
     <g id="line2d_1">
      <defs>
       <path d="M 0 0 
L 0 3.5 
" id="mb2fa5894e4" style="stroke:#000000;stroke-width:0.8;"/>
      </defs>
      <g>
       <use style="stroke:#000000;stroke-width:0.8;" x="73.832727" xlink:href="#mb2fa5894e4" y="307.584"/>
      </g>
     </g>
     <g id="text_1">
      <!-- 0.00 -->
      <defs>
       <path d="M 31.78125 66.40625 
Q 24.171875 66.40625 20.328125 58.90625 
Q 16.5 51.421875 16.5 36.375 
Q 16.5 21.390625 20.328125 13.890625 
Q 24.171875 6.390625 31.78125 6.390625 
Q 39.453125 6.390625 43.28125 13.890625 
Q 47.125 21.390625 47.125 36.375 
Q 47.125 51.421875 43.28125 58.90625 
Q 39.453125 66.40625 31.78125 66.40625 
z
M 31.78125 74.21875 
Q 44.046875 74.21875 50.515625 64.515625 
Q 56.984375 54.828125 56.984375 36.375 
Q 56.984375 17.96875 50.515625 8.265625 
Q 44.046875 -1.421875 31.78125 -1.421875 
Q 19.53125 -1.421875 13.0625 8.265625 
Q 6.59375 17.96875 6.59375 36.375 
Q 6.59375 54.828125 13.0625 64.515625 
Q 19.53125 74.21875 31.78125 74.21875 
z
" id="DejaVuSans-30"/>
       <path d="M 10.6875 12.40625 
L 21 12.40625 
L 21 0 
L 10.6875 0 
z
" id="DejaVuSans-2e"/>
      </defs>
      <g transform="translate(62.699915 322.182437)scale(0.1 -0.1)">
       <use xlink:href="#DejaVuSans-30"/>
       <use x="63.623047" xlink:href="#DejaVuSans-2e"/>
       <use x="95.410156" xlink:href="#DejaVuSans-30"/>
       <use x="159.033203" xlink:href="#DejaVuSans-30"/>
      </g>
     </g>
    </g>
    <g id="xtick_2">
     <g id="line2d_2">
      <g>
       <use style="stroke:#000000;stroke-width:0.8;" x="139.819424" xlink:href="#mb2fa5894e4" y="307.584"/>
      </g>
     </g>
     <g id="text_2">
      <!-- 0.05 -->
      <defs>
       <path d="M 10.796875 72.90625 
L 49.515625 72.90625 
L 49.515625 64.59375 
L 19.828125 64.59375 
L 19.828125 46.734375 
Q 21.96875 47.46875 24.109375 47.828125 
Q 26.265625 48.1875 28.421875 48.1875 
Q 40.625 48.1875 47.75 41.5 
Q 54.890625 34.8125 54.890625 23.390625 
Q 54.890625 11.625 47.5625 5.09375 
Q 40.234375 -1.421875 26.90625 -1.421875 
Q 22.3125 -1.421875 17.546875 -0.640625 
Q 12.796875 0.140625 7.71875 1.703125 
L 7.71875 11.625 
Q 12.109375 9.234375 16.796875 8.0625 
Q 21.484375 6.890625 26.703125 6.890625 
Q 35.15625 6.890625 40.078125 11.328125 
Q 45.015625 15.765625 45.015625 23.390625 
Q 45.015625 31 40.078125 35.4375 
Q 35.15625 39.890625 26.703125 39.890625 
Q 22.75 39.890625 18.8125 39.015625 
Q 14.890625 38.140625 10.796875 36.28125 
z
" id="DejaVuSans-35"/>
      </defs>
      <g transform="translate(128.686611 322.182437)scale(0.1 -0.1)">
       <use xlink:href="#DejaVuSans-30"/>
       <use x="63.623047" xlink:href="#DejaVuSans-2e"/>
       <use x="95.410156" xlink:href="#DejaVuSans-30"/>
       <use x="159.033203" xlink:href="#DejaVuSans-35"/>
      </g>
     </g>
    </g>
    <g id="xtick_3">
     <g id="line2d_3">
      <g>
       <use style="stroke:#000000;stroke-width:0.8;" x="205.80612" xlink:href="#mb2fa5894e4" y="307.584"/>
      </g>
     </g>
     <g id="text_3">
      <!-- 0.10 -->
      <defs>
       <path d="M 12.40625 8.296875 
L 28.515625 8.296875 
L 28.515625 63.921875 
L 10.984375 60.40625 
L 10.984375 69.390625 
L 28.421875 72.90625 
L 38.28125 72.90625 
L 38.28125 8.296875 
L 54.390625 8.296875 
L 54.390625 0 
L 12.40625 0 
z
" id="DejaVuSans-31"/>
      </defs>
      <g transform="translate(194.673307 322.182437)scale(0.1 -0.1)">
       <use xlink:href="#DejaVuSans-30"/>
       <use x="63.623047" xlink:href="#DejaVuSans-2e"/>
       <use x="95.410156" xlink:href="#DejaVuSans-31"/>
       <use x="159.033203" xlink:href="#DejaVuSans-30"/>
      </g>
     </g>
    </g>
    <g id="xtick_4">
     <g id="line2d_4">
      <g>
       <use style="stroke:#000000;stroke-width:0.8;" x="271.792816" xlink:href="#mb2fa5894e4" y="307.584"/>
      </g>
     </g>
     <g id="text_4">
      <!-- 0.15 -->
      <g transform="translate(260.660003 322.182437)scale(0.1 -0.1)">
       <use xlink:href="#DejaVuSans-30"/>
       <use x="63.623047" xlink:href="#DejaVuSans-2e"/>
       <use x="95.410156" xlink:href="#DejaVuSans-31"/>
       <use x="159.033203" xlink:href="#DejaVuSans-35"/>
      </g>
     </g>
    </g>
    <g id="xtick_5">
     <g id="line2d_5">
      <g>
       <use style="stroke:#000000;stroke-width:0.8;" x="337.779512" xlink:href="#mb2fa5894e4" y="307.584"/>
      </g>
     </g>
     <g id="text_5">
      <!-- 0.20 -->
      <defs>
       <path d="M 19.1875 8.296875 
L 53.609375 8.296875 
L 53.609375 0 
L 7.328125 0 
L 7.328125 8.296875 
Q 12.9375 14.109375 22.625 23.890625 
Q 32.328125 33.6875 34.8125 36.53125 
Q 39.546875 41.84375 41.421875 45.53125 
Q 43.3125 49.21875 43.3125 52.78125 
Q 43.3125 58.59375 39.234375 62.25 
Q 35.15625 65.921875 28.609375 65.921875 
Q 23.96875 65.921875 18.8125 64.3125 
Q 13.671875 62.703125 7.8125 59.421875 
L 7.8125 69.390625 
Q 13.765625 71.78125 18.9375 73 
Q 24.125 74.21875 28.421875 74.21875 
Q 39.75 74.21875 46.484375 68.546875 
Q 53.21875 62.890625 53.21875 53.421875 
Q 53.21875 48.921875 51.53125 44.890625 
Q 49.859375 40.875 45.40625 35.40625 
Q 44.1875 33.984375 37.640625 27.21875 
Q 31.109375 20.453125 19.1875 8.296875 
z
" id="DejaVuSans-32"/>
      </defs>
      <g transform="translate(326.6467 322.182437)scale(0.1 -0.1)">
       <use xlink:href="#DejaVuSans-30"/>
       <use x="63.623047" xlink:href="#DejaVuSans-2e"/>
       <use x="95.410156" xlink:href="#DejaVuSans-32"/>
       <use x="159.033203" xlink:href="#DejaVuSans-30"/>
      </g>
     </g>
    </g>
    <g id="xtick_6">
     <g id="line2d_6">
      <g>
       <use style="stroke:#000000;stroke-width:0.8;" x="403.766208" xlink:href="#mb2fa5894e4" y="307.584"/>
      </g>
     </g>
     <g id="text_6">
      <!-- 0.25 -->
      <g transform="translate(392.633396 322.182437)scale(0.1 -0.1)">
       <use xlink:href="#DejaVuSans-30"/>
       <use x="63.623047" xlink:href="#DejaVuSans-2e"/>
       <use x="95.410156" xlink:href="#DejaVuSans-32"/>
       <use x="159.033203" xlink:href="#DejaVuSans-35"/>
      </g>
     </g>
    </g>
    <g id="text_7">
     <!--  Distance (km)   -->
     <defs>
      <path id="DejaVuSans-20"/>
      <path d="M 19.671875 64.796875 
L 19.671875 8.109375 
L 31.59375 8.109375 
Q 46.6875 8.109375 53.6875 14.9375 
Q 60.6875 21.78125 60.6875 36.53125 
Q 60.6875 51.171875 53.6875 57.984375 
Q 46.6875 64.796875 31.59375 64.796875 
z
M 9.8125 72.90625 
L 30.078125 72.90625 
Q 51.265625 72.90625 61.171875 64.09375 
Q 71.09375 55.28125 71.09375 36.53125 
Q 71.09375 17.671875 61.125 8.828125 
Q 51.171875 0 30.078125 0 
L 9.8125 0 
z
" id="DejaVuSans-44"/>
      <path d="M 9.421875 54.6875 
L 18.40625 54.6875 
L 18.40625 0 
L 9.421875 0 
z
M 9.421875 75.984375 
L 18.40625 75.984375 
L 18.40625 64.59375 
L 9.421875 64.59375 
z
" id="DejaVuSans-69"/>
      <path d="M 44.28125 53.078125 
L 44.28125 44.578125 
Q 40.484375 46.53125 36.375 47.5 
Q 32.28125 48.484375 27.875 48.484375 
Q 21.1875 48.484375 17.84375 46.4375 
Q 14.5 44.390625 14.5 40.28125 
Q 14.5 37.15625 16.890625 35.375 
Q 19.28125 33.59375 26.515625 31.984375 
L 29.59375 31.296875 
Q 39.15625 29.25 43.1875 25.515625 
Q 47.21875 21.78125 47.21875 15.09375 
Q 47.21875 7.46875 41.1875 3.015625 
Q 35.15625 -1.421875 24.609375 -1.421875 
Q 20.21875 -1.421875 15.453125 -0.5625 
Q 10.6875 0.296875 5.421875 2 
L 5.421875 11.28125 
Q 10.40625 8.6875 15.234375 7.390625 
Q 20.0625 6.109375 24.8125 6.109375 
Q 31.15625 6.109375 34.5625 8.28125 
Q 37.984375 10.453125 37.984375 14.40625 
Q 37.984375 18.0625 35.515625 20.015625 
Q 33.0625 21.96875 24.703125 23.78125 
L 21.578125 24.515625 
Q 13.234375 26.265625 9.515625 29.90625 
Q 5.8125 33.546875 5.8125 39.890625 
Q 5.8125 47.609375 11.28125 51.796875 
Q 16.75 56 26.8125 56 
Q 31.78125 56 36.171875 55.265625 
Q 40.578125 54.546875 44.28125 53.078125 
z
" id="DejaVuSans-73"/>
      <path d="M 18.3125 70.21875 
L 18.3125 54.6875 
L 36.8125 54.6875 
L 36.8125 47.703125 
L 18.3125 47.703125 
L 18.3125 18.015625 
Q 18.3125 11.328125 20.140625 9.421875 
Q 21.96875 7.515625 27.59375 7.515625 
L 36.8125 7.515625 
L 36.8125 0 
L 27.59375 0 
Q 17.1875 0 13.234375 3.875 
Q 9.28125 7.765625 9.28125 18.015625 
L 9.28125 47.703125 
L 2.6875 47.703125 
L 2.6875 54.6875 
L 9.28125 54.6875 
L 9.28125 70.21875 
z
" id="DejaVuSans-74"/>
      <path d="M 34.28125 27.484375 
Q 23.390625 27.484375 19.1875 25 
Q 14.984375 22.515625 14.984375 16.5 
Q 14.984375 11.71875 18.140625 8.90625 
Q 21.296875 6.109375 26.703125 6.109375 
Q 34.1875 6.109375 38.703125 11.40625 
Q 43.21875 16.703125 43.21875 25.484375 
L 43.21875 27.484375 
z
M 52.203125 31.203125 
L 52.203125 0 
L 43.21875 0 
L 43.21875 8.296875 
Q 40.140625 3.328125 35.546875 0.953125 
Q 30.953125 -1.421875 24.3125 -1.421875 
Q 15.921875 -1.421875 10.953125 3.296875 
Q 6 8.015625 6 15.921875 
Q 6 25.140625 12.171875 29.828125 
Q 18.359375 34.515625 30.609375 34.515625 
L 43.21875 34.515625 
L 43.21875 35.40625 
Q 43.21875 41.609375 39.140625 45 
Q 35.0625 48.390625 27.6875 48.390625 
Q 23 48.390625 18.546875 47.265625 
Q 14.109375 46.140625 10.015625 43.890625 
L 10.015625 52.203125 
Q 14.9375 54.109375 19.578125 55.046875 
Q 24.21875 56 28.609375 56 
Q 40.484375 56 46.34375 49.84375 
Q 52.203125 43.703125 52.203125 31.203125 
z
" id="DejaVuSans-61"/>
      <path d="M 54.890625 33.015625 
L 54.890625 0 
L 45.90625 0 
L 45.90625 32.71875 
Q 45.90625 40.484375 42.875 44.328125 
Q 39.84375 48.1875 33.796875 48.1875 
Q 26.515625 48.1875 22.3125 43.546875 
Q 18.109375 38.921875 18.109375 30.90625 
L 18.109375 0 
L 9.078125 0 
L 9.078125 54.6875 
L 18.109375 54.6875 
L 18.109375 46.1875 
Q 21.34375 51.125 25.703125 53.5625 
Q 30.078125 56 35.796875 56 
Q 45.21875 56 50.046875 50.171875 
Q 54.890625 44.34375 54.890625 33.015625 
z
" id="DejaVuSans-6e"/>
      <path d="M 48.78125 52.59375 
L 48.78125 44.1875 
Q 44.96875 46.296875 41.140625 47.34375 
Q 37.3125 48.390625 33.40625 48.390625 
Q 24.65625 48.390625 19.8125 42.84375 
Q 14.984375 37.3125 14.984375 27.296875 
Q 14.984375 17.28125 19.8125 11.734375 
Q 24.65625 6.203125 33.40625 6.203125 
Q 37.3125 6.203125 41.140625 7.25 
Q 44.96875 8.296875 48.78125 10.40625 
L 48.78125 2.09375 
Q 45.015625 0.34375 40.984375 -0.53125 
Q 36.96875 -1.421875 32.421875 -1.421875 
Q 20.0625 -1.421875 12.78125 6.34375 
Q 5.515625 14.109375 5.515625 27.296875 
Q 5.515625 40.671875 12.859375 48.328125 
Q 20.21875 56 33.015625 56 
Q 37.15625 56 41.109375 55.140625 
Q 45.0625 54.296875 48.78125 52.59375 
z
" id="DejaVuSans-63"/>
      <path d="M 56.203125 29.59375 
L 56.203125 25.203125 
L 14.890625 25.203125 
Q 15.484375 15.921875 20.484375 11.0625 
Q 25.484375 6.203125 34.421875 6.203125 
Q 39.59375 6.203125 44.453125 7.46875 
Q 49.3125 8.734375 54.109375 11.28125 
L 54.109375 2.78125 
Q 49.265625 0.734375 44.1875 -0.34375 
Q 39.109375 -1.421875 33.890625 -1.421875 
Q 20.796875 -1.421875 13.15625 6.1875 
Q 5.515625 13.8125 5.515625 26.8125 
Q 5.515625 40.234375 12.765625 48.109375 
Q 20.015625 56 32.328125 56 
Q 43.359375 56 49.78125 48.890625 
Q 56.203125 41.796875 56.203125 29.59375 
z
M 47.21875 32.234375 
Q 47.125 39.59375 43.09375 43.984375 
Q 39.0625 48.390625 32.421875 48.390625 
Q 24.90625 48.390625 20.390625 44.140625 
Q 15.875 39.890625 15.1875 32.171875 
z
" id="DejaVuSans-65"/>
      <path d="M 31 75.875 
Q 24.46875 64.65625 21.28125 53.65625 
Q 18.109375 42.671875 18.109375 31.390625 
Q 18.109375 20.125 21.3125 9.0625 
Q 24.515625 -2 31 -13.1875 
L 23.1875 -13.1875 
Q 15.875 -1.703125 12.234375 9.375 
Q 8.59375 20.453125 8.59375 31.390625 
Q 8.59375 42.28125 12.203125 53.3125 
Q 15.828125 64.359375 23.1875 75.875 
z
" id="DejaVuSans-28"/>
      <path d="M 9.078125 75.984375 
L 18.109375 75.984375 
L 18.109375 31.109375 
L 44.921875 54.6875 
L 56.390625 54.6875 
L 27.390625 29.109375 
L 57.625 0 
L 45.90625 0 
L 18.109375 26.703125 
L 18.109375 0 
L 9.078125 0 
z
" id="DejaVuSans-6b"/>
      <path d="M 52 44.1875 
Q 55.375 50.25 60.0625 53.125 
Q 64.75 56 71.09375 56 
Q 79.640625 56 84.28125 50.015625 
Q 88.921875 44.046875 88.921875 33.015625 
L 88.921875 0 
L 79.890625 0 
L 79.890625 32.71875 
Q 79.890625 40.578125 77.09375 44.375 
Q 74.3125 48.1875 68.609375 48.1875 
Q 61.625 48.1875 57.5625 43.546875 
Q 53.515625 38.921875 53.515625 30.90625 
L 53.515625 0 
L 44.484375 0 
L 44.484375 32.71875 
Q 44.484375 40.625 41.703125 44.40625 
Q 38.921875 48.1875 33.109375 48.1875 
Q 26.21875 48.1875 22.15625 43.53125 
Q 18.109375 38.875 18.109375 30.90625 
L 18.109375 0 
L 9.078125 0 
L 9.078125 54.6875 
L 18.109375 54.6875 
L 18.109375 46.1875 
Q 21.1875 51.21875 25.484375 53.609375 
Q 29.78125 56 35.6875 56 
Q 41.65625 56 45.828125 52.96875 
Q 50 49.953125 52 44.1875 
z
" id="DejaVuSans-6d"/>
      <path d="M 8.015625 75.875 
L 15.828125 75.875 
Q 23.140625 64.359375 26.78125 53.3125 
Q 30.421875 42.28125 30.421875 31.390625 
Q 30.421875 20.453125 26.78125 9.375 
Q 23.140625 -1.703125 15.828125 -13.1875 
L 8.015625 -13.1875 
Q 14.5 -2 17.703125 9.0625 
Q 20.90625 20.125 20.90625 31.390625 
Q 20.90625 42.671875 17.703125 53.65625 
Q 14.5 64.65625 8.015625 75.875 
z
" id="DejaVuSans-29"/>
     </defs>
     <g transform="translate(196.274062 335.860562)scale(0.1 -0.1)">
      <use xlink:href="#DejaVuSans-20"/>
      <use x="31.787109" xlink:href="#DejaVuSans-44"/>
      <use x="108.789062" xlink:href="#DejaVuSans-69"/>
      <use x="136.572266" xlink:href="#DejaVuSans-73"/>
      <use x="188.671875" xlink:href="#DejaVuSans-74"/>
      <use x="227.880859" xlink:href="#DejaVuSans-61"/>
      <use x="289.160156" xlink:href="#DejaVuSans-6e"/>
      <use x="352.539062" xlink:href="#DejaVuSans-63"/>
      <use x="407.519531" xlink:href="#DejaVuSans-65"/>
      <use x="469.042969" xlink:href="#DejaVuSans-20"/>
      <use x="500.830078" xlink:href="#DejaVuSans-28"/>
      <use x="539.84375" xlink:href="#DejaVuSans-6b"/>
      <use x="597.753906" xlink:href="#DejaVuSans-6d"/>
      <use x="695.166016" xlink:href="#DejaVuSans-29"/>
      <use x="734.179688" xlink:href="#DejaVuSans-20"/>
      <use x="765.966797" xlink:href="#DejaVuSans-20"/>
     </g>
    </g>
   </g>
   <g id="matplotlib.axis_2">
    <g id="ytick_1">
     <g id="line2d_7">
      <defs>
       <path d="M 0 0 
L -3.5 0 
" id="m46bb841ee3" style="stroke:#000000;stroke-width:0.8;"/>
      </defs>
      <g>
       <use style="stroke:#000000;stroke-width:0.8;" x="57.6" xlink:href="#m46bb841ee3" y="304.559346"/>
      </g>
     </g>
     <g id="text_8">
      <!-- 20 -->
      <g transform="translate(37.875 308.358565)scale(0.1 -0.1)">
       <use xlink:href="#DejaVuSans-32"/>
       <use x="63.623047" xlink:href="#DejaVuSans-30"/>
      </g>
     </g>
    </g>
    <g id="ytick_2">
     <g id="line2d_8">
      <g>
       <use style="stroke:#000000;stroke-width:0.8;" x="57.6" xlink:href="#m46bb841ee3" y="247.899376"/>
      </g>
     </g>
     <g id="text_9">
      <!-- 40 -->
      <defs>
       <path d="M 37.796875 64.3125 
L 12.890625 25.390625 
L 37.796875 25.390625 
z
M 35.203125 72.90625 
L 47.609375 72.90625 
L 47.609375 25.390625 
L 58.015625 25.390625 
L 58.015625 17.1875 
L 47.609375 17.1875 
L 47.609375 0 
L 37.796875 0 
L 37.796875 17.1875 
L 4.890625 17.1875 
L 4.890625 26.703125 
z
" id="DejaVuSans-34"/>
      </defs>
      <g transform="translate(37.875 251.698594)scale(0.1 -0.1)">
       <use xlink:href="#DejaVuSans-34"/>
       <use x="63.623047" xlink:href="#DejaVuSans-30"/>
      </g>
     </g>
    </g>
    <g id="ytick_3">
     <g id="line2d_9">
      <g>
       <use style="stroke:#000000;stroke-width:0.8;" x="57.6" xlink:href="#m46bb841ee3" y="191.239405"/>
      </g>
     </g>
     <g id="text_10">
      <!-- 60 -->
      <defs>
       <path d="M 33.015625 40.375 
Q 26.375 40.375 22.484375 35.828125 
Q 18.609375 31.296875 18.609375 23.390625 
Q 18.609375 15.53125 22.484375 10.953125 
Q 26.375 6.390625 33.015625 6.390625 
Q 39.65625 6.390625 43.53125 10.953125 
Q 47.40625 15.53125 47.40625 23.390625 
Q 47.40625 31.296875 43.53125 35.828125 
Q 39.65625 40.375 33.015625 40.375 
z
M 52.59375 71.296875 
L 52.59375 62.3125 
Q 48.875 64.0625 45.09375 64.984375 
Q 41.3125 65.921875 37.59375 65.921875 
Q 27.828125 65.921875 22.671875 59.328125 
Q 17.53125 52.734375 16.796875 39.40625 
Q 19.671875 43.65625 24.015625 45.921875 
Q 28.375 48.1875 33.59375 48.1875 
Q 44.578125 48.1875 50.953125 41.515625 
Q 57.328125 34.859375 57.328125 23.390625 
Q 57.328125 12.15625 50.6875 5.359375 
Q 44.046875 -1.421875 33.015625 -1.421875 
Q 20.359375 -1.421875 13.671875 8.265625 
Q 6.984375 17.96875 6.984375 36.375 
Q 6.984375 53.65625 15.1875 63.9375 
Q 23.390625 74.21875 37.203125 74.21875 
Q 40.921875 74.21875 44.703125 73.484375 
Q 48.484375 72.75 52.59375 71.296875 
z
" id="DejaVuSans-36"/>
      </defs>
      <g transform="translate(37.875 195.038624)scale(0.1 -0.1)">
       <use xlink:href="#DejaVuSans-36"/>
       <use x="63.623047" xlink:href="#DejaVuSans-30"/>
      </g>
     </g>
    </g>
    <g id="ytick_4">
     <g id="line2d_10">
      <g>
       <use style="stroke:#000000;stroke-width:0.8;" x="57.6" xlink:href="#m46bb841ee3" y="134.579434"/>
      </g>
     </g>
     <g id="text_11">
      <!-- 80 -->
      <defs>
       <path d="M 31.78125 34.625 
Q 24.75 34.625 20.71875 30.859375 
Q 16.703125 27.09375 16.703125 20.515625 
Q 16.703125 13.921875 20.71875 10.15625 
Q 24.75 6.390625 31.78125 6.390625 
Q 38.8125 6.390625 42.859375 10.171875 
Q 46.921875 13.96875 46.921875 20.515625 
Q 46.921875 27.09375 42.890625 30.859375 
Q 38.875 34.625 31.78125 34.625 
z
M 21.921875 38.8125 
Q 15.578125 40.375 12.03125 44.71875 
Q 8.5 49.078125 8.5 55.328125 
Q 8.5 64.0625 14.71875 69.140625 
Q 20.953125 74.21875 31.78125 74.21875 
Q 42.671875 74.21875 48.875 69.140625 
Q 55.078125 64.0625 55.078125 55.328125 
Q 55.078125 49.078125 51.53125 44.71875 
Q 48 40.375 41.703125 38.8125 
Q 48.828125 37.15625 52.796875 32.3125 
Q 56.78125 27.484375 56.78125 20.515625 
Q 56.78125 9.90625 50.3125 4.234375 
Q 43.84375 -1.421875 31.78125 -1.421875 
Q 19.734375 -1.421875 13.25 4.234375 
Q 6.78125 9.90625 6.78125 20.515625 
Q 6.78125 27.484375 10.78125 32.3125 
Q 14.796875 37.15625 21.921875 38.8125 
z
M 18.3125 54.390625 
Q 18.3125 48.734375 21.84375 45.5625 
Q 25.390625 42.390625 31.78125 42.390625 
Q 38.140625 42.390625 41.71875 45.5625 
Q 45.3125 48.734375 45.3125 54.390625 
Q 45.3125 60.0625 41.71875 63.234375 
Q 38.140625 66.40625 31.78125 66.40625 
Q 25.390625 66.40625 21.84375 63.234375 
Q 18.3125 60.0625 18.3125 54.390625 
z
" id="DejaVuSans-38"/>
      </defs>
      <g transform="translate(37.875 138.378653)scale(0.1 -0.1)">
       <use xlink:href="#DejaVuSans-38"/>
       <use x="63.623047" xlink:href="#DejaVuSans-30"/>
      </g>
     </g>
    </g>
    <g id="ytick_5">
     <g id="line2d_11">
      <g>
       <use style="stroke:#000000;stroke-width:0.8;" x="57.6" xlink:href="#m46bb841ee3" y="77.919464"/>
      </g>
     </g>
     <g id="text_12">
      <!-- 100 -->
      <g transform="translate(31.5125 81.718683)scale(0.1 -0.1)">
       <use xlink:href="#DejaVuSans-31"/>
       <use x="63.623047" xlink:href="#DejaVuSans-30"/>
       <use x="127.246094" xlink:href="#DejaVuSans-30"/>
      </g>
     </g>
    </g>
    <g id="text_13">
     <!--  Height in meters -->
     <defs>
      <path d="M 9.8125 72.90625 
L 19.671875 72.90625 
L 19.671875 43.015625 
L 55.515625 43.015625 
L 55.515625 72.90625 
L 65.375 72.90625 
L 65.375 0 
L 55.515625 0 
L 55.515625 34.71875 
L 19.671875 34.71875 
L 19.671875 0 
L 9.8125 0 
z
" id="DejaVuSans-48"/>
      <path d="M 45.40625 27.984375 
Q 45.40625 37.75 41.375 43.109375 
Q 37.359375 48.484375 30.078125 48.484375 
Q 22.859375 48.484375 18.828125 43.109375 
Q 14.796875 37.75 14.796875 27.984375 
Q 14.796875 18.265625 18.828125 12.890625 
Q 22.859375 7.515625 30.078125 7.515625 
Q 37.359375 7.515625 41.375 12.890625 
Q 45.40625 18.265625 45.40625 27.984375 
z
M 54.390625 6.78125 
Q 54.390625 -7.171875 48.1875 -13.984375 
Q 42 -20.796875 29.203125 -20.796875 
Q 24.46875 -20.796875 20.265625 -20.09375 
Q 16.0625 -19.390625 12.109375 -17.921875 
L 12.109375 -9.1875 
Q 16.0625 -11.328125 19.921875 -12.34375 
Q 23.78125 -13.375 27.78125 -13.375 
Q 36.625 -13.375 41.015625 -8.765625 
Q 45.40625 -4.15625 45.40625 5.171875 
L 45.40625 9.625 
Q 42.625 4.78125 38.28125 2.390625 
Q 33.9375 0 27.875 0 
Q 17.828125 0 11.671875 7.65625 
Q 5.515625 15.328125 5.515625 27.984375 
Q 5.515625 40.671875 11.671875 48.328125 
Q 17.828125 56 27.875 56 
Q 33.9375 56 38.28125 53.609375 
Q 42.625 51.21875 45.40625 46.390625 
L 45.40625 54.6875 
L 54.390625 54.6875 
z
" id="DejaVuSans-67"/>
      <path d="M 54.890625 33.015625 
L 54.890625 0 
L 45.90625 0 
L 45.90625 32.71875 
Q 45.90625 40.484375 42.875 44.328125 
Q 39.84375 48.1875 33.796875 48.1875 
Q 26.515625 48.1875 22.3125 43.546875 
Q 18.109375 38.921875 18.109375 30.90625 
L 18.109375 0 
L 9.078125 0 
L 9.078125 75.984375 
L 18.109375 75.984375 
L 18.109375 46.1875 
Q 21.34375 51.125 25.703125 53.5625 
Q 30.078125 56 35.796875 56 
Q 45.21875 56 50.046875 50.171875 
Q 54.890625 44.34375 54.890625 33.015625 
z
" id="DejaVuSans-68"/>
      <path d="M 41.109375 46.296875 
Q 39.59375 47.171875 37.8125 47.578125 
Q 36.03125 48 33.890625 48 
Q 26.265625 48 22.1875 43.046875 
Q 18.109375 38.09375 18.109375 28.8125 
L 18.109375 0 
L 9.078125 0 
L 9.078125 54.6875 
L 18.109375 54.6875 
L 18.109375 46.1875 
Q 20.953125 51.171875 25.484375 53.578125 
Q 30.03125 56 36.53125 56 
Q 37.453125 56 38.578125 55.875 
Q 39.703125 55.765625 41.0625 55.515625 
z
" id="DejaVuSans-72"/>
     </defs>
     <g transform="translate(25.432812 218.025656)rotate(-90)scale(0.1 -0.1)">
      <use xlink:href="#DejaVuSans-20"/>
      <use x="31.787109" xlink:href="#DejaVuSans-48"/>
      <use x="106.982422" xlink:href="#DejaVuSans-65"/>
      <use x="168.505859" xlink:href="#DejaVuSans-69"/>
      <use x="196.289062" xlink:href="#DejaVuSans-67"/>
      <use x="259.765625" xlink:href="#DejaVuSans-68"/>
      <use x="323.144531" xlink:href="#DejaVuSans-74"/>
      <use x="362.353516" xlink:href="#DejaVuSans-20"/>
      <use x="394.140625" xlink:href="#DejaVuSans-69"/>
      <use x="421.923828" xlink:href="#DejaVuSans-6e"/>
      <use x="485.302734" xlink:href="#DejaVuSans-20"/>
      <use x="517.089844" xlink:href="#DejaVuSans-6d"/>
      <use x="614.501953" xlink:href="#DejaVuSans-65"/>
      <use x="676.025391" xlink:href="#DejaVuSans-74"/>
      <use x="715.234375" xlink:href="#DejaVuSans-65"/>
      <use x="776.757812" xlink:href="#DejaVuSans-72"/>
      <use x="817.871094" xlink:href="#DejaVuSans-73"/>
     </g>
    </g>
   </g>
   <g id="line2d_12">
    <path clip-path="url(#p02d39c588c)" d="M 73.832727 287.1706 
L 76.49383 287.280463 
L 79.154933 289.850305 
L 81.816036 287.580421 
L 84.477139 289.503177 
L 87.138241 291.389444 
L 89.799344 295.488 
L 92.460447 283.990644 
L 95.12155 284.07807 
L 97.782653 285.476212 
L 100.443756 283.469599 
L 103.104858 278.180957 
L 105.765961 277.505768 
L 108.427064 276.806301 
L 111.088167 274.201019 
L 113.74927 261.733871 
L 116.410373 259.364322 
L 119.071475 253.846576 
L 121.732578 255.742334 
L 124.393681 249.279273 
L 127.054784 252.716351 
L 129.715887 242.832699 
L 132.37699 250.961734 
L 135.038092 256.527046 
L 137.699195 256.665693 
L 140.360298 268.740386 
L 143.021401 253.475878 
L 145.682504 248.459205 
L 148.343607 234.084428 
L 151.004709 214.567986 
L 153.665812 207.872676 
L 156.326915 187.153513 
L 158.988018 165.368264 
L 161.649121 146.752404 
L 164.310224 117.70533 
L 166.971326 97.575374 
L 169.632429 78.203954 
L 172.293532 62.954404 
L 174.954635 55.201875 
L 177.615738 56.71141 
L 180.276841 58.741622 
L 182.937943 62.486761 
L 185.599046 70.230196 
L 188.260149 76.00396 
L 190.921252 80.485679 
L 193.582355 82.95713 
L 196.243458 77.988731 
L 198.90456 79.400499 
L 201.565663 86.391206 
L 204.226766 86.057479 
L 206.887869 87.277453 
L 209.548972 83.647985 
L 212.210075 81.975751 
L 214.871177 84.569985 
L 217.53228 84.938699 
L 220.193383 86.199469 
L 222.854486 83.536082 
L 225.515589 88.390793 
L 228.176692 84.989382 
L 230.837794 86.282136 
L 233.498897 89.587253 
L 236.16 87.096793 
L 238.821103 85.318888 
L 241.482206 86.947069 
L 244.143308 88.506748 
L 246.804411 88.190982 
L 249.465514 94.387599 
L 252.126617 102.33484 
L 254.78772 111.200482 
L 257.448823 104.240428 
L 260.109925 113.780636 
L 262.771028 119.969746 
L 265.432131 100.58807 
L 268.093234 88.237018 
L 270.754337 94.138805 
L 273.41544 85.862484 
L 276.076542 90.572797 
L 278.737645 82.002835 
L 281.398748 85.68341 
L 284.059851 80.282156 
L 286.720954 78.961526 
L 289.382057 77.81521 
L 292.043159 71.977618 
L 294.704262 70.0252 
L 297.365365 58.373162 
L 300.026468 53.72526 
L 302.687571 57.299881 
L 305.348674 56.321533 
L 308.009776 68.866872 
L 310.670879 89.290043 
L 313.331982 100.256751 
L 315.993085 121.896667 
L 318.654188 137.38008 
L 321.315291 158.521898 
L 323.976393 174.435729 
L 326.637496 196.795765 
L 329.298599 214.380725 
L 331.959702 223.975156 
L 334.620805 239.771135 
L 337.281908 251.085054 
L 339.94301 259.597988 
L 342.604113 266.541838 
L 345.265216 276.459769 
L 347.926319 277.752494 
L 350.587422 278.183337 
L 353.248525 282.85498 
L 355.909627 277.824481 
L 358.57073 278.93122 
L 361.231833 284.101527 
L 363.892936 285.074974 
L 366.554039 287.047024 
L 369.215142 293.291661 
L 371.876244 286.858998 
L 374.537347 286.809449 
L 377.19845 292.345496 
L 379.859553 287.340608 
L 382.520656 287.260292 
L 385.181759 287.752526 
L 387.842861 284.659996 
L 390.503964 292.272547 
L 393.165067 290.038132 
L 395.82617 294.943356 
L 398.487273 291.750737 
" style="fill:none;stroke:#1f77b4;stroke-linecap:square;stroke-width:1.5;"/>
   </g>
   <g id="line2d_13">
    <path clip-path="url(#p02d39c588c)" d="M 73.832727 290.018336 
L 76.49383 289.995625 
L 79.154933 289.942431 
L 81.816036 289.891222 
L 84.477139 289.704843 
L 87.138241 289.428989 
L 89.799344 288.934123 
L 92.460447 288.145324 
L 95.12155 287.590961 
L 97.782653 286.26146 
L 100.443756 284.970794 
L 103.104858 282.441508 
L 105.765961 280.765099 
L 108.427064 277.067441 
L 111.088167 274.627676 
L 113.74927 270.695453 
L 116.410373 265.70036 
L 119.071475 260.475485 
L 121.732578 257.065997 
L 124.393681 255.059335 
L 127.054784 255.871355 
L 129.715887 247.409654 
L 132.37699 254.383039 
L 135.038092 257.686077 
L 137.699195 260.025543 
L 140.360298 263.819797 
L 143.021401 259.058164 
L 145.682504 249.826508 
L 148.343607 234.883424 
L 151.004709 219.559314 
L 153.665812 208.599327 
L 156.326915 194.220536 
L 158.988018 171.670794 
L 161.649121 155.125582 
L 164.310224 122.442731 
L 166.971326 104.914474 
L 169.632429 85.087231 
L 172.293532 67.378163 
L 174.954635 59.444196 
L 177.615738 58.51944 
L 180.276841 62.923029 
L 182.937943 67.366888 
L 185.599046 71.313357 
L 188.260149 75.968379 
L 190.921252 79.302607 
L 193.582355 81.593824 
L 196.243458 83.85646 
L 198.90456 85.189169 
L 201.565663 86.35014 
L 204.226766 87.046309 
L 206.887869 87.63432 
L 209.548972 88.086949 
L 212.210075 88.28442 
L 214.871177 88.317311 
L 217.53228 88.773718 
L 220.193383 89.147725 
L 222.854486 89.858327 
L 225.515589 90.90126 
L 228.176692 92.099788 
L 230.837794 93.0571 
L 233.498897 95.440091 
L 236.16 95.960302 
L 238.821103 93.906525 
L 241.482206 95.167856 
L 244.143308 94.995531 
L 246.804411 97.489444 
L 249.465514 102.83626 
L 252.126617 113.636402 
L 254.78772 118.159977 
L 257.448823 112.461635 
L 260.109925 126.470813 
L 262.771028 125.845119 
L 265.432131 112.524533 
L 268.093234 97.271487 
L 270.754337 95.338413 
L 273.41544 91.091391 
L 276.076542 89.443233 
L 278.737645 87.47989 
L 281.398748 85.230463 
L 284.059851 83.412568 
L 286.720954 81.565963 
L 289.382057 78.814071 
L 292.043159 74.750358 
L 294.704262 68.551982 
L 297.365365 63.955791 
L 300.026468 58.173878 
L 302.687571 57.415569 
L 305.348674 60.996389 
L 308.009776 73.94377 
L 310.670879 92.148441 
L 313.331982 107.714806 
L 315.993085 127.722068 
L 318.654188 143.941863 
L 321.315291 163.57571 
L 323.976393 179.801413 
L 326.637496 201.018364 
L 329.298599 216.694002 
L 331.959702 232.03755 
L 334.620805 245.153157 
L 337.281908 254.786551 
L 339.94301 264.811026 
L 342.604113 268.398508 
L 345.265216 275.541706 
L 347.926319 276.818865 
L 350.587422 280.120922 
L 353.248525 281.483801 
L 355.909627 282.294758 
L 358.57073 281.229372 
L 361.231833 282.35012 
L 363.892936 284.946077 
L 366.554039 285.901467 
L 369.215142 287.570932 
L 371.876244 288.212887 
L 374.537347 287.95828 
L 377.19845 287.648009 
L 379.859553 288.127173 
L 382.520656 288.337742 
L 385.181759 288.874129 
L 387.842861 289.395981 
L 390.503964 289.551567 
L 393.165067 289.712844 
L 395.82617 289.81554 
L 398.487273 289.550242 
" style="fill:none;stroke:#ff7f0e;stroke-linecap:square;stroke-width:1.5;"/>
   </g>
   <g id="line2d_14">
    <path clip-path="url(#p02d39c588c)" d="M 73.832727 289.686104 
L 76.49383 289.663287 
L 79.154933 289.635588 
L 81.816036 289.611211 
L 84.477139 289.517262 
L 87.138241 289.371445 
L 89.799344 289.095128 
L 92.460447 288.667848 
L 95.12155 288.379379 
L 97.782653 287.631675 
L 100.443756 286.907421 
L 103.104858 285.385661 
L 105.765961 284.49316 
L 108.427064 282.194705 
L 111.088167 280.714997 
L 113.74927 278.468202 
L 116.410373 275.007674 
L 119.071475 271.488368 
L 121.732578 269.349601 
L 124.393681 268.449899 
L 127.054784 269.622457 
L 129.715887 263.962087 
L 132.37699 269.992747 
L 135.038092 272.57433 
L 137.699195 275.853811 
L 140.360298 278.502597 
L 143.021401 276.513867 
L 145.682504 271.218649 
L 148.343607 262.577418 
L 151.004709 252.616673 
L 153.665812 245.078113 
L 156.326915 233.95261 
L 158.988018 214.32546 
L 161.649121 198.533856 
L 164.310224 166.369088 
L 166.971326 146.76412 
L 169.632429 128.290199 
L 172.293532 105.008007 
L 174.954635 87.981172 
L 177.615738 73.365146 
L 180.276841 68.769864 
L 182.937943 71.881094 
L 185.599046 75.586476 
L 188.260149 79.365676 
L 190.921252 81.750814 
L 193.582355 83.287888 
L 196.243458 84.559872 
L 198.90456 85.247084 
L 201.565663 85.859201 
L 204.226766 86.581048 
L 206.887869 88.101481 
L 209.548972 90.166463 
L 212.210075 91.439934 
L 214.871177 92.789089 
L 217.53228 97.173201 
L 220.193383 100.195927 
L 222.854486 109.845076 
L 225.515589 121.336091 
L 228.176692 134.640036 
L 230.837794 144.275626 
L 233.498897 166.299018 
L 236.16 167.560341 
L 238.821103 149.694136 
L 241.482206 154.665747 
L 244.143308 149.873205 
L 246.804411 166.838713 
L 249.465514 184.738584 
L 252.126617 207.554709 
L 254.78772 213.974711 
L 257.448823 207.869258 
L 260.109925 219.141219 
L 262.771028 224.36834 
L 265.432131 199.603847 
L 268.093234 154.582649 
L 270.754337 139.49273 
L 273.41544 118.606016 
L 276.076542 108.149724 
L 278.737645 96.81066 
L 281.398748 93.826287 
L 284.059851 90.278093 
L 286.720954 86.947069 
L 289.382057 83.83245 
L 292.043159 79.579126 
L 294.704262 73.668845 
L 297.365365 69.518741 
L 300.026468 68.045387 
L 302.687571 76.173377 
L 305.348674 94.336728 
L 308.009776 117.925486 
L 310.670879 143.337774 
L 313.331982 157.084656 
L 315.993085 175.96942 
L 318.654188 191.625145 
L 321.315291 207.216408 
L 323.976393 221.217688 
L 326.637496 237.198921 
L 329.298599 248.666038 
L 331.959702 259.506824 
L 334.620805 267.374823 
L 337.281908 272.886102 
L 339.94301 278.126785 
L 342.604113 279.656208 
L 345.265216 283.342538 
L 347.926319 283.503636 
L 350.587422 285.242495 
L 353.248525 285.88629 
L 355.909627 286.214181 
L 358.57073 285.323625 
L 361.231833 285.832838 
L 363.892936 287.179614 
L 366.554039 287.604556 
L 369.215142 288.488922 
L 371.876244 288.743149 
L 374.537347 288.574644 
L 377.19845 288.366687 
L 379.859553 288.584755 
L 382.520656 288.67223 
L 385.181759 288.958994 
L 387.842861 289.274855 
L 390.503964 289.366536 
L 393.165067 289.438601 
L 395.82617 289.482741 
L 398.487273 289.215826 
" style="fill:none;stroke:#2ca02c;stroke-linecap:square;stroke-width:1.5;"/>
   </g>
   <g id="line2d_15">
    <path clip-path="url(#p02d39c588c)" d="M 73.832727 289.686104 
L 76.49383 289.663287 
L 79.154933 289.607088 
L 81.816036 289.55278 
L 84.477139 289.355307 
L 87.138241 289.063774 
L 89.799344 288.542815 
L 92.460447 287.711041 
L 95.12155 287.125125 
L 97.782653 285.725356 
L 100.443756 284.365349 
L 103.104858 281.713216 
L 105.765961 279.942081 
L 108.427064 276.078 
L 111.088167 273.52745 
L 113.74927 269.405507 
L 116.410373 264.212767 
L 119.071475 258.771643 
L 121.732578 255.20672 
L 124.393681 253.077296 
L 127.054784 253.851315 
L 129.715887 245.042789 
L 132.37699 252.151162 
L 135.038092 255.545727 
L 137.699195 257.792393 
L 140.360298 261.727526 
L 143.021401 256.643739 
L 145.682504 246.94621 
L 148.343607 231.258571 
L 151.004709 215.276091 
L 153.665812 203.882869 
L 156.326915 189.048434 
L 158.988018 165.978133 
L 161.649121 149.209014 
L 164.310224 116.233384 
L 166.971326 98.778279 
L 169.632429 78.699031 
L 172.293532 61.528326 
L 174.954635 54.540415 
L 177.615738 55.082808 
L 180.276841 60.586706 
L 182.937943 65.321385 
L 185.599046 69.365889 
L 188.260149 74.14555 
L 190.921252 77.597417 
L 193.582355 79.972685 
L 196.243458 82.334877 
L 198.90456 83.715678 
L 201.565663 84.890753 
L 204.226766 85.499962 
L 206.887869 85.841878 
L 209.548972 85.996351 
L 212.210075 86.036057 
L 214.871177 86.049608 
L 217.53228 86.078244 
L 220.193383 86.096309 
L 222.854486 86.133325 
L 225.515589 86.17331 
L 228.176692 86.281564 
L 230.837794 86.491587 
L 233.498897 87.06037 
L 236.16 87.413274 
L 238.821103 86.8936 
L 241.482206 87.785485 
L 244.143308 88.009802 
L 246.804411 89.153078 
L 249.465514 93.232049 
L 252.126617 102.749095 
L 254.78772 107.018109 
L 257.448823 101.38877 
L 260.109925 115.519701 
L 262.771028 114.248702 
L 265.432131 102.129204 
L 268.093234 89.927663 
L 270.754337 89.142253 
L 273.41544 86.56105 
L 276.076542 85.777424 
L 278.737645 84.75397 
L 281.398748 82.608 
L 284.059851 81.003743 
L 286.720954 79.338995 
L 289.382057 76.674283 
L 292.043159 72.68398 
L 294.704262 66.454369 
L 297.365365 61.749482 
L 300.026468 55.307455 
L 302.687571 53.568 
L 305.348674 55.642221 
L 308.009776 67.559694 
L 310.670879 85.152095 
L 313.331982 101.037767 
L 315.993085 121.331311 
L 318.654188 137.724185 
L 321.315291 157.812054 
L 323.976393 174.376004 
L 326.637496 196.263935 
L 329.298599 212.477088 
L 331.959702 228.390119 
L 334.620805 242.144116 
L 337.281908 252.282131 
L 339.94301 262.877564 
L 342.604113 266.708614 
L 345.265216 274.263627 
L 347.926319 275.677145 
L 350.587422 279.152929 
L 353.248525 280.594621 
L 355.909627 281.46268 
L 358.57073 280.374591 
L 361.231833 281.566943 
L 363.892936 284.31064 
L 366.554039 285.327982 
L 369.215142 287.090599 
L 371.876244 287.777784 
L 374.537347 287.512654 
L 377.19845 287.18986 
L 379.859553 287.699949 
L 382.520656 287.924751 
L 385.181759 288.490802 
L 387.842861 289.037642 
L 390.503964 289.201017 
L 393.165067 289.372791 
L 395.82617 289.482246 
L 398.487273 289.215826 
" style="fill:none;stroke:#d62728;stroke-linecap:square;stroke-width:1.5;"/>
   </g>
   <g id="patch_3">
    <path d="M 57.6 307.584 
L 57.6 41.472 
" style="fill:none;stroke:#000000;stroke-linecap:square;stroke-linejoin:miter;stroke-width:0.8;"/>
   </g>
   <g id="patch_4">
    <path d="M 414.72 307.584 
L 414.72 41.472 
" style="fill:none;stroke:#000000;stroke-linecap:square;stroke-linejoin:miter;stroke-width:0.8;"/>
   </g>
   <g id="patch_5">
    <path d="M 57.6 307.584 
L 414.72 307.584 
" style="fill:none;stroke:#000000;stroke-linecap:square;stroke-linejoin:miter;stroke-width:0.8;"/>
   </g>
   <g id="patch_6">
    <path d="M 57.6 41.472 
L 414.72 41.472 
" style="fill:none;stroke:#000000;stroke-linecap:square;stroke-linejoin:miter;stroke-width:0.8;"/>
   </g>
   <g id="text_14">
    <!-- Uncertainty in topography prediction (cross section)   -->
    <defs>
     <path d="M 8.6875 72.90625 
L 18.609375 72.90625 
L 18.609375 28.609375 
Q 18.609375 16.890625 22.84375 11.734375 
Q 27.09375 6.59375 36.625 6.59375 
Q 46.09375 6.59375 50.34375 11.734375 
Q 54.59375 16.890625 54.59375 28.609375 
L 54.59375 72.90625 
L 64.5 72.90625 
L 64.5 27.390625 
Q 64.5 13.140625 57.4375 5.859375 
Q 50.390625 -1.421875 36.625 -1.421875 
Q 22.796875 -1.421875 15.734375 5.859375 
Q 8.6875 13.140625 8.6875 27.390625 
z
" id="DejaVuSans-55"/>
     <path d="M 32.171875 -5.078125 
Q 28.375 -14.84375 24.75 -17.8125 
Q 21.140625 -20.796875 15.09375 -20.796875 
L 7.90625 -20.796875 
L 7.90625 -13.28125 
L 13.1875 -13.28125 
Q 16.890625 -13.28125 18.9375 -11.515625 
Q 21 -9.765625 23.484375 -3.21875 
L 25.09375 0.875 
L 2.984375 54.6875 
L 12.5 54.6875 
L 29.59375 11.921875 
L 46.6875 54.6875 
L 56.203125 54.6875 
z
" id="DejaVuSans-79"/>
     <path d="M 30.609375 48.390625 
Q 23.390625 48.390625 19.1875 42.75 
Q 14.984375 37.109375 14.984375 27.296875 
Q 14.984375 17.484375 19.15625 11.84375 
Q 23.34375 6.203125 30.609375 6.203125 
Q 37.796875 6.203125 41.984375 11.859375 
Q 46.1875 17.53125 46.1875 27.296875 
Q 46.1875 37.015625 41.984375 42.703125 
Q 37.796875 48.390625 30.609375 48.390625 
z
M 30.609375 56 
Q 42.328125 56 49.015625 48.375 
Q 55.71875 40.765625 55.71875 27.296875 
Q 55.71875 13.875 49.015625 6.21875 
Q 42.328125 -1.421875 30.609375 -1.421875 
Q 18.84375 -1.421875 12.171875 6.21875 
Q 5.515625 13.875 5.515625 27.296875 
Q 5.515625 40.765625 12.171875 48.375 
Q 18.84375 56 30.609375 56 
z
" id="DejaVuSans-6f"/>
     <path d="M 18.109375 8.203125 
L 18.109375 -20.796875 
L 9.078125 -20.796875 
L 9.078125 54.6875 
L 18.109375 54.6875 
L 18.109375 46.390625 
Q 20.953125 51.265625 25.265625 53.625 
Q 29.59375 56 35.59375 56 
Q 45.5625 56 51.78125 48.09375 
Q 58.015625 40.1875 58.015625 27.296875 
Q 58.015625 14.40625 51.78125 6.484375 
Q 45.5625 -1.421875 35.59375 -1.421875 
Q 29.59375 -1.421875 25.265625 0.953125 
Q 20.953125 3.328125 18.109375 8.203125 
z
M 48.6875 27.296875 
Q 48.6875 37.203125 44.609375 42.84375 
Q 40.53125 48.484375 33.40625 48.484375 
Q 26.265625 48.484375 22.1875 42.84375 
Q 18.109375 37.203125 18.109375 27.296875 
Q 18.109375 17.390625 22.1875 11.75 
Q 26.265625 6.109375 33.40625 6.109375 
Q 40.53125 6.109375 44.609375 11.75 
Q 48.6875 17.390625 48.6875 27.296875 
z
" id="DejaVuSans-70"/>
     <path d="M 45.40625 46.390625 
L 45.40625 75.984375 
L 54.390625 75.984375 
L 54.390625 0 
L 45.40625 0 
L 45.40625 8.203125 
Q 42.578125 3.328125 38.25 0.953125 
Q 33.9375 -1.421875 27.875 -1.421875 
Q 17.96875 -1.421875 11.734375 6.484375 
Q 5.515625 14.40625 5.515625 27.296875 
Q 5.515625 40.1875 11.734375 48.09375 
Q 17.96875 56 27.875 56 
Q 33.9375 56 38.25 53.625 
Q 42.578125 51.265625 45.40625 46.390625 
z
M 14.796875 27.296875 
Q 14.796875 17.390625 18.875 11.75 
Q 22.953125 6.109375 30.078125 6.109375 
Q 37.203125 6.109375 41.296875 11.75 
Q 45.40625 17.390625 45.40625 27.296875 
Q 45.40625 37.203125 41.296875 42.84375 
Q 37.203125 48.484375 30.078125 48.484375 
Q 22.953125 48.484375 18.875 42.84375 
Q 14.796875 37.203125 14.796875 27.296875 
z
" id="DejaVuSans-64"/>
    </defs>
    <g transform="translate(75.459375 35.472)scale(0.12 -0.12)">
     <use xlink:href="#DejaVuSans-55"/>
     <use x="73.193359" xlink:href="#DejaVuSans-6e"/>
     <use x="136.572266" xlink:href="#DejaVuSans-63"/>
     <use x="191.552734" xlink:href="#DejaVuSans-65"/>
     <use x="253.076172" xlink:href="#DejaVuSans-72"/>
     <use x="294.189453" xlink:href="#DejaVuSans-74"/>
     <use x="333.398438" xlink:href="#DejaVuSans-61"/>
     <use x="394.677734" xlink:href="#DejaVuSans-69"/>
     <use x="422.460938" xlink:href="#DejaVuSans-6e"/>
     <use x="485.839844" xlink:href="#DejaVuSans-74"/>
     <use x="525.048828" xlink:href="#DejaVuSans-79"/>
     <use x="584.228516" xlink:href="#DejaVuSans-20"/>
     <use x="616.015625" xlink:href="#DejaVuSans-69"/>
     <use x="643.798828" xlink:href="#DejaVuSans-6e"/>
     <use x="707.177734" xlink:href="#DejaVuSans-20"/>
     <use x="738.964844" xlink:href="#DejaVuSans-74"/>
     <use x="778.173828" xlink:href="#DejaVuSans-6f"/>
     <use x="839.355469" xlink:href="#DejaVuSans-70"/>
     <use x="902.832031" xlink:href="#DejaVuSans-6f"/>
     <use x="964.013672" xlink:href="#DejaVuSans-67"/>
     <use x="1027.490234" xlink:href="#DejaVuSans-72"/>
     <use x="1068.603516" xlink:href="#DejaVuSans-61"/>
     <use x="1129.882812" xlink:href="#DejaVuSans-70"/>
     <use x="1193.359375" xlink:href="#DejaVuSans-68"/>
     <use x="1256.738281" xlink:href="#DejaVuSans-79"/>
     <use x="1315.917969" xlink:href="#DejaVuSans-20"/>
     <use x="1347.705078" xlink:href="#DejaVuSans-70"/>
     <use x="1411.181641" xlink:href="#DejaVuSans-72"/>
     <use x="1452.263672" xlink:href="#DejaVuSans-65"/>
     <use x="1513.787109" xlink:href="#DejaVuSans-64"/>
     <use x="1577.263672" xlink:href="#DejaVuSans-69"/>
     <use x="1605.046875" xlink:href="#DejaVuSans-63"/>
     <use x="1660.027344" xlink:href="#DejaVuSans-74"/>
     <use x="1699.236328" xlink:href="#DejaVuSans-69"/>
     <use x="1727.019531" xlink:href="#DejaVuSans-6f"/>
     <use x="1788.201172" xlink:href="#DejaVuSans-6e"/>
     <use x="1851.580078" xlink:href="#DejaVuSans-20"/>
     <use x="1883.367188" xlink:href="#DejaVuSans-28"/>
     <use x="1922.380859" xlink:href="#DejaVuSans-63"/>
     <use x="1977.361328" xlink:href="#DejaVuSans-72"/>
     <use x="2018.443359" xlink:href="#DejaVuSans-6f"/>
     <use x="2079.625" xlink:href="#DejaVuSans-73"/>
     <use x="2131.724609" xlink:href="#DejaVuSans-73"/>
     <use x="2183.824219" xlink:href="#DejaVuSans-20"/>
     <use x="2215.611328" xlink:href="#DejaVuSans-73"/>
     <use x="2267.710938" xlink:href="#DejaVuSans-65"/>
     <use x="2329.234375" xlink:href="#DejaVuSans-63"/>
     <use x="2384.214844" xlink:href="#DejaVuSans-74"/>
     <use x="2423.423828" xlink:href="#DejaVuSans-69"/>
     <use x="2451.207031" xlink:href="#DejaVuSans-6f"/>
     <use x="2512.388672" xlink:href="#DejaVuSans-6e"/>
     <use x="2575.767578" xlink:href="#DejaVuSans-29"/>
     <use x="2614.78125" xlink:href="#DejaVuSans-20"/>
     <use x="2646.568359" xlink:href="#DejaVuSans-20"/>
    </g>
   </g>
   <g id="legend_1">
    <g id="patch_7">
     <path d="M 277.843437 108.1845 
L 407.72 108.1845 
Q 409.72 108.1845 409.72 106.1845 
L 409.72 48.472 
Q 409.72 46.472 407.72 46.472 
L 277.843437 46.472 
Q 275.843437 46.472 275.843437 48.472 
L 275.843437 106.1845 
Q 275.843437 108.1845 277.843437 108.1845 
z
" style="fill:#ffffff;opacity:0.8;stroke:#cccccc;stroke-linejoin:miter;"/>
    </g>
    <g id="line2d_16">
     <path d="M 279.843437 54.570438 
L 299.843437 54.570438 
" style="fill:none;stroke:#1f77b4;stroke-linecap:square;stroke-width:1.5;"/>
    </g>
    <g id="line2d_17"/>
    <g id="text_15">
     <!-- ground truth -->
     <defs>
      <path d="M 8.5 21.578125 
L 8.5 54.6875 
L 17.484375 54.6875 
L 17.484375 21.921875 
Q 17.484375 14.15625 20.5 10.265625 
Q 23.53125 6.390625 29.59375 6.390625 
Q 36.859375 6.390625 41.078125 11.03125 
Q 45.3125 15.671875 45.3125 23.6875 
L 45.3125 54.6875 
L 54.296875 54.6875 
L 54.296875 0 
L 45.3125 0 
L 45.3125 8.40625 
Q 42.046875 3.421875 37.71875 1 
Q 33.40625 -1.421875 27.6875 -1.421875 
Q 18.265625 -1.421875 13.375 4.4375 
Q 8.5 10.296875 8.5 21.578125 
z
M 31.109375 56 
z
" id="DejaVuSans-75"/>
     </defs>
     <g transform="translate(307.843437 58.070438)scale(0.1 -0.1)">
      <use xlink:href="#DejaVuSans-67"/>
      <use x="63.476562" xlink:href="#DejaVuSans-72"/>
      <use x="104.558594" xlink:href="#DejaVuSans-6f"/>
      <use x="165.740234" xlink:href="#DejaVuSans-75"/>
      <use x="229.119141" xlink:href="#DejaVuSans-6e"/>
      <use x="292.498047" xlink:href="#DejaVuSans-64"/>
      <use x="355.974609" xlink:href="#DejaVuSans-20"/>
      <use x="387.761719" xlink:href="#DejaVuSans-74"/>
      <use x="426.970703" xlink:href="#DejaVuSans-72"/>
      <use x="468.083984" xlink:href="#DejaVuSans-75"/>
      <use x="531.462891" xlink:href="#DejaVuSans-74"/>
      <use x="570.671875" xlink:href="#DejaVuSans-68"/>
     </g>
    </g>
    <g id="line2d_18">
     <path d="M 279.843437 69.248563 
L 299.843437 69.248563 
" style="fill:none;stroke:#ff7f0e;stroke-linecap:square;stroke-width:1.5;"/>
    </g>
    <g id="line2d_19"/>
    <g id="text_16">
     <!-- pred. (mean) -->
     <g transform="translate(307.843437 72.748563)scale(0.1 -0.1)">
      <use xlink:href="#DejaVuSans-70"/>
      <use x="63.476562" xlink:href="#DejaVuSans-72"/>
      <use x="104.558594" xlink:href="#DejaVuSans-65"/>
      <use x="166.082031" xlink:href="#DejaVuSans-64"/>
      <use x="229.558594" xlink:href="#DejaVuSans-2e"/>
      <use x="261.345703" xlink:href="#DejaVuSans-20"/>
      <use x="293.132812" xlink:href="#DejaVuSans-28"/>
      <use x="332.146484" xlink:href="#DejaVuSans-6d"/>
      <use x="429.558594" xlink:href="#DejaVuSans-65"/>
      <use x="491.082031" xlink:href="#DejaVuSans-61"/>
      <use x="552.361328" xlink:href="#DejaVuSans-6e"/>
      <use x="615.740234" xlink:href="#DejaVuSans-29"/>
     </g>
    </g>
    <g id="line2d_20">
     <path d="M 279.843437 83.926688 
L 299.843437 83.926688 
" style="fill:none;stroke:#2ca02c;stroke-linecap:square;stroke-width:1.5;"/>
    </g>
    <g id="line2d_21"/>
    <g id="text_17">
     <!-- pred.(5th percen.) -->
     <g transform="translate(307.843437 87.426688)scale(0.1 -0.1)">
      <use xlink:href="#DejaVuSans-70"/>
      <use x="63.476562" xlink:href="#DejaVuSans-72"/>
      <use x="104.558594" xlink:href="#DejaVuSans-65"/>
      <use x="166.082031" xlink:href="#DejaVuSans-64"/>
      <use x="229.558594" xlink:href="#DejaVuSans-2e"/>
      <use x="261.345703" xlink:href="#DejaVuSans-28"/>
      <use x="300.359375" xlink:href="#DejaVuSans-35"/>
      <use x="363.982422" xlink:href="#DejaVuSans-74"/>
      <use x="403.191406" xlink:href="#DejaVuSans-68"/>
      <use x="466.570312" xlink:href="#DejaVuSans-20"/>
      <use x="498.357422" xlink:href="#DejaVuSans-70"/>
      <use x="561.833984" xlink:href="#DejaVuSans-65"/>
      <use x="623.357422" xlink:href="#DejaVuSans-72"/>
      <use x="664.439453" xlink:href="#DejaVuSans-63"/>
      <use x="719.419922" xlink:href="#DejaVuSans-65"/>
      <use x="780.943359" xlink:href="#DejaVuSans-6e"/>
      <use x="844.322266" xlink:href="#DejaVuSans-2e"/>
      <use x="876.109375" xlink:href="#DejaVuSans-29"/>
     </g>
    </g>
    <g id="line2d_22">
     <path d="M 279.843437 98.604813 
L 299.843437 98.604813 
" style="fill:none;stroke:#d62728;stroke-linecap:square;stroke-width:1.5;"/>
    </g>
    <g id="line2d_23"/>
    <g id="text_18">
     <!-- pred.(95th percen.) -->
     <defs>
      <path d="M 10.984375 1.515625 
L 10.984375 10.5 
Q 14.703125 8.734375 18.5 7.8125 
Q 22.3125 6.890625 25.984375 6.890625 
Q 35.75 6.890625 40.890625 13.453125 
Q 46.046875 20.015625 46.78125 33.40625 
Q 43.953125 29.203125 39.59375 26.953125 
Q 35.25 24.703125 29.984375 24.703125 
Q 19.046875 24.703125 12.671875 31.3125 
Q 6.296875 37.9375 6.296875 49.421875 
Q 6.296875 60.640625 12.9375 67.421875 
Q 19.578125 74.21875 30.609375 74.21875 
Q 43.265625 74.21875 49.921875 64.515625 
Q 56.59375 54.828125 56.59375 36.375 
Q 56.59375 19.140625 48.40625 8.859375 
Q 40.234375 -1.421875 26.421875 -1.421875 
Q 22.703125 -1.421875 18.890625 -0.6875 
Q 15.09375 0.046875 10.984375 1.515625 
z
M 30.609375 32.421875 
Q 37.25 32.421875 41.125 36.953125 
Q 45.015625 41.5 45.015625 49.421875 
Q 45.015625 57.28125 41.125 61.84375 
Q 37.25 66.40625 30.609375 66.40625 
Q 23.96875 66.40625 20.09375 61.84375 
Q 16.21875 57.28125 16.21875 49.421875 
Q 16.21875 41.5 20.09375 36.953125 
Q 23.96875 32.421875 30.609375 32.421875 
z
" id="DejaVuSans-39"/>
     </defs>
     <g transform="translate(307.843437 102.104813)scale(0.1 -0.1)">
      <use xlink:href="#DejaVuSans-70"/>
      <use x="63.476562" xlink:href="#DejaVuSans-72"/>
      <use x="104.558594" xlink:href="#DejaVuSans-65"/>
      <use x="166.082031" xlink:href="#DejaVuSans-64"/>
      <use x="229.558594" xlink:href="#DejaVuSans-2e"/>
      <use x="261.345703" xlink:href="#DejaVuSans-28"/>
      <use x="300.359375" xlink:href="#DejaVuSans-39"/>
      <use x="363.982422" xlink:href="#DejaVuSans-35"/>
      <use x="427.605469" xlink:href="#DejaVuSans-74"/>
      <use x="466.814453" xlink:href="#DejaVuSans-68"/>
      <use x="530.193359" xlink:href="#DejaVuSans-20"/>
      <use x="561.980469" xlink:href="#DejaVuSans-70"/>
      <use x="625.457031" xlink:href="#DejaVuSans-65"/>
      <use x="686.980469" xlink:href="#DejaVuSans-72"/>
      <use x="728.0625" xlink:href="#DejaVuSans-63"/>
      <use x="783.042969" xlink:href="#DejaVuSans-65"/>
      <use x="844.566406" xlink:href="#DejaVuSans-6e"/>
      <use x="907.945312" xlink:href="#DejaVuSans-2e"/>
      <use x="939.732422" xlink:href="#DejaVuSans-29"/>
     </g>
    </g>
   </g>
  </g>
 </g>
 <defs>
  <clipPath id="p02d39c588c">
   <rect height="266.112" width="357.12" x="57.6" y="41.472"/>
  </clipPath>
 </defs>
</svg>
