<?xml version="1.0" encoding="utf-8" standalone="no"?>
<!DOCTYPE svg PUBLIC "-//W3C//DTD SVG 1.1//EN"
  "http://www.w3.org/Graphics/SVG/1.1/DTD/svg11.dtd">
<!-- Created with matplotlib (http://matplotlib.org/) -->
<svg height="345pt" version="1.1" viewBox="0 0 460 345" width="460pt" xmlns="http://www.w3.org/2000/svg" xmlns:xlink="http://www.w3.org/1999/xlink">
 <defs>
  <style type="text/css">
*{stroke-linecap:butt;stroke-linejoin:round;}
  </style>
 </defs>
 <g id="figure_1">
  <g id="patch_1">
   <path d="M 0 345.6 
L 460.8 345.6 
L 460.8 0 
L 0 0 
z
" style="fill:#ffffff;"/>
  </g>
  <g id="axes_1">
   <g id="patch_2">
    <path d="M 57.6 307.584 
L 414.72 307.584 
L 414.72 41.472 
L 57.6 41.472 
z
" style="fill:#ffffff;"/>
   </g>
   <g id="PolyCollection_1">
    <path clip-path="url(#p079e8e898c)" d="M 73.832727 289.777786 
L 73.832727 289.777786 
L 76.49383 289.753491 
L 79.154933 289.714369 
L 81.816036 289.673479 
L 84.477139 289.56064 
L 87.138241 289.451941 
L 89.799344 289.402015 
L 92.460447 289.066585 
L 95.12155 289.071533 
L 97.782653 288.876803 
L 100.443756 289.12264 
L 103.104858 289.139635 
L 105.765961 288.886707 
L 108.427064 288.658682 
L 111.088167 288.075626 
L 113.74927 287.313224 
L 116.410373 285.959486 
L 119.071475 283.940685 
L 121.732578 283.361432 
L 124.393681 280.25299 
L 127.054784 278.867436 
L 129.715887 274.661633 
L 132.37699 270.702334 
L 135.038092 266.920441 
L 137.699195 261.054354 
L 140.360298 249.617124 
L 143.021401 245.945152 
L 145.682504 235.185619 
L 148.343607 229.374728 
L 151.004709 219.621653 
L 153.665812 200.48468 
L 156.326915 190.781772 
L 158.988018 175.375155 
L 161.649121 164.913167 
L 164.310224 143.625645 
L 166.971326 117.022619 
L 169.632429 99.649264 
L 172.293532 81.812911 
L 174.954635 68.626176 
L 177.615738 68.296067 
L 180.276841 70.708845 
L 182.937943 75.888749 
L 185.599046 79.629294 
L 188.260149 82.138572 
L 190.921252 84.142093 
L 193.582355 86.27214 
L 196.243458 87.308817 
L 198.90456 88.468177 
L 201.565663 88.451993 
L 204.226766 88.974305 
L 206.887869 89.962572 
L 209.548972 91.304868 
L 212.210075 96.013113 
L 214.871177 107.156605 
L 217.53228 101.995465 
L 220.193383 105.677894 
L 222.854486 115.376332 
L 225.515589 108.627738 
L 228.176692 103.333661 
L 230.837794 113.083008 
L 233.498897 131.659594 
L 236.16 168.871479 
L 238.821103 177.333853 
L 241.482206 164.55395 
L 244.143308 146.05868 
L 246.804411 126.933569 
L 249.465514 115.073417 
L 252.126617 133.048672 
L 254.78772 139.540582 
L 257.448823 138.702148 
L 260.109925 117.849133 
L 262.771028 125.657561 
L 265.432131 138.752354 
L 268.093234 115.030239 
L 270.754337 106.314324 
L 273.41544 95.241592 
L 276.076542 92.980542 
L 278.737645 89.952627 
L 281.398748 88.507028 
L 284.059851 85.953068 
L 286.720954 83.369493 
L 289.382057 82.055522 
L 292.043159 78.835841 
L 294.704262 74.610605 
L 297.365365 71.482578 
L 300.026468 81.2789 
L 302.687571 103.106432 
L 305.348674 119.951543 
L 308.009776 149.306824 
L 310.670879 187.388826 
L 313.331982 205.675754 
L 315.993085 204.957386 
L 318.654188 213.31095 
L 321.315291 228.560944 
L 323.976393 240.904639 
L 326.637496 244.81962 
L 329.298599 254.431482 
L 331.959702 265.213926 
L 334.620805 274.745175 
L 337.281908 273.31536 
L 339.94301 276.584145 
L 342.604113 279.013677 
L 345.265216 283.090236 
L 347.926319 283.242844 
L 350.587422 284.956424 
L 353.248525 286.882304 
L 355.909627 287.465845 
L 358.57073 286.430503 
L 361.231833 286.220587 
L 363.892936 286.805385 
L 366.554039 287.60461 
L 369.215142 287.807495 
L 371.876244 288.052265 
L 374.537347 288.34187 
L 377.19845 288.492507 
L 379.859553 288.738391 
L 382.520656 289.036409 
L 385.181759 289.277175 
L 387.842861 289.326695 
L 390.503964 289.48729 
L 393.165067 289.541733 
L 395.82617 289.560907 
L 398.487273 289.458041 
L 398.487273 289.458041 
L 398.487273 289.458041 
L 395.82617 289.559016 
L 393.165067 289.505077 
L 390.503964 289.380258 
L 387.842861 289.019068 
L 385.181759 288.921232 
L 382.520656 288.417494 
L 379.859553 287.719239 
L 377.19845 287.146324 
L 374.537347 286.768842 
L 371.876244 286.060372 
L 369.215142 285.530117 
L 366.554039 284.989797 
L 363.892936 283.332568 
L 361.231833 281.926011 
L 358.57073 282.327357 
L 355.909627 284.252608 
L 353.248525 283.36495 
L 350.587422 280.06909 
L 347.926319 275.999077 
L 345.265216 275.589423 
L 342.604113 267.429098 
L 339.94301 264.0643 
L 337.281908 259.049757 
L 334.620805 258.042706 
L 331.959702 241.059034 
L 329.298599 224.450034 
L 326.637496 205.908444 
L 323.976393 196.440902 
L 321.315291 180.354106 
L 318.654188 163.094957 
L 315.993085 149.83914 
L 313.331982 139.400433 
L 310.670879 118.484473 
L 308.009776 86.27364 
L 305.348674 66.540661 
L 302.687571 60.372954 
L 300.026468 58.556707 
L 297.365365 62.1234 
L 294.704262 68.047241 
L 292.043159 72.960217 
L 289.382057 76.889885 
L 286.720954 79.187878 
L 284.059851 82.434889 
L 281.398748 84.859125 
L 278.737645 86.220156 
L 276.076542 87.176655 
L 273.41544 87.759692 
L 270.754337 88.17834 
L 268.093234 88.28836 
L 265.432131 88.426545 
L 262.771028 88.424657 
L 260.109925 88.483511 
L 257.448823 89.976443 
L 254.78772 88.841602 
L 252.126617 88.478261 
L 249.465514 88.345 
L 246.804411 88.493276 
L 244.143308 89.315274 
L 241.482206 89.716978 
L 238.821103 90.483574 
L 236.16 89.52286 
L 233.498897 88.481319 
L 230.837794 88.337805 
L 228.176692 88.302376 
L 225.515589 88.326186 
L 222.854486 88.352173 
L 220.193383 88.298126 
L 217.53228 88.272913 
L 214.871177 88.283084 
L 212.210075 88.223822 
L 209.548972 88.128979 
L 206.887869 87.944915 
L 204.226766 87.561821 
L 201.565663 87.013978 
L 198.90456 86.405274 
L 196.243458 84.792104 
L 193.582355 83.052968 
L 190.921252 79.603993 
L 188.260149 76.566743 
L 185.599046 73.782015 
L 182.937943 69.440558 
L 180.276841 63.575057 
L 177.615738 58.320259 
L 174.954635 53.568 
L 172.293532 54.82176 
L 169.632429 65.426412 
L 166.971326 77.866173 
L 164.310224 98.151689 
L 161.649121 117.520416 
L 158.988018 128.81148 
L 156.326915 147.90477 
L 153.665812 161.752299 
L 151.004709 183.240344 
L 148.343607 194.565496 
L 145.682504 202.56378 
L 143.021401 216.338959 
L 140.360298 220.883409 
L 137.699195 236.78329 
L 135.038092 245.638848 
L 132.37699 251.961016 
L 129.715887 258.887457 
L 127.054784 266.676404 
L 124.393681 269.758958 
L 121.732578 275.487688 
L 119.071475 276.596309 
L 116.410373 280.96731 
L 113.74927 283.873229 
L 111.088167 285.661027 
L 108.427064 287.05738 
L 105.765961 287.719673 
L 103.104858 288.37755 
L 100.443756 288.451274 
L 97.782653 287.97882 
L 95.12155 288.38155 
L 92.460447 288.431709 
L 89.799344 289.098054 
L 87.138241 289.184999 
L 84.477139 289.366532 
L 81.816036 289.609452 
L 79.154933 289.691112 
L 76.49383 289.753491 
L 73.832727 289.777786 
z
" style="fill:#008000;fill-opacity:0.4;"/>
   </g>
   <g id="matplotlib.axis_1">
    <g id="xtick_1">
     <g id="line2d_1">
      <defs>
       <path d="M 0 0 
L 0 3.5 
" id="m709405874b" style="stroke:#000000;stroke-width:0.8;"/>
      </defs>
      <g>
       <use style="stroke:#000000;stroke-width:0.8;" x="73.832727" xlink:href="#m709405874b" y="307.584"/>
      </g>
     </g>
     <g id="text_1">
      <!-- 0.00 -->
      <defs>
       <path d="M 31.78125 66.40625 
Q 24.171875 66.40625 20.328125 58.90625 
Q 16.5 51.421875 16.5 36.375 
Q 16.5 21.390625 20.328125 13.890625 
Q 24.171875 6.390625 31.78125 6.390625 
Q 39.453125 6.390625 43.28125 13.890625 
Q 47.125 21.390625 47.125 36.375 
Q 47.125 51.421875 43.28125 58.90625 
Q 39.453125 66.40625 31.78125 66.40625 
z
M 31.78125 74.21875 
Q 44.046875 74.21875 50.515625 64.515625 
Q 56.984375 54.828125 56.984375 36.375 
Q 56.984375 17.96875 50.515625 8.265625 
Q 44.046875 -1.421875 31.78125 -1.421875 
Q 19.53125 -1.421875 13.0625 8.265625 
Q 6.59375 17.96875 6.59375 36.375 
Q 6.59375 54.828125 13.0625 64.515625 
Q 19.53125 74.21875 31.78125 74.21875 
z
" id="DejaVuSans-30"/>
       <path d="M 10.6875 12.40625 
L 21 12.40625 
L 21 0 
L 10.6875 0 
z
" id="DejaVuSans-2e"/>
      </defs>
      <g transform="translate(62.699915 322.182437)scale(0.1 -0.1)">
       <use xlink:href="#DejaVuSans-30"/>
       <use x="63.623047" xlink:href="#DejaVuSans-2e"/>
       <use x="95.410156" xlink:href="#DejaVuSans-30"/>
       <use x="159.033203" xlink:href="#DejaVuSans-30"/>
      </g>
     </g>
    </g>
    <g id="xtick_2">
     <g id="line2d_2">
      <g>
       <use style="stroke:#000000;stroke-width:0.8;" x="139.819424" xlink:href="#m709405874b" y="307.584"/>
      </g>
     </g>
     <g id="text_2">
      <!-- 0.05 -->
      <defs>
       <path d="M 10.796875 72.90625 
L 49.515625 72.90625 
L 49.515625 64.59375 
L 19.828125 64.59375 
L 19.828125 46.734375 
Q 21.96875 47.46875 24.109375 47.828125 
Q 26.265625 48.1875 28.421875 48.1875 
Q 40.625 48.1875 47.75 41.5 
Q 54.890625 34.8125 54.890625 23.390625 
Q 54.890625 11.625 47.5625 5.09375 
Q 40.234375 -1.421875 26.90625 -1.421875 
Q 22.3125 -1.421875 17.546875 -0.640625 
Q 12.796875 0.140625 7.71875 1.703125 
L 7.71875 11.625 
Q 12.109375 9.234375 16.796875 8.0625 
Q 21.484375 6.890625 26.703125 6.890625 
Q 35.15625 6.890625 40.078125 11.328125 
Q 45.015625 15.765625 45.015625 23.390625 
Q 45.015625 31 40.078125 35.4375 
Q 35.15625 39.890625 26.703125 39.890625 
Q 22.75 39.890625 18.8125 39.015625 
Q 14.890625 38.140625 10.796875 36.28125 
z
" id="DejaVuSans-35"/>
      </defs>
      <g transform="translate(128.686611 322.182437)scale(0.1 -0.1)">
       <use xlink:href="#DejaVuSans-30"/>
       <use x="63.623047" xlink:href="#DejaVuSans-2e"/>
       <use x="95.410156" xlink:href="#DejaVuSans-30"/>
       <use x="159.033203" xlink:href="#DejaVuSans-35"/>
      </g>
     </g>
    </g>
    <g id="xtick_3">
     <g id="line2d_3">
      <g>
       <use style="stroke:#000000;stroke-width:0.8;" x="205.80612" xlink:href="#m709405874b" y="307.584"/>
      </g>
     </g>
     <g id="text_3">
      <!-- 0.10 -->
      <defs>
       <path d="M 12.40625 8.296875 
L 28.515625 8.296875 
L 28.515625 63.921875 
L 10.984375 60.40625 
L 10.984375 69.390625 
L 28.421875 72.90625 
L 38.28125 72.90625 
L 38.28125 8.296875 
L 54.390625 8.296875 
L 54.390625 0 
L 12.40625 0 
z
" id="DejaVuSans-31"/>
      </defs>
      <g transform="translate(194.673307 322.182437)scale(0.1 -0.1)">
       <use xlink:href="#DejaVuSans-30"/>
       <use x="63.623047" xlink:href="#DejaVuSans-2e"/>
       <use x="95.410156" xlink:href="#DejaVuSans-31"/>
       <use x="159.033203" xlink:href="#DejaVuSans-30"/>
      </g>
     </g>
    </g>
    <g id="xtick_4">
     <g id="line2d_4">
      <g>
       <use style="stroke:#000000;stroke-width:0.8;" x="271.792816" xlink:href="#m709405874b" y="307.584"/>
      </g>
     </g>
     <g id="text_4">
      <!-- 0.15 -->
      <g transform="translate(260.660003 322.182437)scale(0.1 -0.1)">
       <use xlink:href="#DejaVuSans-30"/>
       <use x="63.623047" xlink:href="#DejaVuSans-2e"/>
       <use x="95.410156" xlink:href="#DejaVuSans-31"/>
       <use x="159.033203" xlink:href="#DejaVuSans-35"/>
      </g>
     </g>
    </g>
    <g id="xtick_5">
     <g id="line2d_5">
      <g>
       <use style="stroke:#000000;stroke-width:0.8;" x="337.779512" xlink:href="#m709405874b" y="307.584"/>
      </g>
     </g>
     <g id="text_5">
      <!-- 0.20 -->
      <defs>
       <path d="M 19.1875 8.296875 
L 53.609375 8.296875 
L 53.609375 0 
L 7.328125 0 
L 7.328125 8.296875 
Q 12.9375 14.109375 22.625 23.890625 
Q 32.328125 33.6875 34.8125 36.53125 
Q 39.546875 41.84375 41.421875 45.53125 
Q 43.3125 49.21875 43.3125 52.78125 
Q 43.3125 58.59375 39.234375 62.25 
Q 35.15625 65.921875 28.609375 65.921875 
Q 23.96875 65.921875 18.8125 64.3125 
Q 13.671875 62.703125 7.8125 59.421875 
L 7.8125 69.390625 
Q 13.765625 71.78125 18.9375 73 
Q 24.125 74.21875 28.421875 74.21875 
Q 39.75 74.21875 46.484375 68.546875 
Q 53.21875 62.890625 53.21875 53.421875 
Q 53.21875 48.921875 51.53125 44.890625 
Q 49.859375 40.875 45.40625 35.40625 
Q 44.1875 33.984375 37.640625 27.21875 
Q 31.109375 20.453125 19.1875 8.296875 
z
" id="DejaVuSans-32"/>
      </defs>
      <g transform="translate(326.6467 322.182437)scale(0.1 -0.1)">
       <use xlink:href="#DejaVuSans-30"/>
       <use x="63.623047" xlink:href="#DejaVuSans-2e"/>
       <use x="95.410156" xlink:href="#DejaVuSans-32"/>
       <use x="159.033203" xlink:href="#DejaVuSans-30"/>
      </g>
     </g>
    </g>
    <g id="xtick_6">
     <g id="line2d_6">
      <g>
       <use style="stroke:#000000;stroke-width:0.8;" x="403.766208" xlink:href="#m709405874b" y="307.584"/>
      </g>
     </g>
     <g id="text_6">
      <!-- 0.25 -->
      <g transform="translate(392.633396 322.182437)scale(0.1 -0.1)">
       <use xlink:href="#DejaVuSans-30"/>
       <use x="63.623047" xlink:href="#DejaVuSans-2e"/>
       <use x="95.410156" xlink:href="#DejaVuSans-32"/>
       <use x="159.033203" xlink:href="#DejaVuSans-35"/>
      </g>
     </g>
    </g>
    <g id="text_7">
     <!--  Distance (km)  -->
     <defs>
      <path id="DejaVuSans-20"/>
      <path d="M 19.671875 64.796875 
L 19.671875 8.109375 
L 31.59375 8.109375 
Q 46.6875 8.109375 53.6875 14.9375 
Q 60.6875 21.78125 60.6875 36.53125 
Q 60.6875 51.171875 53.6875 57.984375 
Q 46.6875 64.796875 31.59375 64.796875 
z
M 9.8125 72.90625 
L 30.078125 72.90625 
Q 51.265625 72.90625 61.171875 64.09375 
Q 71.09375 55.28125 71.09375 36.53125 
Q 71.09375 17.671875 61.125 8.828125 
Q 51.171875 0 30.078125 0 
L 9.8125 0 
z
" id="DejaVuSans-44"/>
      <path d="M 9.421875 54.6875 
L 18.40625 54.6875 
L 18.40625 0 
L 9.421875 0 
z
M 9.421875 75.984375 
L 18.40625 75.984375 
L 18.40625 64.59375 
L 9.421875 64.59375 
z
" id="DejaVuSans-69"/>
      <path d="M 44.28125 53.078125 
L 44.28125 44.578125 
Q 40.484375 46.53125 36.375 47.5 
Q 32.28125 48.484375 27.875 48.484375 
Q 21.1875 48.484375 17.84375 46.4375 
Q 14.5 44.390625 14.5 40.28125 
Q 14.5 37.15625 16.890625 35.375 
Q 19.28125 33.59375 26.515625 31.984375 
L 29.59375 31.296875 
Q 39.15625 29.25 43.1875 25.515625 
Q 47.21875 21.78125 47.21875 15.09375 
Q 47.21875 7.46875 41.1875 3.015625 
Q 35.15625 -1.421875 24.609375 -1.421875 
Q 20.21875 -1.421875 15.453125 -0.5625 
Q 10.6875 0.296875 5.421875 2 
L 5.421875 11.28125 
Q 10.40625 8.6875 15.234375 7.390625 
Q 20.0625 6.109375 24.8125 6.109375 
Q 31.15625 6.109375 34.5625 8.28125 
Q 37.984375 10.453125 37.984375 14.40625 
Q 37.984375 18.0625 35.515625 20.015625 
Q 33.0625 21.96875 24.703125 23.78125 
L 21.578125 24.515625 
Q 13.234375 26.265625 9.515625 29.90625 
Q 5.8125 33.546875 5.8125 39.890625 
Q 5.8125 47.609375 11.28125 51.796875 
Q 16.75 56 26.8125 56 
Q 31.78125 56 36.171875 55.265625 
Q 40.578125 54.546875 44.28125 53.078125 
z
" id="DejaVuSans-73"/>
      <path d="M 18.3125 70.21875 
L 18.3125 54.6875 
L 36.8125 54.6875 
L 36.8125 47.703125 
L 18.3125 47.703125 
L 18.3125 18.015625 
Q 18.3125 11.328125 20.140625 9.421875 
Q 21.96875 7.515625 27.59375 7.515625 
L 36.8125 7.515625 
L 36.8125 0 
L 27.59375 0 
Q 17.1875 0 13.234375 3.875 
Q 9.28125 7.765625 9.28125 18.015625 
L 9.28125 47.703125 
L 2.6875 47.703125 
L 2.6875 54.6875 
L 9.28125 54.6875 
L 9.28125 70.21875 
z
" id="DejaVuSans-74"/>
      <path d="M 34.28125 27.484375 
Q 23.390625 27.484375 19.1875 25 
Q 14.984375 22.515625 14.984375 16.5 
Q 14.984375 11.71875 18.140625 8.90625 
Q 21.296875 6.109375 26.703125 6.109375 
Q 34.1875 6.109375 38.703125 11.40625 
Q 43.21875 16.703125 43.21875 25.484375 
L 43.21875 27.484375 
z
M 52.203125 31.203125 
L 52.203125 0 
L 43.21875 0 
L 43.21875 8.296875 
Q 40.140625 3.328125 35.546875 0.953125 
Q 30.953125 -1.421875 24.3125 -1.421875 
Q 15.921875 -1.421875 10.953125 3.296875 
Q 6 8.015625 6 15.921875 
Q 6 25.140625 12.171875 29.828125 
Q 18.359375 34.515625 30.609375 34.515625 
L 43.21875 34.515625 
L 43.21875 35.40625 
Q 43.21875 41.609375 39.140625 45 
Q 35.0625 48.390625 27.6875 48.390625 
Q 23 48.390625 18.546875 47.265625 
Q 14.109375 46.140625 10.015625 43.890625 
L 10.015625 52.203125 
Q 14.9375 54.109375 19.578125 55.046875 
Q 24.21875 56 28.609375 56 
Q 40.484375 56 46.34375 49.84375 
Q 52.203125 43.703125 52.203125 31.203125 
z
" id="DejaVuSans-61"/>
      <path d="M 54.890625 33.015625 
L 54.890625 0 
L 45.90625 0 
L 45.90625 32.71875 
Q 45.90625 40.484375 42.875 44.328125 
Q 39.84375 48.1875 33.796875 48.1875 
Q 26.515625 48.1875 22.3125 43.546875 
Q 18.109375 38.921875 18.109375 30.90625 
L 18.109375 0 
L 9.078125 0 
L 9.078125 54.6875 
L 18.109375 54.6875 
L 18.109375 46.1875 
Q 21.34375 51.125 25.703125 53.5625 
Q 30.078125 56 35.796875 56 
Q 45.21875 56 50.046875 50.171875 
Q 54.890625 44.34375 54.890625 33.015625 
z
" id="DejaVuSans-6e"/>
      <path d="M 48.78125 52.59375 
L 48.78125 44.1875 
Q 44.96875 46.296875 41.140625 47.34375 
Q 37.3125 48.390625 33.40625 48.390625 
Q 24.65625 48.390625 19.8125 42.84375 
Q 14.984375 37.3125 14.984375 27.296875 
Q 14.984375 17.28125 19.8125 11.734375 
Q 24.65625 6.203125 33.40625 6.203125 
Q 37.3125 6.203125 41.140625 7.25 
Q 44.96875 8.296875 48.78125 10.40625 
L 48.78125 2.09375 
Q 45.015625 0.34375 40.984375 -0.53125 
Q 36.96875 -1.421875 32.421875 -1.421875 
Q 20.0625 -1.421875 12.78125 6.34375 
Q 5.515625 14.109375 5.515625 27.296875 
Q 5.515625 40.671875 12.859375 48.328125 
Q 20.21875 56 33.015625 56 
Q 37.15625 56 41.109375 55.140625 
Q 45.0625 54.296875 48.78125 52.59375 
z
" id="DejaVuSans-63"/>
      <path d="M 56.203125 29.59375 
L 56.203125 25.203125 
L 14.890625 25.203125 
Q 15.484375 15.921875 20.484375 11.0625 
Q 25.484375 6.203125 34.421875 6.203125 
Q 39.59375 6.203125 44.453125 7.46875 
Q 49.3125 8.734375 54.109375 11.28125 
L 54.109375 2.78125 
Q 49.265625 0.734375 44.1875 -0.34375 
Q 39.109375 -1.421875 33.890625 -1.421875 
Q 20.796875 -1.421875 13.15625 6.1875 
Q 5.515625 13.8125 5.515625 26.8125 
Q 5.515625 40.234375 12.765625 48.109375 
Q 20.015625 56 32.328125 56 
Q 43.359375 56 49.78125 48.890625 
Q 56.203125 41.796875 56.203125 29.59375 
z
M 47.21875 32.234375 
Q 47.125 39.59375 43.09375 43.984375 
Q 39.0625 48.390625 32.421875 48.390625 
Q 24.90625 48.390625 20.390625 44.140625 
Q 15.875 39.890625 15.1875 32.171875 
z
" id="DejaVuSans-65"/>
      <path d="M 31 75.875 
Q 24.46875 64.65625 21.28125 53.65625 
Q 18.109375 42.671875 18.109375 31.390625 
Q 18.109375 20.125 21.3125 9.0625 
Q 24.515625 -2 31 -13.1875 
L 23.1875 -13.1875 
Q 15.875 -1.703125 12.234375 9.375 
Q 8.59375 20.453125 8.59375 31.390625 
Q 8.59375 42.28125 12.203125 53.3125 
Q 15.828125 64.359375 23.1875 75.875 
z
" id="DejaVuSans-28"/>
      <path d="M 9.078125 75.984375 
L 18.109375 75.984375 
L 18.109375 31.109375 
L 44.921875 54.6875 
L 56.390625 54.6875 
L 27.390625 29.109375 
L 57.625 0 
L 45.90625 0 
L 18.109375 26.703125 
L 18.109375 0 
L 9.078125 0 
z
" id="DejaVuSans-6b"/>
      <path d="M 52 44.1875 
Q 55.375 50.25 60.0625 53.125 
Q 64.75 56 71.09375 56 
Q 79.640625 56 84.28125 50.015625 
Q 88.921875 44.046875 88.921875 33.015625 
L 88.921875 0 
L 79.890625 0 
L 79.890625 32.71875 
Q 79.890625 40.578125 77.09375 44.375 
Q 74.3125 48.1875 68.609375 48.1875 
Q 61.625 48.1875 57.5625 43.546875 
Q 53.515625 38.921875 53.515625 30.90625 
L 53.515625 0 
L 44.484375 0 
L 44.484375 32.71875 
Q 44.484375 40.625 41.703125 44.40625 
Q 38.921875 48.1875 33.109375 48.1875 
Q 26.21875 48.1875 22.15625 43.53125 
Q 18.109375 38.875 18.109375 30.90625 
L 18.109375 0 
L 9.078125 0 
L 9.078125 54.6875 
L 18.109375 54.6875 
L 18.109375 46.1875 
Q 21.1875 51.21875 25.484375 53.609375 
Q 29.78125 56 35.6875 56 
Q 41.65625 56 45.828125 52.96875 
Q 50 49.953125 52 44.1875 
z
" id="DejaVuSans-6d"/>
      <path d="M 8.015625 75.875 
L 15.828125 75.875 
Q 23.140625 64.359375 26.78125 53.3125 
Q 30.421875 42.28125 30.421875 31.390625 
Q 30.421875 20.453125 26.78125 9.375 
Q 23.140625 -1.703125 15.828125 -13.1875 
L 8.015625 -13.1875 
Q 14.5 -2 17.703125 9.0625 
Q 20.90625 20.125 20.90625 31.390625 
Q 20.90625 42.671875 17.703125 53.65625 
Q 14.5 64.65625 8.015625 75.875 
z
" id="DejaVuSans-29"/>
     </defs>
     <g transform="translate(197.863125 335.860562)scale(0.1 -0.1)">
      <use xlink:href="#DejaVuSans-20"/>
      <use x="31.787109" xlink:href="#DejaVuSans-44"/>
      <use x="108.789062" xlink:href="#DejaVuSans-69"/>
      <use x="136.572266" xlink:href="#DejaVuSans-73"/>
      <use x="188.671875" xlink:href="#DejaVuSans-74"/>
      <use x="227.880859" xlink:href="#DejaVuSans-61"/>
      <use x="289.160156" xlink:href="#DejaVuSans-6e"/>
      <use x="352.539062" xlink:href="#DejaVuSans-63"/>
      <use x="407.519531" xlink:href="#DejaVuSans-65"/>
      <use x="469.042969" xlink:href="#DejaVuSans-20"/>
      <use x="500.830078" xlink:href="#DejaVuSans-28"/>
      <use x="539.84375" xlink:href="#DejaVuSans-6b"/>
      <use x="597.753906" xlink:href="#DejaVuSans-6d"/>
      <use x="695.166016" xlink:href="#DejaVuSans-29"/>
      <use x="734.179688" xlink:href="#DejaVuSans-20"/>
     </g>
    </g>
   </g>
   <g id="matplotlib.axis_2">
    <g id="ytick_1">
     <g id="line2d_7">
      <defs>
       <path d="M 0 0 
L -3.5 0 
" id="mf39eb98001" style="stroke:#000000;stroke-width:0.8;"/>
      </defs>
      <g>
       <use style="stroke:#000000;stroke-width:0.8;" x="57.6" xlink:href="#mf39eb98001" y="304.505661"/>
      </g>
     </g>
     <g id="text_8">
      <!-- 20 -->
      <g transform="translate(37.875 308.30488)scale(0.1 -0.1)">
       <use xlink:href="#DejaVuSans-32"/>
       <use x="63.623047" xlink:href="#DejaVuSans-30"/>
      </g>
     </g>
    </g>
    <g id="ytick_2">
     <g id="line2d_8">
      <g>
       <use style="stroke:#000000;stroke-width:0.8;" x="57.6" xlink:href="#mf39eb98001" y="248.410154"/>
      </g>
     </g>
     <g id="text_9">
      <!-- 40 -->
      <defs>
       <path d="M 37.796875 64.3125 
L 12.890625 25.390625 
L 37.796875 25.390625 
z
M 35.203125 72.90625 
L 47.609375 72.90625 
L 47.609375 25.390625 
L 58.015625 25.390625 
L 58.015625 17.1875 
L 47.609375 17.1875 
L 47.609375 0 
L 37.796875 0 
L 37.796875 17.1875 
L 4.890625 17.1875 
L 4.890625 26.703125 
z
" id="DejaVuSans-34"/>
      </defs>
      <g transform="translate(37.875 252.209372)scale(0.1 -0.1)">
       <use xlink:href="#DejaVuSans-34"/>
       <use x="63.623047" xlink:href="#DejaVuSans-30"/>
      </g>
     </g>
    </g>
    <g id="ytick_3">
     <g id="line2d_9">
      <g>
       <use style="stroke:#000000;stroke-width:0.8;" x="57.6" xlink:href="#mf39eb98001" y="192.314646"/>
      </g>
     </g>
     <g id="text_10">
      <!-- 60 -->
      <defs>
       <path d="M 33.015625 40.375 
Q 26.375 40.375 22.484375 35.828125 
Q 18.609375 31.296875 18.609375 23.390625 
Q 18.609375 15.53125 22.484375 10.953125 
Q 26.375 6.390625 33.015625 6.390625 
Q 39.65625 6.390625 43.53125 10.953125 
Q 47.40625 15.53125 47.40625 23.390625 
Q 47.40625 31.296875 43.53125 35.828125 
Q 39.65625 40.375 33.015625 40.375 
z
M 52.59375 71.296875 
L 52.59375 62.3125 
Q 48.875 64.0625 45.09375 64.984375 
Q 41.3125 65.921875 37.59375 65.921875 
Q 27.828125 65.921875 22.671875 59.328125 
Q 17.53125 52.734375 16.796875 39.40625 
Q 19.671875 43.65625 24.015625 45.921875 
Q 28.375 48.1875 33.59375 48.1875 
Q 44.578125 48.1875 50.953125 41.515625 
Q 57.328125 34.859375 57.328125 23.390625 
Q 57.328125 12.15625 50.6875 5.359375 
Q 44.046875 -1.421875 33.015625 -1.421875 
Q 20.359375 -1.421875 13.671875 8.265625 
Q 6.984375 17.96875 6.984375 36.375 
Q 6.984375 53.65625 15.1875 63.9375 
Q 23.390625 74.21875 37.203125 74.21875 
Q 40.921875 74.21875 44.703125 73.484375 
Q 48.484375 72.75 52.59375 71.296875 
z
" id="DejaVuSans-36"/>
      </defs>
      <g transform="translate(37.875 196.113865)scale(0.1 -0.1)">
       <use xlink:href="#DejaVuSans-36"/>
       <use x="63.623047" xlink:href="#DejaVuSans-30"/>
      </g>
     </g>
    </g>
    <g id="ytick_4">
     <g id="line2d_10">
      <g>
       <use style="stroke:#000000;stroke-width:0.8;" x="57.6" xlink:href="#mf39eb98001" y="136.219138"/>
      </g>
     </g>
     <g id="text_11">
      <!-- 80 -->
      <defs>
       <path d="M 31.78125 34.625 
Q 24.75 34.625 20.71875 30.859375 
Q 16.703125 27.09375 16.703125 20.515625 
Q 16.703125 13.921875 20.71875 10.15625 
Q 24.75 6.390625 31.78125 6.390625 
Q 38.8125 6.390625 42.859375 10.171875 
Q 46.921875 13.96875 46.921875 20.515625 
Q 46.921875 27.09375 42.890625 30.859375 
Q 38.875 34.625 31.78125 34.625 
z
M 21.921875 38.8125 
Q 15.578125 40.375 12.03125 44.71875 
Q 8.5 49.078125 8.5 55.328125 
Q 8.5 64.0625 14.71875 69.140625 
Q 20.953125 74.21875 31.78125 74.21875 
Q 42.671875 74.21875 48.875 69.140625 
Q 55.078125 64.0625 55.078125 55.328125 
Q 55.078125 49.078125 51.53125 44.71875 
Q 48 40.375 41.703125 38.8125 
Q 48.828125 37.15625 52.796875 32.3125 
Q 56.78125 27.484375 56.78125 20.515625 
Q 56.78125 9.90625 50.3125 4.234375 
Q 43.84375 -1.421875 31.78125 -1.421875 
Q 19.734375 -1.421875 13.25 4.234375 
Q 6.78125 9.90625 6.78125 20.515625 
Q 6.78125 27.484375 10.78125 32.3125 
Q 14.796875 37.15625 21.921875 38.8125 
z
M 18.3125 54.390625 
Q 18.3125 48.734375 21.84375 45.5625 
Q 25.390625 42.390625 31.78125 42.390625 
Q 38.140625 42.390625 41.71875 45.5625 
Q 45.3125 48.734375 45.3125 54.390625 
Q 45.3125 60.0625 41.71875 63.234375 
Q 38.140625 66.40625 31.78125 66.40625 
Q 25.390625 66.40625 21.84375 63.234375 
Q 18.3125 60.0625 18.3125 54.390625 
z
" id="DejaVuSans-38"/>
      </defs>
      <g transform="translate(37.875 140.018357)scale(0.1 -0.1)">
       <use xlink:href="#DejaVuSans-38"/>
       <use x="63.623047" xlink:href="#DejaVuSans-30"/>
      </g>
     </g>
    </g>
    <g id="ytick_5">
     <g id="line2d_11">
      <g>
       <use style="stroke:#000000;stroke-width:0.8;" x="57.6" xlink:href="#mf39eb98001" y="80.12363"/>
      </g>
     </g>
     <g id="text_12">
      <!-- 100 -->
      <g transform="translate(31.5125 83.922849)scale(0.1 -0.1)">
       <use xlink:href="#DejaVuSans-31"/>
       <use x="63.623047" xlink:href="#DejaVuSans-30"/>
       <use x="127.246094" xlink:href="#DejaVuSans-30"/>
      </g>
     </g>
    </g>
    <g id="text_13">
     <!--  Height in meters -->
     <defs>
      <path d="M 9.8125 72.90625 
L 19.671875 72.90625 
L 19.671875 43.015625 
L 55.515625 43.015625 
L 55.515625 72.90625 
L 65.375 72.90625 
L 65.375 0 
L 55.515625 0 
L 55.515625 34.71875 
L 19.671875 34.71875 
L 19.671875 0 
L 9.8125 0 
z
" id="DejaVuSans-48"/>
      <path d="M 45.40625 27.984375 
Q 45.40625 37.75 41.375 43.109375 
Q 37.359375 48.484375 30.078125 48.484375 
Q 22.859375 48.484375 18.828125 43.109375 
Q 14.796875 37.75 14.796875 27.984375 
Q 14.796875 18.265625 18.828125 12.890625 
Q 22.859375 7.515625 30.078125 7.515625 
Q 37.359375 7.515625 41.375 12.890625 
Q 45.40625 18.265625 45.40625 27.984375 
z
M 54.390625 6.78125 
Q 54.390625 -7.171875 48.1875 -13.984375 
Q 42 -20.796875 29.203125 -20.796875 
Q 24.46875 -20.796875 20.265625 -20.09375 
Q 16.0625 -19.390625 12.109375 -17.921875 
L 12.109375 -9.1875 
Q 16.0625 -11.328125 19.921875 -12.34375 
Q 23.78125 -13.375 27.78125 -13.375 
Q 36.625 -13.375 41.015625 -8.765625 
Q 45.40625 -4.15625 45.40625 5.171875 
L 45.40625 9.625 
Q 42.625 4.78125 38.28125 2.390625 
Q 33.9375 0 27.875 0 
Q 17.828125 0 11.671875 7.65625 
Q 5.515625 15.328125 5.515625 27.984375 
Q 5.515625 40.671875 11.671875 48.328125 
Q 17.828125 56 27.875 56 
Q 33.9375 56 38.28125 53.609375 
Q 42.625 51.21875 45.40625 46.390625 
L 45.40625 54.6875 
L 54.390625 54.6875 
z
" id="DejaVuSans-67"/>
      <path d="M 54.890625 33.015625 
L 54.890625 0 
L 45.90625 0 
L 45.90625 32.71875 
Q 45.90625 40.484375 42.875 44.328125 
Q 39.84375 48.1875 33.796875 48.1875 
Q 26.515625 48.1875 22.3125 43.546875 
Q 18.109375 38.921875 18.109375 30.90625 
L 18.109375 0 
L 9.078125 0 
L 9.078125 75.984375 
L 18.109375 75.984375 
L 18.109375 46.1875 
Q 21.34375 51.125 25.703125 53.5625 
Q 30.078125 56 35.796875 56 
Q 45.21875 56 50.046875 50.171875 
Q 54.890625 44.34375 54.890625 33.015625 
z
" id="DejaVuSans-68"/>
      <path d="M 41.109375 46.296875 
Q 39.59375 47.171875 37.8125 47.578125 
Q 36.03125 48 33.890625 48 
Q 26.265625 48 22.1875 43.046875 
Q 18.109375 38.09375 18.109375 28.8125 
L 18.109375 0 
L 9.078125 0 
L 9.078125 54.6875 
L 18.109375 54.6875 
L 18.109375 46.1875 
Q 20.953125 51.171875 25.484375 53.578125 
Q 30.03125 56 36.53125 56 
Q 37.453125 56 38.578125 55.875 
Q 39.703125 55.765625 41.0625 55.515625 
z
" id="DejaVuSans-72"/>
     </defs>
     <g transform="translate(25.432812 218.025656)rotate(-90)scale(0.1 -0.1)">
      <use xlink:href="#DejaVuSans-20"/>
      <use x="31.787109" xlink:href="#DejaVuSans-48"/>
      <use x="106.982422" xlink:href="#DejaVuSans-65"/>
      <use x="168.505859" xlink:href="#DejaVuSans-69"/>
      <use x="196.289062" xlink:href="#DejaVuSans-67"/>
      <use x="259.765625" xlink:href="#DejaVuSans-68"/>
      <use x="323.144531" xlink:href="#DejaVuSans-74"/>
      <use x="362.353516" xlink:href="#DejaVuSans-20"/>
      <use x="394.140625" xlink:href="#DejaVuSans-69"/>
      <use x="421.923828" xlink:href="#DejaVuSans-6e"/>
      <use x="485.302734" xlink:href="#DejaVuSans-20"/>
      <use x="517.089844" xlink:href="#DejaVuSans-6d"/>
      <use x="614.501953" xlink:href="#DejaVuSans-65"/>
      <use x="676.025391" xlink:href="#DejaVuSans-74"/>
      <use x="715.234375" xlink:href="#DejaVuSans-65"/>
      <use x="776.757812" xlink:href="#DejaVuSans-72"/>
      <use x="817.871094" xlink:href="#DejaVuSans-73"/>
     </g>
    </g>
   </g>
   <g id="line2d_12">
    <path clip-path="url(#p079e8e898c)" d="M 73.832727 295.488 
L 76.49383 294.957982 
L 79.154933 287.45344 
L 81.816036 289.383911 
L 84.477139 285.433666 
L 87.138241 289.67112 
L 89.799344 290.436796 
L 92.460447 290.420809 
L 95.12155 291.353116 
L 97.782653 293.274808 
L 100.443756 285.781542 
L 103.104858 288.754856 
L 105.765961 288.346116 
L 108.427064 286.589682 
L 111.088167 291.435548 
L 113.74927 283.989459 
L 116.410373 286.583287 
L 119.071475 276.512601 
L 121.732578 279.595778 
L 124.393681 272.442114 
L 127.054784 265.172164 
L 129.715887 261.339467 
L 132.37699 251.22051 
L 135.038092 237.294408 
L 137.699195 235.261759 
L 140.360298 224.898451 
L 143.021401 217.740608 
L 145.682504 205.536245 
L 148.343607 194.501922 
L 151.004709 185.322733 
L 153.665812 159.776446 
L 156.326915 148.967066 
L 158.988018 129.186977 
L 161.649121 116.351343 
L 164.310224 99.933058 
L 166.971326 78.4381 
L 169.632429 69.859162 
L 172.293532 57.668094 
L 174.954635 56.878689 
L 177.615738 58.640762 
L 180.276841 67.752074 
L 182.937943 68.75408 
L 185.599046 76.000751 
L 188.260149 73.061486 
L 190.921252 76.731114 
L 193.582355 87.495674 
L 196.243458 85.343542 
L 198.90456 80.230296 
L 201.565663 88.639938 
L 204.226766 87.998991 
L 206.887869 83.837686 
L 209.548972 85.743334 
L 212.210075 84.610682 
L 214.871177 90.554898 
L 217.53228 87.155314 
L 220.193383 89.705136 
L 222.854486 83.987713 
L 225.515589 84.046249 
L 228.176692 89.90492 
L 230.837794 91.486785 
L 233.498897 88.693313 
L 236.16 89.209532 
L 238.821103 90.472999 
L 241.482206 90.003564 
L 244.143308 88.414602 
L 246.804411 90.719258 
L 249.465514 86.292621 
L 252.126617 89.564336 
L 254.78772 90.659573 
L 257.448823 89.20998 
L 260.109925 87.591821 
L 262.771028 89.049547 
L 265.432131 87.201004 
L 268.093234 89.210598 
L 270.754337 86.829287 
L 273.41544 85.572243 
L 276.076542 85.33207 
L 278.737645 84.426801 
L 281.398748 82.578874 
L 284.059851 78.266112 
L 286.720954 75.843964 
L 289.382057 77.752473 
L 292.043159 71.475694 
L 294.704262 70.380794 
L 297.365365 63.315733 
L 300.026468 56.259844 
L 302.687571 61.581709 
L 305.348674 62.258725 
L 308.009776 83.199122 
L 310.670879 119.189467 
L 313.331982 138.317839 
L 315.993085 148.82133 
L 318.654188 160.646656 
L 321.315291 180.314106 
L 323.976393 197.393673 
L 326.637496 204.312774 
L 329.298599 226.211086 
L 331.959702 236.524189 
L 334.620805 263.372901 
L 337.281908 258.716469 
L 339.94301 263.224781 
L 342.604113 269.250673 
L 345.265216 272.849115 
L 347.926319 280.989948 
L 350.587422 277.282624 
L 353.248525 281.78095 
L 355.909627 284.758612 
L 358.57073 286.949422 
L 361.231833 277.02307 
L 363.892936 274.879829 
L 366.554039 282.494401 
L 369.215142 285.351822 
L 371.876244 287.335079 
L 374.537347 289.222945 
L 377.19845 285.490574 
L 379.859553 285.461321 
L 382.520656 286.737157 
L 385.181759 288.308055 
L 387.842861 294.318296 
L 390.503964 285.726063 
L 393.165067 287.661975 
L 395.82617 285.793126 
L 398.487273 285.535395 
" style="fill:none;stroke:#1f77b4;stroke-linecap:square;stroke-width:1.5;"/>
   </g>
   <g id="line2d_13">
    <path clip-path="url(#p079e8e898c)" d="M 73.832727 290.106721 
L 76.49383 290.082539 
L 79.154933 290.022772 
L 81.816036 289.945267 
L 84.477139 289.715968 
L 87.138241 289.542424 
L 89.799344 289.459518 
L 92.460447 288.828409 
L 95.12155 288.783867 
L 97.782653 288.403161 
L 100.443756 288.851743 
L 103.104858 288.787392 
L 105.765961 288.172009 
L 108.427064 287.55478 
L 111.088167 286.242211 
L 113.74927 284.560013 
L 116.410373 281.816534 
L 119.071475 277.691208 
L 121.732578 276.642177 
L 124.393681 271.191143 
L 127.054784 268.2865 
L 129.715887 260.874089 
L 132.37699 254.26337 
L 135.038092 248.216828 
L 137.699195 239.689602 
L 140.360298 224.303081 
L 143.021401 219.882647 
L 145.682504 206.47187 
L 148.343607 198.702724 
L 151.004709 187.576701 
L 153.665812 166.436734 
L 156.326915 153.052404 
L 158.988018 134.363473 
L 161.649121 123.328076 
L 164.310224 103.901951 
L 166.971326 83.110563 
L 169.632429 70.251715 
L 172.293532 58.992382 
L 174.954635 56.659079 
L 177.615738 60.869674 
L 180.276841 65.713104 
L 182.937943 71.434782 
L 185.599046 75.691352 
L 188.260149 78.441119 
L 190.921252 81.391152 
L 193.582355 84.727467 
L 196.243458 86.444435 
L 198.90456 88.084138 
L 201.565663 88.578967 
L 204.226766 89.164744 
L 206.887869 89.649422 
L 209.548972 89.999603 
L 212.210075 90.586107 
L 214.871177 91.702957 
L 217.53228 91.235413 
L 220.193383 91.412151 
L 222.854486 92.222279 
L 225.515589 91.710958 
L 228.176692 91.267038 
L 230.837794 92.175515 
L 233.498897 93.83453 
L 236.16 97.984741 
L 238.821103 99.704002 
L 241.482206 97.7076 
L 244.143308 95.93462 
L 246.804411 93.474174 
L 249.465514 92.268695 
L 252.126617 93.935728 
L 254.78772 95.137336 
L 257.448823 96.466684 
L 260.109925 93.087898 
L 262.771028 93.503775 
L 265.432131 94.422685 
L 268.093234 92.444572 
L 270.754337 91.536109 
L 273.41544 90.080096 
L 276.076542 89.385165 
L 278.737645 88.146068 
L 281.398748 86.722453 
L 284.059851 84.203133 
L 286.720954 80.949234 
L 289.382057 78.739836 
L 292.043159 74.870458 
L 294.704262 70.064468 
L 297.365365 64.583448 
L 300.026468 62.371852 
L 302.687571 66.003112 
L 305.348674 73.134906 
L 308.009776 93.636474 
L 310.670879 126.210715 
L 313.331982 146.791918 
L 315.993085 156.150823 
L 318.654188 168.892144 
L 321.315291 185.894609 
L 323.976393 201.531042 
L 326.637496 210.33459 
L 329.298599 227.888415 
L 331.959702 243.915004 
L 334.620805 260.128058 
L 337.281908 260.927741 
L 339.94301 265.738879 
L 342.604113 268.949805 
L 345.265216 276.719229 
L 347.926319 277.10495 
L 350.587422 280.933199 
L 353.248525 284.069191 
L 355.909627 284.920724 
L 358.57073 283.089417 
L 361.231833 282.707799 
L 363.892936 284.028358 
L 366.554039 285.594859 
L 369.215142 286.099828 
L 371.876244 286.599856 
L 374.537347 287.264324 
L 377.19845 287.617894 
L 379.859553 288.156554 
L 382.520656 288.812842 
L 385.181759 289.288611 
L 387.842861 289.381202 
L 390.503964 289.721052 
L 393.165067 289.838929 
L 395.82617 289.889844 
L 398.487273 289.788462 
" style="fill:none;stroke:#ff7f0e;stroke-linecap:square;stroke-width:1.5;"/>
   </g>
   <g id="line2d_14">
    <path clip-path="url(#p079e8e898c)" d="M 73.832727 289.777786 
L 76.49383 289.753491 
L 79.154933 289.714369 
L 81.816036 289.673479 
L 84.477139 289.56064 
L 87.138241 289.451941 
L 89.799344 289.402015 
L 92.460447 289.066585 
L 95.12155 289.071533 
L 97.782653 288.876803 
L 100.443756 289.12264 
L 103.104858 289.139635 
L 105.765961 288.886707 
L 108.427064 288.658682 
L 111.088167 288.075626 
L 113.74927 287.313224 
L 116.410373 285.959486 
L 119.071475 283.940685 
L 121.732578 283.361432 
L 124.393681 280.25299 
L 127.054784 278.867436 
L 129.715887 274.661633 
L 132.37699 270.702334 
L 135.038092 266.920441 
L 137.699195 261.054354 
L 140.360298 249.617124 
L 143.021401 245.945152 
L 145.682504 235.185619 
L 148.343607 229.374728 
L 151.004709 219.621653 
L 153.665812 200.48468 
L 156.326915 190.781772 
L 158.988018 175.375155 
L 161.649121 164.913167 
L 164.310224 143.625645 
L 166.971326 117.022619 
L 169.632429 99.649264 
L 172.293532 81.812911 
L 174.954635 68.626176 
L 177.615738 68.296067 
L 180.276841 70.708845 
L 182.937943 75.888749 
L 185.599046 79.629294 
L 188.260149 82.138572 
L 190.921252 84.142093 
L 193.582355 86.27214 
L 196.243458 87.308817 
L 198.90456 88.468177 
L 201.565663 88.451993 
L 204.226766 88.974305 
L 206.887869 89.962572 
L 209.548972 91.304868 
L 212.210075 96.013113 
L 214.871177 107.156605 
L 217.53228 101.995465 
L 220.193383 105.677894 
L 222.854486 115.376332 
L 225.515589 108.627738 
L 228.176692 103.333661 
L 230.837794 113.083008 
L 233.498897 131.659594 
L 236.16 168.871479 
L 238.821103 177.333853 
L 241.482206 164.55395 
L 244.143308 146.05868 
L 246.804411 126.933569 
L 249.465514 115.073417 
L 252.126617 133.048672 
L 254.78772 139.540582 
L 257.448823 138.702148 
L 260.109925 117.849133 
L 262.771028 125.657561 
L 265.432131 138.752354 
L 268.093234 115.030239 
L 270.754337 106.314324 
L 273.41544 95.241592 
L 276.076542 92.980542 
L 278.737645 89.952627 
L 281.398748 88.507028 
L 284.059851 85.953068 
L 286.720954 83.369493 
L 289.382057 82.055522 
L 292.043159 78.835841 
L 294.704262 74.610605 
L 297.365365 71.482578 
L 300.026468 81.2789 
L 302.687571 103.106432 
L 305.348674 119.951543 
L 308.009776 149.306824 
L 310.670879 187.388826 
L 313.331982 205.675754 
L 315.993085 204.957386 
L 318.654188 213.31095 
L 321.315291 228.560944 
L 323.976393 240.904639 
L 326.637496 244.81962 
L 329.298599 254.431482 
L 331.959702 265.213926 
L 334.620805 274.745175 
L 337.281908 273.31536 
L 339.94301 276.584145 
L 342.604113 279.013677 
L 345.265216 283.090236 
L 347.926319 283.242844 
L 350.587422 284.956424 
L 353.248525 286.882304 
L 355.909627 287.465845 
L 358.57073 286.430503 
L 361.231833 286.220587 
L 363.892936 286.805385 
L 366.554039 287.60461 
L 369.215142 287.807495 
L 371.876244 288.052265 
L 374.537347 288.34187 
L 377.19845 288.492507 
L 379.859553 288.738391 
L 382.520656 289.036409 
L 385.181759 289.277175 
L 387.842861 289.326695 
L 390.503964 289.48729 
L 393.165067 289.541733 
L 395.82617 289.560907 
L 398.487273 289.458041 
" style="fill:none;stroke:#2ca02c;stroke-linecap:square;stroke-width:1.5;"/>
   </g>
   <g id="line2d_15">
    <path clip-path="url(#p079e8e898c)" d="M 73.832727 289.777786 
L 76.49383 289.753491 
L 79.154933 289.691112 
L 81.816036 289.609452 
L 84.477139 289.366532 
L 87.138241 289.184999 
L 89.799344 289.098054 
L 92.460447 288.431709 
L 95.12155 288.38155 
L 97.782653 287.97882 
L 100.443756 288.451274 
L 103.104858 288.37755 
L 105.765961 287.719673 
L 108.427064 287.05738 
L 111.088167 285.661027 
L 113.74927 283.873229 
L 116.410373 280.96731 
L 119.071475 276.596309 
L 121.732578 275.487688 
L 124.393681 269.758958 
L 127.054784 266.676404 
L 129.715887 258.887457 
L 132.37699 251.961016 
L 135.038092 245.638848 
L 137.699195 236.78329 
L 140.360298 220.883409 
L 143.021401 216.338959 
L 145.682504 202.56378 
L 148.343607 194.565496 
L 151.004709 183.240344 
L 153.665812 161.752299 
L 156.326915 147.90477 
L 158.988018 128.81148 
L 161.649121 117.520416 
L 164.310224 98.151689 
L 166.971326 77.866173 
L 169.632429 65.426412 
L 172.293532 54.82176 
L 174.954635 53.568 
L 177.615738 58.320259 
L 180.276841 63.575057 
L 182.937943 69.440558 
L 185.599046 73.782015 
L 188.260149 76.566743 
L 190.921252 79.603993 
L 193.582355 83.052968 
L 196.243458 84.792104 
L 198.90456 86.405274 
L 201.565663 87.013978 
L 204.226766 87.561821 
L 206.887869 87.944915 
L 209.548972 88.128979 
L 212.210075 88.223822 
L 214.871177 88.283084 
L 217.53228 88.272913 
L 220.193383 88.298126 
L 222.854486 88.352173 
L 225.515589 88.326186 
L 228.176692 88.302376 
L 230.837794 88.337805 
L 233.498897 88.481319 
L 236.16 89.52286 
L 238.821103 90.483574 
L 241.482206 89.716978 
L 244.143308 89.315274 
L 246.804411 88.493276 
L 249.465514 88.345 
L 252.126617 88.478261 
L 254.78772 88.841602 
L 257.448823 89.976443 
L 260.109925 88.483511 
L 262.771028 88.424657 
L 265.432131 88.426545 
L 268.093234 88.28836 
L 270.754337 88.17834 
L 273.41544 87.759692 
L 276.076542 87.176655 
L 278.737645 86.220156 
L 281.398748 84.859125 
L 284.059851 82.434889 
L 286.720954 79.187878 
L 289.382057 76.889885 
L 292.043159 72.960217 
L 294.704262 68.047241 
L 297.365365 62.1234 
L 300.026468 58.556707 
L 302.687571 60.372954 
L 305.348674 66.540661 
L 308.009776 86.27364 
L 310.670879 118.484473 
L 313.331982 139.400433 
L 315.993085 149.83914 
L 318.654188 163.094957 
L 321.315291 180.354106 
L 323.976393 196.440902 
L 326.637496 205.908444 
L 329.298599 224.450034 
L 331.959702 241.059034 
L 334.620805 258.042706 
L 337.281908 259.049757 
L 339.94301 264.0643 
L 342.604113 267.429098 
L 345.265216 275.589423 
L 347.926319 275.999077 
L 350.587422 280.06909 
L 353.248525 283.36495 
L 355.909627 284.252608 
L 358.57073 282.327357 
L 361.231833 281.926011 
L 363.892936 283.332568 
L 366.554039 284.989797 
L 369.215142 285.530117 
L 371.876244 286.060372 
L 374.537347 286.768842 
L 377.19845 287.146324 
L 379.859553 287.719239 
L 382.520656 288.417494 
L 385.181759 288.921232 
L 387.842861 289.019068 
L 390.503964 289.380258 
L 393.165067 289.505077 
L 395.82617 289.559016 
L 398.487273 289.458041 
" style="fill:none;stroke:#d62728;stroke-linecap:square;stroke-width:1.5;"/>
   </g>
   <g id="patch_3">
    <path d="M 57.6 307.584 
L 57.6 41.472 
" style="fill:none;stroke:#000000;stroke-linecap:square;stroke-linejoin:miter;stroke-width:0.8;"/>
   </g>
   <g id="patch_4">
    <path d="M 414.72 307.584 
L 414.72 41.472 
" style="fill:none;stroke:#000000;stroke-linecap:square;stroke-linejoin:miter;stroke-width:0.8;"/>
   </g>
   <g id="patch_5">
    <path d="M 57.6 307.584 
L 414.72 307.584 
" style="fill:none;stroke:#000000;stroke-linecap:square;stroke-linejoin:miter;stroke-width:0.8;"/>
   </g>
   <g id="patch_6">
    <path d="M 57.6 41.472 
L 414.72 41.472 
" style="fill:none;stroke:#000000;stroke-linecap:square;stroke-linejoin:miter;stroke-width:0.8;"/>
   </g>
   <g id="text_14">
    <!-- Uncertainty in topography prediction  (cross section)   -->
    <defs>
     <path d="M 8.6875 72.90625 
L 18.609375 72.90625 
L 18.609375 28.609375 
Q 18.609375 16.890625 22.84375 11.734375 
Q 27.09375 6.59375 36.625 6.59375 
Q 46.09375 6.59375 50.34375 11.734375 
Q 54.59375 16.890625 54.59375 28.609375 
L 54.59375 72.90625 
L 64.5 72.90625 
L 64.5 27.390625 
Q 64.5 13.140625 57.4375 5.859375 
Q 50.390625 -1.421875 36.625 -1.421875 
Q 22.796875 -1.421875 15.734375 5.859375 
Q 8.6875 13.140625 8.6875 27.390625 
z
" id="DejaVuSans-55"/>
     <path d="M 32.171875 -5.078125 
Q 28.375 -14.84375 24.75 -17.8125 
Q 21.140625 -20.796875 15.09375 -20.796875 
L 7.90625 -20.796875 
L 7.90625 -13.28125 
L 13.1875 -13.28125 
Q 16.890625 -13.28125 18.9375 -11.515625 
Q 21 -9.765625 23.484375 -3.21875 
L 25.09375 0.875 
L 2.984375 54.6875 
L 12.5 54.6875 
L 29.59375 11.921875 
L 46.6875 54.6875 
L 56.203125 54.6875 
z
" id="DejaVuSans-79"/>
     <path d="M 30.609375 48.390625 
Q 23.390625 48.390625 19.1875 42.75 
Q 14.984375 37.109375 14.984375 27.296875 
Q 14.984375 17.484375 19.15625 11.84375 
Q 23.34375 6.203125 30.609375 6.203125 
Q 37.796875 6.203125 41.984375 11.859375 
Q 46.1875 17.53125 46.1875 27.296875 
Q 46.1875 37.015625 41.984375 42.703125 
Q 37.796875 48.390625 30.609375 48.390625 
z
M 30.609375 56 
Q 42.328125 56 49.015625 48.375 
Q 55.71875 40.765625 55.71875 27.296875 
Q 55.71875 13.875 49.015625 6.21875 
Q 42.328125 -1.421875 30.609375 -1.421875 
Q 18.84375 -1.421875 12.171875 6.21875 
Q 5.515625 13.875 5.515625 27.296875 
Q 5.515625 40.765625 12.171875 48.375 
Q 18.84375 56 30.609375 56 
z
" id="DejaVuSans-6f"/>
     <path d="M 18.109375 8.203125 
L 18.109375 -20.796875 
L 9.078125 -20.796875 
L 9.078125 54.6875 
L 18.109375 54.6875 
L 18.109375 46.390625 
Q 20.953125 51.265625 25.265625 53.625 
Q 29.59375 56 35.59375 56 
Q 45.5625 56 51.78125 48.09375 
Q 58.015625 40.1875 58.015625 27.296875 
Q 58.015625 14.40625 51.78125 6.484375 
Q 45.5625 -1.421875 35.59375 -1.421875 
Q 29.59375 -1.421875 25.265625 0.953125 
Q 20.953125 3.328125 18.109375 8.203125 
z
M 48.6875 27.296875 
Q 48.6875 37.203125 44.609375 42.84375 
Q 40.53125 48.484375 33.40625 48.484375 
Q 26.265625 48.484375 22.1875 42.84375 
Q 18.109375 37.203125 18.109375 27.296875 
Q 18.109375 17.390625 22.1875 11.75 
Q 26.265625 6.109375 33.40625 6.109375 
Q 40.53125 6.109375 44.609375 11.75 
Q 48.6875 17.390625 48.6875 27.296875 
z
" id="DejaVuSans-70"/>
     <path d="M 45.40625 46.390625 
L 45.40625 75.984375 
L 54.390625 75.984375 
L 54.390625 0 
L 45.40625 0 
L 45.40625 8.203125 
Q 42.578125 3.328125 38.25 0.953125 
Q 33.9375 -1.421875 27.875 -1.421875 
Q 17.96875 -1.421875 11.734375 6.484375 
Q 5.515625 14.40625 5.515625 27.296875 
Q 5.515625 40.1875 11.734375 48.09375 
Q 17.96875 56 27.875 56 
Q 33.9375 56 38.25 53.625 
Q 42.578125 51.265625 45.40625 46.390625 
z
M 14.796875 27.296875 
Q 14.796875 17.390625 18.875 11.75 
Q 22.953125 6.109375 30.078125 6.109375 
Q 37.203125 6.109375 41.296875 11.75 
Q 45.40625 17.390625 45.40625 27.296875 
Q 45.40625 37.203125 41.296875 42.84375 
Q 37.203125 48.484375 30.078125 48.484375 
Q 22.953125 48.484375 18.875 42.84375 
Q 14.796875 37.203125 14.796875 27.296875 
z
" id="DejaVuSans-64"/>
    </defs>
    <g transform="translate(73.5525 35.472)scale(0.12 -0.12)">
     <use xlink:href="#DejaVuSans-55"/>
     <use x="73.193359" xlink:href="#DejaVuSans-6e"/>
     <use x="136.572266" xlink:href="#DejaVuSans-63"/>
     <use x="191.552734" xlink:href="#DejaVuSans-65"/>
     <use x="253.076172" xlink:href="#DejaVuSans-72"/>
     <use x="294.189453" xlink:href="#DejaVuSans-74"/>
     <use x="333.398438" xlink:href="#DejaVuSans-61"/>
     <use x="394.677734" xlink:href="#DejaVuSans-69"/>
     <use x="422.460938" xlink:href="#DejaVuSans-6e"/>
     <use x="485.839844" xlink:href="#DejaVuSans-74"/>
     <use x="525.048828" xlink:href="#DejaVuSans-79"/>
     <use x="584.228516" xlink:href="#DejaVuSans-20"/>
     <use x="616.015625" xlink:href="#DejaVuSans-69"/>
     <use x="643.798828" xlink:href="#DejaVuSans-6e"/>
     <use x="707.177734" xlink:href="#DejaVuSans-20"/>
     <use x="738.964844" xlink:href="#DejaVuSans-74"/>
     <use x="778.173828" xlink:href="#DejaVuSans-6f"/>
     <use x="839.355469" xlink:href="#DejaVuSans-70"/>
     <use x="902.832031" xlink:href="#DejaVuSans-6f"/>
     <use x="964.013672" xlink:href="#DejaVuSans-67"/>
     <use x="1027.490234" xlink:href="#DejaVuSans-72"/>
     <use x="1068.603516" xlink:href="#DejaVuSans-61"/>
     <use x="1129.882812" xlink:href="#DejaVuSans-70"/>
     <use x="1193.359375" xlink:href="#DejaVuSans-68"/>
     <use x="1256.738281" xlink:href="#DejaVuSans-79"/>
     <use x="1315.917969" xlink:href="#DejaVuSans-20"/>
     <use x="1347.705078" xlink:href="#DejaVuSans-70"/>
     <use x="1411.181641" xlink:href="#DejaVuSans-72"/>
     <use x="1452.263672" xlink:href="#DejaVuSans-65"/>
     <use x="1513.787109" xlink:href="#DejaVuSans-64"/>
     <use x="1577.263672" xlink:href="#DejaVuSans-69"/>
     <use x="1605.046875" xlink:href="#DejaVuSans-63"/>
     <use x="1660.027344" xlink:href="#DejaVuSans-74"/>
     <use x="1699.236328" xlink:href="#DejaVuSans-69"/>
     <use x="1727.019531" xlink:href="#DejaVuSans-6f"/>
     <use x="1788.201172" xlink:href="#DejaVuSans-6e"/>
     <use x="1851.580078" xlink:href="#DejaVuSans-20"/>
     <use x="1883.367188" xlink:href="#DejaVuSans-20"/>
     <use x="1915.154297" xlink:href="#DejaVuSans-28"/>
     <use x="1954.167969" xlink:href="#DejaVuSans-63"/>
     <use x="2009.148438" xlink:href="#DejaVuSans-72"/>
     <use x="2050.230469" xlink:href="#DejaVuSans-6f"/>
     <use x="2111.412109" xlink:href="#DejaVuSans-73"/>
     <use x="2163.511719" xlink:href="#DejaVuSans-73"/>
     <use x="2215.611328" xlink:href="#DejaVuSans-20"/>
     <use x="2247.398438" xlink:href="#DejaVuSans-73"/>
     <use x="2299.498047" xlink:href="#DejaVuSans-65"/>
     <use x="2361.021484" xlink:href="#DejaVuSans-63"/>
     <use x="2416.001953" xlink:href="#DejaVuSans-74"/>
     <use x="2455.210938" xlink:href="#DejaVuSans-69"/>
     <use x="2482.994141" xlink:href="#DejaVuSans-6f"/>
     <use x="2544.175781" xlink:href="#DejaVuSans-6e"/>
     <use x="2607.554688" xlink:href="#DejaVuSans-29"/>
     <use x="2646.568359" xlink:href="#DejaVuSans-20"/>
     <use x="2678.355469" xlink:href="#DejaVuSans-20"/>
    </g>
   </g>
   <g id="legend_1">
    <g id="patch_7">
     <path d="M 277.843437 108.1845 
L 407.72 108.1845 
Q 409.72 108.1845 409.72 106.1845 
L 409.72 48.472 
Q 409.72 46.472 407.72 46.472 
L 277.843437 46.472 
Q 275.843437 46.472 275.843437 48.472 
L 275.843437 106.1845 
Q 275.843437 108.1845 277.843437 108.1845 
z
" style="fill:#ffffff;opacity:0.8;stroke:#cccccc;stroke-linejoin:miter;"/>
    </g>
    <g id="line2d_16">
     <path d="M 279.843437 54.570438 
L 299.843437 54.570438 
" style="fill:none;stroke:#1f77b4;stroke-linecap:square;stroke-width:1.5;"/>
    </g>
    <g id="line2d_17"/>
    <g id="text_15">
     <!-- ground truth -->
     <defs>
      <path d="M 8.5 21.578125 
L 8.5 54.6875 
L 17.484375 54.6875 
L 17.484375 21.921875 
Q 17.484375 14.15625 20.5 10.265625 
Q 23.53125 6.390625 29.59375 6.390625 
Q 36.859375 6.390625 41.078125 11.03125 
Q 45.3125 15.671875 45.3125 23.6875 
L 45.3125 54.6875 
L 54.296875 54.6875 
L 54.296875 0 
L 45.3125 0 
L 45.3125 8.40625 
Q 42.046875 3.421875 37.71875 1 
Q 33.40625 -1.421875 27.6875 -1.421875 
Q 18.265625 -1.421875 13.375 4.4375 
Q 8.5 10.296875 8.5 21.578125 
z
M 31.109375 56 
z
" id="DejaVuSans-75"/>
     </defs>
     <g transform="translate(307.843437 58.070438)scale(0.1 -0.1)">
      <use xlink:href="#DejaVuSans-67"/>
      <use x="63.476562" xlink:href="#DejaVuSans-72"/>
      <use x="104.558594" xlink:href="#DejaVuSans-6f"/>
      <use x="165.740234" xlink:href="#DejaVuSans-75"/>
      <use x="229.119141" xlink:href="#DejaVuSans-6e"/>
      <use x="292.498047" xlink:href="#DejaVuSans-64"/>
      <use x="355.974609" xlink:href="#DejaVuSans-20"/>
      <use x="387.761719" xlink:href="#DejaVuSans-74"/>
      <use x="426.970703" xlink:href="#DejaVuSans-72"/>
      <use x="468.083984" xlink:href="#DejaVuSans-75"/>
      <use x="531.462891" xlink:href="#DejaVuSans-74"/>
      <use x="570.671875" xlink:href="#DejaVuSans-68"/>
     </g>
    </g>
    <g id="line2d_18">
     <path d="M 279.843437 69.248563 
L 299.843437 69.248563 
" style="fill:none;stroke:#ff7f0e;stroke-linecap:square;stroke-width:1.5;"/>
    </g>
    <g id="line2d_19"/>
    <g id="text_16">
     <!-- pred. (mean) -->
     <g transform="translate(307.843437 72.748563)scale(0.1 -0.1)">
      <use xlink:href="#DejaVuSans-70"/>
      <use x="63.476562" xlink:href="#DejaVuSans-72"/>
      <use x="104.558594" xlink:href="#DejaVuSans-65"/>
      <use x="166.082031" xlink:href="#DejaVuSans-64"/>
      <use x="229.558594" xlink:href="#DejaVuSans-2e"/>
      <use x="261.345703" xlink:href="#DejaVuSans-20"/>
      <use x="293.132812" xlink:href="#DejaVuSans-28"/>
      <use x="332.146484" xlink:href="#DejaVuSans-6d"/>
      <use x="429.558594" xlink:href="#DejaVuSans-65"/>
      <use x="491.082031" xlink:href="#DejaVuSans-61"/>
      <use x="552.361328" xlink:href="#DejaVuSans-6e"/>
      <use x="615.740234" xlink:href="#DejaVuSans-29"/>
     </g>
    </g>
    <g id="line2d_20">
     <path d="M 279.843437 83.926688 
L 299.843437 83.926688 
" style="fill:none;stroke:#2ca02c;stroke-linecap:square;stroke-width:1.5;"/>
    </g>
    <g id="line2d_21"/>
    <g id="text_17">
     <!-- pred.(5th percen.) -->
     <g transform="translate(307.843437 87.426688)scale(0.1 -0.1)">
      <use xlink:href="#DejaVuSans-70"/>
      <use x="63.476562" xlink:href="#DejaVuSans-72"/>
      <use x="104.558594" xlink:href="#DejaVuSans-65"/>
      <use x="166.082031" xlink:href="#DejaVuSans-64"/>
      <use x="229.558594" xlink:href="#DejaVuSans-2e"/>
      <use x="261.345703" xlink:href="#DejaVuSans-28"/>
      <use x="300.359375" xlink:href="#DejaVuSans-35"/>
      <use x="363.982422" xlink:href="#DejaVuSans-74"/>
      <use x="403.191406" xlink:href="#DejaVuSans-68"/>
      <use x="466.570312" xlink:href="#DejaVuSans-20"/>
      <use x="498.357422" xlink:href="#DejaVuSans-70"/>
      <use x="561.833984" xlink:href="#DejaVuSans-65"/>
      <use x="623.357422" xlink:href="#DejaVuSans-72"/>
      <use x="664.439453" xlink:href="#DejaVuSans-63"/>
      <use x="719.419922" xlink:href="#DejaVuSans-65"/>
      <use x="780.943359" xlink:href="#DejaVuSans-6e"/>
      <use x="844.322266" xlink:href="#DejaVuSans-2e"/>
      <use x="876.109375" xlink:href="#DejaVuSans-29"/>
     </g>
    </g>
    <g id="line2d_22">
     <path d="M 279.843437 98.604813 
L 299.843437 98.604813 
" style="fill:none;stroke:#d62728;stroke-linecap:square;stroke-width:1.5;"/>
    </g>
    <g id="line2d_23"/>
    <g id="text_18">
     <!-- pred.(95th percen.) -->
     <defs>
      <path d="M 10.984375 1.515625 
L 10.984375 10.5 
Q 14.703125 8.734375 18.5 7.8125 
Q 22.3125 6.890625 25.984375 6.890625 
Q 35.75 6.890625 40.890625 13.453125 
Q 46.046875 20.015625 46.78125 33.40625 
Q 43.953125 29.203125 39.59375 26.953125 
Q 35.25 24.703125 29.984375 24.703125 
Q 19.046875 24.703125 12.671875 31.3125 
Q 6.296875 37.9375 6.296875 49.421875 
Q 6.296875 60.640625 12.9375 67.421875 
Q 19.578125 74.21875 30.609375 74.21875 
Q 43.265625 74.21875 49.921875 64.515625 
Q 56.59375 54.828125 56.59375 36.375 
Q 56.59375 19.140625 48.40625 8.859375 
Q 40.234375 -1.421875 26.421875 -1.421875 
Q 22.703125 -1.421875 18.890625 -0.6875 
Q 15.09375 0.046875 10.984375 1.515625 
z
M 30.609375 32.421875 
Q 37.25 32.421875 41.125 36.953125 
Q 45.015625 41.5 45.015625 49.421875 
Q 45.015625 57.28125 41.125 61.84375 
Q 37.25 66.40625 30.609375 66.40625 
Q 23.96875 66.40625 20.09375 61.84375 
Q 16.21875 57.28125 16.21875 49.421875 
Q 16.21875 41.5 20.09375 36.953125 
Q 23.96875 32.421875 30.609375 32.421875 
z
" id="DejaVuSans-39"/>
     </defs>
     <g transform="translate(307.843437 102.104813)scale(0.1 -0.1)">
      <use xlink:href="#DejaVuSans-70"/>
      <use x="63.476562" xlink:href="#DejaVuSans-72"/>
      <use x="104.558594" xlink:href="#DejaVuSans-65"/>
      <use x="166.082031" xlink:href="#DejaVuSans-64"/>
      <use x="229.558594" xlink:href="#DejaVuSans-2e"/>
      <use x="261.345703" xlink:href="#DejaVuSans-28"/>
      <use x="300.359375" xlink:href="#DejaVuSans-39"/>
      <use x="363.982422" xlink:href="#DejaVuSans-35"/>
      <use x="427.605469" xlink:href="#DejaVuSans-74"/>
      <use x="466.814453" xlink:href="#DejaVuSans-68"/>
      <use x="530.193359" xlink:href="#DejaVuSans-20"/>
      <use x="561.980469" xlink:href="#DejaVuSans-70"/>
      <use x="625.457031" xlink:href="#DejaVuSans-65"/>
      <use x="686.980469" xlink:href="#DejaVuSans-72"/>
      <use x="728.0625" xlink:href="#DejaVuSans-63"/>
      <use x="783.042969" xlink:href="#DejaVuSans-65"/>
      <use x="844.566406" xlink:href="#DejaVuSans-6e"/>
      <use x="907.945312" xlink:href="#DejaVuSans-2e"/>
      <use x="939.732422" xlink:href="#DejaVuSans-29"/>
     </g>
    </g>
   </g>
  </g>
 </g>
 <defs>
  <clipPath id="p079e8e898c">
   <rect height="266.112" width="357.12" x="57.6" y="41.472"/>
  </clipPath>
 </defs>
</svg>
