<?xml version="1.0" encoding="utf-8" standalone="no"?>
<!DOCTYPE svg PUBLIC "-//W3C//DTD SVG 1.1//EN"
  "http://www.w3.org/Graphics/SVG/1.1/DTD/svg11.dtd">
<!-- Created with matplotlib (http://matplotlib.org/) -->
<svg height="345pt" version="1.1" viewBox="0 0 460 345" width="460pt" xmlns="http://www.w3.org/2000/svg" xmlns:xlink="http://www.w3.org/1999/xlink">
 <defs>
  <style type="text/css">
*{stroke-linecap:butt;stroke-linejoin:round;}
  </style>
 </defs>
 <g id="figure_1">
  <g id="patch_1">
   <path d="M 0 345.6 
L 460.8 345.6 
L 460.8 0 
L 0 0 
z
" style="fill:#ffffff;"/>
  </g>
  <g id="axes_1">
   <g id="patch_2">
    <path d="M 57.6 307.584 
L 414.72 307.584 
L 414.72 41.472 
L 57.6 41.472 
z
" style="fill:#ffffff;"/>
   </g>
   <g id="PolyCollection_1">
    <path clip-path="url(#p469b116a62)" d="M 73.832727 291.130818 
L 73.832727 291.130818 
L 76.49383 291.106881 
L 79.154933 291.075051 
L 81.816036 291.049503 
L 84.477139 290.953954 
L 87.138241 290.845529 
L 89.799344 290.61581 
L 92.460447 289.851447 
L 95.12155 289.458539 
L 97.782653 288.975844 
L 100.443756 289.225608 
L 103.104858 289.220957 
L 105.765961 288.992826 
L 108.427064 288.086508 
L 111.088167 287.461124 
L 113.74927 287.175736 
L 116.410373 284.767133 
L 119.071475 280.468829 
L 121.732578 278.37544 
L 124.393681 276.04094 
L 127.054784 269.946182 
L 129.715887 261.575046 
L 132.37699 254.943118 
L 135.038092 248.358875 
L 137.699195 240.17222 
L 140.360298 226.693207 
L 143.021401 220.125521 
L 145.682504 205.759837 
L 148.343607 197.772612 
L 151.004709 188.309181 
L 153.665812 178.218011 
L 156.326915 169.492056 
L 158.988018 157.678075 
L 161.649121 155.205303 
L 164.310224 138.454238 
L 166.971326 117.285296 
L 169.632429 101.459204 
L 172.293532 82.039709 
L 174.954635 65.182789 
L 177.615738 59.831568 
L 180.276841 60.920576 
L 182.937943 66.829957 
L 185.599046 71.981649 
L 188.260149 75.554341 
L 190.921252 79.315461 
L 193.582355 83.13499 
L 196.243458 84.854748 
L 198.90456 86.590149 
L 201.565663 87.126453 
L 204.226766 87.762251 
L 206.887869 88.322484 
L 209.548972 88.658238 
L 212.210075 88.934075 
L 214.871177 89.463071 
L 217.53228 89.44609 
L 220.193383 89.778184 
L 222.854486 90.753021 
L 225.515589 90.51057 
L 228.176692 89.749237 
L 230.837794 90.443869 
L 233.498897 93.418484 
L 236.16 108.136094 
L 238.821103 114.030269 
L 241.482206 105.278287 
L 244.143308 100.299858 
L 246.804411 92.939278 
L 249.465514 89.629344 
L 252.126617 89.983781 
L 254.78772 91.320755 
L 257.448823 92.946958 
L 260.109925 98.833123 
L 262.771028 104.66276 
L 265.432131 113.303855 
L 268.093234 100.57808 
L 270.754337 99.780738 
L 273.41544 91.34301 
L 276.076542 89.536972 
L 278.737645 88.512491 
L 281.398748 87.621578 
L 284.059851 86.123988 
L 286.720954 84.074294 
L 289.382057 83.141122 
L 292.043159 80.812763 
L 294.704262 77.413709 
L 297.365365 72.387313 
L 300.026468 66.575127 
L 302.687571 62.91255 
L 305.348674 64.063238 
L 308.009776 78.00611 
L 310.670879 105.141558 
L 313.331982 125.01017 
L 315.993085 131.343313 
L 318.654188 142.742358 
L 321.315291 164.388881 
L 323.976393 183.490419 
L 326.637496 190.601136 
L 329.298599 201.331793 
L 331.959702 217.843582 
L 334.620805 237.86576 
L 337.281908 244.849114 
L 339.94301 251.722682 
L 342.604113 251.630516 
L 345.265216 264.656883 
L 347.926319 269.286263 
L 350.587422 274.325554 
L 353.248525 279.030135 
L 355.909627 281.380626 
L 358.57073 285.190114 
L 361.231833 287.352127 
L 363.892936 287.534547 
L 366.554039 289.118301 
L 369.215142 289.622766 
L 371.876244 289.887178 
L 374.537347 290.146693 
L 377.19845 289.770049 
L 379.859553 289.886567 
L 382.520656 290.260291 
L 385.181759 290.428411 
L 387.842861 290.441262 
L 390.503964 290.733394 
L 393.165067 290.818616 
L 395.82617 290.860861 
L 398.487273 290.885782 
L 398.487273 290.885782 
L 398.487273 290.885782 
L 395.82617 290.860861 
L 393.165067 290.800291 
L 390.503964 290.681301 
L 387.842861 290.272311 
L 385.181759 290.253816 
L 382.520656 290.001411 
L 379.859553 289.453136 
L 377.19845 289.226136 
L 374.537347 289.538847 
L 371.876244 289.104982 
L 369.215142 288.639589 
L 366.554039 287.649823 
L 363.892936 285.478114 
L 361.231833 284.870301 
L 358.57073 281.983081 
L 355.909627 277.578754 
L 353.248525 274.530796 
L 350.587422 268.597617 
L 347.926319 262.800502 
L 345.265216 257.568749 
L 342.604113 243.625275 
L 339.94301 242.494769 
L 337.281908 234.275143 
L 334.620805 226.748505 
L 331.959702 206.919766 
L 329.298599 190.935668 
L 326.637496 176.481262 
L 323.976393 163.164147 
L 321.315291 145.037681 
L 318.654188 126.793093 
L 315.993085 113.402981 
L 313.331982 101.300734 
L 310.670879 84.684548 
L 308.009776 64.953894 
L 305.348674 57.231975 
L 302.687571 58.32096 
L 300.026468 63.116058 
L 297.365365 68.69563 
L 294.704262 74.068926 
L 292.043159 77.901758 
L 289.382057 80.713062 
L 286.720954 82.427216 
L 284.059851 84.927603 
L 281.398748 86.720097 
L 278.737645 87.678165 
L 276.076542 88.289477 
L 273.41544 88.666099 
L 270.754337 88.995619 
L 268.093234 89.06279 
L 265.432131 89.454753 
L 262.771028 89.104228 
L 260.109925 88.972702 
L 257.448823 88.878522 
L 254.78772 88.886062 
L 252.126617 88.880011 
L 249.465514 88.857078 
L 246.804411 88.90312 
L 244.143308 89.152466 
L 241.482206 89.274704 
L 238.821103 89.770299 
L 236.16 89.359841 
L 233.498897 88.911178 
L 230.837794 88.849744 
L 228.176692 88.82479 
L 225.515589 88.837201 
L 222.854486 88.855738 
L 220.193383 88.822226 
L 217.53228 88.809453 
L 214.871177 88.803828 
L 212.210075 88.688447 
L 209.548972 88.439619 
L 206.887869 88.018082 
L 204.226766 87.288808 
L 201.565663 86.331553 
L 198.90456 85.41706 
L 196.243458 83.036365 
L 193.582355 80.591423 
L 190.921252 76.279666 
L 188.260149 72.314794 
L 185.599046 68.617932 
L 182.937943 63.537168 
L 180.276841 57.682276 
L 177.615738 54.861817 
L 174.954635 56.989551 
L 172.293532 69.281196 
L 169.632429 86.245688 
L 166.971326 100.417298 
L 164.310224 119.889673 
L 161.649121 137.306485 
L 158.988018 143.011939 
L 156.326915 157.341048 
L 153.665812 166.210156 
L 151.004709 177.645014 
L 148.343607 188.19374 
L 145.682504 196.490762 
L 143.021401 211.040899 
L 140.360298 218.210935 
L 137.699195 231.993534 
L 135.038092 240.077149 
L 132.37699 247.259415 
L 129.715887 255.267325 
L 127.054784 264.145483 
L 124.393681 271.290534 
L 121.732578 274.362685 
L 119.071475 277.215036 
L 116.410373 282.413123 
L 113.74927 285.315725 
L 111.088167 286.037197 
L 108.427064 286.997447 
L 105.765961 288.162701 
L 103.104858 288.46627 
L 100.443756 288.5883 
L 97.782653 288.510543 
L 95.12155 289.108788 
L 92.460447 289.571169 
L 89.799344 290.47179 
L 87.138241 290.745187 
L 84.477139 290.896955 
L 81.816036 291.046238 
L 79.154933 291.073691 
L 76.49383 291.104095 
L 73.832727 291.130818 
z
" style="fill:#008000;fill-opacity:0.4;"/>
   </g>
   <g id="matplotlib.axis_1">
    <g id="xtick_1">
     <g id="line2d_1">
      <defs>
       <path d="M 0 0 
L 0 3.5 
" id="m52c2ccc27b" style="stroke:#000000;stroke-width:0.8;"/>
      </defs>
      <g>
       <use style="stroke:#000000;stroke-width:0.8;" x="73.832727" xlink:href="#m52c2ccc27b" y="307.584"/>
      </g>
     </g>
     <g id="text_1">
      <!-- 0.00 -->
      <defs>
       <path d="M 31.78125 66.40625 
Q 24.171875 66.40625 20.328125 58.90625 
Q 16.5 51.421875 16.5 36.375 
Q 16.5 21.390625 20.328125 13.890625 
Q 24.171875 6.390625 31.78125 6.390625 
Q 39.453125 6.390625 43.28125 13.890625 
Q 47.125 21.390625 47.125 36.375 
Q 47.125 51.421875 43.28125 58.90625 
Q 39.453125 66.40625 31.78125 66.40625 
z
M 31.78125 74.21875 
Q 44.046875 74.21875 50.515625 64.515625 
Q 56.984375 54.828125 56.984375 36.375 
Q 56.984375 17.96875 50.515625 8.265625 
Q 44.046875 -1.421875 31.78125 -1.421875 
Q 19.53125 -1.421875 13.0625 8.265625 
Q 6.59375 17.96875 6.59375 36.375 
Q 6.59375 54.828125 13.0625 64.515625 
Q 19.53125 74.21875 31.78125 74.21875 
z
" id="DejaVuSans-30"/>
       <path d="M 10.6875 12.40625 
L 21 12.40625 
L 21 0 
L 10.6875 0 
z
" id="DejaVuSans-2e"/>
      </defs>
      <g transform="translate(62.699915 322.182437)scale(0.1 -0.1)">
       <use xlink:href="#DejaVuSans-30"/>
       <use x="63.623047" xlink:href="#DejaVuSans-2e"/>
       <use x="95.410156" xlink:href="#DejaVuSans-30"/>
       <use x="159.033203" xlink:href="#DejaVuSans-30"/>
      </g>
     </g>
    </g>
    <g id="xtick_2">
     <g id="line2d_2">
      <g>
       <use style="stroke:#000000;stroke-width:0.8;" x="139.819424" xlink:href="#m52c2ccc27b" y="307.584"/>
      </g>
     </g>
     <g id="text_2">
      <!-- 0.05 -->
      <defs>
       <path d="M 10.796875 72.90625 
L 49.515625 72.90625 
L 49.515625 64.59375 
L 19.828125 64.59375 
L 19.828125 46.734375 
Q 21.96875 47.46875 24.109375 47.828125 
Q 26.265625 48.1875 28.421875 48.1875 
Q 40.625 48.1875 47.75 41.5 
Q 54.890625 34.8125 54.890625 23.390625 
Q 54.890625 11.625 47.5625 5.09375 
Q 40.234375 -1.421875 26.90625 -1.421875 
Q 22.3125 -1.421875 17.546875 -0.640625 
Q 12.796875 0.140625 7.71875 1.703125 
L 7.71875 11.625 
Q 12.109375 9.234375 16.796875 8.0625 
Q 21.484375 6.890625 26.703125 6.890625 
Q 35.15625 6.890625 40.078125 11.328125 
Q 45.015625 15.765625 45.015625 23.390625 
Q 45.015625 31 40.078125 35.4375 
Q 35.15625 39.890625 26.703125 39.890625 
Q 22.75 39.890625 18.8125 39.015625 
Q 14.890625 38.140625 10.796875 36.28125 
z
" id="DejaVuSans-35"/>
      </defs>
      <g transform="translate(128.686611 322.182437)scale(0.1 -0.1)">
       <use xlink:href="#DejaVuSans-30"/>
       <use x="63.623047" xlink:href="#DejaVuSans-2e"/>
       <use x="95.410156" xlink:href="#DejaVuSans-30"/>
       <use x="159.033203" xlink:href="#DejaVuSans-35"/>
      </g>
     </g>
    </g>
    <g id="xtick_3">
     <g id="line2d_3">
      <g>
       <use style="stroke:#000000;stroke-width:0.8;" x="205.80612" xlink:href="#m52c2ccc27b" y="307.584"/>
      </g>
     </g>
     <g id="text_3">
      <!-- 0.10 -->
      <defs>
       <path d="M 12.40625 8.296875 
L 28.515625 8.296875 
L 28.515625 63.921875 
L 10.984375 60.40625 
L 10.984375 69.390625 
L 28.421875 72.90625 
L 38.28125 72.90625 
L 38.28125 8.296875 
L 54.390625 8.296875 
L 54.390625 0 
L 12.40625 0 
z
" id="DejaVuSans-31"/>
      </defs>
      <g transform="translate(194.673307 322.182437)scale(0.1 -0.1)">
       <use xlink:href="#DejaVuSans-30"/>
       <use x="63.623047" xlink:href="#DejaVuSans-2e"/>
       <use x="95.410156" xlink:href="#DejaVuSans-31"/>
       <use x="159.033203" xlink:href="#DejaVuSans-30"/>
      </g>
     </g>
    </g>
    <g id="xtick_4">
     <g id="line2d_4">
      <g>
       <use style="stroke:#000000;stroke-width:0.8;" x="271.792816" xlink:href="#m52c2ccc27b" y="307.584"/>
      </g>
     </g>
     <g id="text_4">
      <!-- 0.15 -->
      <g transform="translate(260.660003 322.182437)scale(0.1 -0.1)">
       <use xlink:href="#DejaVuSans-30"/>
       <use x="63.623047" xlink:href="#DejaVuSans-2e"/>
       <use x="95.410156" xlink:href="#DejaVuSans-31"/>
       <use x="159.033203" xlink:href="#DejaVuSans-35"/>
      </g>
     </g>
    </g>
    <g id="xtick_5">
     <g id="line2d_5">
      <g>
       <use style="stroke:#000000;stroke-width:0.8;" x="337.779512" xlink:href="#m52c2ccc27b" y="307.584"/>
      </g>
     </g>
     <g id="text_5">
      <!-- 0.20 -->
      <defs>
       <path d="M 19.1875 8.296875 
L 53.609375 8.296875 
L 53.609375 0 
L 7.328125 0 
L 7.328125 8.296875 
Q 12.9375 14.109375 22.625 23.890625 
Q 32.328125 33.6875 34.8125 36.53125 
Q 39.546875 41.84375 41.421875 45.53125 
Q 43.3125 49.21875 43.3125 52.78125 
Q 43.3125 58.59375 39.234375 62.25 
Q 35.15625 65.921875 28.609375 65.921875 
Q 23.96875 65.921875 18.8125 64.3125 
Q 13.671875 62.703125 7.8125 59.421875 
L 7.8125 69.390625 
Q 13.765625 71.78125 18.9375 73 
Q 24.125 74.21875 28.421875 74.21875 
Q 39.75 74.21875 46.484375 68.546875 
Q 53.21875 62.890625 53.21875 53.421875 
Q 53.21875 48.921875 51.53125 44.890625 
Q 49.859375 40.875 45.40625 35.40625 
Q 44.1875 33.984375 37.640625 27.21875 
Q 31.109375 20.453125 19.1875 8.296875 
z
" id="DejaVuSans-32"/>
      </defs>
      <g transform="translate(326.6467 322.182437)scale(0.1 -0.1)">
       <use xlink:href="#DejaVuSans-30"/>
       <use x="63.623047" xlink:href="#DejaVuSans-2e"/>
       <use x="95.410156" xlink:href="#DejaVuSans-32"/>
       <use x="159.033203" xlink:href="#DejaVuSans-30"/>
      </g>
     </g>
    </g>
    <g id="xtick_6">
     <g id="line2d_6">
      <g>
       <use style="stroke:#000000;stroke-width:0.8;" x="403.766208" xlink:href="#m52c2ccc27b" y="307.584"/>
      </g>
     </g>
     <g id="text_6">
      <!-- 0.25 -->
      <g transform="translate(392.633396 322.182437)scale(0.1 -0.1)">
       <use xlink:href="#DejaVuSans-30"/>
       <use x="63.623047" xlink:href="#DejaVuSans-2e"/>
       <use x="95.410156" xlink:href="#DejaVuSans-32"/>
       <use x="159.033203" xlink:href="#DejaVuSans-35"/>
      </g>
     </g>
    </g>
    <g id="text_7">
     <!--  Distance (km)  -->
     <defs>
      <path id="DejaVuSans-20"/>
      <path d="M 19.671875 64.796875 
L 19.671875 8.109375 
L 31.59375 8.109375 
Q 46.6875 8.109375 53.6875 14.9375 
Q 60.6875 21.78125 60.6875 36.53125 
Q 60.6875 51.171875 53.6875 57.984375 
Q 46.6875 64.796875 31.59375 64.796875 
z
M 9.8125 72.90625 
L 30.078125 72.90625 
Q 51.265625 72.90625 61.171875 64.09375 
Q 71.09375 55.28125 71.09375 36.53125 
Q 71.09375 17.671875 61.125 8.828125 
Q 51.171875 0 30.078125 0 
L 9.8125 0 
z
" id="DejaVuSans-44"/>
      <path d="M 9.421875 54.6875 
L 18.40625 54.6875 
L 18.40625 0 
L 9.421875 0 
z
M 9.421875 75.984375 
L 18.40625 75.984375 
L 18.40625 64.59375 
L 9.421875 64.59375 
z
" id="DejaVuSans-69"/>
      <path d="M 44.28125 53.078125 
L 44.28125 44.578125 
Q 40.484375 46.53125 36.375 47.5 
Q 32.28125 48.484375 27.875 48.484375 
Q 21.1875 48.484375 17.84375 46.4375 
Q 14.5 44.390625 14.5 40.28125 
Q 14.5 37.15625 16.890625 35.375 
Q 19.28125 33.59375 26.515625 31.984375 
L 29.59375 31.296875 
Q 39.15625 29.25 43.1875 25.515625 
Q 47.21875 21.78125 47.21875 15.09375 
Q 47.21875 7.46875 41.1875 3.015625 
Q 35.15625 -1.421875 24.609375 -1.421875 
Q 20.21875 -1.421875 15.453125 -0.5625 
Q 10.6875 0.296875 5.421875 2 
L 5.421875 11.28125 
Q 10.40625 8.6875 15.234375 7.390625 
Q 20.0625 6.109375 24.8125 6.109375 
Q 31.15625 6.109375 34.5625 8.28125 
Q 37.984375 10.453125 37.984375 14.40625 
Q 37.984375 18.0625 35.515625 20.015625 
Q 33.0625 21.96875 24.703125 23.78125 
L 21.578125 24.515625 
Q 13.234375 26.265625 9.515625 29.90625 
Q 5.8125 33.546875 5.8125 39.890625 
Q 5.8125 47.609375 11.28125 51.796875 
Q 16.75 56 26.8125 56 
Q 31.78125 56 36.171875 55.265625 
Q 40.578125 54.546875 44.28125 53.078125 
z
" id="DejaVuSans-73"/>
      <path d="M 18.3125 70.21875 
L 18.3125 54.6875 
L 36.8125 54.6875 
L 36.8125 47.703125 
L 18.3125 47.703125 
L 18.3125 18.015625 
Q 18.3125 11.328125 20.140625 9.421875 
Q 21.96875 7.515625 27.59375 7.515625 
L 36.8125 7.515625 
L 36.8125 0 
L 27.59375 0 
Q 17.1875 0 13.234375 3.875 
Q 9.28125 7.765625 9.28125 18.015625 
L 9.28125 47.703125 
L 2.6875 47.703125 
L 2.6875 54.6875 
L 9.28125 54.6875 
L 9.28125 70.21875 
z
" id="DejaVuSans-74"/>
      <path d="M 34.28125 27.484375 
Q 23.390625 27.484375 19.1875 25 
Q 14.984375 22.515625 14.984375 16.5 
Q 14.984375 11.71875 18.140625 8.90625 
Q 21.296875 6.109375 26.703125 6.109375 
Q 34.1875 6.109375 38.703125 11.40625 
Q 43.21875 16.703125 43.21875 25.484375 
L 43.21875 27.484375 
z
M 52.203125 31.203125 
L 52.203125 0 
L 43.21875 0 
L 43.21875 8.296875 
Q 40.140625 3.328125 35.546875 0.953125 
Q 30.953125 -1.421875 24.3125 -1.421875 
Q 15.921875 -1.421875 10.953125 3.296875 
Q 6 8.015625 6 15.921875 
Q 6 25.140625 12.171875 29.828125 
Q 18.359375 34.515625 30.609375 34.515625 
L 43.21875 34.515625 
L 43.21875 35.40625 
Q 43.21875 41.609375 39.140625 45 
Q 35.0625 48.390625 27.6875 48.390625 
Q 23 48.390625 18.546875 47.265625 
Q 14.109375 46.140625 10.015625 43.890625 
L 10.015625 52.203125 
Q 14.9375 54.109375 19.578125 55.046875 
Q 24.21875 56 28.609375 56 
Q 40.484375 56 46.34375 49.84375 
Q 52.203125 43.703125 52.203125 31.203125 
z
" id="DejaVuSans-61"/>
      <path d="M 54.890625 33.015625 
L 54.890625 0 
L 45.90625 0 
L 45.90625 32.71875 
Q 45.90625 40.484375 42.875 44.328125 
Q 39.84375 48.1875 33.796875 48.1875 
Q 26.515625 48.1875 22.3125 43.546875 
Q 18.109375 38.921875 18.109375 30.90625 
L 18.109375 0 
L 9.078125 0 
L 9.078125 54.6875 
L 18.109375 54.6875 
L 18.109375 46.1875 
Q 21.34375 51.125 25.703125 53.5625 
Q 30.078125 56 35.796875 56 
Q 45.21875 56 50.046875 50.171875 
Q 54.890625 44.34375 54.890625 33.015625 
z
" id="DejaVuSans-6e"/>
      <path d="M 48.78125 52.59375 
L 48.78125 44.1875 
Q 44.96875 46.296875 41.140625 47.34375 
Q 37.3125 48.390625 33.40625 48.390625 
Q 24.65625 48.390625 19.8125 42.84375 
Q 14.984375 37.3125 14.984375 27.296875 
Q 14.984375 17.28125 19.8125 11.734375 
Q 24.65625 6.203125 33.40625 6.203125 
Q 37.3125 6.203125 41.140625 7.25 
Q 44.96875 8.296875 48.78125 10.40625 
L 48.78125 2.09375 
Q 45.015625 0.34375 40.984375 -0.53125 
Q 36.96875 -1.421875 32.421875 -1.421875 
Q 20.0625 -1.421875 12.78125 6.34375 
Q 5.515625 14.109375 5.515625 27.296875 
Q 5.515625 40.671875 12.859375 48.328125 
Q 20.21875 56 33.015625 56 
Q 37.15625 56 41.109375 55.140625 
Q 45.0625 54.296875 48.78125 52.59375 
z
" id="DejaVuSans-63"/>
      <path d="M 56.203125 29.59375 
L 56.203125 25.203125 
L 14.890625 25.203125 
Q 15.484375 15.921875 20.484375 11.0625 
Q 25.484375 6.203125 34.421875 6.203125 
Q 39.59375 6.203125 44.453125 7.46875 
Q 49.3125 8.734375 54.109375 11.28125 
L 54.109375 2.78125 
Q 49.265625 0.734375 44.1875 -0.34375 
Q 39.109375 -1.421875 33.890625 -1.421875 
Q 20.796875 -1.421875 13.15625 6.1875 
Q 5.515625 13.8125 5.515625 26.8125 
Q 5.515625 40.234375 12.765625 48.109375 
Q 20.015625 56 32.328125 56 
Q 43.359375 56 49.78125 48.890625 
Q 56.203125 41.796875 56.203125 29.59375 
z
M 47.21875 32.234375 
Q 47.125 39.59375 43.09375 43.984375 
Q 39.0625 48.390625 32.421875 48.390625 
Q 24.90625 48.390625 20.390625 44.140625 
Q 15.875 39.890625 15.1875 32.171875 
z
" id="DejaVuSans-65"/>
      <path d="M 31 75.875 
Q 24.46875 64.65625 21.28125 53.65625 
Q 18.109375 42.671875 18.109375 31.390625 
Q 18.109375 20.125 21.3125 9.0625 
Q 24.515625 -2 31 -13.1875 
L 23.1875 -13.1875 
Q 15.875 -1.703125 12.234375 9.375 
Q 8.59375 20.453125 8.59375 31.390625 
Q 8.59375 42.28125 12.203125 53.3125 
Q 15.828125 64.359375 23.1875 75.875 
z
" id="DejaVuSans-28"/>
      <path d="M 9.078125 75.984375 
L 18.109375 75.984375 
L 18.109375 31.109375 
L 44.921875 54.6875 
L 56.390625 54.6875 
L 27.390625 29.109375 
L 57.625 0 
L 45.90625 0 
L 18.109375 26.703125 
L 18.109375 0 
L 9.078125 0 
z
" id="DejaVuSans-6b"/>
      <path d="M 52 44.1875 
Q 55.375 50.25 60.0625 53.125 
Q 64.75 56 71.09375 56 
Q 79.640625 56 84.28125 50.015625 
Q 88.921875 44.046875 88.921875 33.015625 
L 88.921875 0 
L 79.890625 0 
L 79.890625 32.71875 
Q 79.890625 40.578125 77.09375 44.375 
Q 74.3125 48.1875 68.609375 48.1875 
Q 61.625 48.1875 57.5625 43.546875 
Q 53.515625 38.921875 53.515625 30.90625 
L 53.515625 0 
L 44.484375 0 
L 44.484375 32.71875 
Q 44.484375 40.625 41.703125 44.40625 
Q 38.921875 48.1875 33.109375 48.1875 
Q 26.21875 48.1875 22.15625 43.53125 
Q 18.109375 38.875 18.109375 30.90625 
L 18.109375 0 
L 9.078125 0 
L 9.078125 54.6875 
L 18.109375 54.6875 
L 18.109375 46.1875 
Q 21.1875 51.21875 25.484375 53.609375 
Q 29.78125 56 35.6875 56 
Q 41.65625 56 45.828125 52.96875 
Q 50 49.953125 52 44.1875 
z
" id="DejaVuSans-6d"/>
      <path d="M 8.015625 75.875 
L 15.828125 75.875 
Q 23.140625 64.359375 26.78125 53.3125 
Q 30.421875 42.28125 30.421875 31.390625 
Q 30.421875 20.453125 26.78125 9.375 
Q 23.140625 -1.703125 15.828125 -13.1875 
L 8.015625 -13.1875 
Q 14.5 -2 17.703125 9.0625 
Q 20.90625 20.125 20.90625 31.390625 
Q 20.90625 42.671875 17.703125 53.65625 
Q 14.5 64.65625 8.015625 75.875 
z
" id="DejaVuSans-29"/>
     </defs>
     <g transform="translate(197.863125 335.860562)scale(0.1 -0.1)">
      <use xlink:href="#DejaVuSans-20"/>
      <use x="31.787109" xlink:href="#DejaVuSans-44"/>
      <use x="108.789062" xlink:href="#DejaVuSans-69"/>
      <use x="136.572266" xlink:href="#DejaVuSans-73"/>
      <use x="188.671875" xlink:href="#DejaVuSans-74"/>
      <use x="227.880859" xlink:href="#DejaVuSans-61"/>
      <use x="289.160156" xlink:href="#DejaVuSans-6e"/>
      <use x="352.539062" xlink:href="#DejaVuSans-63"/>
      <use x="407.519531" xlink:href="#DejaVuSans-65"/>
      <use x="469.042969" xlink:href="#DejaVuSans-20"/>
      <use x="500.830078" xlink:href="#DejaVuSans-28"/>
      <use x="539.84375" xlink:href="#DejaVuSans-6b"/>
      <use x="597.753906" xlink:href="#DejaVuSans-6d"/>
      <use x="695.166016" xlink:href="#DejaVuSans-29"/>
      <use x="734.179688" xlink:href="#DejaVuSans-20"/>
     </g>
    </g>
   </g>
   <g id="matplotlib.axis_2">
    <g id="ytick_1">
     <g id="line2d_7">
      <defs>
       <path d="M 0 0 
L -3.5 0 
" id="m7333a5f74b" style="stroke:#000000;stroke-width:0.8;"/>
      </defs>
      <g>
       <use style="stroke:#000000;stroke-width:0.8;" x="57.6" xlink:href="#m7333a5f74b" y="305.920261"/>
      </g>
     </g>
     <g id="text_8">
      <!-- 20 -->
      <g transform="translate(37.875 309.71948)scale(0.1 -0.1)">
       <use xlink:href="#DejaVuSans-32"/>
       <use x="63.623047" xlink:href="#DejaVuSans-30"/>
      </g>
     </g>
    </g>
    <g id="ytick_2">
     <g id="line2d_8">
      <g>
       <use style="stroke:#000000;stroke-width:0.8;" x="57.6" xlink:href="#m7333a5f74b" y="249.590254"/>
      </g>
     </g>
     <g id="text_9">
      <!-- 40 -->
      <defs>
       <path d="M 37.796875 64.3125 
L 12.890625 25.390625 
L 37.796875 25.390625 
z
M 35.203125 72.90625 
L 47.609375 72.90625 
L 47.609375 25.390625 
L 58.015625 25.390625 
L 58.015625 17.1875 
L 47.609375 17.1875 
L 47.609375 0 
L 37.796875 0 
L 37.796875 17.1875 
L 4.890625 17.1875 
L 4.890625 26.703125 
z
" id="DejaVuSans-34"/>
      </defs>
      <g transform="translate(37.875 253.389473)scale(0.1 -0.1)">
       <use xlink:href="#DejaVuSans-34"/>
       <use x="63.623047" xlink:href="#DejaVuSans-30"/>
      </g>
     </g>
    </g>
    <g id="ytick_3">
     <g id="line2d_9">
      <g>
       <use style="stroke:#000000;stroke-width:0.8;" x="57.6" xlink:href="#m7333a5f74b" y="193.260248"/>
      </g>
     </g>
     <g id="text_10">
      <!-- 60 -->
      <defs>
       <path d="M 33.015625 40.375 
Q 26.375 40.375 22.484375 35.828125 
Q 18.609375 31.296875 18.609375 23.390625 
Q 18.609375 15.53125 22.484375 10.953125 
Q 26.375 6.390625 33.015625 6.390625 
Q 39.65625 6.390625 43.53125 10.953125 
Q 47.40625 15.53125 47.40625 23.390625 
Q 47.40625 31.296875 43.53125 35.828125 
Q 39.65625 40.375 33.015625 40.375 
z
M 52.59375 71.296875 
L 52.59375 62.3125 
Q 48.875 64.0625 45.09375 64.984375 
Q 41.3125 65.921875 37.59375 65.921875 
Q 27.828125 65.921875 22.671875 59.328125 
Q 17.53125 52.734375 16.796875 39.40625 
Q 19.671875 43.65625 24.015625 45.921875 
Q 28.375 48.1875 33.59375 48.1875 
Q 44.578125 48.1875 50.953125 41.515625 
Q 57.328125 34.859375 57.328125 23.390625 
Q 57.328125 12.15625 50.6875 5.359375 
Q 44.046875 -1.421875 33.015625 -1.421875 
Q 20.359375 -1.421875 13.671875 8.265625 
Q 6.984375 17.96875 6.984375 36.375 
Q 6.984375 53.65625 15.1875 63.9375 
Q 23.390625 74.21875 37.203125 74.21875 
Q 40.921875 74.21875 44.703125 73.484375 
Q 48.484375 72.75 52.59375 71.296875 
z
" id="DejaVuSans-36"/>
      </defs>
      <g transform="translate(37.875 197.059467)scale(0.1 -0.1)">
       <use xlink:href="#DejaVuSans-36"/>
       <use x="63.623047" xlink:href="#DejaVuSans-30"/>
      </g>
     </g>
    </g>
    <g id="ytick_4">
     <g id="line2d_10">
      <g>
       <use style="stroke:#000000;stroke-width:0.8;" x="57.6" xlink:href="#m7333a5f74b" y="136.930241"/>
      </g>
     </g>
     <g id="text_11">
      <!-- 80 -->
      <defs>
       <path d="M 31.78125 34.625 
Q 24.75 34.625 20.71875 30.859375 
Q 16.703125 27.09375 16.703125 20.515625 
Q 16.703125 13.921875 20.71875 10.15625 
Q 24.75 6.390625 31.78125 6.390625 
Q 38.8125 6.390625 42.859375 10.171875 
Q 46.921875 13.96875 46.921875 20.515625 
Q 46.921875 27.09375 42.890625 30.859375 
Q 38.875 34.625 31.78125 34.625 
z
M 21.921875 38.8125 
Q 15.578125 40.375 12.03125 44.71875 
Q 8.5 49.078125 8.5 55.328125 
Q 8.5 64.0625 14.71875 69.140625 
Q 20.953125 74.21875 31.78125 74.21875 
Q 42.671875 74.21875 48.875 69.140625 
Q 55.078125 64.0625 55.078125 55.328125 
Q 55.078125 49.078125 51.53125 44.71875 
Q 48 40.375 41.703125 38.8125 
Q 48.828125 37.15625 52.796875 32.3125 
Q 56.78125 27.484375 56.78125 20.515625 
Q 56.78125 9.90625 50.3125 4.234375 
Q 43.84375 -1.421875 31.78125 -1.421875 
Q 19.734375 -1.421875 13.25 4.234375 
Q 6.78125 9.90625 6.78125 20.515625 
Q 6.78125 27.484375 10.78125 32.3125 
Q 14.796875 37.15625 21.921875 38.8125 
z
M 18.3125 54.390625 
Q 18.3125 48.734375 21.84375 45.5625 
Q 25.390625 42.390625 31.78125 42.390625 
Q 38.140625 42.390625 41.71875 45.5625 
Q 45.3125 48.734375 45.3125 54.390625 
Q 45.3125 60.0625 41.71875 63.234375 
Q 38.140625 66.40625 31.78125 66.40625 
Q 25.390625 66.40625 21.84375 63.234375 
Q 18.3125 60.0625 18.3125 54.390625 
z
" id="DejaVuSans-38"/>
      </defs>
      <g transform="translate(37.875 140.72946)scale(0.1 -0.1)">
       <use xlink:href="#DejaVuSans-38"/>
       <use x="63.623047" xlink:href="#DejaVuSans-30"/>
      </g>
     </g>
    </g>
    <g id="ytick_5">
     <g id="line2d_11">
      <g>
       <use style="stroke:#000000;stroke-width:0.8;" x="57.6" xlink:href="#m7333a5f74b" y="80.600235"/>
      </g>
     </g>
     <g id="text_12">
      <!-- 100 -->
      <g transform="translate(31.5125 84.399454)scale(0.1 -0.1)">
       <use xlink:href="#DejaVuSans-31"/>
       <use x="63.623047" xlink:href="#DejaVuSans-30"/>
       <use x="127.246094" xlink:href="#DejaVuSans-30"/>
      </g>
     </g>
    </g>
    <g id="text_13">
     <!--  Height in meters -->
     <defs>
      <path d="M 9.8125 72.90625 
L 19.671875 72.90625 
L 19.671875 43.015625 
L 55.515625 43.015625 
L 55.515625 72.90625 
L 65.375 72.90625 
L 65.375 0 
L 55.515625 0 
L 55.515625 34.71875 
L 19.671875 34.71875 
L 19.671875 0 
L 9.8125 0 
z
" id="DejaVuSans-48"/>
      <path d="M 45.40625 27.984375 
Q 45.40625 37.75 41.375 43.109375 
Q 37.359375 48.484375 30.078125 48.484375 
Q 22.859375 48.484375 18.828125 43.109375 
Q 14.796875 37.75 14.796875 27.984375 
Q 14.796875 18.265625 18.828125 12.890625 
Q 22.859375 7.515625 30.078125 7.515625 
Q 37.359375 7.515625 41.375 12.890625 
Q 45.40625 18.265625 45.40625 27.984375 
z
M 54.390625 6.78125 
Q 54.390625 -7.171875 48.1875 -13.984375 
Q 42 -20.796875 29.203125 -20.796875 
Q 24.46875 -20.796875 20.265625 -20.09375 
Q 16.0625 -19.390625 12.109375 -17.921875 
L 12.109375 -9.1875 
Q 16.0625 -11.328125 19.921875 -12.34375 
Q 23.78125 -13.375 27.78125 -13.375 
Q 36.625 -13.375 41.015625 -8.765625 
Q 45.40625 -4.15625 45.40625 5.171875 
L 45.40625 9.625 
Q 42.625 4.78125 38.28125 2.390625 
Q 33.9375 0 27.875 0 
Q 17.828125 0 11.671875 7.65625 
Q 5.515625 15.328125 5.515625 27.984375 
Q 5.515625 40.671875 11.671875 48.328125 
Q 17.828125 56 27.875 56 
Q 33.9375 56 38.28125 53.609375 
Q 42.625 51.21875 45.40625 46.390625 
L 45.40625 54.6875 
L 54.390625 54.6875 
z
" id="DejaVuSans-67"/>
      <path d="M 54.890625 33.015625 
L 54.890625 0 
L 45.90625 0 
L 45.90625 32.71875 
Q 45.90625 40.484375 42.875 44.328125 
Q 39.84375 48.1875 33.796875 48.1875 
Q 26.515625 48.1875 22.3125 43.546875 
Q 18.109375 38.921875 18.109375 30.90625 
L 18.109375 0 
L 9.078125 0 
L 9.078125 75.984375 
L 18.109375 75.984375 
L 18.109375 46.1875 
Q 21.34375 51.125 25.703125 53.5625 
Q 30.078125 56 35.796875 56 
Q 45.21875 56 50.046875 50.171875 
Q 54.890625 44.34375 54.890625 33.015625 
z
" id="DejaVuSans-68"/>
      <path d="M 41.109375 46.296875 
Q 39.59375 47.171875 37.8125 47.578125 
Q 36.03125 48 33.890625 48 
Q 26.265625 48 22.1875 43.046875 
Q 18.109375 38.09375 18.109375 28.8125 
L 18.109375 0 
L 9.078125 0 
L 9.078125 54.6875 
L 18.109375 54.6875 
L 18.109375 46.1875 
Q 20.953125 51.171875 25.484375 53.578125 
Q 30.03125 56 36.53125 56 
Q 37.453125 56 38.578125 55.875 
Q 39.703125 55.765625 41.0625 55.515625 
z
" id="DejaVuSans-72"/>
     </defs>
     <g transform="translate(25.432812 218.025656)rotate(-90)scale(0.1 -0.1)">
      <use xlink:href="#DejaVuSans-20"/>
      <use x="31.787109" xlink:href="#DejaVuSans-48"/>
      <use x="106.982422" xlink:href="#DejaVuSans-65"/>
      <use x="168.505859" xlink:href="#DejaVuSans-69"/>
      <use x="196.289062" xlink:href="#DejaVuSans-67"/>
      <use x="259.765625" xlink:href="#DejaVuSans-68"/>
      <use x="323.144531" xlink:href="#DejaVuSans-74"/>
      <use x="362.353516" xlink:href="#DejaVuSans-20"/>
      <use x="394.140625" xlink:href="#DejaVuSans-69"/>
      <use x="421.923828" xlink:href="#DejaVuSans-6e"/>
      <use x="485.302734" xlink:href="#DejaVuSans-20"/>
      <use x="517.089844" xlink:href="#DejaVuSans-6d"/>
      <use x="614.501953" xlink:href="#DejaVuSans-65"/>
      <use x="676.025391" xlink:href="#DejaVuSans-74"/>
      <use x="715.234375" xlink:href="#DejaVuSans-65"/>
      <use x="776.757812" xlink:href="#DejaVuSans-72"/>
      <use x="817.871094" xlink:href="#DejaVuSans-73"/>
     </g>
    </g>
   </g>
   <g id="line2d_12">
    <path clip-path="url(#p469b116a62)" d="M 73.832727 288.605487 
L 76.49383 287.180253 
L 79.154933 289.523554 
L 81.816036 294.699183 
L 84.477139 287.343695 
L 87.138241 288.223992 
L 89.799344 292.111129 
L 92.460447 288.653227 
L 95.12155 289.340791 
L 97.782653 289.220526 
L 100.443756 286.153498 
L 103.104858 289.423709 
L 105.765961 290.677389 
L 108.427064 286.084579 
L 111.088167 288.616274 
L 113.74927 278.847863 
L 116.410373 280.760999 
L 119.071475 275.203593 
L 121.732578 275.735348 
L 124.393681 269.526936 
L 127.054784 263.470982 
L 129.715887 257.432602 
L 132.37699 246.08112 
L 135.038092 244.654422 
L 137.699195 232.604786 
L 140.360298 219.393343 
L 143.021401 215.147244 
L 145.682504 193.538941 
L 148.343607 187.601476 
L 151.004709 173.279938 
L 153.665812 168.628404 
L 156.326915 159.238417 
L 158.988018 141.649344 
L 161.649121 138.860699 
L 164.310224 122.10455 
L 166.971326 104.294213 
L 169.632429 84.393385 
L 172.293532 68.251374 
L 174.954635 53.568 
L 177.615738 60.137036 
L 180.276841 57.912029 
L 182.937943 62.615388 
L 185.599046 64.099627 
L 188.260149 71.836244 
L 190.921252 78.534501 
L 193.582355 77.8673 
L 196.243458 77.619448 
L 198.90456 84.278584 
L 201.565663 83.137367 
L 204.226766 82.51292 
L 206.887869 86.205042 
L 209.548972 84.630055 
L 212.210075 89.302348 
L 214.871177 87.167018 
L 217.53228 91.691106 
L 220.193383 84.363924 
L 222.854486 87.391747 
L 225.515589 89.592532 
L 228.176692 91.10933 
L 230.837794 91.366814 
L 233.498897 86.279961 
L 236.16 96.03798 
L 238.821103 89.438272 
L 241.482206 89.596982 
L 244.143308 90.265366 
L 246.804411 85.756261 
L 249.465514 84.377584 
L 252.126617 88.477423 
L 254.78772 90.376871 
L 257.448823 90.221654 
L 260.109925 91.73372 
L 262.771028 86.595212 
L 265.432131 87.986535 
L 268.093234 90.62123 
L 270.754337 89.48528 
L 273.41544 86.865624 
L 276.076542 87.875593 
L 278.737645 89.559241 
L 281.398748 87.247176 
L 284.059851 84.911537 
L 286.720954 82.655013 
L 289.382057 81.682532 
L 292.043159 74.905271 
L 294.704262 74.760644 
L 297.365365 69.907054 
L 300.026468 64.163562 
L 302.687571 57.316706 
L 305.348674 58.492116 
L 308.009776 67.775611 
L 310.670879 87.004872 
L 313.331982 101.297654 
L 315.993085 108.384363 
L 318.654188 123.852583 
L 321.315291 143.784195 
L 323.976393 164.148225 
L 326.637496 177.663342 
L 329.298599 191.463912 
L 331.959702 202.137885 
L 334.620805 227.301851 
L 337.281908 230.014084 
L 339.94301 241.991984 
L 342.604113 245.177643 
L 345.265216 259.192239 
L 347.926319 267.299507 
L 350.587422 264.304046 
L 353.248525 275.705183 
L 355.909627 279.933145 
L 358.57073 282.151195 
L 361.231833 285.202591 
L 363.892936 285.582932 
L 366.554039 286.01042 
L 369.215142 288.3838 
L 371.876244 290.930396 
L 374.537347 292.876907 
L 377.19845 295.253892 
L 379.859553 295.488 
L 382.520656 286.103027 
L 385.181759 288.203939 
L 387.842861 292.699608 
L 390.503964 290.532875 
L 393.165067 290.580671 
L 395.82617 288.388419 
L 398.487273 293.072597 
" style="fill:none;stroke:#1f77b4;stroke-linecap:square;stroke-width:1.5;"/>
   </g>
   <g id="line2d_13">
    <path clip-path="url(#p469b116a62)" d="M 73.832727 292.448108 
L 76.49383 292.424036 
L 79.154933 292.392277 
L 81.816036 292.365837 
L 84.477139 292.224993 
L 87.138241 292.080643 
L 89.799344 291.816835 
L 92.460447 290.947092 
L 95.12155 290.500178 
L 97.782653 289.925156 
L 100.443756 290.021291 
L 103.104858 289.91463 
L 105.765961 289.624174 
L 108.427064 288.504669 
L 111.088167 287.595689 
L 113.74927 286.940132 
L 116.410373 284.139114 
L 119.071475 279.142389 
L 121.732578 276.418169 
L 124.393681 273.480854 
L 127.054784 266.569882 
L 129.715887 257.897074 
L 132.37699 250.17464 
L 135.038092 243.189703 
L 137.699195 235.252369 
L 140.360298 221.759835 
L 143.021401 214.786068 
L 145.682504 200.531263 
L 148.343607 192.409098 
L 151.004709 182.159189 
L 153.665812 171.06632 
L 156.326915 162.378737 
L 158.988018 148.570673 
L 161.649121 143.298256 
L 164.310224 126.287828 
L 166.971326 106.990906 
L 169.632429 92.895653 
L 172.293532 75.971889 
L 174.954635 63.449082 
L 177.615738 61.056355 
L 180.276841 63.657811 
L 182.937943 69.411027 
L 185.599046 74.403934 
L 188.260149 78.017863 
L 190.921252 81.890945 
L 193.582355 86.072933 
L 196.243458 88.393641 
L 198.90456 90.664767 
L 201.565663 91.522537 
L 204.226766 92.429256 
L 206.887869 93.126526 
L 209.548972 93.536222 
L 212.210075 93.78907 
L 214.871177 93.94537 
L 217.53228 93.961788 
L 220.193383 93.975112 
L 222.854486 94.113041 
L 225.515589 94.046877 
L 228.176692 93.975994 
L 230.837794 94.055126 
L 233.498897 94.341964 
L 236.16 95.895402 
L 238.821103 96.773064 
L 241.482206 95.551696 
L 244.143308 95.105617 
L 246.804411 94.298253 
L 249.465514 94.008529 
L 252.126617 94.067963 
L 254.78772 94.168594 
L 257.448823 94.273742 
L 260.109925 94.900302 
L 262.771028 95.320891 
L 265.432131 96.328725 
L 268.093234 95.012018 
L 270.754337 94.903623 
L 273.41544 93.944776 
L 276.076542 93.47012 
L 278.737645 92.841546 
L 281.398748 91.906075 
L 284.059851 90.17132 
L 286.720954 87.769921 
L 289.382057 86.168318 
L 292.043159 83.46648 
L 294.704262 79.754707 
L 297.365365 74.516062 
L 300.026468 69.015384 
L 302.687571 64.407841 
L 305.348674 63.547295 
L 308.009776 71.746503 
L 310.670879 91.865645 
L 313.331982 108.508721 
L 315.993085 119.906662 
L 318.654188 132.890117 
L 321.315291 151.055869 
L 323.976393 168.965014 
L 326.637496 181.460446 
L 329.298599 195.267109 
L 331.959702 210.982964 
L 334.620805 230.437941 
L 337.281908 237.763811 
L 339.94301 245.688149 
L 342.604113 246.662699 
L 345.265216 260.256177 
L 347.926319 265.329511 
L 350.587422 270.941271 
L 353.248525 276.638383 
L 355.909627 279.555269 
L 358.57073 283.822037 
L 361.231833 286.583559 
L 363.892936 287.132536 
L 366.554039 289.200098 
L 369.215142 290.11648 
L 371.876244 290.550379 
L 374.537347 290.956142 
L 377.19845 290.640646 
L 379.859553 290.850874 
L 382.520656 291.369551 
L 385.181759 291.607045 
L 387.842861 291.624336 
L 390.503964 292.012866 
L 393.165067 292.127035 
L 395.82617 292.183151 
L 398.487273 292.207611 
" style="fill:none;stroke:#ff7f0e;stroke-linecap:square;stroke-width:1.5;"/>
   </g>
   <g id="line2d_14">
    <path clip-path="url(#p469b116a62)" d="M 73.832727 291.130818 
L 76.49383 291.106881 
L 79.154933 291.075051 
L 81.816036 291.049503 
L 84.477139 290.953954 
L 87.138241 290.845529 
L 89.799344 290.61581 
L 92.460447 289.851447 
L 95.12155 289.458539 
L 97.782653 288.975844 
L 100.443756 289.225608 
L 103.104858 289.220957 
L 105.765961 288.992826 
L 108.427064 288.086508 
L 111.088167 287.461124 
L 113.74927 287.175736 
L 116.410373 284.767133 
L 119.071475 280.468829 
L 121.732578 278.37544 
L 124.393681 276.04094 
L 127.054784 269.946182 
L 129.715887 261.575046 
L 132.37699 254.943118 
L 135.038092 248.358875 
L 137.699195 240.17222 
L 140.360298 226.693207 
L 143.021401 220.125521 
L 145.682504 205.759837 
L 148.343607 197.772612 
L 151.004709 188.309181 
L 153.665812 178.218011 
L 156.326915 169.492056 
L 158.988018 157.678075 
L 161.649121 155.205303 
L 164.310224 138.454238 
L 166.971326 117.285296 
L 169.632429 101.459204 
L 172.293532 82.039709 
L 174.954635 65.182789 
L 177.615738 59.831568 
L 180.276841 60.920576 
L 182.937943 66.829957 
L 185.599046 71.981649 
L 188.260149 75.554341 
L 190.921252 79.315461 
L 193.582355 83.13499 
L 196.243458 84.854748 
L 198.90456 86.590149 
L 201.565663 87.126453 
L 204.226766 87.762251 
L 206.887869 88.322484 
L 209.548972 88.658238 
L 212.210075 88.934075 
L 214.871177 89.463071 
L 217.53228 89.44609 
L 220.193383 89.778184 
L 222.854486 90.753021 
L 225.515589 90.51057 
L 228.176692 89.749237 
L 230.837794 90.443869 
L 233.498897 93.418484 
L 236.16 108.136094 
L 238.821103 114.030269 
L 241.482206 105.278287 
L 244.143308 100.299858 
L 246.804411 92.939278 
L 249.465514 89.629344 
L 252.126617 89.983781 
L 254.78772 91.320755 
L 257.448823 92.946958 
L 260.109925 98.833123 
L 262.771028 104.66276 
L 265.432131 113.303855 
L 268.093234 100.57808 
L 270.754337 99.780738 
L 273.41544 91.34301 
L 276.076542 89.536972 
L 278.737645 88.512491 
L 281.398748 87.621578 
L 284.059851 86.123988 
L 286.720954 84.074294 
L 289.382057 83.141122 
L 292.043159 80.812763 
L 294.704262 77.413709 
L 297.365365 72.387313 
L 300.026468 66.575127 
L 302.687571 62.91255 
L 305.348674 64.063238 
L 308.009776 78.00611 
L 310.670879 105.141558 
L 313.331982 125.01017 
L 315.993085 131.343313 
L 318.654188 142.742358 
L 321.315291 164.388881 
L 323.976393 183.490419 
L 326.637496 190.601136 
L 329.298599 201.331793 
L 331.959702 217.843582 
L 334.620805 237.86576 
L 337.281908 244.849114 
L 339.94301 251.722682 
L 342.604113 251.630516 
L 345.265216 264.656883 
L 347.926319 269.286263 
L 350.587422 274.325554 
L 353.248525 279.030135 
L 355.909627 281.380626 
L 358.57073 285.190114 
L 361.231833 287.352127 
L 363.892936 287.534547 
L 366.554039 289.118301 
L 369.215142 289.622766 
L 371.876244 289.887178 
L 374.537347 290.146693 
L 377.19845 289.770049 
L 379.859553 289.886567 
L 382.520656 290.260291 
L 385.181759 290.428411 
L 387.842861 290.441262 
L 390.503964 290.733394 
L 393.165067 290.818616 
L 395.82617 290.860861 
L 398.487273 290.885782 
" style="fill:none;stroke:#2ca02c;stroke-linecap:square;stroke-width:1.5;"/>
   </g>
   <g id="line2d_15">
    <path clip-path="url(#p469b116a62)" d="M 73.832727 291.130818 
L 76.49383 291.104095 
L 79.154933 291.073691 
L 81.816036 291.046238 
L 84.477139 290.896955 
L 87.138241 290.745187 
L 89.799344 290.47179 
L 92.460447 289.571169 
L 95.12155 289.108788 
L 97.782653 288.510543 
L 100.443756 288.5883 
L 103.104858 288.46627 
L 105.765961 288.162701 
L 108.427064 286.997447 
L 111.088167 286.037197 
L 113.74927 285.315725 
L 116.410373 282.413123 
L 119.071475 277.215036 
L 121.732578 274.362685 
L 124.393681 271.290534 
L 127.054784 264.145483 
L 129.715887 255.267325 
L 132.37699 247.259415 
L 135.038092 240.077149 
L 137.699195 231.993534 
L 140.360298 218.210935 
L 143.021401 211.040899 
L 145.682504 196.490762 
L 148.343607 188.19374 
L 151.004709 177.645014 
L 153.665812 166.210156 
L 156.326915 157.341048 
L 158.988018 143.011939 
L 161.649121 137.306485 
L 164.310224 119.889673 
L 166.971326 100.417298 
L 169.632429 86.245688 
L 172.293532 69.281196 
L 174.954635 56.989551 
L 177.615738 54.861817 
L 180.276841 57.682276 
L 182.937943 63.537168 
L 185.599046 68.617932 
L 188.260149 72.314794 
L 190.921252 76.279666 
L 193.582355 80.591423 
L 196.243458 83.036365 
L 198.90456 85.41706 
L 201.565663 86.331553 
L 204.226766 87.288808 
L 206.887869 88.018082 
L 209.548972 88.439619 
L 212.210075 88.688447 
L 214.871177 88.803828 
L 217.53228 88.809453 
L 220.193383 88.822226 
L 222.854486 88.855738 
L 225.515589 88.837201 
L 228.176692 88.82479 
L 230.837794 88.849744 
L 233.498897 88.911178 
L 236.16 89.359841 
L 238.821103 89.770299 
L 241.482206 89.274704 
L 244.143308 89.152466 
L 246.804411 88.90312 
L 249.465514 88.857078 
L 252.126617 88.880011 
L 254.78772 88.886062 
L 257.448823 88.878522 
L 260.109925 88.972702 
L 262.771028 89.104228 
L 265.432131 89.454753 
L 268.093234 89.06279 
L 270.754337 88.995619 
L 273.41544 88.666099 
L 276.076542 88.289477 
L 278.737645 87.678165 
L 281.398748 86.720097 
L 284.059851 84.927603 
L 286.720954 82.427216 
L 289.382057 80.713062 
L 292.043159 77.901758 
L 294.704262 74.068926 
L 297.365365 68.69563 
L 300.026468 63.116058 
L 302.687571 58.32096 
L 305.348674 57.231975 
L 308.009776 64.953894 
L 310.670879 84.684548 
L 313.331982 101.300734 
L 315.993085 113.402981 
L 318.654188 126.793093 
L 321.315291 145.037681 
L 323.976393 163.164147 
L 326.637496 176.481262 
L 329.298599 190.935668 
L 331.959702 206.919766 
L 334.620805 226.748505 
L 337.281908 234.275143 
L 339.94301 242.494769 
L 342.604113 243.625275 
L 345.265216 257.568749 
L 347.926319 262.800502 
L 350.587422 268.597617 
L 353.248525 274.530796 
L 355.909627 277.578754 
L 358.57073 281.983081 
L 361.231833 284.870301 
L 363.892936 285.478114 
L 366.554039 287.649823 
L 369.215142 288.639589 
L 371.876244 289.104982 
L 374.537347 289.538847 
L 377.19845 289.226136 
L 379.859553 289.453136 
L 382.520656 290.001411 
L 385.181759 290.253816 
L 387.842861 290.272311 
L 390.503964 290.681301 
L 393.165067 290.800291 
L 395.82617 290.860861 
L 398.487273 290.885782 
" style="fill:none;stroke:#d62728;stroke-linecap:square;stroke-width:1.5;"/>
   </g>
   <g id="patch_3">
    <path d="M 57.6 307.584 
L 57.6 41.472 
" style="fill:none;stroke:#000000;stroke-linecap:square;stroke-linejoin:miter;stroke-width:0.8;"/>
   </g>
   <g id="patch_4">
    <path d="M 414.72 307.584 
L 414.72 41.472 
" style="fill:none;stroke:#000000;stroke-linecap:square;stroke-linejoin:miter;stroke-width:0.8;"/>
   </g>
   <g id="patch_5">
    <path d="M 57.6 307.584 
L 414.72 307.584 
" style="fill:none;stroke:#000000;stroke-linecap:square;stroke-linejoin:miter;stroke-width:0.8;"/>
   </g>
   <g id="patch_6">
    <path d="M 57.6 41.472 
L 414.72 41.472 
" style="fill:none;stroke:#000000;stroke-linecap:square;stroke-linejoin:miter;stroke-width:0.8;"/>
   </g>
   <g id="text_14">
    <!-- Uncertainty in topography prediction  (cross section)   -->
    <defs>
     <path d="M 8.6875 72.90625 
L 18.609375 72.90625 
L 18.609375 28.609375 
Q 18.609375 16.890625 22.84375 11.734375 
Q 27.09375 6.59375 36.625 6.59375 
Q 46.09375 6.59375 50.34375 11.734375 
Q 54.59375 16.890625 54.59375 28.609375 
L 54.59375 72.90625 
L 64.5 72.90625 
L 64.5 27.390625 
Q 64.5 13.140625 57.4375 5.859375 
Q 50.390625 -1.421875 36.625 -1.421875 
Q 22.796875 -1.421875 15.734375 5.859375 
Q 8.6875 13.140625 8.6875 27.390625 
z
" id="DejaVuSans-55"/>
     <path d="M 32.171875 -5.078125 
Q 28.375 -14.84375 24.75 -17.8125 
Q 21.140625 -20.796875 15.09375 -20.796875 
L 7.90625 -20.796875 
L 7.90625 -13.28125 
L 13.1875 -13.28125 
Q 16.890625 -13.28125 18.9375 -11.515625 
Q 21 -9.765625 23.484375 -3.21875 
L 25.09375 0.875 
L 2.984375 54.6875 
L 12.5 54.6875 
L 29.59375 11.921875 
L 46.6875 54.6875 
L 56.203125 54.6875 
z
" id="DejaVuSans-79"/>
     <path d="M 30.609375 48.390625 
Q 23.390625 48.390625 19.1875 42.75 
Q 14.984375 37.109375 14.984375 27.296875 
Q 14.984375 17.484375 19.15625 11.84375 
Q 23.34375 6.203125 30.609375 6.203125 
Q 37.796875 6.203125 41.984375 11.859375 
Q 46.1875 17.53125 46.1875 27.296875 
Q 46.1875 37.015625 41.984375 42.703125 
Q 37.796875 48.390625 30.609375 48.390625 
z
M 30.609375 56 
Q 42.328125 56 49.015625 48.375 
Q 55.71875 40.765625 55.71875 27.296875 
Q 55.71875 13.875 49.015625 6.21875 
Q 42.328125 -1.421875 30.609375 -1.421875 
Q 18.84375 -1.421875 12.171875 6.21875 
Q 5.515625 13.875 5.515625 27.296875 
Q 5.515625 40.765625 12.171875 48.375 
Q 18.84375 56 30.609375 56 
z
" id="DejaVuSans-6f"/>
     <path d="M 18.109375 8.203125 
L 18.109375 -20.796875 
L 9.078125 -20.796875 
L 9.078125 54.6875 
L 18.109375 54.6875 
L 18.109375 46.390625 
Q 20.953125 51.265625 25.265625 53.625 
Q 29.59375 56 35.59375 56 
Q 45.5625 56 51.78125 48.09375 
Q 58.015625 40.1875 58.015625 27.296875 
Q 58.015625 14.40625 51.78125 6.484375 
Q 45.5625 -1.421875 35.59375 -1.421875 
Q 29.59375 -1.421875 25.265625 0.953125 
Q 20.953125 3.328125 18.109375 8.203125 
z
M 48.6875 27.296875 
Q 48.6875 37.203125 44.609375 42.84375 
Q 40.53125 48.484375 33.40625 48.484375 
Q 26.265625 48.484375 22.1875 42.84375 
Q 18.109375 37.203125 18.109375 27.296875 
Q 18.109375 17.390625 22.1875 11.75 
Q 26.265625 6.109375 33.40625 6.109375 
Q 40.53125 6.109375 44.609375 11.75 
Q 48.6875 17.390625 48.6875 27.296875 
z
" id="DejaVuSans-70"/>
     <path d="M 45.40625 46.390625 
L 45.40625 75.984375 
L 54.390625 75.984375 
L 54.390625 0 
L 45.40625 0 
L 45.40625 8.203125 
Q 42.578125 3.328125 38.25 0.953125 
Q 33.9375 -1.421875 27.875 -1.421875 
Q 17.96875 -1.421875 11.734375 6.484375 
Q 5.515625 14.40625 5.515625 27.296875 
Q 5.515625 40.1875 11.734375 48.09375 
Q 17.96875 56 27.875 56 
Q 33.9375 56 38.25 53.625 
Q 42.578125 51.265625 45.40625 46.390625 
z
M 14.796875 27.296875 
Q 14.796875 17.390625 18.875 11.75 
Q 22.953125 6.109375 30.078125 6.109375 
Q 37.203125 6.109375 41.296875 11.75 
Q 45.40625 17.390625 45.40625 27.296875 
Q 45.40625 37.203125 41.296875 42.84375 
Q 37.203125 48.484375 30.078125 48.484375 
Q 22.953125 48.484375 18.875 42.84375 
Q 14.796875 37.203125 14.796875 27.296875 
z
" id="DejaVuSans-64"/>
    </defs>
    <g transform="translate(73.5525 35.472)scale(0.12 -0.12)">
     <use xlink:href="#DejaVuSans-55"/>
     <use x="73.193359" xlink:href="#DejaVuSans-6e"/>
     <use x="136.572266" xlink:href="#DejaVuSans-63"/>
     <use x="191.552734" xlink:href="#DejaVuSans-65"/>
     <use x="253.076172" xlink:href="#DejaVuSans-72"/>
     <use x="294.189453" xlink:href="#DejaVuSans-74"/>
     <use x="333.398438" xlink:href="#DejaVuSans-61"/>
     <use x="394.677734" xlink:href="#DejaVuSans-69"/>
     <use x="422.460938" xlink:href="#DejaVuSans-6e"/>
     <use x="485.839844" xlink:href="#DejaVuSans-74"/>
     <use x="525.048828" xlink:href="#DejaVuSans-79"/>
     <use x="584.228516" xlink:href="#DejaVuSans-20"/>
     <use x="616.015625" xlink:href="#DejaVuSans-69"/>
     <use x="643.798828" xlink:href="#DejaVuSans-6e"/>
     <use x="707.177734" xlink:href="#DejaVuSans-20"/>
     <use x="738.964844" xlink:href="#DejaVuSans-74"/>
     <use x="778.173828" xlink:href="#DejaVuSans-6f"/>
     <use x="839.355469" xlink:href="#DejaVuSans-70"/>
     <use x="902.832031" xlink:href="#DejaVuSans-6f"/>
     <use x="964.013672" xlink:href="#DejaVuSans-67"/>
     <use x="1027.490234" xlink:href="#DejaVuSans-72"/>
     <use x="1068.603516" xlink:href="#DejaVuSans-61"/>
     <use x="1129.882812" xlink:href="#DejaVuSans-70"/>
     <use x="1193.359375" xlink:href="#DejaVuSans-68"/>
     <use x="1256.738281" xlink:href="#DejaVuSans-79"/>
     <use x="1315.917969" xlink:href="#DejaVuSans-20"/>
     <use x="1347.705078" xlink:href="#DejaVuSans-70"/>
     <use x="1411.181641" xlink:href="#DejaVuSans-72"/>
     <use x="1452.263672" xlink:href="#DejaVuSans-65"/>
     <use x="1513.787109" xlink:href="#DejaVuSans-64"/>
     <use x="1577.263672" xlink:href="#DejaVuSans-69"/>
     <use x="1605.046875" xlink:href="#DejaVuSans-63"/>
     <use x="1660.027344" xlink:href="#DejaVuSans-74"/>
     <use x="1699.236328" xlink:href="#DejaVuSans-69"/>
     <use x="1727.019531" xlink:href="#DejaVuSans-6f"/>
     <use x="1788.201172" xlink:href="#DejaVuSans-6e"/>
     <use x="1851.580078" xlink:href="#DejaVuSans-20"/>
     <use x="1883.367188" xlink:href="#DejaVuSans-20"/>
     <use x="1915.154297" xlink:href="#DejaVuSans-28"/>
     <use x="1954.167969" xlink:href="#DejaVuSans-63"/>
     <use x="2009.148438" xlink:href="#DejaVuSans-72"/>
     <use x="2050.230469" xlink:href="#DejaVuSans-6f"/>
     <use x="2111.412109" xlink:href="#DejaVuSans-73"/>
     <use x="2163.511719" xlink:href="#DejaVuSans-73"/>
     <use x="2215.611328" xlink:href="#DejaVuSans-20"/>
     <use x="2247.398438" xlink:href="#DejaVuSans-73"/>
     <use x="2299.498047" xlink:href="#DejaVuSans-65"/>
     <use x="2361.021484" xlink:href="#DejaVuSans-63"/>
     <use x="2416.001953" xlink:href="#DejaVuSans-74"/>
     <use x="2455.210938" xlink:href="#DejaVuSans-69"/>
     <use x="2482.994141" xlink:href="#DejaVuSans-6f"/>
     <use x="2544.175781" xlink:href="#DejaVuSans-6e"/>
     <use x="2607.554688" xlink:href="#DejaVuSans-29"/>
     <use x="2646.568359" xlink:href="#DejaVuSans-20"/>
     <use x="2678.355469" xlink:href="#DejaVuSans-20"/>
    </g>
   </g>
   <g id="legend_1">
    <g id="patch_7">
     <path d="M 277.843437 108.1845 
L 407.72 108.1845 
Q 409.72 108.1845 409.72 106.1845 
L 409.72 48.472 
Q 409.72 46.472 407.72 46.472 
L 277.843437 46.472 
Q 275.843437 46.472 275.843437 48.472 
L 275.843437 106.1845 
Q 275.843437 108.1845 277.843437 108.1845 
z
" style="fill:#ffffff;opacity:0.8;stroke:#cccccc;stroke-linejoin:miter;"/>
    </g>
    <g id="line2d_16">
     <path d="M 279.843437 54.570438 
L 299.843437 54.570438 
" style="fill:none;stroke:#1f77b4;stroke-linecap:square;stroke-width:1.5;"/>
    </g>
    <g id="line2d_17"/>
    <g id="text_15">
     <!-- ground truth -->
     <defs>
      <path d="M 8.5 21.578125 
L 8.5 54.6875 
L 17.484375 54.6875 
L 17.484375 21.921875 
Q 17.484375 14.15625 20.5 10.265625 
Q 23.53125 6.390625 29.59375 6.390625 
Q 36.859375 6.390625 41.078125 11.03125 
Q 45.3125 15.671875 45.3125 23.6875 
L 45.3125 54.6875 
L 54.296875 54.6875 
L 54.296875 0 
L 45.3125 0 
L 45.3125 8.40625 
Q 42.046875 3.421875 37.71875 1 
Q 33.40625 -1.421875 27.6875 -1.421875 
Q 18.265625 -1.421875 13.375 4.4375 
Q 8.5 10.296875 8.5 21.578125 
z
M 31.109375 56 
z
" id="DejaVuSans-75"/>
     </defs>
     <g transform="translate(307.843437 58.070438)scale(0.1 -0.1)">
      <use xlink:href="#DejaVuSans-67"/>
      <use x="63.476562" xlink:href="#DejaVuSans-72"/>
      <use x="104.558594" xlink:href="#DejaVuSans-6f"/>
      <use x="165.740234" xlink:href="#DejaVuSans-75"/>
      <use x="229.119141" xlink:href="#DejaVuSans-6e"/>
      <use x="292.498047" xlink:href="#DejaVuSans-64"/>
      <use x="355.974609" xlink:href="#DejaVuSans-20"/>
      <use x="387.761719" xlink:href="#DejaVuSans-74"/>
      <use x="426.970703" xlink:href="#DejaVuSans-72"/>
      <use x="468.083984" xlink:href="#DejaVuSans-75"/>
      <use x="531.462891" xlink:href="#DejaVuSans-74"/>
      <use x="570.671875" xlink:href="#DejaVuSans-68"/>
     </g>
    </g>
    <g id="line2d_18">
     <path d="M 279.843437 69.248563 
L 299.843437 69.248563 
" style="fill:none;stroke:#ff7f0e;stroke-linecap:square;stroke-width:1.5;"/>
    </g>
    <g id="line2d_19"/>
    <g id="text_16">
     <!-- pred. (mean) -->
     <g transform="translate(307.843437 72.748563)scale(0.1 -0.1)">
      <use xlink:href="#DejaVuSans-70"/>
      <use x="63.476562" xlink:href="#DejaVuSans-72"/>
      <use x="104.558594" xlink:href="#DejaVuSans-65"/>
      <use x="166.082031" xlink:href="#DejaVuSans-64"/>
      <use x="229.558594" xlink:href="#DejaVuSans-2e"/>
      <use x="261.345703" xlink:href="#DejaVuSans-20"/>
      <use x="293.132812" xlink:href="#DejaVuSans-28"/>
      <use x="332.146484" xlink:href="#DejaVuSans-6d"/>
      <use x="429.558594" xlink:href="#DejaVuSans-65"/>
      <use x="491.082031" xlink:href="#DejaVuSans-61"/>
      <use x="552.361328" xlink:href="#DejaVuSans-6e"/>
      <use x="615.740234" xlink:href="#DejaVuSans-29"/>
     </g>
    </g>
    <g id="line2d_20">
     <path d="M 279.843437 83.926688 
L 299.843437 83.926688 
" style="fill:none;stroke:#2ca02c;stroke-linecap:square;stroke-width:1.5;"/>
    </g>
    <g id="line2d_21"/>
    <g id="text_17">
     <!-- pred.(5th percen.) -->
     <g transform="translate(307.843437 87.426688)scale(0.1 -0.1)">
      <use xlink:href="#DejaVuSans-70"/>
      <use x="63.476562" xlink:href="#DejaVuSans-72"/>
      <use x="104.558594" xlink:href="#DejaVuSans-65"/>
      <use x="166.082031" xlink:href="#DejaVuSans-64"/>
      <use x="229.558594" xlink:href="#DejaVuSans-2e"/>
      <use x="261.345703" xlink:href="#DejaVuSans-28"/>
      <use x="300.359375" xlink:href="#DejaVuSans-35"/>
      <use x="363.982422" xlink:href="#DejaVuSans-74"/>
      <use x="403.191406" xlink:href="#DejaVuSans-68"/>
      <use x="466.570312" xlink:href="#DejaVuSans-20"/>
      <use x="498.357422" xlink:href="#DejaVuSans-70"/>
      <use x="561.833984" xlink:href="#DejaVuSans-65"/>
      <use x="623.357422" xlink:href="#DejaVuSans-72"/>
      <use x="664.439453" xlink:href="#DejaVuSans-63"/>
      <use x="719.419922" xlink:href="#DejaVuSans-65"/>
      <use x="780.943359" xlink:href="#DejaVuSans-6e"/>
      <use x="844.322266" xlink:href="#DejaVuSans-2e"/>
      <use x="876.109375" xlink:href="#DejaVuSans-29"/>
     </g>
    </g>
    <g id="line2d_22">
     <path d="M 279.843437 98.604813 
L 299.843437 98.604813 
" style="fill:none;stroke:#d62728;stroke-linecap:square;stroke-width:1.5;"/>
    </g>
    <g id="line2d_23"/>
    <g id="text_18">
     <!-- pred.(95th percen.) -->
     <defs>
      <path d="M 10.984375 1.515625 
L 10.984375 10.5 
Q 14.703125 8.734375 18.5 7.8125 
Q 22.3125 6.890625 25.984375 6.890625 
Q 35.75 6.890625 40.890625 13.453125 
Q 46.046875 20.015625 46.78125 33.40625 
Q 43.953125 29.203125 39.59375 26.953125 
Q 35.25 24.703125 29.984375 24.703125 
Q 19.046875 24.703125 12.671875 31.3125 
Q 6.296875 37.9375 6.296875 49.421875 
Q 6.296875 60.640625 12.9375 67.421875 
Q 19.578125 74.21875 30.609375 74.21875 
Q 43.265625 74.21875 49.921875 64.515625 
Q 56.59375 54.828125 56.59375 36.375 
Q 56.59375 19.140625 48.40625 8.859375 
Q 40.234375 -1.421875 26.421875 -1.421875 
Q 22.703125 -1.421875 18.890625 -0.6875 
Q 15.09375 0.046875 10.984375 1.515625 
z
M 30.609375 32.421875 
Q 37.25 32.421875 41.125 36.953125 
Q 45.015625 41.5 45.015625 49.421875 
Q 45.015625 57.28125 41.125 61.84375 
Q 37.25 66.40625 30.609375 66.40625 
Q 23.96875 66.40625 20.09375 61.84375 
Q 16.21875 57.28125 16.21875 49.421875 
Q 16.21875 41.5 20.09375 36.953125 
Q 23.96875 32.421875 30.609375 32.421875 
z
" id="DejaVuSans-39"/>
     </defs>
     <g transform="translate(307.843437 102.104813)scale(0.1 -0.1)">
      <use xlink:href="#DejaVuSans-70"/>
      <use x="63.476562" xlink:href="#DejaVuSans-72"/>
      <use x="104.558594" xlink:href="#DejaVuSans-65"/>
      <use x="166.082031" xlink:href="#DejaVuSans-64"/>
      <use x="229.558594" xlink:href="#DejaVuSans-2e"/>
      <use x="261.345703" xlink:href="#DejaVuSans-28"/>
      <use x="300.359375" xlink:href="#DejaVuSans-39"/>
      <use x="363.982422" xlink:href="#DejaVuSans-35"/>
      <use x="427.605469" xlink:href="#DejaVuSans-74"/>
      <use x="466.814453" xlink:href="#DejaVuSans-68"/>
      <use x="530.193359" xlink:href="#DejaVuSans-20"/>
      <use x="561.980469" xlink:href="#DejaVuSans-70"/>
      <use x="625.457031" xlink:href="#DejaVuSans-65"/>
      <use x="686.980469" xlink:href="#DejaVuSans-72"/>
      <use x="728.0625" xlink:href="#DejaVuSans-63"/>
      <use x="783.042969" xlink:href="#DejaVuSans-65"/>
      <use x="844.566406" xlink:href="#DejaVuSans-6e"/>
      <use x="907.945312" xlink:href="#DejaVuSans-2e"/>
      <use x="939.732422" xlink:href="#DejaVuSans-29"/>
     </g>
    </g>
   </g>
  </g>
 </g>
 <defs>
  <clipPath id="p469b116a62">
   <rect height="266.112" width="357.12" x="57.6" y="41.472"/>
  </clipPath>
 </defs>
</svg>
